G04 ================== begin FILE IDENTIFICATION RECORD ==================*
G04 Layout Name:  C:/Users/adamf/Desktop/TDP4/allegro/datalogger.brd*
G04 Film Name:    BOT_SILKSCREEN*
G04 File Format:  Gerber RS274X*
G04 File Origin:  Cadence Allegro -unreleased*
G04 Origin Date:  Tue Mar 23 01:06:12 2021*
G04 *
G04 Layer:  USER PART NUMBER/SILKSCREEN_BOTTOM*
G04 Layer:  TOLERANCE/SILKSCREEN_BOTTOM*
G04 Layer:  REF DES/SILKSCREEN_BOTTOM*
G04 Layer:  PACKAGE GEOMETRY/SILKSCREEN_BOTTOM*
G04 Layer:  DEVICE TYPE/SILKSCREEN_BOTTOM*
G04 Layer:  COMPONENT VALUE/SILKSCREEN_BOTTOM*
G04 Layer:  BOARD GEOMETRY/SILKSCREEN_BOTTOM*
G04 *
G04 Offset:    (0.00 0.00)*
G04 Mirror:    No*
G04 Mode:      Positive*
G04 Rotation:  0*
G04 FullContactRelief:  No*
G04 UndefLineWidth:     5.00*
G04 ================== end FILE IDENTIFICATION RECORD ====================*
%FSLAX25Y25*MOIN*%
%IR0*IPPOS*OFA0.00000B0.00000*MIA0B0*SFA1.00000B1.00000*%
%ADD10C,.005*%
%ADD11C,.006*%
%ADD12C,.00472*%
%ADD13C,.00591*%
%ADD14C,.00984*%
%ADD15C,.00787*%
G75*
%LPD*%
G75*
G36*
G01X-134580Y77220D02*
X-90890D01*
X-85750Y69980D01*
X-83720Y67120D01*
X-81890Y64520D01*
X-80350Y62340D01*
G02X-79810Y61580I-73534J-52820D01*
G01X-79010Y60420D01*
X-88240D01*
X-91320Y64940D01*
G03X-92600Y66810I-313923J-213505D01*
G03X-93920Y68700I-331818J-230340D01*
G03X-95090Y70370I-296819J-206706D01*
G03X-95850Y71420I-51841J-36723D01*
G01X-97310Y73390D01*
X-105600Y73410D01*
X-113900Y73440D01*
Y60420D01*
X-123140D01*
Y72900D01*
X-126390Y73170D01*
G02X-128920Y73550I1624J19423D01*
G02X-131150Y74250I2933J13245D01*
G02X-132900Y75180I3787J9237D01*
G02X-133980Y76280I2072J3115D01*
G01X-134580Y77220D01*
G37*
G36*
G01X-135100Y88500D02*
G02X-131870Y88680I6950J-95641D01*
G02X-126730Y88800I7093J-193679D01*
G02X-117240Y88890I23227J-1948829D01*
G01X-99370Y89010D01*
X-95980Y84270D01*
X-92580Y79530D01*
X-101420Y79290D01*
X-102630Y80670D01*
G02X-103180Y81330I18397J15890D01*
G02X-103850Y82170I46345J37653D01*
G02X-104530Y83050I48897J38487D01*
G02X-105110Y83840I29331J22142D01*
G01X-106380Y85620D01*
X-115960D01*
G03X-122140Y85560I138J-332497D01*
G03X-125530Y85330I664J-34884D01*
G03X-127640Y84890I1331J-11664D01*
G03X-129000Y84100I1040J-3356D01*
G03X-129260Y83710I681J-736D01*
G03X-129270Y83300I618J-220D01*
G03X-129000Y82710I2197J649D01*
G03X-128260Y81620I26740J17357D01*
G02X-127750Y80880I-40395J-28385D01*
G02X-127310Y80220I-23865J-16386D01*
G02X-126960Y79650I-44995J-28021D01*
G02X-126920Y79520I-208J-135D01*
G02X-127000Y79440I-82J2D01*
G02X-128260Y79380I-8874J173093D01*
G02X-129740Y79330I-2593J54821D01*
G02X-131500Y79320I-1497J108657D01*
G01X-136070D01*
X-137380Y81350D01*
G02X-137880Y82200I11057J7076D01*
G02X-138300Y83060I10454J5638D01*
G02X-138600Y83820I9264J4096D01*
G02X-138680Y84310I1413J482D01*
G02X-138500Y85410I3485J-6D01*
G02X-137980Y86530I5044J-1661D01*
G02X-137210Y87500I4544J-2816D01*
G02X-136300Y88160I2556J-2566D01*
G02X-135100Y88500I1437J-2784D01*
G37*
G36*
G01X-93910Y89400D02*
X-78180Y89340D01*
G02X-64350Y89190I-3341J-945644D01*
G02X-57570Y88730I-1163J-67335D01*
G02X-53180Y87730I-2631J-21688D01*
G02X-49330Y85890I-5631J-16730D01*
G02X-47420Y84340I-5918J-9244D01*
G02X-45380Y82020I-19299J-19026D01*
G02X-42260Y77850I-87574J-68775D01*
G02X-35150Y67780I-2102165J-1491795D01*
G02X-34270Y66300I-8994J-6350D01*
G02X-33780Y64880I-5789J-2792D01*
G02X-33680Y63640I-4227J-965D01*
G02X-34000Y62680I-1970J123D01*
G02X-34690Y62040I-1686J1126D01*
G02X-36010Y61400I-5329J9310D01*
G02X-37720Y60830I-5519J13708D01*
G02X-39690Y60400I-5943J22500D01*
G02X-41600Y60190I-2623J15070D01*
G02X-44890Y60080I-5641J119470D01*
G02X-49280Y60050I-3463J185606D01*
G02X-54990Y60110I2645J523479D01*
G02X-67140Y60520I4830J323353D01*
G02X-72430Y61680I917J16825D01*
G02X-76220Y64330I3621J9214D01*
G02X-80930Y70340I48959J43219D01*
G02X-82620Y72800I340431J235684D01*
G02X-84050Y74910I182456J125194D01*
G02X-85280Y76770I794684J526854D01*
G02X-85340Y76960I285J195D01*
G02X-85240Y77070I107J3D01*
G02X-82570Y77140I24518J-884240D01*
G02X-79530Y77200I4985J-175549D01*
G02X-75920Y77220I3731J-347613D01*
G01X-66500D01*
X-65000Y75390D01*
G02X-64420Y74670I-26238J-21729D01*
G02X-63940Y74020I-16142J-12423D01*
G02X-63550Y73460I-23892J-17055D01*
G02X-63500Y73290I-252J-166D01*
G02X-63600Y73180I-109J-2D01*
G02X-64980Y73100I-7818J122926D01*
G02X-66620Y73040I-2608J48829D01*
G02X-68550Y73020I-1957J95728D01*
G01X-73610D01*
X-70620Y69140D01*
G03X-69390Y67610I35872J27579D01*
G03X-68180Y66240I26377J22077D01*
G03X-67110Y65150I23661J22157D01*
G03X-66510Y64740I1469J1505D01*
G03X-64680Y64330I1904J4208D01*
G03X-54610Y64220I19899J1360714D01*
G03X-44370Y64160I15796J1822042D01*
G03X-43010Y64560I-6J2531D01*
G03X-42860Y65070I-208J338D01*
G03X-43630Y66410I-11246J-5571D01*
G03X-45400Y68970I-59877J-39507D01*
G03X-51110Y76830I-3266222J-2366786D01*
G03X-55700Y82620I-74046J-53986D01*
G03X-58740Y84710I-5450J-4671D01*
G03X-63010Y85490I-4543J-12794D01*
G03X-75880Y85620I-12934J-643366D01*
G01X-90210D01*
X-92060Y87510D01*
X-93910Y89400D01*
G37*
G36*
G01X-10210Y88770D02*
G02X-9910Y88850I738J-2164D01*
G02X-9600Y88890I451J-2275D01*
G02X-9320I140J-1401D01*
G03X-8910Y88850I771J5779D01*
G03X-7760Y88790I12111J221077D01*
G03X-6400Y88720I10344J187729D01*
G03X-4910Y88660I11693J271851D01*
G01X-1130Y88510D01*
X970Y85550D01*
G03X2690Y83140I1031328J734233D01*
G03X4520Y80570I1327493J943321D01*
G03X6490Y77820I1516017J1083939D01*
G01X8630Y74860D01*
G02X12370Y69620I-642397J-462459D01*
G02X14000Y67150I-36700J-25992D01*
G02X14800Y65610I-10019J-6183D01*
G02X15040Y64410I-2817J-1187D01*
G02X14980Y63710I-4003J-9D01*
G02X14790Y63140I-2237J429D01*
G02X14470Y62630I-2034J921D01*
G02X13990Y62170I-2610J2243D01*
G02X11960Y61130I-3714J4748D01*
G02X9070Y60560I-4581J15617D01*
G02X4390Y60280I-5453J51892D01*
G02X-4700Y60210I-9308J618503D01*
G02X-12300Y60240I619J1119414D01*
G02X-16190Y60340I412J91757D01*
G02X-18730Y60580I1613J30631D01*
G02X-20870Y61010I2180J16391D01*
G02X-24260Y62110I9337J34550D01*
G02X-26460Y63310I3264J8601D01*
G02X-28330Y65110I6052J8159D01*
G02X-30660Y68250I38181J30767D01*
G03X-31460Y69430I-228808J-154263D01*
G01X-32990Y71640D01*
X-34780Y74240D01*
X-36640Y76940D01*
G02X-38480Y79610I480147J332857D01*
G02X-40200Y82150I385163J262672D01*
G02X-41640Y84300I375994J253386D01*
G02X-42310Y85340I24356J16427D01*
G03X-42760Y86080I-55431J-33201D01*
G03X-43250Y86850I-67703J-42543D01*
G03X-43710Y87550I-61090J-39644D01*
G03X-44040Y88040I-15233J-9903D01*
G01X-44700Y88980D01*
X-35150D01*
X-33120Y85720D01*
G03X-32150Y84210I63357J39633D01*
G03X-30880Y82320I157120J104206D01*
G03X-29560Y80370I163288J109112D01*
G03X-28370Y78690I95240J66200D01*
G02X-27110Y76930I-371475J-267273D01*
G02X-25540Y74720I-890931J-634586D01*
G02X-23940Y72460I-917557J-651295D01*
G02X-22560Y70490I-521868J-367041D01*
G03X-19400Y66230I76615J53530D01*
G03X-17600Y64930I3180J2506D01*
G03X-15090Y64470I2616J7196D01*
G03X-5810Y64410I9087J687805D01*
G03X170Y64430I313J800541D01*
G03X3540Y64520I-753J91329D01*
G03X5750Y64650I-3284J74676D01*
G03X6010Y64940I-26J285D01*
G03X5920Y65260I-643J-8D01*
G03X5400Y66140I-27825J-15848D01*
G03X4720Y67170I-22775J-14297D01*
G03X3930Y68300I-34812J-23496D01*
G01X-570Y74400D01*
G03X-4550Y79800I-2814691J-2070365D01*
G01X-7810Y84200D01*
G03X-9350Y86240I-153756J-114470D01*
G02X-10060Y87220I18720J14310D01*
G02X-10450Y87910I3777J2590D01*
G02X-10580Y88380I1381J635D01*
G02X-10450Y88650I283J30D01*
G02X-10210Y88770I654J-1008D01*
G37*
G54D10*
G01X-54025Y18439D02*
Y14798D01*
X-12096D01*
G01X-54025Y32416D02*
Y53282D01*
G01X-6978Y29857D02*
Y53282D01*
G01X-128693Y-53817D02*
X-128313Y-53567D01*
X-127870Y-53400D01*
X-127363D01*
X-126793Y-53650D01*
X-126350Y-54067D01*
X-126033Y-54567D01*
X-125780Y-55400D01*
X-125717Y-56150D01*
X-125843Y-56900D01*
X-126033Y-57400D01*
X-126413Y-57900D01*
X-126857Y-58233D01*
X-127300Y-58400D01*
X-127743D01*
X-128187Y-58233D01*
X-128567Y-57983D01*
X-128883Y-57650D01*
G01X-132400Y-58400D02*
Y-53400D01*
X-131640Y-54400D01*
G01Y-58400D02*
X-133160D01*
G01X-136423Y-57817D02*
X-136867Y-58233D01*
X-137373Y-58400D01*
X-137880Y-58233D01*
X-138323Y-57733D01*
X-138640Y-56983D01*
X-138767Y-56233D01*
Y-55317D01*
X-138640Y-54567D01*
X-138323Y-53900D01*
X-137943Y-53567D01*
X-137500Y-53400D01*
X-136993Y-53567D01*
X-136613Y-53900D01*
X-136360Y-54400D01*
X-136233Y-55067D01*
X-136360Y-55650D01*
X-136677Y-56233D01*
X-137057Y-56567D01*
X-137500Y-56650D01*
X-138007Y-56483D01*
X-138387Y-56067D01*
X-138767Y-55317D01*
G01X-108693Y-38517D02*
X-108313Y-38267D01*
X-107870Y-38100D01*
X-107363D01*
X-106793Y-38350D01*
X-106350Y-38767D01*
X-106033Y-39267D01*
X-105780Y-40100D01*
X-105717Y-40850D01*
X-105843Y-41600D01*
X-106033Y-42100D01*
X-106413Y-42600D01*
X-106857Y-42933D01*
X-107300Y-43100D01*
X-107743D01*
X-108187Y-42933D01*
X-108567Y-42683D01*
X-108883Y-42350D01*
G01X-112400Y-43100D02*
Y-38100D01*
X-111640Y-39100D01*
G01Y-43100D02*
X-113160D01*
G01X-117373D02*
X-117500Y-42017D01*
X-117690Y-41100D01*
X-117943Y-40267D01*
X-118260Y-39350D01*
X-118767Y-38100D01*
X-116233D01*
G01X-95617Y-81007D02*
X-95367Y-81387D01*
X-95200Y-81830D01*
Y-82337D01*
X-95450Y-82907D01*
X-95867Y-83350D01*
X-96367Y-83667D01*
X-97200Y-83920D01*
X-97950Y-83983D01*
X-98700Y-83857D01*
X-99200Y-83667D01*
X-99700Y-83287D01*
X-100033Y-82843D01*
X-100200Y-82400D01*
Y-81957D01*
X-100033Y-81513D01*
X-99783Y-81133D01*
X-99450Y-80817D01*
G01X-96033Y-78503D02*
X-95533Y-78123D01*
X-95283Y-77680D01*
X-95200Y-77173D01*
X-95367Y-76540D01*
X-95783Y-76097D01*
X-96283Y-75970D01*
X-96783Y-76033D01*
X-97200Y-76287D01*
X-98033Y-77553D01*
X-98617Y-78123D01*
X-99450Y-78503D01*
X-100200Y-78630D01*
Y-75970D01*
G01Y-72327D02*
X-99117Y-72200D01*
X-98200Y-72010D01*
X-97367Y-71757D01*
X-96450Y-71440D01*
X-95200Y-70933D01*
Y-73467D01*
G01X-114700Y-81967D02*
X-109700D01*
Y-80383D01*
X-109950Y-79877D01*
X-110283Y-79560D01*
X-110950Y-79433D01*
X-111617Y-79560D01*
X-112033Y-79940D01*
X-112283Y-80383D01*
Y-81967D01*
G01Y-80383D02*
X-114700Y-79433D01*
G01Y-75600D02*
X-109700D01*
X-110700Y-76360D01*
G01X-114700D02*
Y-74840D01*
G01X-110533Y-71703D02*
X-110033Y-71323D01*
X-109783Y-70880D01*
X-109700Y-70373D01*
X-109867Y-69740D01*
X-110283Y-69297D01*
X-110783Y-69170D01*
X-111283Y-69233D01*
X-111700Y-69487D01*
X-112533Y-70753D01*
X-113117Y-71323D01*
X-113950Y-71703D01*
X-114700Y-71830D01*
Y-69170D01*
G01X-94693Y-38817D02*
X-94313Y-38567D01*
X-93870Y-38400D01*
X-93363D01*
X-92793Y-38650D01*
X-92350Y-39067D01*
X-92033Y-39567D01*
X-91780Y-40400D01*
X-91717Y-41150D01*
X-91843Y-41900D01*
X-92033Y-42400D01*
X-92413Y-42900D01*
X-92857Y-43233D01*
X-93300Y-43400D01*
X-93743D01*
X-94187Y-43233D01*
X-94567Y-42983D01*
X-94883Y-42650D01*
G01X-98400Y-43400D02*
Y-38400D01*
X-97640Y-39400D01*
G01Y-43400D02*
X-99160D01*
G01X-102107Y-42650D02*
X-102487Y-43067D01*
X-102930Y-43317D01*
X-103500Y-43400D01*
X-104070Y-43233D01*
X-104513Y-42900D01*
X-104830Y-42317D01*
X-104893Y-41650D01*
X-104767Y-40983D01*
X-104450Y-40567D01*
X-104007Y-40233D01*
X-103563Y-40150D01*
X-103120Y-40233D01*
X-102550Y-40567D01*
X-102740Y-38400D01*
X-104450D01*
G01X-89093Y-87217D02*
X-88713Y-86967D01*
X-88270Y-86800D01*
X-87763D01*
X-87193Y-87050D01*
X-86750Y-87467D01*
X-86433Y-87967D01*
X-86180Y-88800D01*
X-86117Y-89550D01*
X-86243Y-90300D01*
X-86433Y-90800D01*
X-86813Y-91300D01*
X-87257Y-91633D01*
X-87700Y-91800D01*
X-88143D01*
X-88587Y-91633D01*
X-88967Y-91383D01*
X-89283Y-91050D01*
G01X-91597Y-87633D02*
X-91977Y-87133D01*
X-92420Y-86883D01*
X-92927Y-86800D01*
X-93560Y-86967D01*
X-94003Y-87383D01*
X-94130Y-87883D01*
X-94067Y-88383D01*
X-93813Y-88800D01*
X-92547Y-89633D01*
X-91977Y-90217D01*
X-91597Y-91050D01*
X-91470Y-91800D01*
X-94130D01*
G01X-97900D02*
X-98343Y-91717D01*
X-98850Y-91467D01*
X-99167Y-91050D01*
X-99293Y-90467D01*
X-99167Y-89883D01*
X-98787Y-89383D01*
X-98217Y-89133D01*
X-97583D01*
X-97203Y-88967D01*
X-96887Y-88550D01*
X-96760Y-87967D01*
X-96950Y-87383D01*
X-97393Y-86967D01*
X-97900Y-86800D01*
X-98407Y-86967D01*
X-98850Y-87383D01*
X-99040Y-87967D01*
X-98913Y-88550D01*
X-98597Y-88967D01*
X-98217Y-89133D01*
X-97583D01*
X-97013Y-89383D01*
X-96633Y-89883D01*
X-96507Y-90467D01*
X-96633Y-91050D01*
X-96950Y-91467D01*
X-97457Y-91717D01*
X-97900Y-91800D01*
G01X-83900Y-77417D02*
X-88900D01*
Y-74883D01*
G01Y-71177D02*
X-87817Y-71050D01*
X-86900Y-70860D01*
X-86067Y-70607D01*
X-85150Y-70290D01*
X-83900Y-69783D01*
Y-72317D01*
G01X-89917Y-80407D02*
X-89667Y-80787D01*
X-89500Y-81230D01*
Y-81737D01*
X-89750Y-82307D01*
X-90167Y-82750D01*
X-90667Y-83067D01*
X-91500Y-83320D01*
X-92250Y-83383D01*
X-93000Y-83257D01*
X-93500Y-83067D01*
X-94000Y-82687D01*
X-94333Y-82243D01*
X-94500Y-81800D01*
Y-81357D01*
X-94333Y-80913D01*
X-94083Y-80533D01*
X-93750Y-80217D01*
G01X-90333Y-77903D02*
X-89833Y-77523D01*
X-89583Y-77080D01*
X-89500Y-76573D01*
X-89667Y-75940D01*
X-90083Y-75497D01*
X-90583Y-75370D01*
X-91083Y-75433D01*
X-91500Y-75687D01*
X-92333Y-76953D01*
X-92917Y-77523D01*
X-93750Y-77903D01*
X-94500Y-78030D01*
Y-75370D01*
G01X-92417Y-72803D02*
X-91833Y-72360D01*
X-91500Y-71980D01*
X-91333Y-71473D01*
X-91500Y-71030D01*
X-91833Y-70713D01*
X-92333Y-70460D01*
X-92917Y-70397D01*
X-93417Y-70460D01*
X-93917Y-70713D01*
X-94333Y-71093D01*
X-94500Y-71537D01*
X-94333Y-72043D01*
X-93833Y-72487D01*
X-93083Y-72740D01*
X-92250Y-72803D01*
X-91167Y-72677D01*
X-90583Y-72487D01*
X-90000Y-72170D01*
X-89583Y-71727D01*
X-89500Y-71283D01*
X-89667Y-70840D01*
X-90083Y-70523D01*
G01X-90983Y-40193D02*
X-91233Y-39813D01*
X-91400Y-39370D01*
Y-38863D01*
X-91150Y-38293D01*
X-90733Y-37850D01*
X-90233Y-37533D01*
X-89400Y-37280D01*
X-88650Y-37217D01*
X-87900Y-37343D01*
X-87400Y-37533D01*
X-86900Y-37913D01*
X-86567Y-38357D01*
X-86400Y-38800D01*
Y-39243D01*
X-86567Y-39687D01*
X-86817Y-40067D01*
X-87150Y-40383D01*
G01X-86400Y-43900D02*
X-91400D01*
X-90400Y-43140D01*
G01X-86400D02*
Y-44660D01*
G01Y-49000D02*
X-91400D01*
X-90400Y-48240D01*
G01X-86400D02*
Y-49760D01*
G01Y-54860D02*
X-91400D01*
X-87817Y-52517D01*
Y-55683D01*
G01X-58893Y-87417D02*
X-58513Y-87167D01*
X-58070Y-87000D01*
X-57563D01*
X-56993Y-87250D01*
X-56550Y-87667D01*
X-56233Y-88167D01*
X-55980Y-89000D01*
X-55917Y-89750D01*
X-56043Y-90500D01*
X-56233Y-91000D01*
X-56613Y-91500D01*
X-57057Y-91833D01*
X-57500Y-92000D01*
X-57943D01*
X-58387Y-91833D01*
X-58767Y-91583D01*
X-59083Y-91250D01*
G01X-61397Y-87833D02*
X-61777Y-87333D01*
X-62220Y-87083D01*
X-62727Y-87000D01*
X-63360Y-87167D01*
X-63803Y-87583D01*
X-63930Y-88083D01*
X-63867Y-88583D01*
X-63613Y-89000D01*
X-62347Y-89833D01*
X-61777Y-90417D01*
X-61397Y-91250D01*
X-61270Y-92000D01*
X-63930D01*
G01X-66307Y-91250D02*
X-66687Y-91667D01*
X-67130Y-91917D01*
X-67700Y-92000D01*
X-68270Y-91833D01*
X-68713Y-91500D01*
X-69030Y-90917D01*
X-69093Y-90250D01*
X-68967Y-89583D01*
X-68650Y-89167D01*
X-68207Y-88833D01*
X-67763Y-88750D01*
X-67320Y-88833D01*
X-66750Y-89167D01*
X-66940Y-87000D01*
X-68650D01*
G01X-75450Y-97300D02*
Y-95050D01*
X-74183Y-92300D01*
G01X-76717D02*
X-75450Y-95050D01*
G01X-79347Y-93133D02*
X-79727Y-92633D01*
X-80170Y-92383D01*
X-80677Y-92300D01*
X-81310Y-92467D01*
X-81753Y-92883D01*
X-81880Y-93383D01*
X-81817Y-93883D01*
X-81563Y-94300D01*
X-80297Y-95133D01*
X-79727Y-95717D01*
X-79347Y-96550D01*
X-79220Y-97300D01*
X-81880D01*
G01X-78100Y-37883D02*
X-83100D01*
Y-39467D01*
X-82850Y-39973D01*
X-82517Y-40290D01*
X-81850Y-40417D01*
X-81183Y-40290D01*
X-80767Y-39910D01*
X-80517Y-39467D01*
Y-37883D01*
G01Y-39467D02*
X-78100Y-40417D01*
G01X-78683Y-43173D02*
X-78267Y-43617D01*
X-78100Y-44123D01*
X-78267Y-44630D01*
X-78767Y-45073D01*
X-79517Y-45390D01*
X-80267Y-45517D01*
X-81183D01*
X-81933Y-45390D01*
X-82600Y-45073D01*
X-82933Y-44693D01*
X-83100Y-44250D01*
X-82933Y-43743D01*
X-82600Y-43363D01*
X-82100Y-43110D01*
X-81433Y-42983D01*
X-80850Y-43110D01*
X-80267Y-43427D01*
X-79933Y-43807D01*
X-79850Y-44250D01*
X-80017Y-44757D01*
X-80433Y-45137D01*
X-81183Y-45517D01*
G01X-73417Y-41507D02*
X-73167Y-41887D01*
X-73000Y-42330D01*
Y-42837D01*
X-73250Y-43407D01*
X-73667Y-43850D01*
X-74167Y-44167D01*
X-75000Y-44420D01*
X-75750Y-44483D01*
X-76500Y-44357D01*
X-77000Y-44167D01*
X-77500Y-43787D01*
X-77833Y-43343D01*
X-78000Y-42900D01*
Y-42457D01*
X-77833Y-42013D01*
X-77583Y-41633D01*
X-77250Y-41317D01*
G01X-78000Y-37800D02*
X-73000D01*
X-74000Y-38560D01*
G01X-78000D02*
Y-37040D01*
G01X-75917Y-33903D02*
X-75333Y-33460D01*
X-75000Y-33080D01*
X-74833Y-32573D01*
X-75000Y-32130D01*
X-75333Y-31813D01*
X-75833Y-31560D01*
X-76417Y-31497D01*
X-76917Y-31560D01*
X-77417Y-31813D01*
X-77833Y-32193D01*
X-78000Y-32637D01*
X-77833Y-33143D01*
X-77333Y-33587D01*
X-76583Y-33840D01*
X-75750Y-33903D01*
X-74667Y-33777D01*
X-74083Y-33587D01*
X-73500Y-33270D01*
X-73083Y-32827D01*
X-73000Y-32383D01*
X-73167Y-31940D01*
X-73583Y-31623D01*
G01X-56693Y-68217D02*
X-56313Y-67967D01*
X-55870Y-67800D01*
X-55363D01*
X-54793Y-68050D01*
X-54350Y-68467D01*
X-54033Y-68967D01*
X-53780Y-69800D01*
X-53717Y-70550D01*
X-53843Y-71300D01*
X-54033Y-71800D01*
X-54413Y-72300D01*
X-54857Y-72633D01*
X-55300Y-72800D01*
X-55743D01*
X-56187Y-72633D01*
X-56567Y-72383D01*
X-56883Y-72050D01*
G01X-60400Y-72800D02*
Y-67800D01*
X-59640Y-68800D01*
G01Y-72800D02*
X-61160D01*
G01X-66260D02*
Y-67800D01*
X-63917Y-71383D01*
X-67083D01*
G01X-59517Y-41707D02*
X-59267Y-42087D01*
X-59100Y-42530D01*
Y-43037D01*
X-59350Y-43607D01*
X-59767Y-44050D01*
X-60267Y-44367D01*
X-61100Y-44620D01*
X-61850Y-44683D01*
X-62600Y-44557D01*
X-63100Y-44367D01*
X-63600Y-43987D01*
X-63933Y-43543D01*
X-64100Y-43100D01*
Y-42657D01*
X-63933Y-42213D01*
X-63683Y-41833D01*
X-63350Y-41517D01*
G01X-64100Y-38000D02*
X-59100D01*
X-60100Y-38760D01*
G01X-64100D02*
Y-37240D01*
G01X-63100Y-34293D02*
X-63683Y-33913D01*
X-64017Y-33407D01*
X-64100Y-32837D01*
X-64017Y-32330D01*
X-63600Y-31823D01*
X-63100Y-31507D01*
X-62600Y-31443D01*
X-62017Y-31570D01*
X-61600Y-32013D01*
X-61433Y-32457D01*
Y-33027D01*
G01Y-32457D02*
X-61183Y-32077D01*
X-60767Y-31760D01*
X-60267Y-31633D01*
X-59767Y-31760D01*
X-59350Y-32077D01*
X-59100Y-32647D01*
X-59183Y-33217D01*
X-59517Y-33787D01*
G01X-13033Y-96300D02*
Y-91300D01*
X-14617D01*
X-15123Y-91550D01*
X-15440Y-91883D01*
X-15567Y-92550D01*
X-15440Y-93217D01*
X-15060Y-93633D01*
X-14617Y-93883D01*
X-13033D01*
G01X-14617D02*
X-15567Y-96300D01*
G01X-19273D02*
X-19400Y-95217D01*
X-19590Y-94300D01*
X-19843Y-93467D01*
X-20160Y-92550D01*
X-20667Y-91300D01*
X-18133D01*
G01X-24373Y-96300D02*
X-24500Y-95217D01*
X-24690Y-94300D01*
X-24943Y-93467D01*
X-25260Y-92550D01*
X-25767Y-91300D01*
X-23233D01*
G01X-13233Y-88900D02*
Y-83900D01*
X-14817D01*
X-15323Y-84150D01*
X-15640Y-84483D01*
X-15767Y-85150D01*
X-15640Y-85817D01*
X-15260Y-86233D01*
X-14817Y-86483D01*
X-13233D01*
G01X-14817D02*
X-15767Y-88900D01*
G01X-19473D02*
X-19600Y-87817D01*
X-19790Y-86900D01*
X-20043Y-86067D01*
X-20360Y-85150D01*
X-20867Y-83900D01*
X-18333D01*
G01X-24700Y-88900D02*
X-25143Y-88817D01*
X-25650Y-88567D01*
X-25967Y-88150D01*
X-26093Y-87567D01*
X-25967Y-86983D01*
X-25587Y-86483D01*
X-25017Y-86233D01*
X-24383D01*
X-24003Y-86067D01*
X-23687Y-85650D01*
X-23560Y-85067D01*
X-23750Y-84483D01*
X-24193Y-84067D01*
X-24700Y-83900D01*
X-25207Y-84067D01*
X-25650Y-84483D01*
X-25840Y-85067D01*
X-25713Y-85650D01*
X-25397Y-86067D01*
X-25017Y-86233D01*
X-24383D01*
X-23813Y-86483D01*
X-23433Y-86983D01*
X-23307Y-87567D01*
X-23433Y-88150D01*
X-23750Y-88567D01*
X-24257Y-88817D01*
X-24700Y-88900D01*
G01X-13133Y-81500D02*
Y-76500D01*
X-14717D01*
X-15223Y-76750D01*
X-15540Y-77083D01*
X-15667Y-77750D01*
X-15540Y-78417D01*
X-15160Y-78833D01*
X-14717Y-79083D01*
X-13133D01*
G01X-14717D02*
X-15667Y-81500D01*
G01X-19373D02*
X-19500Y-80417D01*
X-19690Y-79500D01*
X-19943Y-78667D01*
X-20260Y-77750D01*
X-20767Y-76500D01*
X-18233D01*
G01X-23397Y-79417D02*
X-23840Y-78833D01*
X-24220Y-78500D01*
X-24727Y-78333D01*
X-25170Y-78500D01*
X-25487Y-78833D01*
X-25740Y-79333D01*
X-25803Y-79917D01*
X-25740Y-80417D01*
X-25487Y-80917D01*
X-25107Y-81333D01*
X-24663Y-81500D01*
X-24157Y-81333D01*
X-23713Y-80833D01*
X-23460Y-80083D01*
X-23397Y-79250D01*
X-23523Y-78167D01*
X-23713Y-77583D01*
X-24030Y-77000D01*
X-24473Y-76583D01*
X-24917Y-76500D01*
X-25360Y-76667D01*
X-25677Y-77083D01*
G01X11167Y21100D02*
Y26100D01*
X9583D01*
X9077Y25850D01*
X8760Y25517D01*
X8633Y24850D01*
X8760Y24183D01*
X9140Y23767D01*
X9583Y23517D01*
X11167D01*
G01X9583D02*
X8633Y21100D01*
G01X4927D02*
X4800Y22183D01*
X4610Y23100D01*
X4357Y23933D01*
X4040Y24850D01*
X3533Y26100D01*
X6067D01*
G01X-300Y21100D02*
Y26100D01*
X460Y25100D01*
G01Y21100D02*
X-1060D01*
G01X11167D02*
Y26100D01*
X9583D01*
X9077Y25850D01*
X8760Y25517D01*
X8633Y24850D01*
X8760Y24183D01*
X9140Y23767D01*
X9583Y23517D01*
X11167D01*
G01X9583D02*
X8633Y21100D01*
G01X4927D02*
X4800Y22183D01*
X4610Y23100D01*
X4357Y23933D01*
X4040Y24850D01*
X3533Y26100D01*
X6067D01*
G01X-300Y21100D02*
Y26100D01*
X460Y25100D01*
G01Y21100D02*
X-1060D01*
G01X11167Y11600D02*
Y16600D01*
X9583D01*
X9077Y16350D01*
X8760Y16017D01*
X8633Y15350D01*
X8760Y14683D01*
X9140Y14267D01*
X9583Y14017D01*
X11167D01*
G01X9583D02*
X8633Y11600D01*
G01X4927D02*
X4800Y12683D01*
X4610Y13600D01*
X4357Y14433D01*
X4040Y15350D01*
X3533Y16600D01*
X6067D01*
G01X903Y15767D02*
X523Y16267D01*
X80Y16517D01*
X-427Y16600D01*
X-1060Y16433D01*
X-1503Y16017D01*
X-1630Y15517D01*
X-1567Y15017D01*
X-1313Y14600D01*
X-47Y13767D01*
X523Y13183D01*
X903Y12350D01*
X1030Y11600D01*
X-1630D01*
G01X11167D02*
Y16600D01*
X9583D01*
X9077Y16350D01*
X8760Y16017D01*
X8633Y15350D01*
X8760Y14683D01*
X9140Y14267D01*
X9583Y14017D01*
X11167D01*
G01X9583D02*
X8633Y11600D01*
G01X4927D02*
X4800Y12683D01*
X4610Y13600D01*
X4357Y14433D01*
X4040Y15350D01*
X3533Y16600D01*
X6067D01*
G01X903Y15767D02*
X523Y16267D01*
X80Y16517D01*
X-427Y16600D01*
X-1060Y16433D01*
X-1503Y16017D01*
X-1630Y15517D01*
X-1567Y15017D01*
X-1313Y14600D01*
X-47Y13767D01*
X523Y13183D01*
X903Y12350D01*
X1030Y11600D01*
X-1630D01*
G01X11767Y34100D02*
Y39100D01*
X10183D01*
X9677Y38850D01*
X9360Y38517D01*
X9233Y37850D01*
X9360Y37183D01*
X9740Y36767D01*
X10183Y36517D01*
X11767D01*
G01X10183D02*
X9233Y34100D01*
G01X5527D02*
X5400Y35183D01*
X5210Y36100D01*
X4957Y36933D01*
X4640Y37850D01*
X4133Y39100D01*
X6667D01*
G01X300D02*
X807Y38933D01*
X1187Y38517D01*
X1440Y38017D01*
X1630Y37350D01*
X1693Y36600D01*
X1630Y35850D01*
X1440Y35183D01*
X1187Y34683D01*
X807Y34267D01*
X300Y34100D01*
X-207Y34267D01*
X-587Y34683D01*
X-840Y35183D01*
X-1030Y35850D01*
X-1093Y36600D01*
X-1030Y37350D01*
X-840Y38017D01*
X-587Y38517D01*
X-207Y38933D01*
X300Y39100D01*
G01X26067Y-30600D02*
Y-25600D01*
X24483D01*
X23977Y-25850D01*
X23660Y-26183D01*
X23533Y-26850D01*
X23660Y-27517D01*
X24040Y-27933D01*
X24483Y-28183D01*
X26067D01*
G01X24483D02*
X23533Y-30600D01*
G01X21093Y-29850D02*
X20713Y-30267D01*
X20270Y-30517D01*
X19700Y-30600D01*
X19130Y-30433D01*
X18687Y-30100D01*
X18370Y-29517D01*
X18307Y-28850D01*
X18433Y-28183D01*
X18750Y-27767D01*
X19193Y-27433D01*
X19637Y-27350D01*
X20080Y-27433D01*
X20650Y-27767D01*
X20460Y-25600D01*
X18750D01*
G01X14600Y-30600D02*
X14157Y-30517D01*
X13650Y-30267D01*
X13333Y-29850D01*
X13207Y-29267D01*
X13333Y-28683D01*
X13713Y-28183D01*
X14283Y-27933D01*
X14917D01*
X15297Y-27767D01*
X15613Y-27350D01*
X15740Y-26767D01*
X15550Y-26183D01*
X15107Y-25767D01*
X14600Y-25600D01*
X14093Y-25767D01*
X13650Y-26183D01*
X13460Y-26767D01*
X13587Y-27350D01*
X13903Y-27767D01*
X14283Y-27933D01*
X14917D01*
X15487Y-28183D01*
X15867Y-28683D01*
X15993Y-29267D01*
X15867Y-29850D01*
X15550Y-30267D01*
X15043Y-30517D01*
X14600Y-30600D01*
G01X25867Y-38600D02*
Y-33600D01*
X24283D01*
X23777Y-33850D01*
X23460Y-34183D01*
X23333Y-34850D01*
X23460Y-35517D01*
X23840Y-35933D01*
X24283Y-36183D01*
X25867D01*
G01X24283D02*
X23333Y-38600D01*
G01X20893Y-37850D02*
X20513Y-38267D01*
X20070Y-38517D01*
X19500Y-38600D01*
X18930Y-38433D01*
X18487Y-38100D01*
X18170Y-37517D01*
X18107Y-36850D01*
X18233Y-36183D01*
X18550Y-35767D01*
X18993Y-35433D01*
X19437Y-35350D01*
X19880Y-35433D01*
X20450Y-35767D01*
X20260Y-33600D01*
X18550D01*
G01X15477Y-38017D02*
X15033Y-38433D01*
X14527Y-38600D01*
X14020Y-38433D01*
X13577Y-37933D01*
X13260Y-37183D01*
X13133Y-36433D01*
Y-35517D01*
X13260Y-34767D01*
X13577Y-34100D01*
X13957Y-33767D01*
X14400Y-33600D01*
X14907Y-33767D01*
X15287Y-34100D01*
X15540Y-34600D01*
X15667Y-35267D01*
X15540Y-35850D01*
X15223Y-36433D01*
X14843Y-36767D01*
X14400Y-36850D01*
X13893Y-36683D01*
X13513Y-36267D01*
X13133Y-35517D01*
G01X25867Y21100D02*
Y26100D01*
X24283D01*
X23777Y25850D01*
X23460Y25517D01*
X23333Y24850D01*
X23460Y24183D01*
X23840Y23767D01*
X24283Y23517D01*
X25867D01*
G01X24283D02*
X23333Y21100D01*
G01X19627D02*
X19500Y22183D01*
X19310Y23100D01*
X19057Y23933D01*
X18740Y24850D01*
X18233Y26100D01*
X20767D01*
G01X13640Y21100D02*
Y26100D01*
X15983Y22517D01*
X12817D01*
G01X26167Y33900D02*
Y38900D01*
X24583D01*
X24077Y38650D01*
X23760Y38317D01*
X23633Y37650D01*
X23760Y36983D01*
X24140Y36567D01*
X24583Y36317D01*
X26167D01*
G01X24583D02*
X23633Y33900D01*
G01X19927D02*
X19800Y34983D01*
X19610Y35900D01*
X19357Y36733D01*
X19040Y37650D01*
X18533Y38900D01*
X21067D01*
G01X16093Y34900D02*
X15713Y34317D01*
X15207Y33983D01*
X14637Y33900D01*
X14130Y33983D01*
X13623Y34400D01*
X13307Y34900D01*
X13243Y35400D01*
X13370Y35983D01*
X13813Y36400D01*
X14257Y36567D01*
X14827D01*
G01X14257D02*
X13877Y36817D01*
X13560Y37233D01*
X13433Y37733D01*
X13560Y38233D01*
X13877Y38650D01*
X14447Y38900D01*
X15017Y38817D01*
X15587Y38483D01*
G01X38593Y5600D02*
Y10600D01*
X37327D01*
X36820Y10350D01*
X36440Y10017D01*
X36123Y9517D01*
X35870Y8933D01*
X35807Y8100D01*
X35870Y7267D01*
X36123Y6683D01*
X36440Y6183D01*
X36820Y5850D01*
X37327Y5600D01*
X38593D01*
G01X33493Y6350D02*
X33113Y5933D01*
X32670Y5683D01*
X32100Y5600D01*
X31530Y5767D01*
X31087Y6100D01*
X30770Y6683D01*
X30707Y7350D01*
X30833Y8017D01*
X31150Y8433D01*
X31593Y8767D01*
X32037Y8850D01*
X32480Y8767D01*
X33050Y8433D01*
X32860Y10600D01*
X31150D01*
G01X63067Y-29400D02*
Y-24400D01*
X61483D01*
X60977Y-24650D01*
X60660Y-24983D01*
X60533Y-25650D01*
X60660Y-26317D01*
X61040Y-26733D01*
X61483Y-26983D01*
X63067D01*
G01X61483D02*
X60533Y-29400D01*
G01X57903Y-27317D02*
X57460Y-26733D01*
X57080Y-26400D01*
X56573Y-26233D01*
X56130Y-26400D01*
X55813Y-26733D01*
X55560Y-27233D01*
X55497Y-27817D01*
X55560Y-28317D01*
X55813Y-28817D01*
X56193Y-29233D01*
X56637Y-29400D01*
X57143Y-29233D01*
X57587Y-28733D01*
X57840Y-27983D01*
X57903Y-27150D01*
X57777Y-26067D01*
X57587Y-25483D01*
X57270Y-24900D01*
X56827Y-24483D01*
X56383Y-24400D01*
X55940Y-24567D01*
X55623Y-24983D01*
G01X52993Y-28650D02*
X52613Y-29067D01*
X52170Y-29317D01*
X51600Y-29400D01*
X51030Y-29233D01*
X50587Y-28900D01*
X50270Y-28317D01*
X50207Y-27650D01*
X50333Y-26983D01*
X50650Y-26567D01*
X51093Y-26233D01*
X51537Y-26150D01*
X51980Y-26233D01*
X52550Y-26567D01*
X52360Y-24400D01*
X50650D01*
G01X63067Y-24200D02*
Y-19200D01*
X61483D01*
X60977Y-19450D01*
X60660Y-19783D01*
X60533Y-20450D01*
X60660Y-21117D01*
X61040Y-21533D01*
X61483Y-21783D01*
X63067D01*
G01X61483D02*
X60533Y-24200D01*
G01X57903Y-22117D02*
X57460Y-21533D01*
X57080Y-21200D01*
X56573Y-21033D01*
X56130Y-21200D01*
X55813Y-21533D01*
X55560Y-22033D01*
X55497Y-22617D01*
X55560Y-23117D01*
X55813Y-23617D01*
X56193Y-24033D01*
X56637Y-24200D01*
X57143Y-24033D01*
X57587Y-23533D01*
X57840Y-22783D01*
X57903Y-21950D01*
X57777Y-20867D01*
X57587Y-20283D01*
X57270Y-19700D01*
X56827Y-19283D01*
X56383Y-19200D01*
X55940Y-19367D01*
X55623Y-19783D01*
G01X52803Y-22117D02*
X52360Y-21533D01*
X51980Y-21200D01*
X51473Y-21033D01*
X51030Y-21200D01*
X50713Y-21533D01*
X50460Y-22033D01*
X50397Y-22617D01*
X50460Y-23117D01*
X50713Y-23617D01*
X51093Y-24033D01*
X51537Y-24200D01*
X52043Y-24033D01*
X52487Y-23533D01*
X52740Y-22783D01*
X52803Y-21950D01*
X52677Y-20867D01*
X52487Y-20283D01*
X52170Y-19700D01*
X51727Y-19283D01*
X51283Y-19200D01*
X50840Y-19367D01*
X50523Y-19783D01*
G01X63067Y-34500D02*
Y-29500D01*
X61483D01*
X60977Y-29750D01*
X60660Y-30083D01*
X60533Y-30750D01*
X60660Y-31417D01*
X61040Y-31833D01*
X61483Y-32083D01*
X63067D01*
G01X61483D02*
X60533Y-34500D01*
G01X57903Y-32417D02*
X57460Y-31833D01*
X57080Y-31500D01*
X56573Y-31333D01*
X56130Y-31500D01*
X55813Y-31833D01*
X55560Y-32333D01*
X55497Y-32917D01*
X55560Y-33417D01*
X55813Y-33917D01*
X56193Y-34333D01*
X56637Y-34500D01*
X57143Y-34333D01*
X57587Y-33833D01*
X57840Y-33083D01*
X57903Y-32250D01*
X57777Y-31167D01*
X57587Y-30583D01*
X57270Y-30000D01*
X56827Y-29583D01*
X56383Y-29500D01*
X55940Y-29667D01*
X55623Y-30083D01*
G01X50840Y-34500D02*
Y-29500D01*
X53183Y-33083D01*
X50017D01*
G01X63067Y-39900D02*
Y-34900D01*
X61483D01*
X60977Y-35150D01*
X60660Y-35483D01*
X60533Y-36150D01*
X60660Y-36817D01*
X61040Y-37233D01*
X61483Y-37483D01*
X63067D01*
G01X61483D02*
X60533Y-39900D01*
G01X57903Y-37817D02*
X57460Y-37233D01*
X57080Y-36900D01*
X56573Y-36733D01*
X56130Y-36900D01*
X55813Y-37233D01*
X55560Y-37733D01*
X55497Y-38317D01*
X55560Y-38817D01*
X55813Y-39317D01*
X56193Y-39733D01*
X56637Y-39900D01*
X57143Y-39733D01*
X57587Y-39233D01*
X57840Y-38483D01*
X57903Y-37650D01*
X57777Y-36567D01*
X57587Y-35983D01*
X57270Y-35400D01*
X56827Y-34983D01*
X56383Y-34900D01*
X55940Y-35067D01*
X55623Y-35483D01*
G01X52993Y-38900D02*
X52613Y-39483D01*
X52107Y-39817D01*
X51537Y-39900D01*
X51030Y-39817D01*
X50523Y-39400D01*
X50207Y-38900D01*
X50143Y-38400D01*
X50270Y-37817D01*
X50713Y-37400D01*
X51157Y-37233D01*
X51727D01*
G01X51157D02*
X50777Y-36983D01*
X50460Y-36567D01*
X50333Y-36067D01*
X50460Y-35567D01*
X50777Y-35150D01*
X51347Y-34900D01*
X51917Y-34983D01*
X52487Y-35317D01*
G01X65657Y-14117D02*
X66037Y-13867D01*
X66480Y-13700D01*
X66987D01*
X67557Y-13950D01*
X68000Y-14367D01*
X68317Y-14867D01*
X68570Y-15700D01*
X68633Y-16450D01*
X68507Y-17200D01*
X68317Y-17700D01*
X67937Y-18200D01*
X67493Y-18533D01*
X67050Y-18700D01*
X66607D01*
X66163Y-18533D01*
X65783Y-18283D01*
X65467Y-17950D01*
G01X61950Y-18700D02*
Y-13700D01*
X62710Y-14700D01*
G01Y-18700D02*
X61190D01*
G01X56850D02*
Y-13700D01*
X57610Y-14700D01*
G01Y-18700D02*
X56090D01*
G01X53143Y-17700D02*
X52763Y-18283D01*
X52257Y-18617D01*
X51687Y-18700D01*
X51180Y-18617D01*
X50673Y-18200D01*
X50357Y-17700D01*
X50293Y-17200D01*
X50420Y-16617D01*
X50863Y-16200D01*
X51307Y-16033D01*
X51877D01*
G01X51307D02*
X50927Y-15783D01*
X50610Y-15367D01*
X50483Y-14867D01*
X50610Y-14367D01*
X50927Y-13950D01*
X51497Y-13700D01*
X52067Y-13783D01*
X52637Y-14117D01*
G01X63167Y-13100D02*
Y-8100D01*
X61583D01*
X61077Y-8350D01*
X60760Y-8683D01*
X60633Y-9350D01*
X60760Y-10017D01*
X61140Y-10433D01*
X61583Y-10683D01*
X63167D01*
G01X61583D02*
X60633Y-13100D01*
G01X58003Y-11017D02*
X57560Y-10433D01*
X57180Y-10100D01*
X56673Y-9933D01*
X56230Y-10100D01*
X55913Y-10433D01*
X55660Y-10933D01*
X55597Y-11517D01*
X55660Y-12017D01*
X55913Y-12517D01*
X56293Y-12933D01*
X56737Y-13100D01*
X57243Y-12933D01*
X57687Y-12433D01*
X57940Y-11683D01*
X58003Y-10850D01*
X57877Y-9767D01*
X57687Y-9183D01*
X57370Y-8600D01*
X56927Y-8183D01*
X56483Y-8100D01*
X56040Y-8267D01*
X55723Y-8683D01*
G01X51700Y-8100D02*
X52207Y-8267D01*
X52587Y-8683D01*
X52840Y-9183D01*
X53030Y-9850D01*
X53093Y-10600D01*
X53030Y-11350D01*
X52840Y-12017D01*
X52587Y-12517D01*
X52207Y-12933D01*
X51700Y-13100D01*
X51193Y-12933D01*
X50813Y-12517D01*
X50560Y-12017D01*
X50370Y-11350D01*
X50307Y-10600D01*
X50370Y-9850D01*
X50560Y-9183D01*
X50813Y-8683D01*
X51193Y-8267D01*
X51700Y-8100D01*
G01X86857Y-52217D02*
X87237Y-51967D01*
X87680Y-51800D01*
X88187D01*
X88757Y-52050D01*
X89200Y-52467D01*
X89517Y-52967D01*
X89770Y-53800D01*
X89833Y-54550D01*
X89707Y-55300D01*
X89517Y-55800D01*
X89137Y-56300D01*
X88693Y-56633D01*
X88250Y-56800D01*
X87807D01*
X87363Y-56633D01*
X86983Y-56383D01*
X86667Y-56050D01*
G01X83150Y-56800D02*
Y-51800D01*
X83910Y-52800D01*
G01Y-56800D02*
X82390D01*
G01X78050D02*
Y-51800D01*
X78810Y-52800D01*
G01Y-56800D02*
X77290D01*
G01X74153Y-52633D02*
X73773Y-52133D01*
X73330Y-51883D01*
X72823Y-51800D01*
X72190Y-51967D01*
X71747Y-52383D01*
X71620Y-52883D01*
X71683Y-53383D01*
X71937Y-53800D01*
X73203Y-54633D01*
X73773Y-55217D01*
X74153Y-56050D01*
X74280Y-56800D01*
X71620D01*
G01X89467Y-51300D02*
Y-46300D01*
X87883D01*
X87377Y-46550D01*
X87060Y-46883D01*
X86933Y-47550D01*
X87060Y-48217D01*
X87440Y-48633D01*
X87883Y-48883D01*
X89467D01*
G01X87883D02*
X86933Y-51300D01*
G01X84303Y-49217D02*
X83860Y-48633D01*
X83480Y-48300D01*
X82973Y-48133D01*
X82530Y-48300D01*
X82213Y-48633D01*
X81960Y-49133D01*
X81897Y-49717D01*
X81960Y-50217D01*
X82213Y-50717D01*
X82593Y-51133D01*
X83037Y-51300D01*
X83543Y-51133D01*
X83987Y-50633D01*
X84240Y-49883D01*
X84303Y-49050D01*
X84177Y-47967D01*
X83987Y-47383D01*
X83670Y-46800D01*
X83227Y-46383D01*
X82783Y-46300D01*
X82340Y-46467D01*
X82023Y-46883D01*
G01X78000Y-51300D02*
Y-46300D01*
X78760Y-47300D01*
G01Y-51300D02*
X77240D01*
G01X89467Y-46100D02*
Y-41100D01*
X87883D01*
X87377Y-41350D01*
X87060Y-41683D01*
X86933Y-42350D01*
X87060Y-43017D01*
X87440Y-43433D01*
X87883Y-43683D01*
X89467D01*
G01X87883D02*
X86933Y-46100D01*
G01X84303Y-44017D02*
X83860Y-43433D01*
X83480Y-43100D01*
X82973Y-42933D01*
X82530Y-43100D01*
X82213Y-43433D01*
X81960Y-43933D01*
X81897Y-44517D01*
X81960Y-45017D01*
X82213Y-45517D01*
X82593Y-45933D01*
X83037Y-46100D01*
X83543Y-45933D01*
X83987Y-45433D01*
X84240Y-44683D01*
X84303Y-43850D01*
X84177Y-42767D01*
X83987Y-42183D01*
X83670Y-41600D01*
X83227Y-41183D01*
X82783Y-41100D01*
X82340Y-41267D01*
X82023Y-41683D01*
G01X78000Y-46100D02*
X77557Y-46017D01*
X77050Y-45767D01*
X76733Y-45350D01*
X76607Y-44767D01*
X76733Y-44183D01*
X77113Y-43683D01*
X77683Y-43433D01*
X78317D01*
X78697Y-43267D01*
X79013Y-42850D01*
X79140Y-42267D01*
X78950Y-41683D01*
X78507Y-41267D01*
X78000Y-41100D01*
X77493Y-41267D01*
X77050Y-41683D01*
X76860Y-42267D01*
X76987Y-42850D01*
X77303Y-43267D01*
X77683Y-43433D01*
X78317D01*
X78887Y-43683D01*
X79267Y-44183D01*
X79393Y-44767D01*
X79267Y-45350D01*
X78950Y-45767D01*
X78443Y-46017D01*
X78000Y-46100D01*
G01X89367Y-38706D02*
Y-33706D01*
X87783D01*
X87277Y-33956D01*
X86960Y-34289D01*
X86833Y-34956D01*
X86960Y-35623D01*
X87340Y-36039D01*
X87783Y-36289D01*
X89367D01*
G01X87783D02*
X86833Y-38706D01*
G01X84393Y-37956D02*
X84013Y-38373D01*
X83570Y-38623D01*
X83000Y-38706D01*
X82430Y-38539D01*
X81987Y-38206D01*
X81670Y-37623D01*
X81607Y-36956D01*
X81733Y-36289D01*
X82050Y-35873D01*
X82493Y-35539D01*
X82937Y-35456D01*
X83380Y-35539D01*
X83950Y-35873D01*
X83760Y-33706D01*
X82050D01*
G01X79103Y-36623D02*
X78660Y-36039D01*
X78280Y-35706D01*
X77773Y-35539D01*
X77330Y-35706D01*
X77013Y-36039D01*
X76760Y-36539D01*
X76697Y-37123D01*
X76760Y-37623D01*
X77013Y-38123D01*
X77393Y-38539D01*
X77837Y-38706D01*
X78343Y-38539D01*
X78787Y-38039D01*
X79040Y-37289D01*
X79103Y-36456D01*
X78977Y-35373D01*
X78787Y-34789D01*
X78470Y-34206D01*
X78027Y-33789D01*
X77583Y-33706D01*
X77140Y-33873D01*
X76823Y-34289D01*
G01X89358Y-23995D02*
Y-18995D01*
X87774D01*
X87268Y-19245D01*
X86951Y-19578D01*
X86824Y-20245D01*
X86951Y-20912D01*
X87331Y-21328D01*
X87774Y-21578D01*
X89358D01*
G01X87774D02*
X86824Y-23995D01*
G01X84194Y-21912D02*
X83751Y-21328D01*
X83371Y-20995D01*
X82864Y-20828D01*
X82421Y-20995D01*
X82104Y-21328D01*
X81851Y-21828D01*
X81788Y-22412D01*
X81851Y-22912D01*
X82104Y-23412D01*
X82484Y-23828D01*
X82928Y-23995D01*
X83434Y-23828D01*
X83878Y-23328D01*
X84131Y-22578D01*
X84194Y-21745D01*
X84068Y-20662D01*
X83878Y-20078D01*
X83561Y-19495D01*
X83118Y-19078D01*
X82674Y-18995D01*
X82231Y-19162D01*
X81914Y-19578D01*
G01X78968Y-23412D02*
X78524Y-23828D01*
X78018Y-23995D01*
X77511Y-23828D01*
X77068Y-23328D01*
X76751Y-22578D01*
X76624Y-21828D01*
Y-20912D01*
X76751Y-20162D01*
X77068Y-19495D01*
X77448Y-19162D01*
X77891Y-18995D01*
X78398Y-19162D01*
X78778Y-19495D01*
X79031Y-19995D01*
X79158Y-20662D01*
X79031Y-21245D01*
X78714Y-21828D01*
X78334Y-22162D01*
X77891Y-22245D01*
X77384Y-22078D01*
X77004Y-21662D01*
X76624Y-20912D01*
G01X105267Y-67900D02*
Y-72900D01*
X102733D01*
G01X98900D02*
X98457Y-72817D01*
X97950Y-72567D01*
X97633Y-72150D01*
X97507Y-71567D01*
X97633Y-70983D01*
X98013Y-70483D01*
X98583Y-70233D01*
X99217D01*
X99597Y-70067D01*
X99913Y-69650D01*
X100040Y-69067D01*
X99850Y-68483D01*
X99407Y-68067D01*
X98900Y-67900D01*
X98393Y-68067D01*
X97950Y-68483D01*
X97760Y-69067D01*
X97887Y-69650D01*
X98203Y-70067D01*
X98583Y-70233D01*
X99217D01*
X99787Y-70483D01*
X100167Y-70983D01*
X100293Y-71567D01*
X100167Y-72150D01*
X99850Y-72567D01*
X99343Y-72817D01*
X98900Y-72900D01*
G01X111900Y-2667D02*
X116900D01*
Y-1083D01*
X116650Y-577D01*
X116317Y-260D01*
X115650Y-133D01*
X114983Y-260D01*
X114567Y-640D01*
X114317Y-1083D01*
Y-2667D01*
G01Y-1083D02*
X111900Y-133D01*
G01Y3573D02*
X112983Y3700D01*
X113900Y3890D01*
X114733Y4143D01*
X115650Y4460D01*
X116900Y4967D01*
Y2433D01*
G01X112483Y7723D02*
X112067Y8167D01*
X111900Y8673D01*
X112067Y9180D01*
X112567Y9623D01*
X113317Y9940D01*
X114067Y10067D01*
X114983D01*
X115733Y9940D01*
X116400Y9623D01*
X116733Y9243D01*
X116900Y8800D01*
X116733Y8293D01*
X116400Y7913D01*
X115900Y7660D01*
X115233Y7533D01*
X114650Y7660D01*
X114067Y7977D01*
X113733Y8357D01*
X113650Y8800D01*
X113817Y9307D01*
X114233Y9687D01*
X114983Y10067D01*
G54D11*
G01X-104250Y-44150D02*
Y-50600D01*
G01D02*
X-92750D01*
G01Y-44150D02*
X-104250D01*
G01X-85050Y-44050D02*
X-91500D01*
G01D02*
Y-55550D01*
G01D02*
X-85050D01*
G01D02*
Y-44050D01*
G01X-92750Y-50600D02*
Y-44150D01*
G01X-65850Y-29850D02*
X-72300D01*
G01D02*
Y-41350D01*
G01D02*
X-65850D01*
G01D02*
Y-29850D01*
G01X-12650Y-90350D02*
Y-96800D01*
G01D02*
X-1150D01*
G01D02*
Y-90350D01*
G01X-12750Y-82950D02*
Y-89400D01*
G01D02*
X-1250D01*
G01D02*
Y-82950D01*
G01D02*
X-12750D01*
G01X-1150Y-90350D02*
X-12650D01*
G01X-12750Y-75550D02*
Y-82000D01*
G01D02*
X-1250D01*
G01D02*
Y-75550D01*
G01D02*
X-12750D01*
G01X38150Y4350D02*
X31700D01*
G01D02*
Y-7150D01*
G01D02*
X38150D01*
G01D02*
Y4350D01*
G01X99250Y-61150D02*
Y-67600D01*
G01D02*
X110750D01*
G01D02*
Y-61150D01*
G01D02*
X99250D01*
G01Y-41250D02*
Y-47700D01*
G01D02*
X110750D01*
G01D02*
Y-41250D01*
G01D02*
X99250D01*
G01X99759Y-17855D02*
Y-24305D01*
G01D02*
X111259D01*
G01D02*
Y-17855D01*
G01D02*
X99759D01*
G01X103650Y-4650D02*
X110100D01*
G01D02*
Y6850D01*
G01D02*
X103650D01*
G01D02*
Y-4650D01*
G54D12*
G01X-117406Y-59673D02*
Y-61406D01*
X-115673D01*
G01X-126346Y-62553D02*
Y-66097D01*
G01X-119654Y-62553D02*
Y-66097D01*
G01X-117406Y-51327D02*
Y-49594D01*
X-115673D01*
G01X-105594Y-59673D02*
Y-61406D01*
X-107327D01*
G01X-105594Y-51327D02*
Y-49594D01*
X-107327D01*
G01X-79674Y-63557D02*
Y-66274D01*
X-76957D01*
G01X-79674Y-53243D02*
Y-50526D01*
X-76957D01*
G01X-63926Y-63557D02*
Y-66274D01*
X-66643D01*
G01X-63926Y-53243D02*
Y-50526D01*
X-66643D01*
G01X29317Y-20648D02*
Y10848D01*
X6483D01*
Y-20648D01*
X12861D01*
G01X22939D02*
X29317D01*
G01X18766D02*
X17034D01*
G01X45968Y-65515D02*
Y-67168D01*
X94000D01*
G01X45968Y-43625D02*
Y-36381D01*
G01Y-4176D02*
Y-5829D01*
G01X94000D02*
Y-4176D01*
X45968D01*
G01X94000Y-67168D02*
Y-65515D01*
G01Y-43625D02*
Y-36381D01*
G54D13*
G01X-85792Y-83480D02*
X-83430D01*
Y-80920D01*
G01X-72170D02*
Y-83480D01*
G54D14*
G01X-84721Y-90991D02*
G03I-492J0D01*
G54D15*
G01X-16820Y63912D02*
G03I-394J0D01*
M02*
