G04 ================== begin FILE IDENTIFICATION RECORD ==================*
G04 Layout Name:  C:/Users/adamf/Desktop/TDP4/allegro/datalogger.brd*
G04 Film Name:    BOT_SOLDERMASK*
G04 File Format:  Gerber RS274X*
G04 File Origin:  Cadence Allegro -unreleased*
G04 Origin Date:  Tue Mar 23 01:06:12 2021*
G04 *
G04 Layer:  VIA CLASS/SOLDERMASK_BOTTOM*
G04 Layer:  PIN/SOLDERMASK_BOTTOM*
G04 Layer:  DRC ERROR CLASS/SOLDERMASK_BOTTOM*
G04 *
G04 Offset:    (0.00 0.00)*
G04 Mirror:    No*
G04 Mode:      Positive*
G04 Rotation:  0*
G04 FullContactRelief:  No*
G04 UndefLineWidth:     5.00*
G04 ================== end FILE IDENTIFICATION RECORD ====================*
%FSLAX25Y25*MOIN*%
%IR0*IPPOS*OFA0.00000B0.00000*MIA0B0*SFA1.00000B1.00000*%
%ADD14O,.075X.12*%
%ADD15R,.075X.12*%
%AMMACRO23*
4,1,44,.01141,.00531,
.01141,-.00531,
.011338,-.006199,
.011108,-.007061,
.010732,-.007871,
.01022,-.008602,
.00959,-.009234,
.008859,-.009747,
.008051,-.010125,
.007189,-.010356,
.0063,-.010435,
.00629,-.01043,
-.00629,-.01043,
-.007179,-.010358,
-.008041,-.010128,
-.008851,-.009752,
-.009582,-.00924,
-.010214,-.00861,
-.010727,-.007879,
-.011105,-.007071,
-.011336,-.006209,
-.011415,-.00532,
-.01141,-.00531,
-.01141,.00531,
-.011338,.006199,
-.011108,.007061,
-.010732,.007871,
-.01022,.008602,
-.00959,.009234,
-.008859,.009747,
-.008051,.010125,
-.007189,.010356,
-.0063,.010435,
-.00629,.01043,
.00629,.01043,
.007179,.010358,
.008041,.010128,
.008851,.009752,
.009582,.00924,
.010214,.00861,
.010727,.007879,
.011105,.007071,
.011336,.006209,
.011415,.00532,
.01141,.00531,
0.0*
%
%ADD23MACRO23*%
%AMMACRO16*
4,1,44,.00531,-.01141,
-.00531,-.01141,
-.006199,-.011338,
-.007061,-.011108,
-.007871,-.010732,
-.008602,-.01022,
-.009234,-.00959,
-.009747,-.008859,
-.010125,-.008051,
-.010356,-.007189,
-.010435,-.0063,
-.01043,-.00629,
-.01043,.00629,
-.010358,.007179,
-.010128,.008041,
-.009752,.008851,
-.00924,.009582,
-.00861,.010214,
-.007879,.010727,
-.007071,.011105,
-.006209,.011336,
-.00532,.011415,
-.00531,.01141,
.00531,.01141,
.006199,.011338,
.007061,.011108,
.007871,.010732,
.008602,.01022,
.009234,.00959,
.009747,.008859,
.010125,.008051,
.010356,.007189,
.010435,.0063,
.01043,.00629,
.01043,-.00629,
.010358,-.007179,
.010128,-.008041,
.009752,-.008851,
.00924,-.009582,
.00861,-.010214,
.007879,-.010727,
.007071,-.011105,
.006209,-.011336,
.00532,-.011415,
.00531,-.01141,
0.0*
%
%ADD16MACRO16*%
%AMMACRO31*
4,1,44,.01121,-.00512,
-.01121,-.00512,
-.011689,-.005079,
-.012154,-.004955,
-.012591,-.004753,
-.012985,-.004477,
-.013326,-.004138,
-.013603,-.003744,
-.013807,-.003309,
-.013932,-.002844,
-.013975,-.002365,
-.01397,-.00236,
-.01397,.00236,
-.013933,.002839,
-.013809,.003304,
-.013605,.00374,
-.013329,.004134,
-.012989,.004474,
-.012595,.00475,
-.012159,.004954,
-.011694,.005078,
-.011215,.00512,
-.01121,.00512,
.01121,.00512,
.011689,.005079,
.012154,.004955,
.012591,.004753,
.012985,.004477,
.013326,.004138,
.013603,.003744,
.013807,.003309,
.013932,.002844,
.013975,.002365,
.01397,.00236,
.01397,-.00236,
.013933,-.002839,
.013809,-.003304,
.013605,-.00374,
.013329,-.004134,
.012989,-.004474,
.012595,-.00475,
.012159,-.004954,
.011694,-.005078,
.011215,-.00512,
.01121,-.00512,
0.0*
%
%ADD31MACRO31*%
%AMMACRO29*
4,1,44,.00512,.01121,
.00512,-.01121,
.005079,-.011689,
.004955,-.012154,
.004753,-.012591,
.004477,-.012985,
.004138,-.013326,
.003744,-.013603,
.003309,-.013807,
.002844,-.013932,
.002365,-.013975,
.00236,-.01397,
-.00236,-.01397,
-.002839,-.013933,
-.003304,-.013809,
-.00374,-.013605,
-.004134,-.013329,
-.004474,-.012989,
-.00475,-.012595,
-.004954,-.012159,
-.005078,-.011694,
-.00512,-.011215,
-.00512,-.01121,
-.00512,.01121,
-.005079,.011689,
-.004955,.012154,
-.004753,.012591,
-.004477,.012985,
-.004138,.013326,
-.003744,.013603,
-.003309,.013807,
-.002844,.013932,
-.002365,.013975,
-.00236,.01397,
.00236,.01397,
.002839,.013933,
.003304,.013809,
.00374,.013605,
.004134,.013329,
.004474,.012989,
.00475,.012595,
.004954,.012159,
.005078,.011694,
.00512,.011215,
.00512,.01121,
0.0*
%
%ADD29MACRO29*%
%ADD10C,.08583*%
%ADD11R,.00984X.02165*%
%AMMACRO36*
4,1,44,.00787,-.01141,
-.00787,-.01141,
-.008896,-.011325,
-.009891,-.011059,
-.010825,-.010623,
-.011669,-.010032,
-.012397,-.009304,
-.012988,-.00846,
-.013424,-.007526,
-.01369,-.006531,
-.01378,-.005505,
-.01378,-.0055,
-.01378,.0055,
-.013691,.006526,
-.013425,.007522,
-.012991,.008456,
-.012401,.0093,
-.011673,.010029,
-.010829,.010621,
-.009896,.011057,
-.008901,.011324,
-.007875,.011415,
-.00787,.01141,
.00787,.01141,
.008896,.011325,
.009891,.011059,
.010825,.010623,
.011669,.010032,
.012397,.009304,
.012988,.00846,
.013424,.007526,
.01369,.006531,
.01378,.005505,
.01378,.0055,
.01378,-.0055,
.013691,-.006526,
.013425,-.007522,
.012991,-.008456,
.012401,-.0093,
.011673,-.010029,
.010829,-.010621,
.009896,-.011057,
.008901,-.011324,
.007875,-.011415,
.00787,-.01141,
0.0*
%
%ADD36MACRO36*%
%AMMACRO18*
4,1,40,-.00492,-.01102,
-.00492,.01102,
-.004878,.011499,
-.004754,.011964,
-.00455,.0124,
-.004274,.012794,
-.003934,.013134,
-.00354,.01341,
-.003104,.013614,
-.002639,.013738,
-.00216,.01378,
.00216,.01378,
.002639,.013738,
.003104,.013614,
.00354,.01341,
.003934,.013134,
.004274,.012794,
.00455,.0124,
.004754,.011964,
.004878,.011499,
.00492,.01102,
.00492,-.01102,
.004878,-.011499,
.004754,-.011964,
.00455,-.0124,
.004274,-.012794,
.003934,-.013134,
.00354,-.01341,
.003104,-.013614,
.002639,-.013738,
.00216,-.01378,
-.00216,-.01378,
-.002639,-.013738,
-.003104,-.013614,
-.00354,-.01341,
-.003934,-.013134,
-.004274,-.012794,
-.00455,-.0124,
-.004754,-.011964,
-.004878,-.011499,
-.00492,-.01102,
0.0*
%
%ADD18MACRO18*%
%AMMACRO13*
4,1,40,-.01102,.00492,
.01102,.00492,
.011499,.004878,
.011964,.004754,
.0124,.00455,
.012794,.004274,
.013134,.003934,
.01341,.00354,
.013614,.003104,
.013738,.002639,
.01378,.00216,
.01378,-.00216,
.013738,-.002639,
.013614,-.003104,
.01341,-.00354,
.013134,-.003934,
.012794,-.004274,
.0124,-.00455,
.011964,-.004754,
.011499,-.004878,
.01102,-.00492,
-.01102,-.00492,
-.011499,-.004878,
-.011964,-.004754,
-.0124,-.00455,
-.012794,-.004274,
-.013134,-.003934,
-.01341,-.00354,
-.013614,-.003104,
-.013738,-.002639,
-.01378,-.00216,
-.01378,.00216,
-.013738,.002639,
-.013614,.003104,
-.01341,.00354,
-.013134,.003934,
-.012794,.004274,
-.0124,.00455,
-.011964,.004754,
-.011499,.004878,
-.01102,.00492,
0.0*
%
%ADD13MACRO13*%
%AMMACRO26*
4,1,32,-.04331,-.05118,
.04331,-.05118,
.044678,-.051059,
.046003,-.050703,
.047247,-.050122,
.048371,-.049334,
.049341,-.048362,
.050128,-.047237,
.050707,-.045992,
.051061,-.044666,
.05118,-.04331,
.05118,.04331,
.04331,.05118,
-.04331,.05118,
-.044678,.051059,
-.046003,.050703,
-.047247,.050122,
-.048371,.049334,
-.049341,.048362,
-.050128,.047237,
-.050707,.045992,
-.051061,.044666,
-.05118,.04331,
-.05118,-.04331,
-.051059,-.044678,
-.050703,-.046003,
-.050122,-.047247,
-.049334,-.048371,
-.048362,-.049341,
-.047237,-.050128,
-.045992,-.050707,
-.044666,-.051061,
-.04331,-.05118,
0.0*
%
%ADD26MACRO26*%
%ADD30C,.2*%
%ADD19R,.037X.043*%
%ADD24R,.043X.037*%
%ADD40O,.09X.075*%
%ADD41R,.09X.075*%
%ADD38R,.0315X.05512*%
%AMMACRO20*
4,1,5,-.03347,.03347,
.0256,.03347,
.03347,.0256,
.03347,-.03347,
-.03347,-.03347,
-.03347,.03347,
0.0*
%
%ADD20MACRO20*%
%ADD33R,.0315X.05906*%
%ADD25R,.04724X.05512*%
%AMMACRO12*
4,1,44,-.01141,-.00531,
-.01141,.00531,
-.011338,.006199,
-.011108,.007061,
-.010732,.007871,
-.01022,.008602,
-.00959,.009234,
-.008859,.009747,
-.008051,.010125,
-.007189,.010356,
-.0063,.010435,
-.00629,.01043,
.00629,.01043,
.007179,.010358,
.008041,.010128,
.008851,.009752,
.009582,.00924,
.010214,.00861,
.010727,.007879,
.011105,.007071,
.011336,.006209,
.011415,.00532,
.01141,.00531,
.01141,-.00531,
.011338,-.006199,
.011108,-.007061,
.010732,-.007871,
.01022,-.008602,
.00959,-.009234,
.008859,-.009747,
.008051,-.010125,
.007189,-.010356,
.0063,-.010435,
.00629,-.01043,
-.00629,-.01043,
-.007179,-.010358,
-.008041,-.010128,
-.008851,-.009752,
-.009582,-.00924,
-.010214,-.00861,
-.010727,-.007879,
-.011105,-.007071,
-.011336,-.006209,
-.011415,-.00532,
-.01141,-.00531,
0.0*
%
%ADD12MACRO12*%
%ADD44O,.07874X.0315*%
%ADD37R,.03937X.06102*%
%AMMACRO17*
4,1,44,-.00531,.01141,
.00531,.01141,
.006199,.011338,
.007061,.011108,
.007871,.010732,
.008602,.01022,
.009234,.00959,
.009747,.008859,
.010125,.008051,
.010356,.007189,
.010435,.0063,
.01043,.00629,
.01043,-.00629,
.010358,-.007179,
.010128,-.008041,
.009752,-.008851,
.00924,-.009582,
.00861,-.010214,
.007879,-.010727,
.007071,-.011105,
.006209,-.011336,
.00532,-.011415,
.00531,-.01141,
-.00531,-.01141,
-.006199,-.011338,
-.007061,-.011108,
-.007871,-.010732,
-.008602,-.01022,
-.009234,-.00959,
-.009747,-.008859,
-.010125,-.008051,
-.010356,-.007189,
-.010435,-.0063,
-.01043,-.00629,
-.01043,.00629,
-.010358,.007179,
-.010128,.008041,
-.009752,.008851,
-.00924,.009582,
-.00861,.010214,
-.007879,.010727,
-.007071,.011105,
-.006209,.011336,
-.00532,.011415,
-.00531,.01141,
0.0*
%
%ADD17MACRO17*%
%ADD35R,.0315X.0689*%
%ADD45R,.07874X.0315*%
%ADD34R,.05118X.05906*%
%AMMACRO28*
4,1,44,-.00512,-.01121,
-.00512,.01121,
-.005079,.011689,
-.004955,.012154,
-.004753,.012591,
-.004477,.012985,
-.004138,.013326,
-.003744,.013603,
-.003309,.013807,
-.002844,.013932,
-.002365,.013975,
-.00236,.01397,
.00236,.01397,
.002839,.013933,
.003304,.013809,
.00374,.013605,
.004134,.013329,
.004474,.012989,
.00475,.012595,
.004954,.012159,
.005078,.011694,
.00512,.011215,
.00512,.01121,
.00512,-.01121,
.005079,-.011689,
.004955,-.012154,
.004753,-.012591,
.004477,-.012985,
.004138,-.013326,
.003744,-.013603,
.003309,-.013807,
.002844,-.013932,
.002365,-.013975,
.00236,-.01397,
-.00236,-.01397,
-.002839,-.013933,
-.003304,-.013809,
-.00374,-.013605,
-.004134,-.013329,
-.004474,-.012989,
-.00475,-.012595,
-.004954,-.012159,
-.005078,-.011694,
-.00512,-.011215,
-.00512,-.01121,
0.0*
%
%ADD28MACRO28*%
%AMMACRO27*
4,1,44,-.01121,.00512,
.01121,.00512,
.011689,.005079,
.012154,.004955,
.012591,.004753,
.012985,.004477,
.013326,.004138,
.013603,.003744,
.013807,.003309,
.013932,.002844,
.013975,.002365,
.01397,.00236,
.01397,-.00236,
.013933,-.002839,
.013809,-.003304,
.013605,-.00374,
.013329,-.004134,
.012989,-.004474,
.012595,-.00475,
.012159,-.004954,
.011694,-.005078,
.011215,-.00512,
.01121,-.00512,
-.01121,-.00512,
-.011689,-.005079,
-.012154,-.004955,
-.012591,-.004753,
-.012985,-.004477,
-.013326,-.004138,
-.013603,-.003744,
-.013807,-.003309,
-.013932,-.002844,
-.013975,-.002365,
-.01397,-.00236,
-.01397,.00236,
-.013933,.002839,
-.013809,.003304,
-.013605,.00374,
-.013329,.004134,
-.012989,.004474,
-.012595,.00475,
-.012159,.004954,
-.011694,.005078,
-.011215,.00512,
-.01121,.00512,
0.0*
%
%ADD27MACRO27*%
%ADD39R,.05906X.05906*%
%AMMACRO43*
4,1,44,-.00787,.01141,
.00787,.01141,
.008896,.011325,
.009891,.011059,
.010825,.010623,
.011669,.010032,
.012397,.009304,
.012988,.00846,
.013424,.007526,
.01369,.006531,
.01378,.005505,
.01378,.0055,
.01378,-.0055,
.013691,-.006526,
.013425,-.007522,
.012991,-.008456,
.012401,-.0093,
.011673,-.010029,
.010829,-.010621,
.009896,-.011057,
.008901,-.011324,
.007875,-.011415,
.00787,-.01141,
-.00787,-.01141,
-.008896,-.011325,
-.009891,-.011059,
-.010825,-.010623,
-.011669,-.010032,
-.012397,-.009304,
-.012988,-.00846,
-.013424,-.007526,
-.01369,-.006531,
-.01378,-.005505,
-.01378,-.0055,
-.01378,.0055,
-.013691,.006526,
-.013425,.007522,
-.012991,.008456,
-.012401,.0093,
-.011673,.010029,
-.010829,.010621,
-.009896,.011057,
-.008901,.011324,
-.007875,.011415,
-.00787,.01141,
0.0*
%
%ADD43MACRO43*%
%ADD32R,.05709X.03937*%
%ADD42R,.02756X.07874*%
%AMMACRO22*
4,1,40,.01102,-.00492,
-.01102,-.00492,
-.011499,-.004878,
-.011964,-.004754,
-.0124,-.00455,
-.012794,-.004274,
-.013134,-.003934,
-.01341,-.00354,
-.013614,-.003104,
-.013738,-.002639,
-.01378,-.00216,
-.01378,.00216,
-.013738,.002639,
-.013614,.003104,
-.01341,.00354,
-.013134,.003934,
-.012794,.004274,
-.0124,.00455,
-.011964,.004754,
-.011499,.004878,
-.01102,.00492,
.01102,.00492,
.011499,.004878,
.011964,.004754,
.0124,.00455,
.012794,.004274,
.013134,.003934,
.01341,.00354,
.013614,.003104,
.013738,.002639,
.01378,.00216,
.01378,-.00216,
.013738,-.002639,
.013614,-.003104,
.01341,-.00354,
.013134,-.003934,
.012794,-.004274,
.0124,-.00455,
.011964,-.004754,
.011499,-.004878,
.01102,-.00492,
0.0*
%
%ADD22MACRO22*%
%AMMACRO21*
4,1,40,.00492,.01102,
.00492,-.01102,
.004878,-.011499,
.004754,-.011964,
.00455,-.0124,
.004274,-.012794,
.003934,-.013134,
.00354,-.01341,
.003104,-.013614,
.002639,-.013738,
.00216,-.01378,
-.00216,-.01378,
-.002639,-.013738,
-.003104,-.013614,
-.00354,-.01341,
-.003934,-.013134,
-.004274,-.012794,
-.00455,-.0124,
-.004754,-.011964,
-.004878,-.011499,
-.00492,-.01102,
-.00492,.01102,
-.004878,.011499,
-.004754,.011964,
-.00455,.0124,
-.004274,.012794,
-.003934,.013134,
-.00354,.01341,
-.003104,.013614,
-.002639,.013738,
-.00216,.01378,
.00216,.01378,
.002639,.013738,
.003104,.013614,
.00354,.01341,
.003934,.013134,
.004274,.012794,
.00455,.0124,
.004754,.011964,
.004878,.011499,
.00492,.01102,
0.0*
%
%ADD21MACRO21*%
%LPD*%
G75*
G54D10*
X-133000Y-93900D03*
Y-73900D03*
X-123000Y-83900D03*
X-113000Y-93900D03*
Y-73900D03*
X92000Y-93900D03*
Y-73900D03*
X102000Y-83900D03*
X112000Y-93900D03*
Y-73900D03*
G54D20*
X-111500Y-55500D03*
G54D11*
X-124969Y-65900D03*
X-123000D03*
X-121031D03*
Y-62750D03*
X-123000D03*
X-124969D03*
G54D21*
X-108547Y-49791D03*
X-110516D03*
X-112484D03*
X-114453D03*
G54D12*
X-122500Y-57609D03*
Y-53791D03*
X-101800Y-58409D03*
Y-54591D03*
X-87800Y-84109D03*
Y-80291D03*
X-83300Y-62209D03*
Y-58391D03*
X-87700Y-66009D03*
Y-62191D03*
X28700Y-37909D03*
Y-34091D03*
X100700Y-37915D03*
Y-34097D03*
G54D30*
X-48000Y-83900D03*
X62000D03*
X99000Y70000D03*
G54D22*
X-105791Y-58453D03*
Y-56484D03*
Y-54516D03*
Y-52547D03*
G54D40*
X17400Y-94500D03*
X7400D03*
X17400Y-84500D03*
X7400D03*
X17400Y-74500D03*
X7400D03*
X17400Y-64500D03*
X101600Y23500D03*
X91600D03*
X101600Y33500D03*
X91600D03*
X101600Y43500D03*
G54D13*
X-117209Y-52547D03*
Y-54516D03*
Y-56484D03*
Y-58453D03*
G54D31*
X-64320Y-62337D03*
Y-60369D03*
Y-58400D03*
Y-56431D03*
Y-54463D03*
G54D32*
X-52746Y22081D03*
G54D41*
X7400Y-64500D03*
X91600Y43500D03*
G54D23*
X-97600Y-63891D03*
Y-67709D03*
X-92700Y-63891D03*
Y-67709D03*
X-67800Y-80291D03*
Y-84109D03*
X28700Y-25991D03*
Y-29809D03*
X34400Y-9391D03*
Y-13209D03*
G54D14*
X-118600Y-31800D03*
Y-5800D03*
Y20200D03*
X-98600Y-31800D03*
X-108600D03*
X-98600Y-5800D03*
X-108600D03*
X-98600Y20200D03*
X-108600D03*
X42700Y75457D03*
X52700D03*
X62700D03*
G54D42*
X14947Y-16711D03*
X20853D03*
G54D33*
X-54025Y27987D03*
G54D24*
X-88300Y-52800D03*
Y-46800D03*
X-69100Y-38600D03*
Y-32600D03*
X34900Y-4400D03*
Y1600D03*
X106900Y4100D03*
Y-1900D03*
G54D15*
X-128600Y-31800D03*
Y-5800D03*
Y20200D03*
X72700Y75457D03*
G54D43*
X3750Y18900D03*
X7450D03*
X3650Y32000D03*
X7350D03*
X3650Y28200D03*
X7350D03*
X17850Y31900D03*
X21550D03*
X17850Y28200D03*
X21550D03*
G54D34*
X-53041Y57908D03*
G54D25*
X-73863Y-87121D03*
Y-77279D03*
X-81737D03*
Y-87121D03*
G54D16*
X-101691Y-64000D03*
X-105509D03*
X-110491Y-65300D03*
X-114309D03*
X-94491Y-58400D03*
X-98309D03*
X-75991Y-69900D03*
X-79809D03*
X-68791D03*
X-72609D03*
X-68009Y-46900D03*
X-71391D03*
X-75209D03*
X-64191D03*
G54D35*
X-48317Y58400D03*
X-43986D03*
X-39655D03*
X-35324D03*
X-30994D03*
X-26663D03*
X-22332D03*
X-18002D03*
G54D17*
X-105509Y-68000D03*
X-101691D03*
X-111709Y-45300D03*
X-107891D03*
X-90609Y-58400D03*
X-86791D03*
X-82609Y-47900D03*
X-78791D03*
X32491Y-25400D03*
Y-28900D03*
X32191Y-34600D03*
X32491Y-21100D03*
X36309Y-25400D03*
Y-28900D03*
X36009Y-34600D03*
X36309Y-21100D03*
X100591Y-49800D03*
X104409D03*
G54D44*
X45968Y-58900D03*
Y-63231D03*
Y-45908D03*
Y-50239D03*
Y-54570D03*
Y-25436D03*
Y-29766D03*
Y-34097D03*
Y-8113D03*
Y-12444D03*
Y-16774D03*
Y-21105D03*
X94000Y-63231D03*
Y-58900D03*
Y-54570D03*
Y-50239D03*
Y-45908D03*
Y-34097D03*
Y-29766D03*
Y-25436D03*
Y-21105D03*
Y-16774D03*
Y-12444D03*
G54D26*
X-71800Y-58400D03*
G54D27*
X-79280Y-60369D03*
Y-62337D03*
Y-54463D03*
Y-56431D03*
Y-58400D03*
G54D45*
X94000Y-8113D03*
G54D18*
X-114453Y-61209D03*
X-112484D03*
X-110516D03*
X-108547D03*
G54D36*
X-33550Y65300D03*
X-37250D03*
X-33550Y68900D03*
X-37250D03*
X32550Y-16800D03*
X36250D03*
X104650Y-53500D03*
X100950D03*
G54D28*
X-75737Y-65880D03*
X-73769D03*
X-71800D03*
X-69831D03*
X-67863D03*
G54D37*
X-8553Y15880D03*
G54D19*
X-101500Y-47400D03*
X-95500D03*
X-3900Y-93600D03*
X-9900D03*
X-4000Y-86200D03*
X-10000D03*
X-4000Y-78800D03*
X-10000D03*
X108000Y-64400D03*
X102000D03*
X108000Y-44500D03*
X102000D03*
X108509Y-21105D03*
X102509D03*
G54D38*
X-6978Y25428D03*
G54D29*
X-67863Y-50920D03*
X-69831D03*
X-71800D03*
X-73769D03*
X-75737D03*
G54D39*
X-8356Y57908D03*
M02*
