G04 ================== begin FILE IDENTIFICATION RECORD ==================*
G04 Layout Name:  M:/TDP4/Data Logger Full/allegro/datalogger.brd*
G04 Film Name:    datalogger.GBL*
G04 File Format:  Gerber RS274X*
G04 File Origin:  Cadence Allegro 17.2-S055*
G04 Origin Date:  Mon Mar 22 02:40:33 2021*
G04 *
G04 Layer:  VIA CLASS/BOTTOM*
G04 Layer:  PIN/BOTTOM*
G04 Layer:  ETCH/BOTTOM*
G04 *
G04 Offset:    (0.00 0.00)*
G04 Mirror:    No*
G04 Mode:      Positive*
G04 Rotation:  0*
G04 FullContactRelief:  No*
G04 UndefLineWidth:     10.00*
G04 ================== end FILE IDENTIFICATION RECORD ====================*
%FSLAX25Y25*MOIN*%
%IR0*IPPOS*OFA0.00000B0.00000*MIA0B0*SFA1.00000B1.00000*%
%ADD14O,.055X.1*%
%ADD15R,.055X.1*%
%ADD31C,.08*%
%AMMACRO25*
4,1,44,.01141,.00531,
.01141,-.00531,
.011338,-.006199,
.011108,-.007061,
.010732,-.007871,
.01022,-.008602,
.00959,-.009234,
.008859,-.009747,
.008051,-.010125,
.007189,-.010356,
.0063,-.010435,
.00629,-.01043,
-.00629,-.01043,
-.007179,-.010358,
-.008041,-.010128,
-.008851,-.009752,
-.009582,-.00924,
-.010214,-.00861,
-.010727,-.007879,
-.011105,-.007071,
-.011336,-.006209,
-.011415,-.00532,
-.01141,-.00531,
-.01141,.00531,
-.011338,.006199,
-.011108,.007061,
-.010732,.007871,
-.01022,.008602,
-.00959,.009234,
-.008859,.009747,
-.008051,.010125,
-.007189,.010356,
-.0063,.010435,
-.00629,.01043,
.00629,.01043,
.007179,.010358,
.008041,.010128,
.008851,.009752,
.009582,.00924,
.010214,.00861,
.010727,.007879,
.011105,.007071,
.011336,.006209,
.011415,.00532,
.01141,.00531,
0.0*
%
%ADD25MACRO25*%
%AMMACRO16*
4,1,44,.00531,-.01141,
-.00531,-.01141,
-.006199,-.011338,
-.007061,-.011108,
-.007871,-.010732,
-.008602,-.01022,
-.009234,-.00959,
-.009747,-.008859,
-.010125,-.008051,
-.010356,-.007189,
-.010435,-.0063,
-.01043,-.00629,
-.01043,.00629,
-.010358,.007179,
-.010128,.008041,
-.009752,.008851,
-.00924,.009582,
-.00861,.010214,
-.007879,.010727,
-.007071,.011105,
-.006209,.011336,
-.00532,.011415,
-.00531,.01141,
.00531,.01141,
.006199,.011338,
.007061,.011108,
.007871,.010732,
.008602,.01022,
.009234,.00959,
.009747,.008859,
.010125,.008051,
.010356,.007189,
.010435,.0063,
.01043,.00629,
.01043,-.00629,
.010358,-.007179,
.010128,-.008041,
.009752,-.008851,
.00924,-.009582,
.00861,-.010214,
.007879,-.010727,
.007071,-.011105,
.006209,-.011336,
.00532,-.011415,
.00531,-.01141,
0.0*
%
%ADD16MACRO16*%
%ADD13C,.01772*%
%AMMACRO30*
4,1,44,.00512,.01121,
.00512,-.01121,
.005079,-.011689,
.004955,-.012154,
.004753,-.012591,
.004477,-.012985,
.004138,-.013326,
.003744,-.013603,
.003309,-.013807,
.002844,-.013932,
.002365,-.013975,
.00236,-.01397,
-.00236,-.01397,
-.002839,-.013933,
-.003304,-.013809,
-.00374,-.013605,
-.004134,-.013329,
-.004474,-.012989,
-.00475,-.012595,
-.004954,-.012159,
-.005078,-.011694,
-.00512,-.011215,
-.00512,-.01121,
-.00512,.01121,
-.005079,.011689,
-.004955,.012154,
-.004753,.012591,
-.004477,.012985,
-.004138,.013326,
-.003744,.013603,
-.003309,.013807,
-.002844,.013932,
-.002365,.013975,
-.00236,.01397,
.00236,.01397,
.002839,.013933,
.003304,.013809,
.00374,.013605,
.004134,.013329,
.004474,.012989,
.00475,.012595,
.004954,.012159,
.005078,.011694,
.00512,.011215,
.00512,.01121,
0.0*
%
%ADD30MACRO30*%
%AMMACRO29*
4,1,44,.01121,-.00512,
-.01121,-.00512,
-.011689,-.005079,
-.012154,-.004955,
-.012591,-.004753,
-.012985,-.004477,
-.013326,-.004138,
-.013603,-.003744,
-.013807,-.003309,
-.013932,-.002844,
-.013975,-.002365,
-.01397,-.00236,
-.01397,.00236,
-.013933,.002839,
-.013809,.003304,
-.013605,.00374,
-.013329,.004134,
-.012989,.004474,
-.012595,.00475,
-.012159,.004954,
-.011694,.005078,
-.011215,.00512,
-.01121,.00512,
.01121,.00512,
.011689,.005079,
.012154,.004955,
.012591,.004753,
.012985,.004477,
.013326,.004138,
.013603,.003744,
.013807,.003309,
.013932,.002844,
.013975,.002365,
.01397,.00236,
.01397,-.00236,
.013933,-.002839,
.013809,-.003304,
.013605,-.00374,
.013329,-.004134,
.012989,-.004474,
.012595,-.00475,
.012159,-.004954,
.011694,-.005078,
.011215,-.00512,
.01121,-.00512,
0.0*
%
%ADD29MACRO29*%
%ADD10C,.08583*%
%ADD12R,.00984X.02165*%
%AMMACRO37*
4,1,44,.00787,-.01141,
-.00787,-.01141,
-.008896,-.011325,
-.009891,-.011059,
-.010825,-.010623,
-.011669,-.010032,
-.012397,-.009304,
-.012988,-.00846,
-.013424,-.007526,
-.01369,-.006531,
-.01378,-.005505,
-.01378,-.0055,
-.01378,.0055,
-.013691,.006526,
-.013425,.007522,
-.012991,.008456,
-.012401,.0093,
-.011673,.010029,
-.010829,.010621,
-.009896,.011057,
-.008901,.011324,
-.007875,.011415,
-.00787,.01141,
.00787,.01141,
.008896,.011325,
.009891,.011059,
.010825,.010623,
.011669,.010032,
.012397,.009304,
.012988,.00846,
.013424,.007526,
.01369,.006531,
.01378,.005505,
.01378,.0055,
.01378,-.0055,
.013691,-.006526,
.013425,-.007522,
.012991,-.008456,
.012401,-.0093,
.011673,-.010029,
.010829,-.010621,
.009896,-.011057,
.008901,-.011324,
.007875,-.011415,
.00787,-.01141,
0.0*
%
%ADD37MACRO37*%
%AMMACRO20*
4,1,40,-.00492,-.01102,
-.00492,.01102,
-.004878,.011499,
-.004754,.011964,
-.00455,.0124,
-.004274,.012794,
-.003934,.013134,
-.00354,.01341,
-.003104,.013614,
-.002639,.013738,
-.00216,.01378,
.00216,.01378,
.002639,.013738,
.003104,.013614,
.00354,.01341,
.003934,.013134,
.004274,.012794,
.00455,.0124,
.004754,.011964,
.004878,.011499,
.00492,.01102,
.00492,-.01102,
.004878,-.011499,
.004754,-.011964,
.00455,-.0124,
.004274,-.012794,
.003934,-.013134,
.00354,-.01341,
.003104,-.013614,
.002639,-.013738,
.00216,-.01378,
-.00216,-.01378,
-.002639,-.013738,
-.003104,-.013614,
-.00354,-.01341,
-.003934,-.013134,
-.004274,-.012794,
-.00455,-.0124,
-.004754,-.011964,
-.004878,-.011499,
-.00492,-.01102,
0.0*
%
%ADD20MACRO20*%
%AMMACRO19*
4,1,40,-.01102,.00492,
.01102,.00492,
.011499,.004878,
.011964,.004754,
.0124,.00455,
.012794,.004274,
.013134,.003934,
.01341,.00354,
.013614,.003104,
.013738,.002639,
.01378,.00216,
.01378,-.00216,
.013738,-.002639,
.013614,-.003104,
.01341,-.00354,
.013134,-.003934,
.012794,-.004274,
.0124,-.00455,
.011964,-.004754,
.011499,-.004878,
.01102,-.00492,
-.01102,-.00492,
-.011499,-.004878,
-.011964,-.004754,
-.0124,-.00455,
-.012794,-.004274,
-.013134,-.003934,
-.01341,-.00354,
-.013614,-.003104,
-.013738,-.002639,
-.01378,-.00216,
-.01378,.00216,
-.013738,.002639,
-.013614,.003104,
-.01341,.00354,
-.013134,.003934,
-.012794,.004274,
-.0124,.00455,
-.011964,.004754,
-.011499,.004878,
-.01102,.00492,
0.0*
%
%ADD19MACRO19*%
%AMMACRO26*
4,1,32,-.04331,-.05118,
.04331,-.05118,
.044678,-.051059,
.046003,-.050703,
.047247,-.050122,
.048371,-.049334,
.049341,-.048362,
.050128,-.047237,
.050707,-.045992,
.051061,-.044666,
.05118,-.04331,
.05118,.04331,
.04331,.05118,
-.04331,.05118,
-.044678,.051059,
-.046003,.050703,
-.047247,.050122,
-.048371,.049334,
-.049341,.048362,
-.050128,.047237,
-.050707,.045992,
-.051061,.044666,
-.05118,.04331,
-.05118,-.04331,
-.051059,-.044678,
-.050703,-.046003,
-.050122,-.047247,
-.049334,-.048371,
-.048362,-.049341,
-.047237,-.050128,
-.045992,-.050707,
-.044666,-.051061,
-.04331,-.05118,
0.0*
%
%ADD26MACRO26*%
%ADD41O,.07X.055*%
%ADD22R,.032X.038*%
%ADD32R,.038X.032*%
%ADD42R,.07X.055*%
%ADD39R,.0315X.05512*%
%AMMACRO18*
4,1,5,-.03347,.03347,
.0256,.03347,
.03347,.0256,
.03347,-.03347,
-.03347,-.03347,
-.03347,.03347,
0.0*
%
%ADD18MACRO18*%
%ADD34R,.0315X.05906*%
%ADD24R,.04724X.05512*%
%AMMACRO11*
4,1,44,-.01141,-.00531,
-.01141,.00531,
-.011338,.006199,
-.011108,.007061,
-.010732,.007871,
-.01022,.008602,
-.00959,.009234,
-.008859,.009747,
-.008051,.010125,
-.007189,.010356,
-.0063,.010435,
-.00629,.01043,
.00629,.01043,
.007179,.010358,
.008041,.010128,
.008851,.009752,
.009582,.00924,
.010214,.00861,
.010727,.007879,
.011105,.007071,
.011336,.006209,
.011415,.00532,
.01141,.00531,
.01141,-.00531,
.011338,-.006199,
.011108,-.007061,
.010732,-.007871,
.01022,-.008602,
.00959,-.009234,
.008859,-.009747,
.008051,-.010125,
.007189,-.010356,
.0063,-.010435,
.00629,-.01043,
-.00629,-.01043,
-.007179,-.010358,
-.008041,-.010128,
-.008851,-.009752,
-.009582,-.00924,
-.010214,-.00861,
-.010727,-.007879,
-.011105,-.007071,
-.011336,-.006209,
-.011415,-.00532,
-.01141,-.00531,
0.0*
%
%ADD11MACRO11*%
%ADD45O,.07874X.0315*%
%ADD38R,.03937X.06102*%
%AMMACRO17*
4,1,44,-.00531,.01141,
.00531,.01141,
.006199,.011338,
.007061,.011108,
.007871,.010732,
.008602,.01022,
.009234,.00959,
.009747,.008859,
.010125,.008051,
.010356,.007189,
.010435,.0063,
.01043,.00629,
.01043,-.00629,
.010358,-.007179,
.010128,-.008041,
.009752,-.008851,
.00924,-.009582,
.00861,-.010214,
.007879,-.010727,
.007071,-.011105,
.006209,-.011336,
.00532,-.011415,
.00531,-.01141,
-.00531,-.01141,
-.006199,-.011338,
-.007061,-.011108,
-.007871,-.010732,
-.008602,-.01022,
-.009234,-.00959,
-.009747,-.008859,
-.010125,-.008051,
-.010356,-.007189,
-.010435,-.0063,
-.01043,-.00629,
-.01043,.00629,
-.010358,.007179,
-.010128,.008041,
-.009752,.008851,
-.00924,.009582,
-.00861,.010214,
-.007879,.010727,
-.007071,.011105,
-.006209,.011336,
-.00532,.011415,
-.00531,.01141,
0.0*
%
%ADD17MACRO17*%
%ADD36R,.0315X.0689*%
%ADD46R,.07874X.0315*%
%ADD35R,.05118X.05906*%
%AMMACRO28*
4,1,44,-.00512,-.01121,
-.00512,.01121,
-.005079,.011689,
-.004955,.012154,
-.004753,.012591,
-.004477,.012985,
-.004138,.013326,
-.003744,.013603,
-.003309,.013807,
-.002844,.013932,
-.002365,.013975,
-.00236,.01397,
.00236,.01397,
.002839,.013933,
.003304,.013809,
.00374,.013605,
.004134,.013329,
.004474,.012989,
.00475,.012595,
.004954,.012159,
.005078,.011694,
.00512,.011215,
.00512,.01121,
.00512,-.01121,
.005079,-.011689,
.004955,-.012154,
.004753,-.012591,
.004477,-.012985,
.004138,-.013326,
.003744,-.013603,
.003309,-.013807,
.002844,-.013932,
.002365,-.013975,
.00236,-.01397,
-.00236,-.01397,
-.002839,-.013933,
-.003304,-.013809,
-.00374,-.013605,
-.004134,-.013329,
-.004474,-.012989,
-.00475,-.012595,
-.004954,-.012159,
-.005078,-.011694,
-.00512,-.011215,
-.00512,-.01121,
0.0*
%
%ADD28MACRO28*%
%AMMACRO27*
4,1,44,-.01121,.00512,
.01121,.00512,
.011689,.005079,
.012154,.004955,
.012591,.004753,
.012985,.004477,
.013326,.004138,
.013603,.003744,
.013807,.003309,
.013932,.002844,
.013975,.002365,
.01397,.00236,
.01397,-.00236,
.013933,-.002839,
.013809,-.003304,
.013605,-.00374,
.013329,-.004134,
.012989,-.004474,
.012595,-.00475,
.012159,-.004954,
.011694,-.005078,
.011215,-.00512,
.01121,-.00512,
-.01121,-.00512,
-.011689,-.005079,
-.012154,-.004955,
-.012591,-.004753,
-.012985,-.004477,
-.013326,-.004138,
-.013603,-.003744,
-.013807,-.003309,
-.013932,-.002844,
-.013975,-.002365,
-.01397,-.00236,
-.01397,.00236,
-.013933,.002839,
-.013809,.003304,
-.013605,.00374,
-.013329,.004134,
-.012989,.004474,
-.012595,.00475,
-.012159,.004954,
-.011694,.005078,
-.011215,.00512,
-.01121,.00512,
0.0*
%
%ADD27MACRO27*%
%ADD40R,.05906X.05906*%
%AMMACRO44*
4,1,44,-.00787,.01141,
.00787,.01141,
.008896,.011325,
.009891,.011059,
.010825,.010623,
.011669,.010032,
.012397,.009304,
.012988,.00846,
.013424,.007526,
.01369,.006531,
.01378,.005505,
.01378,.0055,
.01378,-.0055,
.013691,-.006526,
.013425,-.007522,
.012991,-.008456,
.012401,-.0093,
.011673,-.010029,
.010829,-.010621,
.009896,-.011057,
.008901,-.011324,
.007875,-.011415,
.00787,-.01141,
-.00787,-.01141,
-.008896,-.011325,
-.009891,-.011059,
-.010825,-.010623,
-.011669,-.010032,
-.012397,-.009304,
-.012988,-.00846,
-.013424,-.007526,
-.01369,-.006531,
-.01378,-.005505,
-.01378,-.0055,
-.01378,.0055,
-.013691,.006526,
-.013425,.007522,
-.012991,.008456,
-.012401,.0093,
-.011673,.010029,
-.010829,.010621,
-.009896,.011057,
-.008901,.011324,
-.007875,.011415,
-.00787,.01141,
0.0*
%
%ADD44MACRO44*%
%ADD33R,.05709X.03937*%
%ADD43R,.02756X.07874*%
%AMMACRO23*
4,1,40,.00492,.01102,
.00492,-.01102,
.004878,-.011499,
.004754,-.011964,
.00455,-.0124,
.004274,-.012794,
.003934,-.013134,
.00354,-.01341,
.003104,-.013614,
.002639,-.013738,
.00216,-.01378,
-.00216,-.01378,
-.002639,-.013738,
-.003104,-.013614,
-.00354,-.01341,
-.003934,-.013134,
-.004274,-.012794,
-.00455,-.0124,
-.004754,-.011964,
-.004878,-.011499,
-.00492,-.01102,
-.00492,.01102,
-.004878,.011499,
-.004754,.011964,
-.00455,.0124,
-.004274,.012794,
-.003934,.013134,
-.00354,.01341,
-.003104,.013614,
-.002639,.013738,
-.00216,.01378,
.00216,.01378,
.002639,.013738,
.003104,.013614,
.00354,.01341,
.003934,.013134,
.004274,.012794,
.00455,.0124,
.004754,.011964,
.004878,.011499,
.00492,.01102,
0.0*
%
%ADD23MACRO23*%
%AMMACRO21*
4,1,40,.01102,-.00492,
-.01102,-.00492,
-.011499,-.004878,
-.011964,-.004754,
-.0124,-.00455,
-.012794,-.004274,
-.013134,-.003934,
-.01341,-.00354,
-.013614,-.003104,
-.013738,-.002639,
-.01378,-.00216,
-.01378,.00216,
-.013738,.002639,
-.013614,.003104,
-.01341,.00354,
-.013134,.003934,
-.012794,.004274,
-.0124,.00455,
-.011964,.004754,
-.011499,.004878,
-.01102,.00492,
.01102,.00492,
.011499,.004878,
.011964,.004754,
.0124,.00455,
.012794,.004274,
.013134,.003934,
.01341,.00354,
.013614,.003104,
.013738,.002639,
.01378,.00216,
.01378,-.00216,
.013738,-.002639,
.013614,-.003104,
.01341,-.00354,
.013134,-.003934,
.012794,-.004274,
.0124,-.00455,
.011964,-.004754,
.011499,-.004878,
.01102,-.00492,
0.0*
%
%ADD21MACRO21*%
%ADD47C,.01*%
%ADD48C,.015*%
%ADD49C,.025*%
%ADD50C,.01155*%
%ADD53O,.06504X.11004*%
%ADD52O,.09504X.14004*%
%ADD55C,.02776*%
%ADD56C,.03776*%
%ADD51C,.09586*%
%ADD54C,.20004*%
G75*
%LPD*%
G75*
G36*
G01X-139499Y-100399D02*
Y-42100D01*
X-72803D01*
G02X-72556Y-42815I0J-400D01*
G03X-73029Y-45239I1165J-1485D01*
G03X-73251Y-45546I1105J-1033D01*
G02X-73906Y-45614I-351J192D01*
G03X-74677Y-45258I-771J-657D01*
G01X-75741D01*
G03X-76690Y-45917I0J-1013D01*
G02X-77314Y-46089I-374J140D01*
G03X-78259Y-45758I-944J-1182D01*
G01X-79323D01*
G03X-80651Y-46546I0J-1513D01*
G02X-81306Y-46614I-351J192D01*
G03X-82077Y-46258I-771J-657D01*
G01X-83141D01*
G03X-84154Y-47270I0J-1013D01*
G01Y-48530D01*
G03X-83516Y-49470I1013J1D01*
G02X-83408Y-50149I-148J-372D01*
G03X-83739Y-52694I1208J-1451D01*
G01X-83702Y-52746D01*
Y-53051D01*
X-81593Y-55159D01*
X-81578Y-55195D01*
G03X-81065Y-55790I1177J496D01*
G03X-81178Y-56195I669J-405D01*
G01Y-56812D01*
X-81576D01*
X-81634Y-56757D01*
G03X-82670Y-56346I-1037J-1102D01*
G01X-83930D01*
G03X-84916Y-56712I1J-1513D01*
G02X-85188Y-56702I-131J151D01*
G03X-86259Y-56258I-1071J-1069D01*
G01X-87323D01*
G03X-88412Y-56721I0J-1513D01*
G02X-88988I-288J278D01*
G03X-90077Y-56258I-1089J-1050D01*
G01X-91141D01*
G03X-92318Y-56820I0J-1513D01*
G01X-92782D01*
G03X-93959Y-56258I-1177J-951D01*
G01X-95023D01*
G03X-96112Y-56721I0J-1513D01*
G02X-96688I-288J278D01*
G03X-97777Y-56258I-1089J-1050D01*
G01X-98841D01*
G03X-99920Y-56711I0J-1513D01*
G02X-100192Y-56723I-142J140D01*
G03X-100446Y-56549I-978J-1155D01*
G02X-100514Y-55894I192J351D01*
G03X-100158Y-55123I-657J771D01*
G01Y-54059D01*
G03X-100497Y-53303I-1013J0D01*
G02X-100453Y-52671I266J299D01*
G03X-99709Y-50503I-1047J1571D01*
G02X-99583Y-50250I190J63D01*
G03X-98898Y-49300I-316J950D01*
G01Y-45500D01*
G03X-99900Y-44498I-1002J0D01*
G01X-103100D01*
G03X-104102Y-45500I0J-1002D01*
G01Y-45898D01*
X-105267D01*
X-105846Y-45319D01*
Y-44670D01*
G03X-107359Y-43158I-1513J-1D01*
G01X-108423D01*
G03X-109751Y-43946I0J-1513D01*
G02X-110406Y-44014I-351J192D01*
G03X-111177Y-43658I-771J-657D01*
G01X-112241D01*
G03X-113254Y-44670I0J-1013D01*
G01Y-45930D01*
G03X-112241Y-46942I1013J1D01*
G01X-111177D01*
G03X-110655Y-46797I0J1013D01*
G02X-110048Y-47140I207J-343D01*
G01Y-47713D01*
G02X-110259Y-47913I-200J0D01*
G03X-110300Y-47912I-39J-776D01*
G01X-110732D01*
G03X-111025Y-47969I-1J-777D01*
G02X-111258Y-47906I-75J185D01*
G03X-112268Y-47412I-1009J-783D01*
G01X-112700D01*
G03X-113468Y-47669I0J-1276D01*
G03X-114237Y-47412I-768J-1020D01*
G01X-114669D01*
G03X-115946Y-48689I0J-1277D01*
G01Y-50893D01*
G03X-115883Y-51292I1277J-3D01*
G02X-116080Y-51554I-190J-62D01*
G01X-118311D01*
G03X-119088Y-52331I0J-777D01*
G01Y-52763D01*
G03X-118900Y-53270I778J0D01*
G02Y-53793I-303J-262D01*
G03X-119088Y-54300I590J-507D01*
G01Y-54904D01*
X-120482D01*
G03X-120710Y-54911I1J-3760D01*
G02X-120911Y-54648I-12J199D01*
G03X-120858Y-54323I-960J323D01*
G01Y-53259D01*
G03X-121870Y-52246I-1013J0D01*
G01X-123130D01*
G03X-124142Y-53259I1J-1013D01*
G01Y-54323D01*
G03X-123786Y-55094I1013J0D01*
G02X-123854Y-55749I-260J-304D01*
G03X-124642Y-57077I725J-1328D01*
G01Y-58141D01*
G03X-124587Y-58547I1513J-2D01*
G01X-124580Y-58573D01*
Y-61166D01*
X-125461D01*
G03X-125962Y-61668I0J-501D01*
G01Y-63832D01*
G03X-125818Y-64185I501J-1D01*
G02Y-64465I-143J-140D01*
G03X-125962Y-64818I357J-352D01*
G01Y-66982D01*
G03X-125461Y-67484I501J-1D01*
G01X-124580D01*
Y-77808D01*
G03X-121420I1580J-6092D01*
G01Y-67484D01*
X-120539D01*
G03X-120038Y-66982I0J501D01*
G01Y-64818D01*
G03X-120182Y-64465I-501J1D01*
G02Y-64185I143J140D01*
G03X-120038Y-63832I-357J352D01*
G01Y-61668D01*
G03X-120539Y-61166I-501J1D01*
G01X-121420D01*
Y-59591D01*
X-121296Y-59540D01*
G03X-120361Y-58249I-574J1400D01*
G01X-120348Y-58064D01*
X-119088D01*
Y-58669D01*
G03X-118311Y-59446I777J0D01*
G01X-116107D01*
G03X-115768Y-59369I2J777D01*
G01X-115726Y-59348D01*
X-115271D01*
Y-59611D01*
X-115307Y-59663D01*
G03X-115446Y-60107I638J-444D01*
G01Y-62311D01*
G03X-114669Y-63088I777J0D01*
G01X-114237D01*
G03X-113730Y-62900I0J778D01*
G02X-113207I262J-303D01*
G03X-112700Y-63088I507J590D01*
G01X-112268D01*
G03X-112228Y-63087I1J777D01*
G02X-112018Y-63287I10J-200D01*
G01Y-63528D01*
X-112078Y-63586D01*
G03X-112351Y-63946I1056J-1084D01*
G02X-113006Y-64014I-351J192D01*
G03X-113777Y-63658I-771J-657D01*
G01X-114841D01*
G03X-115854Y-64670I0J-1013D01*
G01Y-65930D01*
G03X-114841Y-66942I1013J1D01*
G01X-113777D01*
G03X-113006Y-66586I0J1013D01*
G02X-112351Y-66654I304J-260D01*
G03X-111023Y-67442I1328J725D01*
G01X-110570D01*
X-108511Y-69502D01*
X-107277D01*
G03X-106041Y-70142I1236J873D01*
G01X-104977D01*
G03X-103888Y-69679I0J1513D01*
G02X-103312I288J-278D01*
G03X-102251Y-70142I1090J1050D01*
G01X-102171Y-70144D01*
X-101672Y-70642D01*
X-101662Y-70705D01*
G03X-98013Y-69782I1862J314D01*
G02X-97634Y-69254I379J128D01*
G01X-96970D01*
G03X-95958Y-68241I-1J1013D01*
G01Y-67177D01*
G03X-96314Y-66406I-1013J0D01*
G02X-96246Y-65751I260J304D01*
G03X-95879Y-65470I-726J1328D01*
G01X-94421D01*
G03X-94054Y-65751I1093J1047D01*
G02X-93986Y-66406I-192J-351D01*
G03X-94342Y-67177I657J-771D01*
G01Y-68241D01*
G03X-93330Y-69254I1013J0D01*
G01X-92070D01*
G03X-91058Y-68241I-1J1013D01*
G01Y-67177D01*
G03X-91414Y-66406I-1013J0D01*
G02X-91346Y-65751I260J304D01*
G03X-91034Y-65525I-724J1328D01*
G01X-90976Y-65470D01*
X-90570D01*
X-89842Y-66198D01*
Y-66541D01*
G03X-88330Y-68054I1513J0D01*
G01X-87070D01*
G03X-85979Y-67588I-1J1513D01*
G01X-85033D01*
G02X-84637Y-68047I0J-400D01*
G03X-84654Y-68270I1496J-226D01*
G01Y-69530D01*
G03X-84110Y-70691I1513J1D01*
G01Y-72622D01*
X-88999D01*
G03X-89500Y-73123I0J-501D01*
G01Y-78635D01*
G03X-88999Y-79136I501J0D01*
G01X-84111D01*
Y-80677D01*
X-85397Y-81964D01*
X-88999D01*
G03X-90000Y-82965I0J-1001D01*
G01Y-84220D01*
X-90247D01*
G02X-90628Y-83698I0J400D01*
G03X-90558Y-83241I-1443J455D01*
G01Y-82177D01*
G03X-91346Y-80849I-1513J0D01*
G02X-91414Y-80194I192J351D01*
G03X-91058Y-79423I-657J771D01*
G01Y-78359D01*
G03X-92070Y-77346I-1013J0D01*
G01X-93330D01*
G03X-94342Y-78359I1J-1013D01*
G01Y-79423D01*
G03X-93986Y-80194I1013J0D01*
G02X-94054Y-80849I-260J-304D01*
G03X-94842Y-82177I725J-1328D01*
G01Y-83241D01*
G03X-94202Y-84477I1513J0D01*
G01Y-85375D01*
X-92354Y-87222D01*
X-90000D01*
Y-88477D01*
G03X-88999Y-89478I1001J0D01*
G01X-84275D01*
G03X-83274Y-88477I0J1001D01*
G01Y-84087D01*
X-81825Y-82639D01*
X-81620Y-82844D01*
X-81626Y-82934D01*
Y-88477D01*
G03X-81125Y-88978I501J0D01*
G01X-76401D01*
G03X-75900Y-88477I0J501D01*
G01Y-82965D01*
G03X-76401Y-82464I-501J0D01*
G01X-81125D01*
X-81156D01*
X-81246Y-82470D01*
X-81451Y-82265D01*
X-81108Y-81921D01*
Y-79636D01*
X-76401D01*
G03X-75400Y-78635I0J1001D01*
G01Y-77380D01*
X-75153D01*
G02X-74772Y-77902I0J-400D01*
G03X-74842Y-78359I1443J-455D01*
G01Y-79423D01*
G03X-74054Y-80751I1513J0D01*
G02X-73986Y-81406I-192J-351D01*
G03X-74342Y-82177I657J-771D01*
G01Y-83241D01*
G03X-73330Y-84254I1013J0D01*
G01X-72070D01*
G03X-71058Y-83241I-1J1013D01*
G01Y-82177D01*
G03X-71414Y-81406I-1013J0D01*
G02X-71346Y-80751I260J304D01*
G03X-70558Y-79423I-725J1328D01*
G01Y-78359D01*
G03X-71199Y-77123I-1513J0D01*
G01Y-76225D01*
X-73046Y-74378D01*
X-75400D01*
Y-73123D01*
G03X-76401Y-72122I-1001J0D01*
G01X-77262D01*
Y-71501D01*
X-77290Y-71473D01*
Y-70691D01*
G03X-77023Y-70402I-968J1163D01*
G01X-74972D01*
X-74495Y-69924D01*
G02X-74154Y-70066I141J-142D01*
G01Y-70530D01*
G03X-73141Y-71542I1013J1D01*
G01X-72077D01*
G03X-71306Y-71186I0J1013D01*
G02X-70651Y-71254I304J-260D01*
G03X-70429Y-71561I1327J726D01*
G03X-67153I1638J-939D01*
G03X-66746Y-70530I-1106J1032D01*
G01Y-69270D01*
G03X-66944Y-68522I-1513J0D01*
G02X-66842Y-68009I348J198D01*
G03X-66452Y-67503I-785J1008D01*
G01X-66400Y-67382D01*
X-46900D01*
Y-67927D01*
X-46955Y-67985D01*
G03X-46900Y-70633I1373J-1296D01*
G01Y-73522D01*
G02X-47327Y-73921I-400J0D01*
G03Y-93879I-673J-9979D01*
G02X-46900Y-94278I27J-399D01*
G01Y-100399D01*
X-139499D01*
G37*
G36*
G01X-43898D02*
Y-93022D01*
G03X-43783Y-74831I-4102J9122D01*
G01X-43898Y-74777D01*
Y-74054D01*
G02X-43216Y-73771I400J0D01*
G01X-21885Y-95102D01*
X-12502D01*
Y-95500D01*
G03X-11500Y-96502I1002J0D01*
G01X-8300D01*
G03X-7298Y-95500I0J1002D01*
G01Y-91700D01*
G03X-8300Y-90698I-1002J0D01*
G01X-11500D01*
G03X-12502Y-91700I0J-1002D01*
G01Y-92098D01*
X-20641D01*
X-41832Y-70907D01*
X-41593Y-70669D01*
X-41468Y-70725D01*
G03X-41014Y-70862I768J1725D01*
G01X-40951Y-70872D01*
X-24122Y-87702D01*
X-12602D01*
Y-88100D01*
G03X-11600Y-89102I1002J0D01*
G01X-8400D01*
G03X-7398Y-88100I0J1002D01*
G01Y-84300D01*
G03X-8400Y-83298I-1002J0D01*
G01X-11600D01*
G03X-12602Y-84300I0J-1002D01*
G01Y-84698D01*
X-22878D01*
X-38828Y-68749D01*
X-38838Y-68686D01*
G03X-39102Y-67994I-1862J-314D01*
G02X-38764Y-67382I339J212D01*
G01X-36644D01*
X-23724Y-80302D01*
X-12602D01*
Y-80700D01*
G03X-11600Y-81702I1002J0D01*
G01X-8400D01*
G03X-7398Y-80700I0J1002D01*
G01Y-76900D01*
G03X-7464Y-76544I-1002J-2D01*
G02X-7090Y-76002I374J142D01*
G01X-6910D01*
G02X-6536Y-76544I0J-400D01*
G03X-6602Y-76900I936J-358D01*
G01Y-80700D01*
G03X-5600Y-81702I1002J0D01*
G01X-2400D01*
G03X-1398Y-80700I0J1002D01*
G01Y-80302D01*
X714D01*
X2143Y-78872D01*
X2206Y-78862D01*
G03X3351Y-78198I-315J1862D01*
G02X3633Y-78171I154J-127D01*
G03X6650Y-79252I3017J3670D01*
G01X8150D01*
G03X12070Y-77185I0J4751D01*
G02X12730I330J-226D01*
G03X16650Y-79252I3920J2684D01*
G01X18150D01*
G03Y-69748I0J4752D01*
G01X16650D01*
G03X14649Y-70190I0J-4752D01*
G01X14523Y-70249D01*
X13773Y-69500D01*
X14523Y-68751D01*
X14649Y-68810D01*
G03X16650Y-69252I2001J4310D01*
G01X18150D01*
G03Y-59748I0J4752D01*
G01X16650D01*
G03X13370Y-61062I0J-4751D01*
G02X12728Y-60936I-277J289D01*
G03X10900Y-59748I-1829J-814D01*
G01X3900D01*
G03X1898Y-61750I0J-2002D01*
G01Y-67098D01*
X-19328D01*
X-24353Y-62074D01*
X-24363Y-62011D01*
G03X-27585Y-61015I-1862J-314D01*
G02X-28156Y-61021I-288J277D01*
G01X-32278Y-56898D01*
X-43898D01*
Y-39098D01*
X-47517D01*
G02X-47849Y-38475I0J400D01*
G03X-49853Y-36605I-1151J775D01*
G02X-50498Y-36289I-245J316D01*
G01Y-36100D01*
G03X-51500Y-35098I-1002J0D01*
G01X-55300D01*
G03X-56298Y-36015I0J-1002D01*
G01X-56313Y-36198D01*
X-56654D01*
X-56706Y-36161D01*
G03X-59499Y-38524I-1094J-1539D01*
G02X-59859Y-39098I-360J-174D01*
G01X-106380D01*
G02X-106552Y-38338I1J400D01*
G03X-103848Y-34050I-2048J4288D01*
G01Y-29550D01*
G03X-113352I-4752J0D01*
G01Y-34050D01*
G03X-110648Y-38338I4752J0D01*
G02X-110820Y-39098I-173J-360D01*
G01X-116380D01*
G02X-116552Y-38338I1J400D01*
G03X-113848Y-34050I-2048J4288D01*
G01Y-29550D01*
G03X-123352I-4752J0D01*
G01Y-34050D01*
G03X-120648Y-38338I4752J0D01*
G02X-120820Y-39098I-173J-360D01*
G01X-124379D01*
G02X-124624Y-38382I0J400D01*
G03X-123848Y-36800I-1226J1583D01*
G01Y-26800D01*
G03X-125850Y-24798I-2002J0D01*
G01X-131350D01*
G03X-133352Y-26800I0J-2002D01*
G01Y-36800D01*
G03X-132576Y-38382I2002J1D01*
G02X-132821Y-39098I-245J-316D01*
G01X-139499D01*
Y89499D01*
X118499D01*
Y2602D01*
X109302D01*
Y5700D01*
G03X108800Y6202I-502J0D01*
G01X105000D01*
G03X104498Y5700I0J-502D01*
G01Y2602D01*
X82798D01*
Y-100399D01*
X-43898D01*
G37*
G36*
G01X-103912Y-56874D02*
Y-56268D01*
G03X-104100Y-55761I-778J0D01*
G02Y-55239I304J261D01*
G03X-103912Y-54732I-590J507D01*
G01Y-54300D01*
G03X-104100Y-53793I-778J0D01*
G02Y-53270I303J261D01*
G03X-103912Y-52763I-590J507D01*
G01Y-52331D01*
G03X-104689Y-51554I-777J0D01*
G01X-106893D01*
X-106920D01*
G02X-107117Y-51292I-7J200D01*
G03X-107054Y-50893I-1214J396D01*
G01Y-49946D01*
X-107053Y-49936D01*
G03X-107046Y-49791I-1494J145D01*
G01Y-48850D01*
G02X-106704Y-48708I200J1D01*
G01X-106511Y-48902D01*
X-104102D01*
Y-49300D01*
G03X-103417Y-50250I1001J0D01*
G02X-103291Y-50503I-64J-190D01*
G03X-102775Y-52493I1791J-597D01*
G02X-102871Y-53148I-270J-295D01*
G03X-103442Y-54059I442J-911D01*
G01Y-55123D01*
G03X-103086Y-55894I1013J0D01*
G02X-103154Y-56549I-260J-304D01*
G03X-103506Y-56814I724J-1328D01*
G01X-103564Y-56874D01*
X-103912D01*
G37*
G36*
G01X-53113Y-56898D02*
G02X-53513Y-56487I0J400D01*
G03X-56545Y-54930I-1887J56D01*
G01X-58113D01*
G02X-58513Y-54518I0J400D01*
G03X-61545Y-52962I-1887J55D01*
G01X-63024D01*
X-63037Y-52960D01*
G03X-63199Y-52950I-160J-1267D01*
G01X-65441D01*
G03X-66038Y-53097I-2J-1278D01*
G01X-66168Y-53166D01*
X-66929Y-52406D01*
X-66890Y-52288D01*
G03X-66850Y-52041I-737J246D01*
G01Y-49799D01*
G03X-66947Y-49422I-777J1D01*
G02X-66781Y-48873I350J194D01*
G03X-66149Y-48254I-697J1343D01*
G02X-65494Y-48186I351J-192D01*
G03X-64723Y-48542I771J657D01*
G01X-63659D01*
G03X-62646Y-47530I0J1013D01*
G01Y-46270D01*
G03X-63659Y-45258I-1013J-1D01*
G01X-64723D01*
G03X-65494Y-45614I0J-1013D01*
G02X-66149Y-45546I-304J260D01*
G03X-67477Y-44758I-1328J-725D01*
G01X-68541D01*
G03X-68989Y-44825I-3J-1513D01*
G02X-69507Y-44418I-119J382D01*
G03X-70226Y-42815I-1884J118D01*
G02X-69979Y-42100I247J315D01*
G01X-56302D01*
Y-45300D01*
G03X-55300Y-46302I1002J0D01*
G01X-55110D01*
G02X-54946Y-46616I0J-200D01*
G03X-51854I1546J-1084D01*
G02X-51690Y-46302I164J114D01*
G01X-51500D01*
G03X-50498Y-45300I0J1002D01*
G01Y-42100D01*
X-46900D01*
Y-56898D01*
X-53113D01*
G37*
G36*
G01X85800Y-100399D02*
Y-400D01*
X104498D01*
Y-3500D01*
G03X105000Y-4002I502J0D01*
G01X108800D01*
G03X109302Y-3500I0J502D01*
G01Y-400D01*
X118499D01*
Y-100399D01*
X85800D01*
G37*
%LPC*%
G75*
G36*
G01X-97602Y-49300D02*
Y-45500D01*
G02X-97100Y-44998I502J0D01*
G01X-93900D01*
G02X-93398Y-45500I0J-502D01*
G01Y-49300D01*
G02X-93900Y-49802I-502J0D01*
G01X-97100D01*
G02X-97602Y-49300I0J502D01*
G37*
G36*
G01X102350Y20248D02*
X100850D01*
G02Y26752I0J3252D01*
G01X102350D01*
G02Y20248I0J-3252D01*
G37*
G36*
G01X67948Y70457D02*
Y80457D01*
G02X69950Y82458I2002J-1D01*
G01X75450D01*
G02X77452Y80457I1J-2001D01*
G01Y70457D01*
G02X75450Y68456I-2002J1D01*
G01X69950D01*
G02X67948Y70457I-1J2001D01*
G37*
G36*
G01X18150Y-97752D02*
X16650D01*
G02Y-91248I0J3252D01*
G01X18150D01*
G02Y-97752I0J-3252D01*
G37*
G36*
G01X19884Y65332D02*
X11967Y73248D01*
X-30800D01*
G02Y77752I0J2252D01*
G01X13833D01*
X24386Y67198D01*
Y55765D01*
G02X19884I-2251J0D01*
G01Y65332D01*
G37*
G36*
G01X-11023Y12829D02*
Y18931D01*
G02X-10522Y19432I501J0D01*
G01X-6584D01*
G02X-6083Y18931I0J-501D01*
G01Y12829D01*
G02X-6584Y12328I-501J0D01*
G01X-10522D01*
G02X-11023Y12829I0J501D01*
G37*
G36*
G01X-133352Y15200D02*
Y25200D01*
G02X-131350Y27202I2002J0D01*
G01X-125850D01*
G02X-123848Y25200I0J-2002D01*
G01Y15200D01*
G02X-125850Y13198I-2002J0D01*
G01X-131350D01*
G02X-133352Y15200I0J2002D01*
G37*
G36*
G01Y-10800D02*
Y-800D01*
G02X-131350Y1202I2002J0D01*
G01X-125850D01*
G02X-123848Y-800I0J-2002D01*
G01Y-10800D01*
G02X-125850Y-12802I-2002J0D01*
G01X-131350D01*
G02X-133352Y-10800I0J2002D01*
G37*
G36*
G01X64653Y-14195D02*
G03X64614Y-14473I122J-159D01*
G02X62386I-1114J-827D01*
G03X62347Y-14195I-161J119D01*
G02X64653I1153J1495D01*
G37*
G36*
G01X-9992Y-1198D02*
X-8398Y-2792D01*
Y-27055D01*
G02X-11402I-1502J-1145D01*
G01Y-4879D01*
G03X-11924Y-4498I-400J0D01*
G02X-11355Y-1198I-576J1798D01*
G01X-9992D01*
G37*
G36*
G01X50098Y-61356D02*
G02X48330Y-65808I-1768J-1875D01*
G01X43606D01*
G02X41838Y-61356I0J2577D01*
G03Y-60775I-274J291D01*
G02Y-57026I1768J1875D01*
G03Y-56444I-275J291D01*
G02Y-52695I1768J1875D01*
G03Y-52114I-274J291D01*
G02Y-48364I1768J1875D01*
G03Y-47783I-274J290D01*
G02X43606Y-43332I1768J1874D01*
G01X48330D01*
G02X50098Y-47783I0J-2577D01*
G03Y-48364I274J-291D01*
G02Y-52114I-1768J-1875D01*
G03Y-52695I274J-290D01*
G02Y-56444I-1768J-1875D01*
G03Y-57026I275J-291D01*
G02Y-60775I-1768J-1875D01*
G03Y-61356I274J-290D01*
G37*
G36*
G01X8150Y-99252D02*
X6650D01*
G02X2016Y-93452I0J4751D01*
G03X1343Y-93081I-390J88D01*
G01X-678Y-95102D01*
X-1298D01*
Y-95500D01*
G02X-2300Y-96502I-1002J0D01*
G01X-5500D01*
G02X-6502Y-95500I0J1002D01*
G01Y-91700D01*
G02X-5500Y-90698I1002J0D01*
G01X-2300D01*
G02X-1520Y-91071I0J-1002D01*
G03X-926Y-91103I311J251D01*
G01X2278Y-87898D01*
X2461D01*
G03X2786Y-87266I0J400D01*
G02X2543Y-86890I3865J2764D01*
G03X1915Y-86809I-345J-202D01*
G01X1022Y-87702D01*
X-1398D01*
Y-88100D01*
G02X-2400Y-89102I-1002J0D01*
G01X-5600D01*
G02X-6602Y-88100I0J1002D01*
G01Y-84300D01*
G02X-5600Y-83298I1002J0D01*
G01X-2400D01*
G02X-1398Y-84300I0J-1002D01*
G01Y-84698D01*
X-222D01*
X1478Y-82998D01*
X2142D01*
G02X6650Y-79748I4508J-1501D01*
G01X8150D01*
G02X12070Y-81815I0J-4751D01*
G03X12730I330J226D01*
G02X16650Y-79748I3920J-2684D01*
G01X18150D01*
G02Y-89252I0J-4752D01*
G01X16650D01*
G02X14649Y-88810I0J4752D01*
G01X14523Y-88751D01*
X12372Y-90902D01*
X12188D01*
G03X11875Y-91550I0J-400D01*
G02X8150Y-99252I-3725J-2950D01*
G37*
G36*
G01X30202Y-40154D02*
X30239Y-40206D01*
G02X27161I-1539J-1094D01*
G01X27198Y-40154D01*
Y-39677D01*
G02X26558Y-38441I873J1236D01*
G01Y-37377D01*
G02X27021Y-36288I1513J0D01*
G03Y-35712I-278J288D01*
G02X26557Y-34623I1049J1090D01*
G01Y-34170D01*
X22797Y-30410D01*
Y-21534D01*
G03X22324Y-21141I-400J0D01*
G02X22231Y-21150I-95J493D01*
G01X19475D01*
G02X18974Y-20648I1J502D01*
G01Y-18432D01*
G03X18465Y-18047I-400J0D01*
G02X17808Y-18070I-376J1336D01*
G03X17326Y-18462I-82J-392D01*
G01Y-20648D01*
G02X16325Y-21650I-1001J-1D01*
G01X13569D01*
G02X12568Y-20648I1J1002D01*
G01Y-12774D01*
G02X13123Y-11877I1002J0D01*
G02X16771I1824J489D01*
G02X17326Y-12774I-447J-897D01*
G01Y-14960D01*
G03X17808Y-15352I400J0D01*
G02X18465Y-15375I281J-1359D01*
G03X18974Y-14990I109J385D01*
G01Y-12774D01*
G02X19475Y-12272I501J1D01*
G01X22231D01*
G02X22324Y-12281I-2J-502D01*
G03X22798Y-11888I74J393D01*
G01Y-5985D01*
X27734Y-1049D01*
X27744Y-986D01*
G02X31484Y-1492I1862J-314D01*
G03X31828Y-1929I398J-41D01*
G02X32319Y-2065I-254J-1871D01*
G02X33000Y-1798I681J-735D01*
G01X35509D01*
G03X35792Y-1116I0J400D01*
G01X35678Y-1002D01*
X33000D01*
G02X31998Y0I0J1002D01*
G01Y3200D01*
G02X33000Y4202I1002J0D01*
G01X33190D01*
G03X33354Y4516I0J200D01*
G02X36446I1546J1084D01*
G03X36610Y4202I164J-114D01*
G01X36800D01*
G02X37802Y3200I0J-1002D01*
G01Y1122D01*
X41002Y-2078D01*
Y-6113D01*
G03X41698Y-6382I400J0D01*
G02X43606Y-5536I1909J-1731D01*
G01X48330D01*
G02X50098Y-9988I0J-2577D01*
G03Y-10569I274J-291D01*
G02Y-14318I-1768J-1874D01*
G03Y-14900I275J-291D01*
G02Y-18649I-1768J-1875D01*
G03Y-19230I274J-290D01*
G02Y-22980I-1768J-1875D01*
G03Y-23561I274J-291D01*
G02Y-27310I-1768J-1874D01*
G03Y-27892I275J-291D01*
G02Y-31641I-1768J-1875D01*
G03Y-32222I274J-290D01*
G02X48330Y-36674I-1768J-1875D01*
G01X43606D01*
G02X41514Y-35602I0J2577D01*
G01X39175D01*
X38675Y-36102D01*
X37777D01*
G02X36541Y-36742I-1236J873D01*
G01X35477D01*
G02X34388Y-36279I0J1513D01*
G03X33812I-288J-278D01*
G02X32723Y-36742I-1089J1050D01*
G01X31659D01*
G02X31313Y-36702I0J1513D01*
G03X30825Y-37151I-92J-389D01*
G02X30842Y-37377I-1496J-226D01*
G01Y-38441D01*
G02X30202Y-39677I-1513J0D01*
G01Y-40154D01*
G37*
G36*
G01X-5403Y54454D02*
X-11309D01*
G02X-11810Y54955I0J501D01*
G01Y60861D01*
G02X-11309Y61362I501J0D01*
G01X-9771D01*
G03X-9454Y62007I1J400D01*
G02X-7258I1098J849D01*
G03X-6941Y61362I316J-245D01*
G01X-5403D01*
G02X-4902Y60861I0J-501D01*
G01Y54955D01*
G02X-5403Y54454I-501J0D01*
G37*
G36*
G01X55780Y-43866D02*
G02X52620I-1580J-1034D01*
G01Y16054D01*
X61646Y25080D01*
X86369D01*
G02X87141Y26470I4481J-1580D01*
G03X86829Y27120I-312J250D01*
G01X28754D01*
X7204Y5570D01*
X2284D01*
G02Y8730I-1034J1580D01*
G01X5896D01*
X23085Y25919D01*
X22862Y26142D01*
X22750Y26112D01*
G02X22337Y26058I-411J1538D01*
G01X20763D01*
G02X19700Y26464I-1J1592D01*
G02X18637Y26058I-1062J1186D01*
G01X17925D01*
X12988Y21120D01*
X11600D01*
G03X11358Y20402I0J-400D01*
G02X9357Y17218I-1144J-1502D01*
G02X8237Y16758I-1119J1132D01*
G01X6663D01*
G02X5600Y17164I-1J1592D01*
G02X4537Y16758I-1062J1186D01*
G01X2963D01*
G02X1748Y17320I-1J1592D01*
G01X718D01*
X675Y17364D01*
X-107D01*
X-155Y17334D01*
G02X-109Y20522I-988J1609D01*
G01X1786D01*
G02X2052Y20756I1178J-1071D01*
G01X1938Y21120D01*
X1346D01*
X-4219Y26685D01*
G03X-4902Y26402I-283J-283D01*
G01Y22672D01*
G02X-5403Y22170I-501J-1D01*
G01X-8553D01*
G02X-9054Y22672I1J502D01*
G01Y28184D01*
G02X-8553Y28686I501J1D01*
G01X-7185D01*
G03X-6902Y29368I0J400D01*
G01X-15743Y38209D01*
G03X-16426Y37926I-283J-283D01*
G01Y32280D01*
X-13134D01*
G02Y29120I1034J-1580D01*
G01X-25078D01*
G03X-25458Y28595I0J-400D01*
G02X-25485Y27329I-1792J-595D01*
G01X-25498Y27294D01*
Y26839D01*
X-25448Y26789D01*
Y17006D01*
X-25435Y16971D01*
G02Y15629I-1765J-671D01*
G01X-25448Y15594D01*
Y7584D01*
X-28262Y4770D01*
X-28277Y4736D01*
G02X-29227Y3786I-1723J773D01*
G01X-29261Y3771D01*
X-40361Y-7329D01*
G03X-40184Y-7998I282J-283D01*
G02X-39534Y-8318I-494J-1823D01*
G01X-23358D01*
X-18949Y-12728D01*
X-18886Y-12738D01*
G02X-17368Y-14143I-314J-1862D01*
G03X-16686Y-14318I388J96D01*
G02X-16513Y-14153I1387J-1281D01*
G03X-16472Y-13893I-128J153D01*
G02X-14128I1172J743D01*
G03X-14087Y-14153I169J-107D01*
G02X-17132Y-16057I-1213J-1447D01*
G03X-17814Y-15882I-388J-96D01*
G02X-19079Y-16484I-1386J1282D01*
G03X-19266Y-16671I13J-200D01*
G02X-23012Y-16864I-1884J121D01*
G01X-23022Y-16801D01*
X-25942Y-13882D01*
X-39534D01*
G02X-42067Y-11100I-1145J1502D01*
G02X-42501Y-10315I1388J1280D01*
G03X-43170Y-10138I-386J-105D01*
G01X-53338Y-20305D01*
Y-21814D01*
X-54862Y-23339D01*
X-54877Y-23373D01*
G02X-57373Y-20877I-1723J773D01*
G01X-57339Y-20862D01*
X-56840Y-20364D01*
Y-18855D01*
X-37862Y124D01*
G03X-37866Y694I-283J283D01*
G02X-35903Y2657I966J997D01*
G03X-35333Y2653I287J279D01*
G01X-31738Y6248D01*
X-31723Y6282D01*
G02X-30773Y7232I1723J-773D01*
G01X-30739Y7247D01*
X-28952Y9034D01*
Y14796D01*
X-37713D01*
G03X-38113Y14411I0J-400D01*
G02X-38862Y15694I-1387J50D01*
G03X-38278Y16049I184J355D01*
G01Y22674D01*
X-28952D01*
Y25339D01*
X-29002Y25389D01*
Y27294D01*
X-29015Y27329D01*
G02X-29042Y28595I1765J671D01*
G03X-29422Y29120I-380J125D01*
G01X-38047D01*
X-46666Y20502D01*
X-48890D01*
Y20112D01*
G02X-49892Y19111I-1002J0D01*
G01X-55600D01*
G02X-56602Y20112I0J1001D01*
G01Y24050D01*
G02X-56089Y24924I1002J0D01*
G02X-56102Y25034I489J114D01*
G01Y25389D01*
G03X-56746Y25706I-400J0D01*
G02Y28694I-1154J1494D01*
G03X-56102Y29011I244J317D01*
G01Y30940D01*
G02X-55600Y31442I502J0D01*
G01X-52450D01*
G02X-52179Y31362I-1J-502D01*
G02X-51560Y28713I579J-1262D01*
G03X-51948Y28313I12J-400D01*
G01Y25051D01*
X-49892D01*
G02X-48890Y24050I0J-1001D01*
G01Y23660D01*
X-47974D01*
X-40986Y30649D01*
G03X-41269Y31332I-283J283D01*
G01X-49892D01*
Y39208D01*
X-17708D01*
G03X-17425Y39891I0J400D01*
G01X-22254Y44720D01*
X-41316D01*
X-49896Y53301D01*
Y53939D01*
X-50062Y53968D01*
G02X-50759Y54454I170J987D01*
G01X-55600D01*
G02X-56102Y54955I-1J501D01*
G01Y60861D01*
G02X-55600Y61362I502J-1D01*
G01X-50894D01*
Y61845D01*
G02X-49892Y62847I1002J0D01*
G01X-42411D01*
G02X-41583Y62409I0J-1002D01*
G03X-41364Y62328I166J112D01*
G02X-41230Y62346I133J-483D01*
G01X-38080D01*
G02X-37946Y62328I1J-501D01*
G03X-37727Y62409I53J193D01*
G02X-36899Y62847I828J-564D01*
G01X-35645D01*
G03X-35382Y63549I0J400D01*
G02X-35604Y63785I1043J1203D01*
G03X-35871Y63832I-159J-121D01*
G02X-36463Y63658I-591J918D01*
G01X-38037D01*
G02X-39130Y64750I-1J1092D01*
G01Y65850D01*
G02X-38634Y66765I1092J0D01*
G03Y67435I-218J335D01*
G02X-39129Y68319I597J915D01*
G02X-37484Y70542I729J1181D01*
G01X-36463D01*
G02X-35871Y70368I1J-1092D01*
G03X-35604Y70415I108J168D01*
G02X-34337Y71042I1266J-965D01*
G01X-32763D01*
G02X-31543Y70473I0J-1592D01*
G01X-31483Y70402D01*
X-31146D01*
X-31094Y70439D01*
G02Y67361I1094J-1539D01*
G01X-31146Y67398D01*
X-31483D01*
X-31543Y67327D01*
G02X-31622Y67239I-1224J1019D01*
G03Y66961I144J-139D01*
G02X-31170Y65850I-1141J-1112D01*
G01Y65280D01*
X-29492Y63602D01*
Y62847D01*
X-16427D01*
G02X-15425Y61845I0J-1002D01*
G01Y54955D01*
G02X-15732Y54234I-1002J1D01*
G03X-15737Y53663I278J-288D01*
G01X-7564Y45490D01*
G03X-6883Y45743I282J283D01*
G02X-4857Y43717I1883J-143D01*
G03X-5110Y43036I30J-399D01*
G01X3783Y34142D01*
X4437D01*
G02X5500Y33736I1J-1592D01*
G02X6563Y34142I1062J-1186D01*
G01X8137D01*
G02X9729Y32574I0J-1592D01*
G01X9731Y32493D01*
X10271Y31952D01*
X10327Y31939D01*
G02X10214Y28238I-427J-1839D01*
G01X10151Y28228D01*
X9730Y27806D01*
Y27650D01*
G02X9663Y27194I-1593J1D01*
G03X10046Y26680I383J-114D01*
G01X10160D01*
X15470Y31990D01*
Y32450D01*
G02X15471Y32496I1593J-12D01*
G03X14822Y32820I-400J12D01*
G01X13234D01*
G02X13188Y36009I-1034J1580D01*
G01X13236Y35980D01*
X13510D01*
X14146Y36616D01*
G03X13863Y37298I-283J282D01*
G01X11678D01*
X5749Y43228D01*
X5686Y43238D01*
G02X7862Y45414I314J1862D01*
G01X7872Y45351D01*
X12922Y40302D01*
X85699D01*
G03X86099Y40710I0J400D01*
G02X86098Y40750I2000J70D01*
G01Y46250D01*
G02X88100Y48252I2002J0D01*
G01X95100D01*
G02X96928Y47064I-1J-2002D01*
G03X97570Y46938I365J163D01*
G02X100850Y48252I3280J-3437D01*
G01X102350D01*
G02Y38748I0J-4752D01*
G01X100850D01*
G02X98849Y39190I0J4752D01*
G01X98723Y39249D01*
X96772Y37298D01*
X96221D01*
G03X95921Y36635I1J-400D01*
G02X96270Y36185I-3573J-3132D01*
G03X96930I330J226D01*
G02X100850Y38252I3921J-2685D01*
G01X102350D01*
G02Y28748I0J-4752D01*
G01X100850D01*
G02X98798Y29214I0J4751D01*
G01X96704Y27120D01*
X96371D01*
G03X96059Y26470I0J-400D01*
G02X92350Y18748I-3709J-2970D01*
G01X90850D01*
G02X86369Y21920I0J4751D01*
G01X62954D01*
X55780Y14746D01*
Y-35067D01*
G03X56385Y-35410I400J0D01*
G02Y-37790I715J-1190D01*
G03X55780Y-38133I-205J-343D01*
G01Y-43866D01*
G37*
G36*
G01X111110Y-23005D02*
G02X110109Y-24006I-1001J0D01*
G01X106909D01*
G02X105908Y-23005I0J1001D01*
G01Y-19205D01*
G02X106824Y-18207I1002J0D01*
G03X107008Y-18008I-16J199D01*
G01Y-16436D01*
G02X110010I1501J1145D01*
G01Y-18008D01*
G03X110194Y-18207I200J0D01*
G02X111110Y-19205I-86J-998D01*
G01Y-23005D01*
G37*
G36*
G01X97742Y-32545D02*
G02X96362Y-36174I-1380J-1552D01*
G01X91638D01*
G02X89958Y-35318I0J2077D01*
G03X89403Y-35227I-323J-235D01*
G02Y-32967I-806J1130D01*
G03X89958Y-32876I232J326D01*
G02X90258Y-32545I1680J-1221D01*
G03X90214Y-31913I-266J299D01*
G02X89870Y-27892I1424J2147D01*
G03Y-27310I-275J291D01*
G02Y-23561I1768J1875D01*
G03Y-22980I-274J290D01*
G02Y-19230I1768J1875D01*
G03Y-18649I-274J291D01*
G02Y-14900I1768J1875D01*
G03Y-14318I-275J291D01*
G02X89506Y-10997I1768J1874D01*
G03X89429Y-10463I-331J225D01*
G02X89062Y-9688I635J775D01*
G01Y-6538D01*
G02X90063Y-5536I1001J1D01*
G01X97937D01*
G02X98938Y-6538I-1J-1002D01*
G01Y-9688D01*
G02X98571Y-10463I-1002J0D01*
G03X98494Y-10997I254J-309D01*
G02X98130Y-14318I-2132J-1447D01*
G03Y-14900I275J-291D01*
G02X98456Y-15272I-1766J-1876D01*
G01X101455D01*
G02X104248Y-17696I1145J-1501D01*
G03X104458Y-18266I349J-195D01*
G02X105110Y-19205I-350J-939D01*
G01Y-23005D01*
G02X104109Y-24006I-1001J0D01*
G01X100909D01*
G02X99908Y-23005I0J1001D01*
G01Y-22606D01*
X98456D01*
G02X98130Y-22980I-2096J1498D01*
G03Y-23561I274J-291D01*
G02Y-27310I-1768J-1874D01*
G03Y-27892I275J-291D01*
G02X97786Y-31913I-1768J-1874D01*
G03X97742Y-32545I222J-333D01*
G37*
G36*
G01X103580Y-67316D02*
Y-77808D01*
G02X100420I-1580J-6092D01*
G01Y-67316D01*
X100250Y-67290D01*
G02X99398Y-66300I149J990D01*
G01Y-62500D01*
G02X99756Y-61733I1001J0D01*
G03X99781Y-61451I-128J153D01*
G03X99622Y-61278I-2084J-1756D01*
G03X98336Y-60556I-1927J-1926D01*
G02X98130Y-60775I-1977J1653D01*
G03Y-61356I274J-290D01*
G02X96362Y-65808I-1768J-1875D01*
G01X91638D01*
G02X89870Y-61356I0J2577D01*
G03Y-60775I-274J291D01*
G02X90213Y-56753I1768J1875D01*
G03X90258Y-56121I-221J333D01*
G02X89959Y-55792I1378J1553D01*
G03X89404Y-55701I-324J-235D01*
G02Y-53439I-804J1131D01*
G03X89959Y-53348I231J326D01*
G02X90258Y-53018I1680J-1221D01*
G03X90214Y-52386I-266J299D01*
G02X89870Y-48364I1424J2147D01*
G03Y-47783I-274J290D01*
G02X91638Y-43332I1768J1874D01*
G01X96362D01*
G02X98456Y-44406I1J-2576D01*
G01X99398D01*
Y-42600D01*
G02X100400Y-41598I1002J0D01*
G01X103600D01*
G02X104602Y-42600I0J-1002D01*
G01Y-46400D01*
G02X104392Y-47013I-1002J1D01*
G03X104708Y-47658I316J-245D01*
G01X104941D01*
G02X106454Y-49170I0J-1513D01*
G01Y-50430D01*
G02X106187Y-51287I-1513J1D01*
G01X106152Y-51339D01*
Y-51522D01*
X106249Y-51580D01*
G02X107030Y-52950I-811J-1370D01*
G01Y-54050D01*
G02X106152Y-55473I-1592J0D01*
G01Y-55928D01*
X109502Y-59278D01*
Y-61303D01*
G03X109685Y-61502I200J0D01*
G02X110602Y-62500I-85J-998D01*
G01Y-66300D01*
G02X109600Y-67302I-1002J0D01*
G01X106400D01*
G02X105398Y-66300I0J1002D01*
G01Y-62500D01*
G02X106315Y-61502I1002J0D01*
G03X106498Y-61303I-17J199D01*
G01Y-60522D01*
X103148Y-57172D01*
Y-55473D01*
G02X102596Y-55015I715J1423D01*
G03X102329Y-54968I-159J-121D01*
G02X101737Y-55142I-591J918D01*
G01X100163D01*
G02X99070Y-54050I-1J1092D01*
G01Y-52950D01*
G02X99448Y-52124I1093J-1D01*
G03X99403Y-51793I-131J151D01*
G02X99347Y-51764I668J1358D01*
G01X99303Y-51740D01*
X98456D01*
G02X97786Y-52386I-2094J1501D01*
G03X97742Y-53018I222J-333D01*
G02Y-56121I-1380J-1552D01*
G03X97787Y-56753I266J-299D01*
G02X98433Y-57367I-1425J-2147D01*
G02X101856Y-59044I-738J-5838D01*
G02X103327Y-61498I-4160J-4162D01*
G01X103600D01*
G02X104602Y-62500I0J-1002D01*
G01Y-66300D01*
G02X103750Y-67290I-1001J0D01*
G01X103580Y-67316D01*
G37*
G36*
G01X109600Y-47402D02*
X106400D01*
G02X105398Y-46400I0J1002D01*
G01Y-42600D01*
G02X106315Y-41602I1002J0D01*
G03X106498Y-41403I-17J199D01*
G01Y-41284D01*
G03X105872Y-40954I-400J0D01*
G02X102938Y-39714I-1072J1554D01*
G01X102928Y-39651D01*
X102693Y-39416D01*
X102494D01*
X102435Y-39480D01*
G02X101330Y-39960I-1106J1033D01*
G01X100070D01*
G02X98558Y-38447I1J1513D01*
G01Y-37383D01*
G02X99346Y-36055I1513J0D01*
G03X99414Y-35400I-192J351D01*
G02X99058Y-34629I657J771D01*
G01Y-33565D01*
G02X100070Y-32552I1013J0D01*
G01X101330D01*
G02X102342Y-33565I-1J-1013D01*
G01Y-34629D01*
G02X101986Y-35400I-1013J0D01*
G03X102054Y-36055I260J-304D01*
G02X102491Y-36414I-725J-1328D01*
G01X103937D01*
X105051Y-37528D01*
X105114Y-37538D01*
G02X106120Y-38050I-314J-1862D01*
G03X106680I280J285D01*
G02X109502Y-40545I1320J-1350D01*
G01Y-41403D01*
G03X109685Y-41602I200J0D01*
G02X110602Y-42600I-85J-998D01*
G01Y-46400D01*
G02X109600Y-47402I-1002J0D01*
G37*
G54D53*
X42700Y75457D03*
X-98600Y20200D03*
Y-5800D03*
Y-31800D03*
G54D52*
X62700Y75457D03*
X52700D03*
X-118600Y20200D03*
X-108600D03*
X-118600Y-5800D03*
X-108600D03*
G54D55*
X-115300Y53700D03*
X-104600Y47800D03*
X-77300Y39700D03*
X-89797Y56500D03*
X-82615Y83400D03*
X-77200Y67000D03*
X-63300Y12809D03*
X-9600Y-51800D03*
X-36300Y-42190D03*
X-13300Y15880D03*
X-38373Y42473D03*
X-28900Y81559D03*
X16286Y-52300D03*
X10700Y-41600D03*
X4600D03*
X15650Y-31100D03*
X-2214Y-27600D03*
X861Y48339D03*
X-2000Y55400D03*
X15500Y57435D03*
X2300D03*
X2582Y63800D03*
X38750Y-49700D03*
X76600Y9750D03*
X66700Y43900D03*
X106900Y8000D03*
Y-5900D03*
G54D56*
X-63309Y8991D03*
X-36300Y-28410D03*
X-30200Y42100D03*
X19350Y-31100D03*
X76500Y-1000D03*
X66100Y17000D03*
X62700Y43900D03*
G54D51*
X-133000Y-93900D03*
Y-73900D03*
X-113000Y-93900D03*
Y-73900D03*
X112000Y-93900D03*
X92000D03*
Y-73900D03*
X112000D03*
G54D54*
X62000Y-83900D03*
X99000Y70000D03*
%LPD*%
G75*
G36*
G01X24068Y26902D02*
X23845Y27125D01*
X23875Y27237D01*
G03X23930Y27650I-1538J415D01*
G01Y27906D01*
X24251Y28228D01*
X24314Y28238D01*
G03Y31962I-314J1862D01*
G01X24251Y31972D01*
X23930Y32294D01*
Y32450D01*
G03X22337Y34042I-1592J0D01*
G01X22051D01*
G02X21651Y34435I0J400D01*
G03X21601Y34830I-1888J-38D01*
G02X21991Y35320I390J90D01*
G01X61337D01*
G02X61610Y34628I0J-400D01*
G03X64190I1290J-1378D01*
G02X64463Y35320I273J292D01*
G01X85898D01*
G02X86283Y34810I1J-400D01*
G03X86874Y30898I4567J-1311D01*
G02X86539Y30280I-335J-218D01*
G01X27446D01*
X24068Y26902D01*
G37*
%LPC*%
G75*
G54D55*
X71600Y32800D03*
%LPD*%
G75*
G54D10*
X-133000Y-93900D03*
Y-73900D03*
X-123000Y-83900D03*
X-113000Y-93900D03*
Y-73900D03*
X92000Y-93900D03*
Y-73900D03*
X112000Y-93900D03*
Y-73900D03*
X102000Y-83900D03*
G54D11*
X-122500Y-57609D03*
Y-53791D03*
X-101800Y-58409D03*
Y-54591D03*
X-92700Y-82709D03*
Y-78891D03*
X-83300Y-62209D03*
Y-58391D03*
X-87700Y-66009D03*
Y-62191D03*
X28700Y-37909D03*
Y-34091D03*
X100700Y-37915D03*
Y-34097D03*
G54D20*
X-114453Y-61209D03*
X-112484D03*
X-110516D03*
X-108547D03*
G54D21*
X-105791Y-58453D03*
Y-56484D03*
Y-54516D03*
Y-52547D03*
G54D12*
X-124969Y-65900D03*
X-123000D03*
X-121031D03*
Y-62750D03*
X-123000D03*
X-124969D03*
G54D30*
X-67863Y-50920D03*
X-69831D03*
X-71800D03*
X-73769D03*
X-75737D03*
G54D40*
X-8356Y57908D03*
G54D22*
X-101500Y-47400D03*
X-95500D03*
X-3900Y-93600D03*
X-9900D03*
X-4000Y-86200D03*
X-10000D03*
X-4000Y-78800D03*
X-10000D03*
X108000Y-64400D03*
X102000D03*
X108000Y-44500D03*
X102000D03*
X108509Y-21105D03*
X102509D03*
G54D13*
X-128000Y-64325D03*
X-119987Y-52547D03*
X-118000Y-64325D03*
X-101500Y-51100D03*
X-114800Y-45300D03*
X-104600Y47800D03*
X-115300Y53700D03*
X-95300Y-78891D03*
X-99800Y-70391D03*
X-99200Y-54591D03*
X-82350Y-55550D03*
X-95200Y-67709D03*
X-82200Y-51600D03*
X-82609Y-45300D03*
X-95500Y-51100D03*
X-89797Y56500D03*
X-82615Y83400D03*
X-70100Y-82709D03*
X-68791Y-72500D03*
X-72609Y-72509D03*
X-71391Y-44300D03*
X-75209D03*
X-64191D03*
X-63300Y12809D03*
X-63309Y8991D03*
X-77300Y39700D03*
X-77200Y67000D03*
X-55400Y-56431D03*
X-60400Y-54463D03*
X-45582Y-69281D03*
X-49000Y-37700D03*
X-57800D03*
X-53400Y-47700D03*
X-58100Y-43700D03*
X-56600Y-22600D03*
X-51600Y30100D03*
X-57900Y27200D03*
X-26225Y-62325D03*
X-35600Y-62337D03*
X-40700Y-69000D03*
X-36300Y-42190D03*
Y-28410D03*
X-36900Y1691D03*
X-40679Y-9820D03*
Y-12380D03*
X-39500Y14461D03*
X-27200Y16300D03*
X-30000Y5509D03*
X-38373Y42473D03*
X-30200Y42100D03*
X-27250Y28000D03*
X-30900Y52800D03*
X-25000Y53571D03*
X-38400Y69500D03*
X-28900Y81559D03*
X-30000Y68900D03*
X-30800Y75500D03*
X-9600Y-51800D03*
X-15300Y-15600D03*
X-9900Y-28200D03*
X-19200Y-14600D03*
X-21150Y-16550D03*
X-15300Y-13150D03*
X-12500Y-2700D03*
X-13300Y15880D03*
X-12100Y30700D03*
X-8356Y62856D03*
X-5000Y45600D03*
X-22100Y50700D03*
X1892Y-77000D03*
X4600Y-41600D03*
X10700D03*
X16286Y-52300D03*
X-2214Y-27600D03*
X15650Y-31100D03*
X14947Y-11388D03*
X10214Y18900D03*
X1250Y7150D03*
X-1143Y18943D03*
X9900Y30100D03*
X800Y32000D03*
X12200Y34400D03*
X918Y29146D03*
X2300Y57435D03*
X15500D03*
X-2000Y55400D03*
X861Y48339D03*
X6000Y45100D03*
X2582Y63800D03*
X28700Y-41300D03*
X18089Y-16711D03*
X32600Y-31700D03*
X30300Y-27200D03*
X19350Y-31100D03*
X31609Y-14000D03*
X31500Y-11300D03*
X31574Y-3800D03*
X31300Y-8700D03*
X29606Y-1300D03*
X34900Y5600D03*
X24000Y30100D03*
X19763Y34400D03*
X17834Y29300D03*
X22135Y55765D03*
X38750Y-49700D03*
X54200Y-44900D03*
X39550Y-32091D03*
X39600Y-16774D03*
X57100Y-36600D03*
X63500Y-15300D03*
Y-12700D03*
X66100Y17000D03*
X71600Y32800D03*
X66700Y43900D03*
X62900Y33250D03*
X62700Y43900D03*
X88600Y-54570D03*
X88597Y-34097D03*
X76500Y-1000D03*
X76600Y9750D03*
X108000Y-39400D03*
X104800D03*
X102600Y-16774D03*
X108509Y-15291D03*
X106900Y-5900D03*
Y8000D03*
G54D31*
X-48000Y-83900D03*
X62000D03*
X99000Y70000D03*
G54D50*
G01X-123000Y-65900D02*
Y-83900D01*
G01X-117209Y-56484D02*
X-120482D01*
G03X-122024Y-57123I0J-2180D01*
G01X-122500Y-57599D01*
Y-57609D01*
G01D02*
X-122661Y-57770D01*
G03X-123000Y-58588I817J-818D01*
G01Y-62750D01*
G01X-105509Y-64000D02*
X-107392D01*
X-108547Y-62845D01*
Y-61209D01*
G01X-97600Y-63891D02*
X-101582D01*
X-101691Y-64000D01*
G01X-105791Y-58453D02*
X-101844D01*
X-101800Y-58409D01*
G01D02*
X-101791Y-58400D01*
X-98309D01*
G01X-83300Y-62209D02*
X-83318Y-62191D01*
X-87700D01*
G01X-79280Y-60369D02*
X-81869D01*
X-83300Y-61800D01*
Y-62209D01*
G01X-90609Y-58400D02*
X-94491D01*
G01X-97600Y-63891D02*
X-92700D01*
G01D02*
X-89916D01*
X-87798Y-66009D01*
X-87700D01*
G01D02*
X-82952D01*
X-79280Y-62337D01*
G01X-86791Y-58400D02*
X-83309D01*
X-83300Y-58391D01*
G01D02*
X-79289D01*
X-79280Y-58400D01*
G01X-12100Y30700D02*
X-38701D01*
X-47320Y22081D01*
X-52746D01*
G01X17850Y31900D02*
X17614D01*
X10814Y25100D01*
X2000D01*
X-21398Y48500D01*
X-38531D01*
X-43986Y53955D01*
Y58400D01*
G01X17834Y28200D02*
X12334Y22700D01*
X2000D01*
X-21600Y46300D01*
X-40662D01*
X-48317Y53955D01*
Y58400D01*
G01X-22100Y50700D02*
X-32069D01*
X-35324Y53955D01*
Y58400D01*
G01X-26663D02*
Y55263D01*
X-25000Y53600D01*
Y53571D01*
G01X-18002Y58400D02*
Y53694D01*
X3650Y32042D01*
Y32000D01*
G01X-22332Y58400D02*
Y53877D01*
X-19900Y51445D01*
Y49923D01*
X-13Y30036D01*
X28D01*
X918Y29146D01*
G01X1250Y7150D02*
X6550D01*
X28100Y28700D01*
X96050D01*
X100850Y33500D01*
X101600D01*
G01X-1143Y18943D02*
X1329D01*
X1372Y18900D01*
X3750D01*
G01X3650Y32000D02*
X800D01*
G01X12200Y34400D02*
X14164D01*
X16664Y36900D01*
X87450D01*
X90850Y33500D01*
X91600D01*
G01X3650Y28200D02*
X1900D01*
X954Y29146D01*
X918D01*
G01X17850Y31900D02*
X19763Y33813D01*
Y34400D01*
G01X17834Y28200D02*
X17850D01*
G01X17834Y29300D02*
Y28200D01*
G01X54200Y-44900D02*
Y15400D01*
X62300Y23500D01*
X91600D01*
G01X102000Y-64400D02*
Y-63205D01*
G03X100739Y-60161I-4305J0D01*
G03X97695Y-58900I-3044J-3044D01*
G01X94000D01*
G01X102000Y-64400D02*
Y-83900D01*
G54D23*
X-108547Y-49791D03*
X-110516D03*
X-112484D03*
X-114453D03*
G54D32*
X-53400Y-43700D03*
Y-37700D03*
X34900Y-4400D03*
Y1600D03*
X106900Y4100D03*
Y-1900D03*
G54D41*
X17400Y-94500D03*
X7400D03*
X17400Y-84500D03*
X7400D03*
X17400Y-74500D03*
X7400D03*
X17400Y-64500D03*
X91600Y23500D03*
Y33500D03*
X101600Y23500D03*
Y33500D03*
Y43500D03*
G54D14*
X-118600Y-31800D03*
Y-5800D03*
Y20200D03*
X-98600Y-31800D03*
X-108600D03*
X-98600Y-5800D03*
X-108600D03*
X-98600Y20200D03*
X-108600D03*
X42700Y75457D03*
X52700D03*
X62700D03*
G54D33*
X-52746Y22081D03*
G54D24*
X-86637Y-75879D03*
Y-85721D03*
X-78763D03*
Y-75879D03*
G54D42*
X7400Y-64500D03*
X91600Y43500D03*
G54D15*
X-128600Y-31800D03*
Y-5800D03*
Y20200D03*
X72700Y75457D03*
G54D43*
X14947Y-16711D03*
X20853D03*
G54D34*
X-54025Y27987D03*
G54D16*
X-101691Y-64000D03*
X-105509D03*
X-110491Y-65300D03*
X-114309D03*
X-82609Y-68900D03*
X-94491Y-58400D03*
X-98309D03*
X-78791Y-68900D03*
X-68791Y-69900D03*
X-72609D03*
X-64191Y-46900D03*
X-68009D03*
X-71391D03*
X-75209D03*
G54D25*
X-97600Y-63891D03*
Y-67709D03*
X-92700Y-63891D03*
Y-67709D03*
X-72700Y-78891D03*
Y-82709D03*
X28700Y-25991D03*
Y-29809D03*
X34400Y-9391D03*
Y-13209D03*
G54D44*
X3750Y18900D03*
X7450D03*
X3650Y32000D03*
X7350D03*
X3650Y28200D03*
X7350D03*
X17850Y31900D03*
X21550D03*
X17850Y28200D03*
X21550D03*
G54D35*
X-53041Y57908D03*
G54D17*
X-105509Y-68000D03*
X-101691D03*
X-111709Y-45300D03*
X-107891D03*
X-90609Y-58400D03*
X-86791D03*
X-82609Y-47900D03*
X-78791D03*
X32191Y-34600D03*
X36009D03*
X32491Y-25400D03*
X36309D03*
X32491Y-21100D03*
X36309D03*
X32491Y-28900D03*
X36309D03*
X100591Y-49800D03*
X104409D03*
G54D26*
X-71800Y-58400D03*
G54D27*
X-79280Y-54463D03*
Y-56431D03*
Y-58400D03*
Y-60369D03*
Y-62337D03*
G54D36*
X-48317Y58400D03*
X-43986D03*
X-39655D03*
X-35324D03*
X-30994D03*
X-26663D03*
X-22332D03*
X-18002D03*
G54D45*
X45968Y-54570D03*
Y-58900D03*
Y-63231D03*
Y-34097D03*
Y-45908D03*
Y-50239D03*
Y-16774D03*
Y-21105D03*
Y-25436D03*
Y-29766D03*
Y-8113D03*
Y-12444D03*
X94000Y-63231D03*
Y-58900D03*
Y-54570D03*
Y-50239D03*
Y-45908D03*
Y-34097D03*
Y-29766D03*
Y-25436D03*
Y-21105D03*
Y-16774D03*
Y-12444D03*
G54D18*
X-111500Y-55500D03*
G54D28*
X-75737Y-65880D03*
X-73769D03*
X-71800D03*
X-69831D03*
X-67863D03*
G54D46*
X94000Y-8113D03*
G54D19*
X-117209Y-54516D03*
Y-56484D03*
Y-58453D03*
Y-52547D03*
G54D37*
X-33550Y65300D03*
X-37250D03*
X-33550Y68900D03*
X-37250D03*
X36250Y-16800D03*
X32550D03*
X104650Y-53500D03*
X100950D03*
G54D47*
G01X-133000Y-98894D02*
Y-93900D01*
G01D02*
Y-88906D01*
G01X-137994Y-93900D02*
X-133000D01*
G01D02*
X-128006D01*
G01X-133000Y-78894D02*
Y-73900D01*
G01D02*
Y-68906D01*
G01X-137994Y-73900D02*
X-133000D01*
G01D02*
X-128006D01*
G01X-122500Y-53791D02*
X-122402D01*
X-121158Y-52547D01*
X-119987D01*
G01X-128000Y-64325D02*
X-126425Y-65900D01*
G01X-121031D02*
X-119575D01*
G01X-128000Y-64325D02*
X-126425Y-62750D01*
G01Y-65900D02*
X-124969D01*
G01X-126425Y-62750D02*
X-124969D01*
G01X-119550D02*
X-121031D01*
G01X-124969D02*
Y-60965D01*
G01X-125781D02*
X-124969Y-62750D01*
G01X-121031D02*
Y-60965D01*
G01Y-62750D02*
X-120219Y-60965D01*
G01X-121031Y-67685D02*
Y-65900D01*
G01D02*
X-120219Y-67685D01*
G01X-124969D02*
Y-65900D01*
G01X-125781Y-67685D02*
X-124969Y-65900D01*
G01X-124344Y-53791D02*
X-122500D01*
G01D02*
Y-52045D01*
G01X-113000Y-98894D02*
Y-93900D01*
G01D02*
Y-88906D01*
G01X-117994Y-93900D02*
X-113000D01*
G01D02*
X-108006D01*
G01X-113000Y-78894D02*
Y-73900D01*
G01D02*
Y-68906D01*
G01X-117994Y-73900D02*
X-113000D01*
G01D02*
X-108006D01*
G01X-110516Y-61209D02*
Y-65275D01*
X-110491Y-65300D01*
G01X-105509Y-68000D02*
X-107889D01*
X-110491Y-65398D01*
Y-65300D01*
G01X-101691Y-68000D02*
Y-68500D01*
X-99800Y-70391D01*
G01X-105791Y-52547D02*
Y-54516D01*
G01D02*
Y-56484D01*
G01X-101800Y-54591D02*
X-105716D01*
X-105791Y-54516D01*
G01Y-56484D02*
X-110516D01*
X-111500Y-55500D01*
G01X-114453Y-61209D02*
Y-65156D01*
X-114309Y-65300D01*
G01X-114453Y-61209D02*
X-112484D01*
G01X-117209Y-52547D02*
Y-54516D01*
G01X-105791D02*
X-110516D01*
G01D02*
X-111500Y-55500D01*
G01X-112484Y-56484D02*
X-111500Y-55500D01*
G01X-114453Y-58453D02*
X-112484Y-56484D01*
G01X-117209Y-58453D02*
X-114453D01*
G01X-112484Y-54516D02*
X-111500Y-55500D01*
G01X-99200Y-54591D02*
X-101800D01*
G01X-110516Y-54516D02*
X-108547Y-52547D01*
X-105791D01*
G01X-117209Y-54516D02*
X-112484D01*
G01X-110516D02*
Y-49791D01*
G01X-114453Y-58453D02*
Y-61209D01*
G01X-112484Y-56484D02*
Y-61209D01*
G01Y-54516D02*
X-114453Y-52547D01*
X-117209D01*
G01X-118000Y-64325D02*
Y-64300D01*
X-119550Y-62750D01*
G01X-114453Y-61209D02*
X-115945D01*
G01X-119575Y-65900D02*
X-118000Y-64325D01*
G01X-115945Y-61209D02*
X-117209Y-59945D01*
G01D02*
Y-58453D01*
G01X-105791Y-54516D02*
X-103711D01*
G01X-105791D02*
X-103711Y-53322D01*
G01X-105791Y-56484D02*
X-103711D01*
G01X-105791D02*
X-103711Y-55290D01*
G01X-112484Y-63289D02*
Y-61209D01*
G01X-113678Y-63289D02*
X-112484Y-61209D01*
G01X-114453D02*
X-113259Y-63289D01*
G01X-115647D02*
X-114453Y-61209D01*
G01X-119289Y-58453D02*
X-117209D01*
G01X-119289Y-59647D02*
X-117209Y-58453D01*
G01X-119289Y-54516D02*
X-117209D01*
G01X-119289Y-53322D02*
X-117209Y-54516D01*
G01X-119289Y-53741D02*
X-117209Y-52547D01*
G01X-103644Y-52845D02*
X-101800Y-54591D01*
G01D02*
X-99956Y-56337D01*
G01X-114309Y-67144D02*
Y-65300D01*
G01D02*
Y-63456D01*
G01X-116055Y-65300D02*
X-114309D01*
G01X-108547Y-49791D02*
Y-45956D01*
X-107891Y-45300D01*
G01X-101500Y-47400D02*
X-105889D01*
X-107891Y-45398D01*
Y-45300D01*
G01X-101500Y-47400D02*
Y-51100D01*
G01X-110516Y-49791D02*
Y-46591D01*
X-111709Y-45398D01*
Y-45300D01*
G01D02*
X-114800D01*
G01X-119987Y-52547D02*
X-117209D01*
G01X-105791D02*
Y-51353D01*
G01Y-52547D02*
X-103711D01*
G01X-117209D02*
Y-51353D01*
G01X-111709Y-45300D02*
Y-43456D01*
G01X-113455Y-47144D02*
X-111709Y-45300D01*
G01X-102052Y-31800D02*
X-98600D01*
G01X-102052Y-5800D02*
X-98600D01*
G01X-102052Y20200D02*
X-98600D01*
G01X-105923Y46477D02*
X-104600Y47800D01*
G01D02*
X-103277Y49123D01*
G01X-105923D02*
X-104600Y47800D01*
G01D02*
X-103277Y46477D01*
G01X-116623Y52377D02*
X-115300Y53700D01*
G01D02*
X-113977Y55023D01*
G01X-116623D02*
X-115300Y53700D01*
G01D02*
X-113977Y52377D01*
G01X-82609Y-68900D02*
Y-81299D01*
X-86637Y-85327D01*
Y-85721D01*
G01D02*
X-91732D01*
X-92700Y-84753D01*
Y-82709D01*
G01Y-78891D02*
X-95300D01*
G01X-92700D02*
Y-76847D01*
G01D02*
X-91732Y-75879D01*
G01D02*
X-86637D01*
G01Y-79337D02*
Y-75879D01*
G01D02*
Y-72421D01*
G01X-81827Y-85721D02*
X-78763D01*
G01X-92700Y-78891D02*
X-90856D01*
G01X-94544Y-77145D02*
X-92700Y-78891D01*
G01X-75737Y-65880D02*
X-79687D01*
X-82609Y-68802D01*
Y-68900D01*
G01X-92700Y-67709D02*
X-95200D01*
G01D02*
X-97600D01*
G01X-79280Y-56431D02*
X-81469D01*
G01X-95500Y-50901D02*
X-99190Y-54591D01*
X-99200D01*
G01X-81469Y-56431D02*
X-82350Y-55550D01*
G01X-92700Y-67709D02*
X-90856D01*
G01X-92700Y-69455D02*
Y-67709D01*
G01X-97600Y-69455D02*
Y-67709D01*
G01D02*
X-95756Y-69455D01*
G01X-98600Y-37502D02*
Y-31800D01*
G01X-79280Y-54463D02*
X-80166D01*
X-82200Y-52429D01*
Y-51600D01*
G01X-82609Y-47900D02*
Y-45300D01*
G01X-95500Y-51100D02*
Y-50901D01*
G01D02*
Y-47400D01*
G01X-84355Y-47900D02*
X-82609D01*
G01X-84355Y-49744D02*
X-82609Y-47900D01*
G01X-95500Y-47400D02*
Y-44798D01*
G01X-97802Y-47400D02*
X-95500D01*
G01D02*
X-93198D01*
G01X-98600Y-31800D02*
Y-26098D01*
G01Y-31800D02*
X-95148D01*
G01X-98600Y-11502D02*
Y-5800D01*
G01D02*
Y-98D01*
G01Y-5800D02*
X-95148D01*
G01X-98600Y14498D02*
Y20200D01*
G01D02*
Y25902D01*
G01Y20200D02*
X-95148D01*
G01X-91120Y55177D02*
X-89797Y56500D01*
G01D02*
X-88474Y57823D01*
G01X-91120D02*
X-89797Y56500D01*
G01D02*
X-88474Y55177D01*
G01X-83938Y82077D02*
X-82615Y83400D01*
G01D02*
X-81292Y82077D01*
G01X-82615Y83400D02*
X-81292Y84723D01*
G01X-83938D02*
X-82615Y83400D01*
G01X-78791Y-68900D02*
Y-72095D01*
X-78763Y-72123D01*
Y-75879D01*
G01D02*
X-73668D01*
X-72700Y-76847D01*
Y-78891D01*
G01Y-82709D02*
X-70100D01*
G01X-78763Y-85721D02*
X-73668D01*
G01D02*
X-72700Y-84753D01*
G01D02*
Y-82709D01*
G01X-78763Y-89179D02*
Y-85721D01*
G01D02*
Y-82263D01*
G01X-74544Y-82709D02*
X-72700D01*
G01X-74544Y-80963D02*
X-72700Y-82709D01*
G01X-78791Y-68900D02*
X-75594D01*
X-73769Y-67075D01*
Y-65880D01*
G01X-64320Y-58400D02*
X-32900D01*
X-21200Y-70100D01*
X12250D01*
X16650Y-74500D01*
X17400D01*
G01X-64320Y-60369D02*
X-34231D01*
X-20100Y-74500D01*
X7400D01*
G01X-35600Y-62337D02*
X-64320D01*
G01X-67863Y-65880D02*
X-36022D01*
X-23102Y-78800D01*
X-10000D01*
G01X-64320Y-56431D02*
X-55400D01*
G01X-64320Y-54463D02*
X-60400D01*
G01X-69831Y-65880D02*
Y-68762D01*
X-68791Y-69802D01*
Y-69900D01*
G01D02*
Y-72500D01*
G01X-72609Y-69900D02*
Y-72509D01*
G01Y-69900D02*
X-71800Y-69091D01*
Y-65880D01*
G01X-74355Y-69900D02*
X-72609D01*
G01X-74355Y-71744D02*
X-72609Y-69900D01*
G01X-75737Y-50920D02*
X-77913D01*
X-78791Y-50042D01*
Y-47900D01*
G01X-69831Y-50920D02*
Y-49530D01*
X-68009Y-47708D01*
Y-46900D01*
G01X-71800Y-50920D02*
Y-47309D01*
X-71391Y-46900D01*
G01D02*
Y-44300D01*
G01X-75209Y-46900D02*
Y-44300D01*
G01X-64191Y-46900D02*
Y-44300D01*
G01X-73769Y-50920D02*
Y-48438D01*
X-75209Y-46998D01*
Y-46900D01*
G01X-64191D02*
Y-49042D01*
G01D02*
X-66069Y-50920D01*
G01D02*
X-67863D01*
G01X-64191Y-46900D02*
X-62445D01*
G01X-65937Y-48744D02*
X-64191Y-46900D01*
G01X-67863Y-50920D02*
X-66649Y-48820D01*
G01X-67863Y-50920D02*
X-66649Y-51970D01*
G01X-75209Y-46900D02*
X-73463Y-45056D01*
G01X-76955D02*
X-75209Y-46900D01*
G01X-64623Y11486D02*
X-63300Y12809D01*
G01D02*
X-61977Y14132D01*
G01X-64623D02*
X-63300Y12809D01*
G01D02*
X-61977Y11486D01*
G01X-78623Y38377D02*
X-77300Y39700D01*
G01D02*
X-75977Y41023D01*
G01X-78623D02*
X-77300Y39700D01*
G01D02*
X-75977Y38377D01*
G01X-78523Y65677D02*
X-77200Y67000D01*
G01D02*
X-75877Y68323D01*
G01X-78523D02*
X-77200Y67000D01*
G01D02*
X-75877Y65677D01*
G01X-45582Y-69281D02*
X-21263Y-93600D01*
X-9900D01*
G01X-49000Y-37700D02*
X-47677Y-36377D01*
G01X-50323D02*
X-49000Y-37700D01*
G01D02*
X-47677Y-39023D01*
G01X-53400Y-37700D02*
X-57800D01*
G01X-53400Y-43700D02*
Y-47700D01*
G01X-54025Y27987D02*
X-51912Y30100D01*
X-51600D01*
G01X-54025Y27987D02*
Y52971D01*
G01X-51600Y30100D02*
X-50277Y28777D01*
G01X-53041Y57908D02*
Y62859D01*
G01Y53955D02*
Y57908D01*
G01X-54025Y52971D02*
X-53041Y53955D01*
G01Y62859D02*
X-52041Y63859D01*
X-40383D01*
X-39655Y63131D01*
G01X-40700Y-69000D02*
X-23500Y-86200D01*
X-10000D01*
G01X-26225Y-62325D02*
X-19950Y-68600D01*
X12550D01*
X16650Y-64500D01*
X17400D01*
G01X-37623Y-43513D02*
X-36300Y-42190D01*
G01D02*
X-34977Y-40867D01*
G01X-37623D02*
X-36300Y-42190D01*
G01D02*
X-34977Y-43513D01*
G01X-38223Y368D02*
X-36900Y1691D01*
G01D02*
X-35577Y3014D01*
G01X-38223D02*
X-36900Y1691D01*
G01X-19200Y-14600D02*
X-23980Y-9820D01*
X-40679D01*
G01X-21150Y-16550D02*
X-25320Y-12380D01*
X-40679D01*
G01X-40823Y13138D02*
X-39500Y14461D01*
G01X-40823Y15784D02*
X-39500Y14461D01*
G01D02*
X-38177Y13138D01*
G01X-39696Y41150D02*
X-38373Y42473D01*
G01D02*
X-37050Y43796D01*
G01X-39696D02*
X-38373Y42473D01*
G01D02*
X-37050Y41150D01*
G01X-39655Y58400D02*
Y63131D01*
G01D02*
X-37486Y65300D01*
X-37250D01*
G01X-30994Y58400D02*
Y62980D01*
X-33314Y65300D01*
X-33550D01*
G01X-37250Y68900D02*
Y65300D01*
G01Y68900D02*
X-37800D01*
X-38400Y69500D01*
G01X-39723Y68177D02*
X-38400Y69500D01*
G01D02*
X-37077Y70823D01*
G01X-39723D02*
X-38400Y69500D01*
G01X-30223Y80236D02*
X-28900Y81559D01*
G01D02*
X-27577Y82882D01*
G01X-30223D02*
X-28900Y81559D01*
G01D02*
X-27577Y80236D01*
G01X-33550Y68900D02*
Y65300D01*
G01X-30000Y68900D02*
X-33550D01*
G01X-3900Y-93600D02*
X-1300D01*
X2900Y-89400D01*
X11750D01*
X16650Y-84500D01*
X17400D01*
G01X7400D02*
X2100D01*
X400Y-86200D01*
X-4000D01*
G01Y-78800D02*
X92D01*
X1892Y-77000D01*
G01X-10923Y-53123D02*
X-9600Y-51800D01*
G01D02*
X-8277Y-50477D01*
G01X-10923D02*
X-9600Y-51800D01*
G01D02*
X-8277Y-53123D01*
G01X-3537Y-28923D02*
X-2214Y-27600D01*
G01X-3537Y-26277D02*
X-2214Y-27600D01*
G01X-12500Y-2700D02*
X-10614D01*
X-9900Y-3414D01*
Y-28200D01*
G01X-15300Y-13150D02*
X-13977Y-11827D01*
G01X-16623D02*
X-15300Y-13150D01*
G01X-8553Y15880D02*
X-13300D01*
G01X-8553D02*
Y20097D01*
G01X-6978Y21672D02*
Y25428D01*
G01X-8553Y20097D02*
X-6978Y21672D01*
G01X-8553Y12127D02*
Y15880D01*
G01D02*
X-5882D01*
G01X-14623Y14557D02*
X-13300Y15880D01*
G01D02*
X-11977Y17203D01*
G01X-14623D02*
X-13300Y15880D01*
G01D02*
X-11977Y14557D01*
G01X-6978Y25428D02*
Y28886D01*
G01X-9255Y25428D02*
X-6978D01*
G01D02*
X-4701D01*
G01X-8356Y57908D02*
Y62856D01*
G01X-9679Y61533D02*
X-8356Y62856D01*
G01D02*
X-7033Y64179D01*
G01X-9679D02*
X-8356Y62856D01*
G01D02*
X-7033Y61533D01*
G01X-3323Y54077D02*
X-2000Y55400D01*
G01X-3323Y56723D02*
X-2000Y55400D01*
G01X-8356Y54253D02*
Y57908D01*
G01X-12011D02*
X-8356D01*
G01D02*
X-4701D01*
G01X13198Y-94500D02*
X17400D01*
G01X14963Y-53623D02*
X16286Y-52300D01*
G01X3277Y-42923D02*
X4600Y-41600D01*
G01D02*
X5923Y-40277D01*
G01X3277D02*
X4600Y-41600D01*
G01D02*
X5923Y-42923D01*
G01X9377D02*
X10700Y-41600D01*
G01D02*
X12023Y-40277D01*
G01X9377D02*
X10700Y-41600D01*
G01D02*
X12023Y-42923D01*
G01X16286Y-52300D02*
X17609Y-50977D01*
G01X14963D02*
X16286Y-52300D01*
G01D02*
X17609Y-53623D01*
G01X-2214Y-27600D02*
X-891Y-26277D01*
G01X-2214Y-27600D02*
X-891Y-28923D01*
G01X14327Y-32423D02*
X15650Y-31100D01*
G01D02*
X16973Y-29777D01*
G01X14327D02*
X15650Y-31100D01*
G01D02*
X16973Y-32423D01*
G01X14947Y-16711D02*
Y-11388D01*
G01X7450Y18900D02*
X10214D01*
G01X9900Y30100D02*
X10000D01*
X8100Y32000D01*
X7350D01*
G01X9900Y30100D02*
X8000Y28200D01*
X7350D01*
G01X101600Y43500D02*
X100850D01*
X96150Y38800D01*
X12300D01*
X6000Y45100D01*
G01X1259Y62477D02*
X2582Y63800D01*
G01D02*
X3905Y62477D01*
G01X977Y56112D02*
X2300Y57435D01*
G01D02*
X3623Y58758D01*
G01X977D02*
X2300Y57435D01*
G01D02*
X3623Y56112D01*
G01X14177D02*
X15500Y57435D01*
G01D02*
X16823Y58758D01*
G01X14177D02*
X15500Y57435D01*
G01D02*
X16823Y56112D01*
G01X-2000Y55400D02*
X-677Y56723D01*
G01X-2000Y55400D02*
X-677Y54077D01*
G01X-462Y47016D02*
X861Y48339D01*
G01D02*
X2184Y49662D01*
G01X-462D02*
X861Y48339D01*
G01D02*
X2184Y47016D01*
G01X2582Y63800D02*
X3905Y65123D01*
G01X1259D02*
X2582Y63800D01*
G01X17400Y-97952D02*
Y-94500D01*
G01D02*
Y-91048D01*
G01Y-94500D02*
X21602D01*
G01X28700Y-37909D02*
Y-41300D01*
G01X32191Y-34600D02*
X31691Y-34100D01*
X28709D01*
X28700Y-34091D01*
G01X20853Y-16711D02*
X18089D01*
G01X32550Y-16800D02*
Y-15650D01*
X31609Y-14709D01*
Y-14000D01*
G01X20853Y-21350D02*
Y-16711D01*
G01D02*
Y-12072D01*
G01X30300Y-27200D02*
X29909D01*
X28700Y-25991D01*
G01X31500Y-11300D02*
X29500Y-13300D01*
Y-18011D01*
X32491Y-21002D01*
Y-21100D01*
G01X31574Y-3800D02*
X26100Y-9274D01*
Y-27307D01*
X28602Y-29809D01*
X28700D01*
G01X32491Y-28900D02*
X31591Y-29800D01*
X28709D01*
X28700Y-29809D01*
G01X31300Y-8700D02*
X27800Y-12200D01*
Y-20611D01*
X32491Y-25302D01*
Y-25400D01*
G01X29606Y-1300D02*
X24299Y-6607D01*
Y-29788D01*
X28602Y-34091D01*
X28700D01*
G01X34400Y-9391D02*
Y-4900D01*
X34900Y-4400D01*
G01Y1600D02*
X35200D01*
X39500Y-2700D01*
Y-10913D01*
X41031Y-12444D01*
X45968D01*
G01X34900Y1600D02*
Y5600D01*
G01X36250Y-16800D02*
Y-14251D01*
X35208Y-13209D01*
X34400D01*
G01X24000Y30100D02*
X22100Y28200D01*
X21550D01*
G01Y31900D02*
X22200D01*
X24000Y30100D01*
G01X37427Y-51023D02*
X38750Y-49700D01*
G01D02*
X40073Y-48377D01*
G01X37427D02*
X38750Y-49700D01*
G01D02*
X40073Y-51023D01*
G01X36009Y-34600D02*
X38053D01*
X38553Y-34100D01*
X41028D01*
X41031Y-34097D01*
X45968D01*
G01Y-25436D02*
X38389D01*
X38353Y-25400D01*
X36309D01*
G01X45968Y-21105D02*
X38358D01*
X38353Y-21100D01*
X36309D01*
G01X36250Y-16800D02*
X39574D01*
X39600Y-16774D01*
G01D02*
X45968D01*
G01X36309Y-28900D02*
X38353D01*
X39253Y-29800D01*
X40997D01*
X41031Y-29766D01*
X45968D01*
G01X42700Y69755D02*
Y75457D01*
G01D02*
Y81159D01*
G01X39248Y75457D02*
X42700D01*
G01D02*
X46152D01*
G01X57100Y-36600D02*
X58423Y-35277D01*
G01X57100Y-36600D02*
X58423Y-37923D01*
G01X62177Y-16623D02*
X63500Y-15300D01*
G01D02*
X64823Y-16623D01*
G01X70277Y31477D02*
X71600Y32800D01*
G01D02*
X72923Y34123D01*
G01X70277D02*
X71600Y32800D01*
G01D02*
X72923Y31477D01*
G01X65377Y42577D02*
X66700Y43900D01*
G01D02*
X68023Y45223D01*
G01X65377D02*
X66700Y43900D01*
G01D02*
X68023Y42577D01*
G01X92000Y-98894D02*
Y-93900D01*
G01D02*
Y-88906D01*
G01X87006Y-93900D02*
X92000D01*
G01D02*
X96994D01*
G01X92000Y-78894D02*
Y-73900D01*
G01D02*
Y-68906D01*
G01X87006Y-73900D02*
X92000D01*
G01D02*
X96994D01*
G01X94000Y-54570D02*
X99644D01*
X100714Y-53500D01*
X100950D01*
G01X94000Y-54570D02*
X88600D01*
G01X87277Y-55893D02*
X88600Y-54570D01*
G01D02*
X89923Y-53247D01*
G01X87277D02*
X88600Y-54570D01*
G01D02*
X89923Y-55893D01*
G01X94000Y-50239D02*
X100152D01*
X100591Y-49800D01*
G01X94000Y-45908D02*
X100592D01*
X102000Y-44500D01*
G01X87274Y-35420D02*
X88597Y-34097D01*
G01D02*
X89920Y-35420D01*
G01X94000Y-16774D02*
X102600D01*
G01X102509Y-21105D02*
X94000D01*
G01Y-34097D02*
X100700D01*
G01X94000D02*
X88597D01*
G01D02*
X89920Y-32774D01*
G01X87274D02*
X88597Y-34097D01*
G01X75277Y8427D02*
X76600Y9750D01*
G01D02*
X77923Y11073D01*
G01X75277D02*
X76600Y9750D01*
G01D02*
X77923Y8427D01*
G01X112000Y-98894D02*
Y-93900D01*
G01D02*
Y-88906D01*
G01X107006Y-93900D02*
X112000D01*
G01D02*
X116994D01*
G01X112000Y-78894D02*
Y-73900D01*
G01D02*
Y-68906D01*
G01X107006Y-73900D02*
X112000D01*
G01D02*
X116994D01*
G01X104650Y-53500D02*
Y-56550D01*
X108000Y-59900D01*
Y-64400D01*
G01X104650Y-53500D02*
Y-50041D01*
X104409Y-49800D01*
G01X108000Y-39400D02*
Y-44500D01*
G01X104800Y-39400D02*
X103315Y-37915D01*
X100700D01*
G01X108509Y-15291D02*
Y-21105D01*
G01X100700Y-34097D02*
X102544D01*
G01X100700D02*
Y-32351D01*
G01X106900Y4100D02*
Y8000D01*
G01X104298Y4100D02*
X106900D01*
G01D02*
X109502D01*
G01X104298Y-1900D02*
X106900D01*
G01D02*
Y-5900D01*
G01Y-1900D02*
X109502D01*
G01X105577Y-7223D02*
X106900Y-5900D01*
G01D02*
X108223Y-4577D01*
G01X105577D02*
X106900Y-5900D01*
G01D02*
X108223Y-7223D01*
G01X101600Y20048D02*
Y23500D01*
G01D02*
Y26952D01*
G01X97398Y23500D02*
X101600D01*
G01D02*
X105802D01*
G01X105577Y6677D02*
X106900Y8000D01*
G01D02*
X108223Y9323D01*
G01X105577D02*
X106900Y8000D01*
G01D02*
X108223Y6677D01*
G54D38*
X-8553Y15880D03*
G54D29*
X-64320Y-62337D03*
Y-60369D03*
Y-58400D03*
Y-56431D03*
Y-54463D03*
G54D48*
G01X-30000Y5509D02*
X-55089Y-19580D01*
Y-21089D01*
X-56600Y-22600D01*
G01X-30000Y5509D02*
X-27200Y8309D01*
Y16300D01*
G01D02*
Y26064D01*
X-27250Y26114D01*
Y28000D01*
G54D39*
X-6978Y25428D03*
G54D49*
G01X-30800Y75500D02*
X12900D01*
X22135Y66265D01*
Y55765D01*
M02*
