G04 ================== begin FILE IDENTIFICATION RECORD ==================*
G04 Layout Name:  M:/TDP4/Data Logger Full/allegro/datalogger.brd*
G04 Film Name:    datalogger.G2L*
G04 File Format:  Gerber RS274X*
G04 File Origin:  Cadence Allegro 17.2-S055*
G04 Origin Date:  Mon Mar 22 02:40:33 2021*
G04 *
G04 Layer:  VIA CLASS/LAYER2*
G04 Layer:  PIN/LAYER2*
G04 Layer:  ETCH/LAYER2*
G04 *
G04 Offset:    (0.00 0.00)*
G04 Mirror:    No*
G04 Mode:      Positive*
G04 Rotation:  0*
G04 FullContactRelief:  No*
G04 UndefLineWidth:     10.00*
G04 ================== end FILE IDENTIFICATION RECORD ====================*
%FSLAX25Y25*MOIN*%
%IR0*IPPOS*OFA0.00000B0.00000*MIA0B0*SFA1.00000B1.00000*%
%ADD12O,.055X.1*%
%ADD13R,.055X.1*%
%ADD14C,.08*%
%ADD11C,.01772*%
%ADD10C,.08583*%
%ADD15O,.07X.055*%
%ADD16R,.07X.055*%
%ADD17C,.01*%
%ADD21O,.09504X.14004*%
%ADD20C,.02776*%
%ADD18C,.03776*%
%ADD22C,.20004*%
%ADD19C,.12586*%
G75*
%LPD*%
G75*
G36*
G01X-130408Y-99635D02*
G03X-138735Y-91308I-2592J5735D01*
G02X-139499Y-91144I-364J165D01*
G01Y-76656D01*
G02X-138735Y-76492I400J-1D01*
G03Y-71308I5735J2592D01*
G02X-139499Y-71144I-364J165D01*
G01Y-42100D01*
X-76621D01*
G02X-76374Y-42815I0J-400D01*
G03X-74044I1165J-1485D01*
G02X-73797Y-42100I247J315D01*
G01X-65603D01*
G02X-65356Y-42815I0J-400D01*
G03X-63026I1165J-1485D01*
G02X-62779Y-42100I247J315D01*
G01X-60048D01*
G02X-59707Y-42710I0J-400D01*
G03X-56493I1607J-990D01*
G02X-56152Y-42100I341J210D01*
G01X-46900D01*
Y-67929D01*
G03Y-70633I1318J-1352D01*
G01Y-73522D01*
G02X-47327Y-73921I-400J0D01*
G03Y-93879I-673J-9979D01*
G02X-46900Y-94278I27J-399D01*
G01Y-100399D01*
X-110244D01*
G02X-110408Y-99635I1J400D01*
G03X-115592I-2592J5735D01*
G02X-115756Y-100399I-165J-364D01*
G01X-130244D01*
G02X-130408Y-99635I1J400D01*
G37*
G36*
G01X-43898Y-100399D02*
Y-93022D01*
G03Y-74778I-4102J9122D01*
G01Y-70136D01*
G03Y-68426I-1684J855D01*
G01Y-39098D01*
X-46941D01*
G02X-47301Y-38524I0J400D01*
G03X-50699I-1699J824D01*
G02X-51059Y-39098I-360J-174D01*
G01X-56317D01*
G02X-56649Y-38475I0J400D01*
G03X-58951I-1151J775D01*
G02X-59283Y-39098I-332J-223D01*
G01X-96380D01*
G02X-96552Y-38338I1J400D01*
G03X-93848Y-34050I-2048J4288D01*
G01Y-29550D01*
G03X-103352I-4752J0D01*
G01Y-34050D01*
G03X-100648Y-38338I4752J0D01*
G02X-100820Y-39098I-173J-360D01*
G01X-106380D01*
G02X-106552Y-38338I1J400D01*
G03X-103848Y-34050I-2048J4288D01*
G01Y-29550D01*
G03X-113352I-4752J0D01*
G01Y-34050D01*
G03X-110648Y-38338I4752J0D01*
G02X-110820Y-39098I-173J-360D01*
G01X-116380D01*
G02X-116552Y-38338I1J400D01*
G03X-113848Y-34050I-2048J4288D01*
G01Y-29550D01*
G03X-123352I-4752J0D01*
G01Y-34050D01*
G03X-120648Y-38338I4752J0D01*
G02X-120820Y-39098I-173J-360D01*
G01X-124379D01*
G02X-124624Y-38382I0J400D01*
G03X-123848Y-36800I-1226J1583D01*
G01Y-26800D01*
G03X-125850Y-24798I-2002J0D01*
G01X-131350D01*
G03X-133352Y-26800I0J-2002D01*
G01Y-36800D01*
G03X-132576Y-38382I2002J1D01*
G02X-132821Y-39098I-245J-316D01*
G01X-139499D01*
Y89499D01*
X118499D01*
Y2600D01*
X82800D01*
Y-100399D01*
X-43898D01*
G37*
%LPC*%
G75*
G36*
G01X102350Y38748D02*
X100850D01*
G02Y48252I0J4752D01*
G01X102350D01*
G02Y38748I0J-4752D01*
G37*
G36*
G01X87598Y40750D02*
Y46250D01*
G02X88100Y46752I502J0D01*
G01X95100D01*
G02X95602Y46250I0J-502D01*
G01Y40750D01*
G02X95100Y40248I-502J0D01*
G01X88100D01*
G02X87598Y40750I0J502D01*
G37*
G36*
G01X67948Y70457D02*
Y80457D01*
G02X69950Y82458I2002J-1D01*
G01X75450D01*
G02X77452Y80457I1J-2001D01*
G01Y70457D01*
G02X75450Y68456I-2002J1D01*
G01X69950D01*
G02X67948Y70457I-1J2001D01*
G37*
G36*
G01X6650Y-91248D02*
X8150D01*
G02Y-97752I0J-3252D01*
G01X6650D01*
G02Y-91248I0J3252D01*
G37*
G36*
G01X18150Y-99252D02*
X16650D01*
G02Y-89748I0J4752D01*
G01X18150D01*
G02Y-99252I0J-4752D01*
G37*
G36*
G01X-133352Y15200D02*
Y25200D01*
G02X-131350Y27202I2002J0D01*
G01X-125850D01*
G02X-123848Y25200I0J-2002D01*
G01Y15200D01*
G02X-125850Y13198I-2002J0D01*
G01X-131350D01*
G02X-133352Y15200I0J2002D01*
G37*
G36*
G01Y-10800D02*
Y-800D01*
G02X-131350Y1202I2002J0D01*
G01X-125850D01*
G02X-123848Y-800I0J-2002D01*
G01Y-10800D01*
G02X-125850Y-12802I-2002J0D01*
G01X-131350D01*
G02X-133352Y-10800I0J2002D01*
G37*
G36*
G01X96270Y30815D02*
G02X92350Y28748I-3921J2685D01*
G01X90850D01*
G02Y38252I0J4752D01*
G01X92350D01*
G02X96270Y36185I-1J-4752D01*
G03X96930I330J226D01*
G02X100850Y38252I3921J-2685D01*
G01X102350D01*
G02Y28748I0J-4752D01*
G01X100850D01*
G02X96930Y30815I1J4752D01*
G03X96270I-330J-226D01*
G37*
G36*
G01X-511Y30379D02*
G03X-523Y30653I-152J131D01*
G02X2229Y30767I1323J1347D01*
G03X2241Y30493I152J-131D01*
G02X-511Y30379I-1323J-1347D01*
G37*
G36*
G01X96270Y20815D02*
G02X92350Y18748I-3921J2685D01*
G01X90850D01*
G02Y28252I0J4752D01*
G01X92350D01*
G02X96270Y26185I-1J-4752D01*
G03X96930I330J226D01*
G02X100850Y28252I3921J-2685D01*
G01X102350D01*
G02Y18748I0J-4752D01*
G01X100850D01*
G02X96930Y20815I1J4752D01*
G03X96270I-330J-226D01*
G37*
G36*
G01X31484Y-1492D02*
G03X31828Y-1929I398J-41D01*
G02X29696Y-3608I-254J-1871D01*
G03X29352Y-3171I-398J41D01*
G02X31484Y-1492I254J1871D01*
G37*
G36*
G01X-42067Y-11100D02*
G02X-39291I1388J1280D01*
G02X-42067I-1388J-1280D01*
G37*
G36*
G01X32988Y-12463D02*
G03X32998Y-12721I157J-123D01*
G02X30121Y-12837I-1389J-1279D01*
G03X30111Y-12579I-157J123D01*
G02X30039Y-10105I1389J1278D01*
G02X32761Y-9895I1261J1405D01*
G02X32988Y-12463I-1261J-1405D01*
G37*
G36*
G01X64614Y-13527D02*
G03X64653Y-13805I161J-119D01*
G02X62347I-1153J-1495D01*
G03X62386Y-13527I-122J159D01*
G02X64614I1114J827D01*
G37*
G36*
G01X13370Y-67938D02*
G03X12728Y-68064I-277J-289D01*
G02X10900Y-69252I-1829J814D01*
G01X3900D01*
G02X1898Y-67250I0J2002D01*
G01Y-61750D01*
G02X3900Y-59748I2002J0D01*
G01X10900D01*
G02X12728Y-60936I-1J-2002D01*
G03X13370Y-61062I365J163D01*
G02X16650Y-59748I3280J-3437D01*
G01X18150D01*
G02Y-69252I0J-4752D01*
G01X16650D01*
G02X13370Y-67938I0J4751D01*
G37*
G36*
G01X1733Y-75119D02*
G03X1916Y-74902I-16J200D01*
G02X6650Y-69748I4734J403D01*
G01X8150D01*
G02X12070Y-71815I0J-4751D01*
G03X12730I330J226D01*
G02X16650Y-69748I3920J-2684D01*
G01X18150D01*
G02Y-79252I0J-4752D01*
G01X16650D01*
G02X12730Y-77185I0J4751D01*
G03X12070I-330J-226D01*
G02X8150Y-79252I-3920J2684D01*
G01X6650D01*
G02X3633Y-78171I0J4751D01*
G03X3351Y-78198I-128J-154D01*
G02X1733Y-75119I-1459J1198D01*
G37*
G36*
G01X12070Y-87185D02*
G02X8150Y-89252I-3920J2684D01*
G01X6650D01*
G02Y-79748I0J4752D01*
G01X8150D01*
G02X12070Y-81815I0J-4751D01*
G03X12730I330J226D01*
G02X16650Y-79748I3920J-2684D01*
G01X18150D01*
G02Y-89252I0J-4752D01*
G01X16650D01*
G02X12730Y-87185I0J4751D01*
G03X12070I-330J-226D01*
G37*
G36*
G01X-22696Y52492D02*
G02X-23898Y51277I596J-1792D01*
G03X-24404Y51779I-380J123D01*
G02X-23202Y52994I-596J1792D01*
G03X-22696Y52492I380J-123D01*
G37*
G36*
G01X-19266Y-16671D02*
G02X-21271Y-14666I-1884J121D01*
G03X-21084Y-14479I-13J200D01*
G02X-17865Y-13265I1884J-121D01*
G03X-17183Y-13012I283J283D01*
G02X-14087Y-14597I1883J-138D01*
G03X-14128Y-14857I128J-153D01*
G02X-16472I-1172J-743D01*
G03X-16513Y-14597I-169J107D01*
G02X-16635Y-14485I1215J1445D01*
G03X-17317Y-14738I-283J-283D01*
G02X-19079Y-16484I-1883J138D01*
G03X-19266Y-16671I13J-200D01*
G37*
G54D21*
X62700Y75457D03*
X52700D03*
X42700D03*
X-118600Y20200D03*
X-108600D03*
X-98600D03*
X-118600Y-5800D03*
X-108600D03*
X-98600D03*
G54D20*
X-101500Y-51100D03*
X-82200Y-51600D03*
X-71391Y-44300D03*
X-68791Y-72500D03*
X-53400Y-47700D03*
X-63309Y8991D03*
X-57900Y27200D03*
X-36300Y-28410D03*
X-30200Y42100D03*
X-30000Y68900D03*
X19350Y-31100D03*
X10214Y18900D03*
X-5000Y45600D03*
X9900Y30100D03*
X28700Y-41300D03*
X39550Y-32091D03*
X30300Y-27200D03*
X34900Y5600D03*
X24000Y30100D03*
X76500Y-1000D03*
X66100Y17000D03*
X62700Y43900D03*
X62900Y33250D03*
G54D18*
X-128000Y-64325D03*
X-118000D03*
X-99800Y-70391D03*
X-119987Y-52547D03*
X-114800Y-45300D03*
X-99200Y-54591D03*
X-72609Y-72509D03*
X-95200Y-67709D03*
X-95300Y-78891D03*
X-70100Y-82709D03*
X-95500Y-51100D03*
X-82350Y-55550D03*
X-82609Y-45300D03*
X-55400Y-56431D03*
X-60400Y-54463D03*
X-115300Y53700D03*
X-104600Y47800D03*
X-77300Y39700D03*
X-89797Y56500D03*
X-82615Y83400D03*
X-77200Y67000D03*
X-40700Y-69000D03*
X-56600Y-22600D03*
X-39500Y14461D03*
X-63300Y12809D03*
X-51600Y30100D03*
X-9600Y-51800D03*
X-36300Y-42190D03*
X-26225Y-62325D03*
X-35600Y-62337D03*
X-9900Y-28200D03*
X-27200Y16300D03*
X-30000Y5509D03*
X-36900Y1691D03*
X-13300Y15880D03*
X-12500Y-2700D03*
X-27250Y28000D03*
X-38373Y42473D03*
X-30900Y52800D03*
X-12100Y30700D03*
X-28900Y81559D03*
X-38400Y69500D03*
X-30800Y75500D03*
X16286Y-52300D03*
X10700Y-41600D03*
X4600D03*
X15650Y-31100D03*
X18089Y-16711D03*
X-2214Y-27600D03*
X14947Y-11388D03*
X1250Y7150D03*
X-1143Y18943D03*
X12200Y34400D03*
X861Y48339D03*
X-2000Y55400D03*
X17834Y29300D03*
X6000Y45100D03*
X19763Y34400D03*
X-8356Y62856D03*
X15500Y57435D03*
X2300D03*
X2582Y63800D03*
X38750Y-49700D03*
X32600Y-31700D03*
X39600Y-16774D03*
X22135Y55765D03*
X57100Y-36600D03*
X54200Y-44900D03*
X76600Y9750D03*
X66700Y43900D03*
X71600Y32800D03*
X106900Y8000D03*
G54D22*
X62000Y-83900D03*
X99000Y70000D03*
G54D19*
X-113000Y-73900D03*
X-123000Y-83900D03*
%LPD*%
G75*
G54D10*
X-133000Y-93900D03*
Y-73900D03*
X-123000Y-83900D03*
X-113000Y-93900D03*
Y-73900D03*
X92000Y-93900D03*
Y-73900D03*
X112000Y-93900D03*
Y-73900D03*
X102000Y-83900D03*
G54D11*
X-128000Y-64325D03*
X-119987Y-52547D03*
X-118000Y-64325D03*
X-101500Y-51100D03*
X-114800Y-45300D03*
X-104600Y47800D03*
X-115300Y53700D03*
X-95300Y-78891D03*
X-99800Y-70391D03*
X-99200Y-54591D03*
X-82350Y-55550D03*
X-95200Y-67709D03*
X-82200Y-51600D03*
X-82609Y-45300D03*
X-95500Y-51100D03*
X-89797Y56500D03*
X-82615Y83400D03*
X-70100Y-82709D03*
X-68791Y-72500D03*
X-72609Y-72509D03*
X-71391Y-44300D03*
X-75209D03*
X-64191D03*
X-63300Y12809D03*
X-63309Y8991D03*
X-77300Y39700D03*
X-77200Y67000D03*
X-55400Y-56431D03*
X-60400Y-54463D03*
X-45582Y-69281D03*
X-49000Y-37700D03*
X-57800D03*
X-53400Y-47700D03*
X-58100Y-43700D03*
X-56600Y-22600D03*
X-51600Y30100D03*
X-57900Y27200D03*
X-26225Y-62325D03*
X-35600Y-62337D03*
X-40700Y-69000D03*
X-36300Y-42190D03*
Y-28410D03*
X-36900Y1691D03*
X-40679Y-9820D03*
Y-12380D03*
X-39500Y14461D03*
X-27200Y16300D03*
X-30000Y5509D03*
X-38373Y42473D03*
X-30200Y42100D03*
X-27250Y28000D03*
X-30900Y52800D03*
X-25000Y53571D03*
X-38400Y69500D03*
X-28900Y81559D03*
X-30000Y68900D03*
X-30800Y75500D03*
X-9600Y-51800D03*
X-15300Y-15600D03*
X-9900Y-28200D03*
X-19200Y-14600D03*
X-21150Y-16550D03*
X-15300Y-13150D03*
X-12500Y-2700D03*
X-13300Y15880D03*
X-12100Y30700D03*
X-8356Y62856D03*
X-5000Y45600D03*
X-22100Y50700D03*
X1892Y-77000D03*
X4600Y-41600D03*
X10700D03*
X16286Y-52300D03*
X-2214Y-27600D03*
X15650Y-31100D03*
X14947Y-11388D03*
X10214Y18900D03*
X1250Y7150D03*
X-1143Y18943D03*
X9900Y30100D03*
X800Y32000D03*
X12200Y34400D03*
X918Y29146D03*
X2300Y57435D03*
X15500D03*
X-2000Y55400D03*
X861Y48339D03*
X6000Y45100D03*
X2582Y63800D03*
X28700Y-41300D03*
X18089Y-16711D03*
X32600Y-31700D03*
X30300Y-27200D03*
X19350Y-31100D03*
X31609Y-14000D03*
X31500Y-11300D03*
X31574Y-3800D03*
X31300Y-8700D03*
X29606Y-1300D03*
X34900Y5600D03*
X24000Y30100D03*
X19763Y34400D03*
X17834Y29300D03*
X22135Y55765D03*
X38750Y-49700D03*
X54200Y-44900D03*
X39550Y-32091D03*
X39600Y-16774D03*
X57100Y-36600D03*
X63500Y-15300D03*
Y-12700D03*
X66100Y17000D03*
X71600Y32800D03*
X66700Y43900D03*
X62900Y33250D03*
X62700Y43900D03*
X88600Y-54570D03*
X88597Y-34097D03*
X76500Y-1000D03*
X76600Y9750D03*
X108000Y-39400D03*
X104800D03*
X102600Y-16774D03*
X108509Y-15291D03*
X106900Y-5900D03*
Y8000D03*
G54D12*
X-118600Y-31800D03*
Y-5800D03*
Y20200D03*
X-98600Y-31800D03*
X-108600D03*
X-98600Y-5800D03*
X-108600D03*
X-98600Y20200D03*
X-108600D03*
X42700Y75457D03*
X52700D03*
X62700D03*
G54D13*
X-128600Y-31800D03*
Y-5800D03*
Y20200D03*
X72700Y75457D03*
G54D14*
X-48000Y-83900D03*
X62000D03*
X99000Y70000D03*
G54D15*
X17400Y-94500D03*
X7400D03*
X17400Y-84500D03*
X7400D03*
X17400Y-74500D03*
X7400D03*
X17400Y-64500D03*
X91600Y23500D03*
Y33500D03*
X101600Y23500D03*
Y33500D03*
Y43500D03*
G54D16*
X7400Y-64500D03*
X91600Y43500D03*
G54D17*
G01X-102823Y-52423D02*
X-101500Y-51100D01*
G01D02*
X-100177Y-49777D01*
G01X-102823D02*
X-101500Y-51100D01*
G01D02*
X-100177Y-52423D01*
G01X-83523Y-52923D02*
X-82200Y-51600D01*
G01D02*
X-80877Y-50277D01*
G01X-83523D02*
X-82200Y-51600D01*
G01D02*
X-80877Y-52923D01*
G01X-70114Y-73823D02*
X-68791Y-72500D01*
G01D02*
X-67468Y-73823D01*
G01X-68791Y-72500D02*
X-67468Y-71177D01*
G01X-70114D02*
X-68791Y-72500D01*
G01X-72714Y-45623D02*
X-71391Y-44300D01*
G01D02*
X-70068Y-42977D01*
G01X-72714D02*
X-71391Y-44300D01*
G01D02*
X-70068Y-45623D01*
G01X-64632Y7668D02*
X-63309Y8991D01*
G01D02*
X-61986Y10314D01*
G01X-64632D02*
X-63309Y8991D01*
G01D02*
X-61986Y7668D01*
G01X-59123Y-39023D02*
X-57800Y-37700D01*
G01D02*
X-56477Y-36377D01*
G01X-59123D02*
X-57800Y-37700D01*
G01D02*
X-56477Y-39023D01*
G01X-54723Y-49023D02*
X-53400Y-47700D01*
G01D02*
X-52077Y-46377D01*
G01X-54723D02*
X-53400Y-47700D01*
G01D02*
X-52077Y-49023D01*
G01X-59223Y25877D02*
X-57900Y27200D01*
G01D02*
X-56577Y28523D01*
G01X-59223D02*
X-57900Y27200D01*
G01D02*
X-56577Y25877D01*
G01X-37623Y-29733D02*
X-36300Y-28410D01*
G01D02*
X-34977Y-27087D01*
G01X-37623D02*
X-36300Y-28410D01*
G01D02*
X-34977Y-29733D01*
G01X-31523Y40777D02*
X-30200Y42100D01*
G01D02*
X-28877Y43423D01*
G01X-31523D02*
X-30200Y42100D01*
G01D02*
X-28877Y40777D01*
G01X-31323Y67577D02*
X-30000Y68900D01*
G01D02*
X-28677Y70223D01*
G01X-31323D02*
X-30000Y68900D01*
G01D02*
X-28677Y67577D01*
G01X-16623Y-16923D02*
X-15300Y-15600D01*
G01D02*
X-13977Y-16923D01*
G01X-6323Y44277D02*
X-5000Y45600D01*
G01D02*
X-3677Y46923D01*
G01X-6323D02*
X-5000Y45600D01*
G01D02*
X-3677Y44277D01*
G01X7400Y-97952D02*
Y-94500D01*
G01D02*
Y-91048D01*
G01X3198Y-94500D02*
X7400D01*
G01D02*
X11602D01*
G01X8891Y17577D02*
X10214Y18900D01*
G01D02*
X11537Y20223D01*
G01X8891D02*
X10214Y18900D01*
G01D02*
X11537Y17577D01*
G01X8577Y28777D02*
X9900Y30100D01*
G01D02*
X11223Y31423D01*
G01X8577D02*
X9900Y30100D01*
G01D02*
X11223Y28777D01*
G01X27377Y-42623D02*
X28700Y-41300D01*
G01D02*
X30023Y-39977D01*
G01X27377D02*
X28700Y-41300D01*
G01D02*
X30023Y-42623D01*
G01X28977Y-28523D02*
X30300Y-27200D01*
G01D02*
X31623Y-25877D01*
G01X28977D02*
X30300Y-27200D01*
G01D02*
X31623Y-28523D01*
G01X18027Y-32423D02*
X19350Y-31100D01*
G01D02*
X20673Y-29777D01*
G01X18027D02*
X19350Y-31100D01*
G01D02*
X20673Y-32423D01*
G01X33577Y4277D02*
X34900Y5600D01*
G01D02*
X36223Y6923D01*
G01X33577D02*
X34900Y5600D01*
G01D02*
X36223Y4277D01*
G01X22677Y28777D02*
X24000Y30100D01*
G01D02*
X25323Y31423D01*
G01X22677D02*
X24000Y30100D01*
G01D02*
X25323Y28777D01*
G01X38227Y-33414D02*
X39550Y-32091D01*
G01D02*
X40873Y-30768D01*
G01X38227D02*
X39550Y-32091D01*
G01D02*
X40873Y-33414D01*
G01X63500Y-12700D02*
X64823Y-11377D01*
G01X62177D02*
X63500Y-12700D01*
G01X64777Y15677D02*
X66100Y17000D01*
G01D02*
X67423Y18323D01*
G01X64777D02*
X66100Y17000D01*
G01D02*
X67423Y15677D01*
G01X61577Y31927D02*
X62900Y33250D01*
G01D02*
X64223Y34573D01*
G01X61577D02*
X62900Y33250D01*
G01D02*
X64223Y31927D01*
G01X61377Y42577D02*
X62700Y43900D01*
G01D02*
X64023Y45223D01*
G01X61377D02*
X62700Y43900D01*
G01D02*
X64023Y42577D01*
G01X75177Y-2323D02*
X76500Y-1000D01*
G01D02*
X77823Y323D01*
G01X75177D02*
X76500Y-1000D01*
G01D02*
X77823Y-2323D01*
G01X91600Y40048D02*
Y43500D01*
G01D02*
Y46952D01*
G01X87398Y43500D02*
X91600D01*
G01D02*
X95802D01*
M02*
