G04 ================== begin FILE IDENTIFICATION RECORD ==================*
G04 Layout Name:  M:/TDP4/Data Logger Full/allegro/datalogger.brd*
G04 Film Name:    datalogger.G3L*
G04 File Format:  Gerber RS274X*
G04 File Origin:  Cadence Allegro 17.2-S055*
G04 Origin Date:  Mon Mar 22 02:40:34 2021*
G04 *
G04 Layer:  VIA CLASS/GNDS*
G04 Layer:  PIN/GNDS*
G04 Layer:  ETCH/GNDS*
G04 *
G04 Offset:    (0.00 0.00)*
G04 Mirror:    No*
G04 Mode:      Positive*
G04 Rotation:  0*
G04 FullContactRelief:  No*
G04 UndefLineWidth:     10.00*
G04 ================== end FILE IDENTIFICATION RECORD ====================*
%FSLAX25Y25*MOIN*%
%IR0*IPPOS*OFA0.00000B0.00000*MIA0B0*SFA1.00000B1.00000*%
%ADD12O,.055X.1*%
%ADD13R,.055X.1*%
%ADD14C,.08*%
%ADD11C,.01772*%
%ADD10C,.08583*%
%ADD15O,.07X.055*%
%ADD16R,.07X.055*%
%ADD17C,.01*%
%ADD23O,.06504X.11004*%
%ADD22O,.09504X.14004*%
%ADD19C,.02776*%
%ADD20C,.03776*%
%ADD18C,.09586*%
%ADD24C,.20004*%
%ADD21C,.12586*%
G75*
%LPD*%
G75*
G36*
G01X-139499Y-100399D02*
Y-42100D01*
X-72803D01*
G02X-72556Y-42815I0J-400D01*
G03X-70226I1165J-1485D01*
G02X-69979Y-42100I247J315D01*
G01X-59425D01*
G02X-59129Y-42768I-1J-400D01*
G03X-57071I1029J-932D01*
G02X-56775Y-42100I297J268D01*
G01X-46900D01*
Y-67929D01*
G03Y-70633I1318J-1352D01*
G01Y-73522D01*
G02X-47327Y-73921I-400J0D01*
G03Y-93879I-673J-9979D01*
G02X-46900Y-94278I27J-399D01*
G01Y-100399D01*
X-139499D01*
G37*
G36*
G01X-43898D02*
Y-93022D01*
G03Y-74778I-4102J9122D01*
G01Y-70136D01*
G03Y-68426I-1684J855D01*
G01Y-39098D01*
X-47517D01*
G02X-47849Y-38475I0J400D01*
G03X-50151I-1151J775D01*
G02X-50483Y-39098I-332J-223D01*
G01X-55741D01*
G02X-56101Y-38524I0J400D01*
G03X-59499I-1699J824D01*
G02X-59859Y-39098I-360J-174D01*
G01X-106380D01*
G02X-106552Y-38338I1J400D01*
G03X-103848Y-34050I-2048J4288D01*
G01Y-29550D01*
G03X-113352I-4752J0D01*
G01Y-34050D01*
G03X-110648Y-38338I4752J0D01*
G02X-110820Y-39098I-173J-360D01*
G01X-116380D01*
G02X-116552Y-38338I1J400D01*
G03X-113848Y-34050I-2048J4288D01*
G01Y-29550D01*
G03X-123352I-4752J0D01*
G01Y-34050D01*
G03X-120648Y-38338I4752J0D01*
G02X-120820Y-39098I-173J-360D01*
G01X-124379D01*
G02X-124624Y-38382I0J400D01*
G03X-123848Y-36800I-1226J1583D01*
G01Y-26800D01*
G03X-125850Y-24798I-2002J0D01*
G01X-131350D01*
G03X-133352Y-26800I0J-2002D01*
G01Y-36800D01*
G03X-132576Y-38382I2002J1D01*
G02X-132821Y-39098I-245J-316D01*
G01X-139499D01*
Y89499D01*
X118499D01*
Y2602D01*
X82798D01*
Y-100399D01*
X-43898D01*
G37*
G36*
G01X85800D02*
Y-400D01*
X118499D01*
Y-100399D01*
X85800D01*
G37*
%LPC*%
G75*
G36*
G01X102350Y20248D02*
X100850D01*
G02Y26752I0J3252D01*
G01X102350D01*
G02Y20248I0J-3252D01*
G37*
G36*
G01X92350Y18748D02*
X90850D01*
G02Y28252I0J4752D01*
G01X92350D01*
G02Y18748I0J-4752D01*
G37*
G36*
G01X67948Y70457D02*
Y80457D01*
G02X69950Y82458I2002J-1D01*
G01X75450D01*
G02X77452Y80457I1J-2001D01*
G01Y70457D01*
G02X75450Y68456I-2002J1D01*
G01X69950D01*
G02X67948Y70457I-1J2001D01*
G37*
G36*
G01X6650Y-89748D02*
X8150D01*
G02Y-99252I0J-4752D01*
G01X6650D01*
G02Y-89748I0J4752D01*
G37*
G36*
G01X18150Y-97752D02*
X16650D01*
G02Y-91248I0J3252D01*
G01X18150D01*
G02Y-97752I0J-3252D01*
G37*
G36*
G01X-133352Y15200D02*
Y25200D01*
G02X-131350Y27202I2002J0D01*
G01X-125850D01*
G02X-123848Y25200I0J-2002D01*
G01Y15200D01*
G02X-125850Y13198I-2002J0D01*
G01X-131350D01*
G02X-133352Y15200I0J2002D01*
G37*
G36*
G01Y-10800D02*
Y-800D01*
G02X-131350Y1202I2002J0D01*
G01X-125850D01*
G02X-123848Y-800I0J-2002D01*
G01Y-10800D01*
G02X-125850Y-12802I-2002J0D01*
G01X-131350D01*
G02X-133352Y-10800I0J2002D01*
G37*
G36*
G01X96928Y39936D02*
G02X95100Y38748I-1829J814D01*
G01X88100D01*
G02X86098Y40750I0J2002D01*
G01Y46250D01*
G02X88100Y48252I2002J0D01*
G01X95100D01*
G02X96928Y47064I-1J-2002D01*
G03X97570Y46938I365J163D01*
G02X100850Y48252I3280J-3437D01*
G01X102350D01*
G02Y38748I0J-4752D01*
G01X100850D01*
G02X97570Y40062I0J4751D01*
G03X96928Y39936I-277J-289D01*
G37*
G36*
G01X96270Y30815D02*
G02X92350Y28748I-3921J2685D01*
G01X90850D01*
G02Y38252I0J4752D01*
G01X92350D01*
G02X96270Y36185I-1J-4752D01*
G03X96930I330J226D01*
G02X100850Y38252I3921J-2685D01*
G01X102350D01*
G02Y28748I0J-4752D01*
G01X100850D01*
G02X96930Y30815I1J4752D01*
G03X96270I-330J-226D01*
G37*
G36*
G01X-511Y30379D02*
G03X-523Y30653I-152J131D01*
G02X2229Y30767I1323J1347D01*
G03X2241Y30493I152J-131D01*
G02X-511Y30379I-1323J-1347D01*
G37*
G36*
G01X31484Y-1492D02*
G03X31828Y-1929I398J-41D01*
G02X29696Y-3608I-254J-1871D01*
G03X29352Y-3171I-398J41D01*
G02X31484Y-1492I254J1871D01*
G37*
G36*
G01X-42067Y-11100D02*
G02X-39291I1388J1280D01*
G02X-42067I-1388J-1280D01*
G37*
G36*
G01X32794Y-12675D02*
G03X32742Y-13198I274J-291D01*
G02X30415Y-13291I-1133J-802D01*
G03X30321Y-12775I-344J204D01*
G02X30039Y-10105I1179J1474D01*
G02X32761Y-9895I1261J1405D01*
G02X32794Y-12675I-1261J-1405D01*
G37*
G36*
G01X64653Y-14195D02*
G03X64614Y-14473I122J-159D01*
G02X62386I-1114J-827D01*
G03X62347Y-14195I-161J119D01*
G02X64653I1153J1495D01*
G37*
G36*
G01X13370Y-67938D02*
G03X12728Y-68064I-277J-289D01*
G02X10900Y-69252I-1829J814D01*
G01X3900D01*
G02X1898Y-67250I0J2002D01*
G01Y-61750D01*
G02X3900Y-59748I2002J0D01*
G01X10900D01*
G02X12728Y-60936I-1J-2002D01*
G03X13370Y-61062I365J163D01*
G02X16650Y-59748I3280J-3437D01*
G01X18150D01*
G02Y-69252I0J-4752D01*
G01X16650D01*
G02X13370Y-67938I0J4751D01*
G37*
G36*
G01X1733Y-75119D02*
G03X1916Y-74902I-16J200D01*
G02X6650Y-69748I4734J403D01*
G01X8150D01*
G02X12070Y-71815I0J-4751D01*
G03X12730I330J226D01*
G02X16650Y-69748I3920J-2684D01*
G01X18150D01*
G02Y-79252I0J-4752D01*
G01X16650D01*
G02X12730Y-77185I0J4751D01*
G03X12070I-330J-226D01*
G02X8150Y-79252I-3920J2684D01*
G01X6650D01*
G02X3633Y-78171I0J4751D01*
G03X3351Y-78198I-128J-154D01*
G02X1733Y-75119I-1459J1198D01*
G37*
G36*
G01X12070Y-87185D02*
G02X8150Y-89252I-3920J2684D01*
G01X6650D01*
G02Y-79748I0J4752D01*
G01X8150D01*
G02X12070Y-81815I0J-4751D01*
G03X12730I330J226D01*
G02X16650Y-79748I3920J-2684D01*
G01X18150D01*
G02Y-89252I0J-4752D01*
G01X16650D01*
G02X12730Y-87185I0J4751D01*
G03X12070I-330J-226D01*
G37*
G36*
G01X-22696Y52492D02*
G02X-23898Y51277I596J-1792D01*
G03X-24404Y51779I-380J123D01*
G02X-23202Y52994I-596J1792D01*
G03X-22696Y52492I380J-123D01*
G37*
G36*
G01X-19266Y-16671D02*
G02X-21271Y-14666I-1884J121D01*
G03X-21084Y-14479I-13J200D01*
G02X-17368Y-14143I1884J-121D01*
G03X-16686Y-14318I388J96D01*
G02X-16513Y-14153I1387J-1281D01*
G03X-16472Y-13893I-128J153D01*
G02X-14128I1172J743D01*
G03X-14087Y-14153I169J-107D01*
G02X-17132Y-16057I-1213J-1447D01*
G03X-17814Y-15882I-388J-96D01*
G02X-19079Y-16484I-1386J1282D01*
G03X-19266Y-16671I13J-200D01*
G37*
G36*
G01X106680Y-40750D02*
G03X106120I-280J-285D01*
G02Y-38050I-1320J1350D01*
G03X106680I280J285D01*
G02Y-40750I1320J-1350D01*
G37*
G54D23*
X42700Y75457D03*
X-98600Y20200D03*
Y-5800D03*
Y-31800D03*
G54D22*
X62700Y75457D03*
X52700D03*
X-118600Y20200D03*
X-108600D03*
X-118600Y-5800D03*
X-108600D03*
G54D19*
X-128000Y-64325D03*
X-118000D03*
X-119987Y-52547D03*
X-114800Y-45300D03*
X-99200Y-54591D03*
X-72609Y-72509D03*
X-95200Y-67709D03*
X-95300Y-78891D03*
X-70100Y-82709D03*
X-95500Y-51100D03*
X-82350Y-55550D03*
X-82609Y-45300D03*
X-75209Y-44300D03*
X-64191D03*
X-115300Y53700D03*
X-104600Y47800D03*
X-77300Y39700D03*
X-89797Y56500D03*
X-82615Y83400D03*
X-77200Y67000D03*
X-39500Y14461D03*
X-63300Y12809D03*
X-51600Y30100D03*
X-9600Y-51800D03*
X-36300Y-42190D03*
X-36900Y1691D03*
X-13300Y15880D03*
X-38373Y42473D03*
X-30900Y52800D03*
X-28900Y81559D03*
X-38400Y69500D03*
X16286Y-52300D03*
X10700Y-41600D03*
X4600D03*
X15650Y-31100D03*
X18089Y-16711D03*
X-2214Y-27600D03*
X861Y48339D03*
X-2000Y55400D03*
X-8356Y62856D03*
X15500Y57435D03*
X2300D03*
X2582Y63800D03*
X38750Y-49700D03*
X32600Y-31700D03*
X57100Y-36600D03*
X76600Y9750D03*
X66700Y43900D03*
X71600Y32800D03*
X106900Y8000D03*
X88600Y-54570D03*
X88597Y-34097D03*
X106900Y-5900D03*
G54D20*
X-99800Y-70391D03*
X-101500Y-51100D03*
X-82200Y-51600D03*
X-68791Y-72500D03*
X-53400Y-47700D03*
X-55400Y-56431D03*
X-60400Y-54463D03*
X-40700Y-69000D03*
X-56600Y-22600D03*
X-63309Y8991D03*
X-57900Y27200D03*
X-26225Y-62325D03*
X-35600Y-62337D03*
X-36300Y-28410D03*
X-9900Y-28200D03*
X-27200Y16300D03*
X-30000Y5509D03*
X-12500Y-2700D03*
X-27250Y28000D03*
X-30200Y42100D03*
X-12100Y30700D03*
X-30000Y68900D03*
X-30800Y75500D03*
X19350Y-31100D03*
X14947Y-11388D03*
X10214Y18900D03*
X1250Y7150D03*
X-1143Y18943D03*
X-5000Y45600D03*
X12200Y34400D03*
X9900Y30100D03*
X17834Y29300D03*
X6000Y45100D03*
X19763Y34400D03*
X28700Y-41300D03*
X39550Y-32091D03*
X30300Y-27200D03*
X39600Y-16774D03*
X34900Y5600D03*
X22135Y55765D03*
X24000Y30100D03*
X54200Y-44900D03*
X76500Y-1000D03*
X66100Y17000D03*
X62700Y43900D03*
X62900Y33250D03*
X102600Y-16774D03*
X108509Y-15291D03*
G54D18*
X-133000Y-93900D03*
Y-73900D03*
X-113000Y-93900D03*
Y-73900D03*
X112000Y-93900D03*
X92000D03*
Y-73900D03*
X112000D03*
G54D24*
X62000Y-83900D03*
X99000Y70000D03*
G54D21*
X-123000Y-83900D03*
X102000D03*
%LPD*%
G75*
G54D10*
X-133000Y-93900D03*
Y-73900D03*
X-123000Y-83900D03*
X-113000Y-93900D03*
Y-73900D03*
X92000Y-93900D03*
Y-73900D03*
X112000Y-93900D03*
Y-73900D03*
X102000Y-83900D03*
G54D11*
X-128000Y-64325D03*
X-119987Y-52547D03*
X-118000Y-64325D03*
X-101500Y-51100D03*
X-114800Y-45300D03*
X-104600Y47800D03*
X-115300Y53700D03*
X-95300Y-78891D03*
X-99800Y-70391D03*
X-99200Y-54591D03*
X-82350Y-55550D03*
X-95200Y-67709D03*
X-82200Y-51600D03*
X-82609Y-45300D03*
X-95500Y-51100D03*
X-89797Y56500D03*
X-82615Y83400D03*
X-70100Y-82709D03*
X-68791Y-72500D03*
X-72609Y-72509D03*
X-71391Y-44300D03*
X-75209D03*
X-64191D03*
X-63300Y12809D03*
X-63309Y8991D03*
X-77300Y39700D03*
X-77200Y67000D03*
X-55400Y-56431D03*
X-60400Y-54463D03*
X-45582Y-69281D03*
X-49000Y-37700D03*
X-57800D03*
X-53400Y-47700D03*
X-58100Y-43700D03*
X-56600Y-22600D03*
X-51600Y30100D03*
X-57900Y27200D03*
X-26225Y-62325D03*
X-35600Y-62337D03*
X-40700Y-69000D03*
X-36300Y-42190D03*
Y-28410D03*
X-36900Y1691D03*
X-40679Y-9820D03*
Y-12380D03*
X-39500Y14461D03*
X-27200Y16300D03*
X-30000Y5509D03*
X-38373Y42473D03*
X-30200Y42100D03*
X-27250Y28000D03*
X-30900Y52800D03*
X-25000Y53571D03*
X-38400Y69500D03*
X-28900Y81559D03*
X-30000Y68900D03*
X-30800Y75500D03*
X-9600Y-51800D03*
X-15300Y-15600D03*
X-9900Y-28200D03*
X-19200Y-14600D03*
X-21150Y-16550D03*
X-15300Y-13150D03*
X-12500Y-2700D03*
X-13300Y15880D03*
X-12100Y30700D03*
X-8356Y62856D03*
X-5000Y45600D03*
X-22100Y50700D03*
X1892Y-77000D03*
X4600Y-41600D03*
X10700D03*
X16286Y-52300D03*
X-2214Y-27600D03*
X15650Y-31100D03*
X14947Y-11388D03*
X10214Y18900D03*
X1250Y7150D03*
X-1143Y18943D03*
X9900Y30100D03*
X800Y32000D03*
X12200Y34400D03*
X918Y29146D03*
X2300Y57435D03*
X15500D03*
X-2000Y55400D03*
X861Y48339D03*
X6000Y45100D03*
X2582Y63800D03*
X28700Y-41300D03*
X18089Y-16711D03*
X32600Y-31700D03*
X30300Y-27200D03*
X19350Y-31100D03*
X31609Y-14000D03*
X31500Y-11300D03*
X31574Y-3800D03*
X31300Y-8700D03*
X29606Y-1300D03*
X34900Y5600D03*
X24000Y30100D03*
X19763Y34400D03*
X17834Y29300D03*
X22135Y55765D03*
X38750Y-49700D03*
X54200Y-44900D03*
X39550Y-32091D03*
X39600Y-16774D03*
X57100Y-36600D03*
X63500Y-15300D03*
Y-12700D03*
X66100Y17000D03*
X71600Y32800D03*
X66700Y43900D03*
X62900Y33250D03*
X62700Y43900D03*
X88600Y-54570D03*
X88597Y-34097D03*
X76500Y-1000D03*
X76600Y9750D03*
X108000Y-39400D03*
X104800D03*
X102600Y-16774D03*
X108509Y-15291D03*
X106900Y-5900D03*
Y8000D03*
G54D12*
X-118600Y-31800D03*
Y-5800D03*
Y20200D03*
X-98600Y-31800D03*
X-108600D03*
X-98600Y-5800D03*
X-108600D03*
X-98600Y20200D03*
X-108600D03*
X42700Y75457D03*
X52700D03*
X62700D03*
G54D13*
X-128600Y-31800D03*
Y-5800D03*
Y20200D03*
X72700Y75457D03*
G54D14*
X-48000Y-83900D03*
X62000D03*
X99000Y70000D03*
G54D15*
X17400Y-94500D03*
X7400D03*
X17400Y-84500D03*
X7400D03*
X17400Y-74500D03*
X7400D03*
X17400Y-64500D03*
X91600Y23500D03*
Y33500D03*
X101600Y23500D03*
Y33500D03*
Y43500D03*
G54D16*
X7400Y-64500D03*
X91600Y43500D03*
G54D17*
G01X-133000Y-98894D02*
Y-93900D01*
G01D02*
Y-88906D01*
G01X-137994Y-93900D02*
X-133000D01*
G01D02*
X-128006D01*
G01X-133000Y-78894D02*
Y-73900D01*
G01D02*
Y-68906D01*
G01X-137994Y-73900D02*
X-133000D01*
G01D02*
X-128006D01*
G01X-121310Y-53870D02*
X-119987Y-52547D01*
G01X-129323Y-65648D02*
X-128000Y-64325D01*
G01D02*
X-126677Y-63002D01*
G01X-129323D02*
X-128000Y-64325D01*
G01D02*
X-126677Y-65648D01*
G01X-121310Y-51224D02*
X-119987Y-52547D01*
G01X-113000Y-98894D02*
Y-93900D01*
G01D02*
Y-88906D01*
G01X-117994Y-93900D02*
X-113000D01*
G01D02*
X-108006D01*
G01X-113000Y-78894D02*
Y-73900D01*
G01D02*
Y-68906D01*
G01X-117994Y-73900D02*
X-113000D01*
G01D02*
X-108006D01*
G01X-119987Y-52547D02*
X-118664Y-53870D01*
G01X-119323Y-65648D02*
X-118000Y-64325D01*
G01D02*
X-116677Y-63002D01*
G01X-119323D02*
X-118000Y-64325D01*
G01D02*
X-116677Y-65648D01*
G01X-116123Y-46623D02*
X-114800Y-45300D01*
G01D02*
X-113477Y-43977D01*
G01X-116123D02*
X-114800Y-45300D01*
G01D02*
X-113477Y-46623D01*
G01X-119987Y-52547D02*
X-118664Y-51224D01*
G01X-102052Y-31800D02*
X-98600D01*
G01X-102052Y-5800D02*
X-98600D01*
G01X-102052Y20200D02*
X-98600D01*
G01X-105923Y46477D02*
X-104600Y47800D01*
G01D02*
X-103277Y49123D01*
G01X-105923D02*
X-104600Y47800D01*
G01D02*
X-103277Y46477D01*
G01X-116623Y52377D02*
X-115300Y53700D01*
G01D02*
X-113977Y55023D01*
G01X-116623D02*
X-115300Y53700D01*
G01D02*
X-113977Y52377D01*
G01X-96623Y-80214D02*
X-95300Y-78891D01*
G01D02*
X-93977Y-77568D01*
G01X-96623D02*
X-95300Y-78891D01*
G01D02*
X-93977Y-80214D01*
G01X-83673Y-56873D02*
X-82350Y-55550D01*
G01D02*
X-81027Y-54227D01*
G01X-83673D02*
X-82350Y-55550D01*
G01D02*
X-81027Y-56873D01*
G01X-96523Y-69032D02*
X-95200Y-67709D01*
G01D02*
X-93877Y-66386D01*
G01X-96523D02*
X-95200Y-67709D01*
G01D02*
X-93877Y-69032D01*
G01X-100523Y-55914D02*
X-99200Y-54591D01*
G01D02*
X-97877Y-53268D01*
G01X-100523D02*
X-99200Y-54591D01*
G01D02*
X-97877Y-55914D01*
G01X-98600Y-37502D02*
Y-31800D01*
G01X-83932Y-46623D02*
X-82609Y-45300D01*
G01D02*
X-81286Y-43977D01*
G01X-83932D02*
X-82609Y-45300D01*
G01D02*
X-81286Y-46623D01*
G01X-96823Y-52423D02*
X-95500Y-51100D01*
G01D02*
X-94177Y-49777D01*
G01X-96823D02*
X-95500Y-51100D01*
G01D02*
X-94177Y-52423D01*
G01X-98600Y-31800D02*
Y-26098D01*
G01Y-31800D02*
X-95148D01*
G01X-98600Y-11502D02*
Y-5800D01*
G01D02*
Y-98D01*
G01Y-5800D02*
X-95148D01*
G01X-98600Y14498D02*
Y20200D01*
G01D02*
Y25902D01*
G01Y20200D02*
X-95148D01*
G01X-91120Y55177D02*
X-89797Y56500D01*
G01D02*
X-88474Y57823D01*
G01X-91120D02*
X-89797Y56500D01*
G01D02*
X-88474Y55177D01*
G01X-83938Y82077D02*
X-82615Y83400D01*
G01D02*
X-81292Y82077D01*
G01X-82615Y83400D02*
X-81292Y84723D01*
G01X-83938D02*
X-82615Y83400D01*
G01X-71423Y-84032D02*
X-70100Y-82709D01*
G01D02*
X-68777Y-81386D01*
G01X-71423D02*
X-70100Y-82709D01*
G01D02*
X-68777Y-84032D01*
G01X-73932Y-73832D02*
X-72609Y-72509D01*
G01D02*
X-71286Y-73832D01*
G01X-72609Y-72509D02*
X-71286Y-71186D01*
G01X-73932D02*
X-72609Y-72509D01*
G01X-65514Y-45623D02*
X-64191Y-44300D01*
G01D02*
X-62868Y-42977D01*
G01X-65514D02*
X-64191Y-44300D01*
G01D02*
X-62868Y-45623D01*
G01X-76532D02*
X-75209Y-44300D01*
G01D02*
X-73886Y-42977D01*
G01X-76532D02*
X-75209Y-44300D01*
G01D02*
X-73886Y-45623D01*
G01X-64623Y11486D02*
X-63300Y12809D01*
G01D02*
X-61977Y14132D01*
G01X-64623D02*
X-63300Y12809D01*
G01D02*
X-61977Y11486D01*
G01X-78623Y38377D02*
X-77300Y39700D01*
G01D02*
X-75977Y41023D01*
G01X-78623D02*
X-77300Y39700D01*
G01D02*
X-75977Y38377D01*
G01X-78523Y65677D02*
X-77200Y67000D01*
G01D02*
X-75877Y68323D01*
G01X-78523D02*
X-77200Y67000D01*
G01D02*
X-75877Y65677D01*
G01X-50323Y-39023D02*
X-49000Y-37700D01*
G01D02*
X-47677Y-36377D01*
G01X-50323D02*
X-49000Y-37700D01*
G01D02*
X-47677Y-39023D01*
G01X-59423Y-45023D02*
X-58100Y-43700D01*
G01D02*
X-56777Y-42377D01*
G01X-59423D02*
X-58100Y-43700D01*
G01D02*
X-56777Y-45023D01*
G01X-52923Y28777D02*
X-51600Y30100D01*
G01D02*
X-50277Y31423D01*
G01X-52923D02*
X-51600Y30100D01*
G01D02*
X-50277Y28777D01*
G01X-37623Y-43513D02*
X-36300Y-42190D01*
G01D02*
X-34977Y-40867D01*
G01X-37623D02*
X-36300Y-42190D01*
G01D02*
X-34977Y-43513D01*
G01X-38223Y368D02*
X-36900Y1691D01*
G01D02*
X-35577Y3014D01*
G01X-38223D02*
X-36900Y1691D01*
G01D02*
X-35577Y368D01*
G01X-40823Y13138D02*
X-39500Y14461D01*
G01D02*
X-38177Y15784D01*
G01X-40823D02*
X-39500Y14461D01*
G01D02*
X-38177Y13138D01*
G01X-39696Y41150D02*
X-38373Y42473D01*
G01D02*
X-37050Y43796D01*
G01X-39696D02*
X-38373Y42473D01*
G01D02*
X-37050Y41150D01*
G01X-32223Y51477D02*
X-30900Y52800D01*
G01D02*
X-29577Y54123D01*
G01X-32223D02*
X-30900Y52800D01*
G01D02*
X-29577Y51477D01*
G01X-39723Y68177D02*
X-38400Y69500D01*
G01D02*
X-37077Y70823D01*
G01X-39723D02*
X-38400Y69500D01*
G01D02*
X-37077Y68177D01*
G01X-30223Y80236D02*
X-28900Y81559D01*
G01D02*
X-27577Y82882D01*
G01X-30223D02*
X-28900Y81559D01*
G01D02*
X-27577Y80236D01*
G01X-10923Y-53123D02*
X-9600Y-51800D01*
G01D02*
X-8277Y-50477D01*
G01X-10923D02*
X-9600Y-51800D01*
G01D02*
X-8277Y-53123D01*
G01X-3537Y-28923D02*
X-2214Y-27600D01*
G01X-3537Y-26277D02*
X-2214Y-27600D01*
G01X-15300Y-13150D02*
X-13977Y-11827D01*
G01X-16623D02*
X-15300Y-13150D01*
G01X-14623Y14557D02*
X-13300Y15880D01*
G01D02*
X-11977Y17203D01*
G01X-14623D02*
X-13300Y15880D01*
G01D02*
X-11977Y14557D01*
G01X-9679Y61533D02*
X-8356Y62856D01*
G01D02*
X-7033Y64179D01*
G01X-9679D02*
X-8356Y62856D01*
G01D02*
X-7033Y61533D01*
G01X-3323Y54077D02*
X-2000Y55400D01*
G01X-3323Y56723D02*
X-2000Y55400D01*
G01X13198Y-94500D02*
X17400D01*
G01X14963Y-53623D02*
X16286Y-52300D01*
G01X3277Y-42923D02*
X4600Y-41600D01*
G01D02*
X5923Y-40277D01*
G01X3277D02*
X4600Y-41600D01*
G01D02*
X5923Y-42923D01*
G01X9377D02*
X10700Y-41600D01*
G01D02*
X12023Y-40277D01*
G01X9377D02*
X10700Y-41600D01*
G01D02*
X12023Y-42923D01*
G01X16286Y-52300D02*
X17609Y-50977D01*
G01X14963D02*
X16286Y-52300D01*
G01D02*
X17609Y-53623D01*
G01X-2214Y-27600D02*
X-891Y-26277D01*
G01X-2214Y-27600D02*
X-891Y-28923D01*
G01X14327Y-32423D02*
X15650Y-31100D01*
G01D02*
X16973Y-29777D01*
G01X14327D02*
X15650Y-31100D01*
G01D02*
X16973Y-32423D01*
G01X1259Y62477D02*
X2582Y63800D01*
G01D02*
X3905Y62477D01*
G01X977Y56112D02*
X2300Y57435D01*
G01D02*
X3623Y58758D01*
G01X977D02*
X2300Y57435D01*
G01D02*
X3623Y56112D01*
G01X14177D02*
X15500Y57435D01*
G01D02*
X16823Y58758D01*
G01X14177D02*
X15500Y57435D01*
G01D02*
X16823Y56112D01*
G01X-2000Y55400D02*
X-677Y56723D01*
G01X-2000Y55400D02*
X-677Y54077D01*
G01X-462Y47016D02*
X861Y48339D01*
G01D02*
X2184Y49662D01*
G01X-462D02*
X861Y48339D01*
G01D02*
X2184Y47016D01*
G01X2582Y63800D02*
X3905Y65123D01*
G01X1259D02*
X2582Y63800D01*
G01X17400Y-97952D02*
Y-94500D01*
G01D02*
Y-91048D01*
G01Y-94500D02*
X21602D01*
G01X30286Y-15323D02*
X31609Y-14000D01*
G01D02*
X32932Y-15323D01*
G01X31277Y-33023D02*
X32600Y-31700D01*
G01D02*
X33923Y-30377D01*
G01X31277D02*
X32600Y-31700D01*
G01D02*
X33923Y-33023D01*
G01X16766Y-18034D02*
X18089Y-16711D01*
G01D02*
X19412Y-15388D01*
G01X16766D02*
X18089Y-16711D01*
G01D02*
X19412Y-18034D01*
G01X31609Y-14000D02*
X32932Y-12677D01*
G01X37427Y-51023D02*
X38750Y-49700D01*
G01D02*
X40073Y-48377D01*
G01X37427D02*
X38750Y-49700D01*
G01D02*
X40073Y-51023D01*
G01X42700Y69755D02*
Y75457D01*
G01D02*
Y81159D01*
G01X39248Y75457D02*
X42700D01*
G01D02*
X46152D01*
G01X55777Y-37923D02*
X57100Y-36600D01*
G01D02*
X58423Y-35277D01*
G01X55777D02*
X57100Y-36600D01*
G01D02*
X58423Y-37923D01*
G01X62177Y-16623D02*
X63500Y-15300D01*
G01D02*
X64823Y-16623D01*
G01X70277Y31477D02*
X71600Y32800D01*
G01D02*
X72923Y34123D01*
G01X70277D02*
X71600Y32800D01*
G01D02*
X72923Y31477D01*
G01X65377Y42577D02*
X66700Y43900D01*
G01D02*
X68023Y45223D01*
G01X65377D02*
X66700Y43900D01*
G01D02*
X68023Y42577D01*
G01X92000Y-98894D02*
Y-93900D01*
G01D02*
Y-88906D01*
G01X87006Y-93900D02*
X92000D01*
G01D02*
X96994D01*
G01X92000Y-78894D02*
Y-73900D01*
G01D02*
Y-68906D01*
G01X87006Y-73900D02*
X92000D01*
G01D02*
X96994D01*
G01X87277Y-55893D02*
X88600Y-54570D01*
G01D02*
X89923Y-53247D01*
G01X87277D02*
X88600Y-54570D01*
G01D02*
X89923Y-55893D01*
G01X87274Y-35420D02*
X88597Y-34097D01*
G01D02*
X89920Y-35420D01*
G01X88597Y-34097D02*
X89920Y-32774D01*
G01X87274D02*
X88597Y-34097D01*
G01X75277Y8427D02*
X76600Y9750D01*
G01D02*
X77923Y11073D01*
G01X75277D02*
X76600Y9750D01*
G01D02*
X77923Y8427D01*
G01X112000Y-98894D02*
Y-93900D01*
G01D02*
Y-88906D01*
G01X107006Y-93900D02*
X112000D01*
G01D02*
X116994D01*
G01X112000Y-78894D02*
Y-73900D01*
G01D02*
Y-68906D01*
G01X107006Y-73900D02*
X112000D01*
G01D02*
X116994D01*
G01X105577Y-7223D02*
X106900Y-5900D01*
G01D02*
X108223Y-4577D01*
G01X105577D02*
X106900Y-5900D01*
G01D02*
X108223Y-7223D01*
G01X101600Y20048D02*
Y23500D01*
G01D02*
Y26952D01*
G01X97398Y23500D02*
X101600D01*
G01D02*
X105802D01*
G01X105577Y6677D02*
X106900Y8000D01*
G01D02*
X108223Y9323D01*
G01X105577D02*
X106900Y8000D01*
G01D02*
X108223Y6677D01*
M02*
