M48
INCH
T01C.00787
T02C.035
T03C.05709
T04C.156
;LEADER: 12 
;HEADER: 
;CODE  : ASCII 
;FILE  : datalogger-1-4.drl for  ... layers TOP and BOTTOM
;DESIGN: datalogger.brd
;T01 Holesize 1. = 7.870000 Tolerance = +0.000000/-0.000000 PLATED MILS Quantity = 126
;T02 Holesize 2. = 35.000000 Tolerance = +0.000000/-0.000000 PLATED MILS Quantity = 30
;T03 Holesize 3. = 57.090000 Tolerance = +0.000000/-0.000000 PLATED MILS Quantity = 10
;T04 Holesize 4. = 156.000000 Tolerance = +0.000000/-0.000000 NON_PLATED MILS Quantity = 3
%
G90
T01
X0104800Y-0039400
X0088600Y-0054570
X0088597Y-0034097
X0106900Y-0005900
X-0072609Y-0072509
X-0095200Y-0067709
X-0119987Y-0052547
X-0114800Y-0045300
X-0128000Y-0064325
X-0118000Y-0064325
X-0070100Y-0082709
X-0095300Y-0078891
X-0095500Y-0051100
X-0082350Y-0055550
X-0082609Y-0045300
X-0064191Y-0044300
X-0075209Y-0044300
X-0058100Y-0043700
X-0099200Y-0054591
X-0068791Y-0072500
X-0082200Y-0051600
X-0101500Y-0051100
X-0071391Y-0044300
X-0053400Y-0047700
X-0045582Y-0069281
X-0060400Y-0054463
X-0099800Y-0070391
X-0040700Y-0069000
X-0055400Y-0056431
X-0012100Y0030700
X-0040679Y-0012380
X-0021150Y-0016550
X-0040679Y-0009820
X-0019200Y-0014600
X-0012500Y-0002700
X-0009900Y-0028200
X0029606Y-0001300
X0000918Y0029146
X0017834Y0029300
X-0035600Y-0062337
X-0026225Y-0062325
X0054200Y-0044900
X0031300Y-0008700
X-0001143Y0018943
X-0025000Y0053571
X0019763Y0034400
X-0022100Y0050700
X0001250Y0007150
X0031574Y-0003800
X0031500Y-0011300
X0012200Y0034400
X0108000Y-0039400
X0006000Y0045100
X0000800Y0032000
X0108509Y-0015291
X0001892Y-0077000
X0102600Y-0016774
X0039600Y-0016774
X0014947Y-0011388
X-0056600Y-0022600
X-0027250Y0028000
X-0030000Y0005509
X-0027200Y0016300
X-0030800Y0075500
X0022135Y0055765
X-0005000Y0045600
X0039550Y-0032091
X0019350Y-0031100
X0030300Y-0027200
X0028700Y-0041300
X0034900Y0005600
X0063500Y-0012700
X0076500Y-0001000
X-0063309Y0008991
X-0030000Y0068900
X-0030200Y0042100
X-0057900Y0027200
X0062700Y0043900
X0062900Y0033250
X0066100Y0017000
X0010214Y0018900
X0009900Y0030100
X0024000Y0030100
X-0015300Y-0015600
X-0036300Y-0028410
X-0057800Y-0037700
X0032600Y-0031700
X0057100Y-0036600
X-0077300Y0039700
X0015650Y-0031100
X0018089Y-0016711
X0038750Y-0049700
X0016286Y-0052300
X0010700Y-0041600
X0004600Y-0041600
X-0009600Y-0051800
X-0002214Y-0027600
X0031609Y-0014000
X0063500Y-0015300
X-0038373Y0042473
X-0039500Y0014461
X-0036900Y0001691
X-0063300Y0012809
X0000861Y0048339
X-0115300Y0053700
X-0104600Y0047800
X-0089797Y0056500
X-0082615Y0083400
X-0077200Y0067000
X-0028900Y0081559
X-0038400Y0069500
X-0030900Y0052800
X-0051600Y0030100
X-0013300Y0015880
X-0008356Y0062856
X-0002000Y0055400
X0015500Y0057435
X0002300Y0057435
X0002582Y0063800
X0066700Y0043900
X0071600Y0032800
X0076600Y0009750
X0106900Y0008000
X-0015300Y-0013150
X-0036300Y-0042190
X-0049000Y-0037700
T02
X-0128600Y-0005800
R03X0010000
X-0128600Y0020200
R03X0010000
X-0128600Y-0031800
R03X0010000
X0007400Y-0064500
X0017400Y-0064500
X0007400Y-0074500
X0017400Y-0074500
X0007400Y-0084500
X0017400Y-0084500
X0007400Y-0094500
X0017400Y-0094500
X0091600Y0043500
X0101600Y0043500
X0091600Y0033500
X0101600Y0033500
X0091600Y0023500
X0101600Y0023500
X0072700Y0075457
R03X-0010000
T03
X-0123000Y-0083900
X-0133000Y-0073900
X-0113000Y-0073900
X-0113000Y-0093900
X-0133000Y-0093900
X0102000Y-0083900
X0092000Y-0073900
X0112000Y-0073900
X0112000Y-0093900
X0092000Y-0093900
T04
X0062000Y-0083900
X-0048000Y-0083900
X0099000Y0070000
M30
