G04 ================== begin FILE IDENTIFICATION RECORD ==================*
G04 Layout Name:  C:/Users/adamf/Desktop/TDP4/PCB_fix_silkscreen/datalogger.brd*
G04 Film Name:    BOT_SILKSCREEN*
G04 File Format:  Gerber RS274X*
G04 File Origin:  Cadence Allegro -unreleased*
G04 Origin Date:  Tue Mar 23 20:19:09 2021*
G04 *
G04 Layer:  USER PART NUMBER/SILKSCREEN_BOTTOM*
G04 Layer:  TOLERANCE/SILKSCREEN_BOTTOM*
G04 Layer:  REF DES/SILKSCREEN_BOTTOM*
G04 Layer:  PACKAGE GEOMETRY/SILKSCREEN_BOTTOM*
G04 Layer:  DEVICE TYPE/SILKSCREEN_BOTTOM*
G04 Layer:  COMPONENT VALUE/SILKSCREEN_BOTTOM*
G04 Layer:  BOARD GEOMETRY/SILKSCREEN_BOTTOM*
G04 *
G04 Offset:    (0.00 0.00)*
G04 Mirror:    No*
G04 Mode:      Positive*
G04 Rotation:  0*
G04 FullContactRelief:  No*
G04 UndefLineWidth:     6.00*
G04 ================== end FILE IDENTIFICATION RECORD ====================*
%FSLAX25Y25*MOIN*%
%IR0*IPPOS*OFA0.00000B0.00000*MIA0B0*SFA1.00000B1.00000*%
%ADD10C,.005*%
%ADD11C,.006*%
%ADD12C,.00472*%
%ADD13C,.00591*%
%ADD14C,.00984*%
%ADD15C,.00787*%
G75*
%LPD*%
G75*
G36*
G01X-120278Y56705D02*
G03X-120335Y56752I-436J-470D01*
G03X-120388Y56786I-310J-425D01*
G03X-120425Y56796I-40J-74D01*
G03X-120456Y56767I-2J-29D01*
G01X-120478Y54948D01*
G03X-120495Y52915I272783J-3298D01*
G03X-120500Y50500I540502J-2327D01*
G01X-120497Y46347D01*
G03X-120474Y45012I44427J98D01*
G03X-120430Y44319I11125J358D01*
G03X-120300Y44200I130J12D01*
G02X-120223Y44193I2J-403D01*
G02X-120159Y44171I-48J-245D01*
G02X-120115Y44138I-71J-140D01*
G02X-120100Y44100I-40J-38D01*
G03X-120085Y44062I55J0D01*
G03X-120041Y44029I115J107D01*
G03X-119977Y44007I112J223D01*
G03X-119900Y44000I75J396D01*
G02X-119823Y43993I2J-403D01*
G02X-119759Y43971I-48J-245D01*
G02X-119715Y43938I-71J-140D01*
G02X-119700Y43900I-40J-38D01*
G03X-119685Y43862I55J0D01*
G03X-119641Y43829I115J107D01*
G03X-119577Y43807I112J223D01*
G03X-119500Y43800I75J396D01*
G02X-119423Y43793I2J-403D01*
G02X-119359Y43771I-48J-245D01*
G02X-119315Y43738I-71J-140D01*
G02X-119300Y43700I-40J-38D01*
G03X-119285Y43662I55J0D01*
G03X-119241Y43629I115J107D01*
G03X-119177Y43607I112J223D01*
G03X-119100Y43600I75J396D01*
G02X-119023Y43593I2J-403D01*
G02X-118959Y43571I-48J-245D01*
G02X-118915Y43538I-71J-140D01*
G02X-118900Y43500I-40J-38D01*
G03X-118885Y43462I55J0D01*
G03X-118841Y43429I115J107D01*
G03X-118777Y43407I112J223D01*
G03X-118700Y43400I75J396D01*
G02X-118623Y43393I2J-403D01*
G02X-118559Y43371I-48J-245D01*
G02X-118515Y43338I-71J-140D01*
G02X-118500Y43300I-40J-38D01*
G03X-118485Y43262I55J0D01*
G03X-118441Y43229I115J107D01*
G03X-118377Y43207I112J223D01*
G03X-118300Y43200I75J396D01*
G02X-118223Y43193I2J-403D01*
G02X-118159Y43171I-48J-245D01*
G02X-118115Y43138I-71J-140D01*
G02X-118100Y43100I-40J-38D01*
G03X-118085Y43062I55J0D01*
G03X-118041Y43029I115J107D01*
G03X-117977Y43007I112J223D01*
G03X-117900Y43000I75J396D01*
G02X-117823Y42993I2J-403D01*
G02X-117759Y42971I-48J-245D01*
G02X-117715Y42938I-71J-140D01*
G02X-117700Y42900I-40J-38D01*
G03X-117685Y42862I55J0D01*
G03X-117641Y42829I115J107D01*
G03X-117577Y42807I112J223D01*
G03X-117500Y42800I75J396D01*
G02X-117423Y42793I2J-403D01*
G02X-117359Y42771I-48J-245D01*
G02X-117315Y42738I-71J-140D01*
G02X-117300Y42700I-40J-38D01*
G03X-117285Y42662I55J0D01*
G03X-117241Y42629I115J107D01*
G03X-117177Y42607I112J223D01*
G03X-117100Y42600I75J396D01*
G02X-117023Y42593I2J-403D01*
G02X-116959Y42571I-48J-245D01*
G02X-116915Y42538I-71J-140D01*
G02X-116900Y42500I-40J-38D01*
G03X-116885Y42462I55J0D01*
G03X-116841Y42429I115J107D01*
G03X-116777Y42407I112J223D01*
G03X-116700Y42400I75J396D01*
G02X-116623Y42393I2J-403D01*
G02X-116559Y42371I-48J-245D01*
G02X-116515Y42338I-71J-140D01*
G02X-116500Y42300I-40J-38D01*
G03X-116485Y42262I55J0D01*
G03X-116441Y42229I115J107D01*
G03X-116377Y42207I112J223D01*
G03X-116300Y42200I75J396D01*
G02X-116223Y42193I2J-403D01*
G02X-116159Y42171I-48J-245D01*
G02X-116115Y42138I-71J-140D01*
G02X-116100Y42100I-40J-38D01*
G03X-116085Y42062I55J0D01*
G03X-116041Y42029I115J107D01*
G03X-115977Y42007I112J223D01*
G03X-115900Y42000I75J396D01*
G02X-115823Y41993I2J-403D01*
G02X-115759Y41971I-48J-245D01*
G02X-115715Y41938I-71J-140D01*
G02X-115700Y41900I-40J-38D01*
G03X-115685Y41862I55J0D01*
G03X-115641Y41829I115J107D01*
G03X-115577Y41807I112J223D01*
G03X-115500Y41800I75J396D01*
G02X-115423Y41793I2J-403D01*
G02X-115359Y41771I-48J-245D01*
G02X-115315Y41738I-71J-140D01*
G02X-115300Y41700I-40J-38D01*
G03X-115285Y41662I55J0D01*
G03X-115241Y41629I115J107D01*
G03X-115177Y41607I112J223D01*
G03X-115100Y41600I75J396D01*
G02X-115023Y41593I2J-403D01*
G02X-114959Y41571I-48J-245D01*
G02X-114915Y41538I-71J-140D01*
G02X-114900Y41500I-40J-38D01*
G03X-114885Y41462I55J0D01*
G03X-114841Y41429I115J107D01*
G03X-114777Y41407I112J223D01*
G03X-114700Y41400I75J396D01*
G02X-114623Y41393I2J-403D01*
G02X-114559Y41371I-48J-245D01*
G02X-114515Y41338I-71J-140D01*
G02X-114500Y41300I-40J-38D01*
G03X-114485Y41262I55J0D01*
G03X-114441Y41229I115J107D01*
G03X-114377Y41207I112J223D01*
G03X-114300Y41200I75J396D01*
G02X-114223Y41193I2J-403D01*
G02X-114159Y41171I-48J-245D01*
G02X-114115Y41138I-71J-140D01*
G02X-114100Y41100I-40J-38D01*
G03X-114085Y41062I55J0D01*
G03X-114041Y41029I115J107D01*
G03X-113977Y41007I112J223D01*
G03X-113900Y41000I75J396D01*
G02X-113823Y40993I2J-403D01*
G02X-113759Y40971I-48J-245D01*
G02X-113715Y40938I-71J-140D01*
G02X-113700Y40900I-40J-38D01*
G03X-113685Y40862I55J0D01*
G03X-113641Y40829I115J107D01*
G03X-113577Y40807I112J223D01*
G03X-113500Y40800I75J396D01*
G02X-113423Y40793I2J-403D01*
G02X-113359Y40771I-48J-245D01*
G02X-113315Y40738I-71J-140D01*
G02X-113300Y40700I-40J-38D01*
G03X-113285Y40662I55J0D01*
G03X-113241Y40629I115J107D01*
G03X-113177Y40607I112J223D01*
G03X-113100Y40600I75J396D01*
G02X-113023Y40593I2J-403D01*
G02X-112959Y40571I-48J-245D01*
G02X-112915Y40538I-71J-140D01*
G02X-112900Y40500I-40J-38D01*
G03X-112885Y40462I55J0D01*
G03X-112841Y40429I115J107D01*
G03X-112777Y40407I112J223D01*
G03X-112700Y40400I75J396D01*
G02X-112623Y40393I2J-403D01*
G02X-112559Y40371I-48J-245D01*
G02X-112515Y40338I-71J-140D01*
G02X-112500Y40300I-40J-38D01*
G03X-112485Y40262I55J0D01*
G03X-112441Y40229I115J107D01*
G03X-112377Y40207I112J223D01*
G03X-112300Y40200I75J396D01*
G02X-112223Y40193I2J-403D01*
G02X-112159Y40171I-48J-245D01*
G02X-112115Y40138I-71J-140D01*
G02X-112100Y40100I-40J-38D01*
G03X-112085Y40062I55J0D01*
G03X-112041Y40029I115J107D01*
G03X-111977Y40007I112J223D01*
G03X-111900Y40000I75J396D01*
G02X-111823Y39993I2J-403D01*
G02X-111759Y39971I-48J-245D01*
G02X-111715Y39938I-71J-140D01*
G02X-111700Y39900I-40J-38D01*
G03X-111685Y39862I55J0D01*
G03X-111641Y39829I115J107D01*
G03X-111577Y39807I112J223D01*
G03X-111500Y39800I75J396D01*
G02X-111423Y39793I2J-403D01*
G02X-111359Y39771I-48J-245D01*
G02X-111315Y39738I-71J-140D01*
G02X-111300Y39700I-40J-38D01*
G03X-111285Y39662I55J0D01*
G03X-111241Y39629I115J107D01*
G03X-111177Y39607I112J223D01*
G03X-111100Y39600I75J396D01*
G02X-111023Y39593I2J-403D01*
G02X-110959Y39571I-48J-245D01*
G02X-110915Y39538I-71J-140D01*
G02X-110900Y39500I-40J-38D01*
G03X-110885Y39462I55J0D01*
G03X-110841Y39429I115J107D01*
G03X-110777Y39407I112J223D01*
G03X-110700Y39400I75J396D01*
G02X-110623Y39393I2J-403D01*
G02X-110559Y39371I-48J-245D01*
G02X-110515Y39338I-71J-140D01*
G02X-110500Y39300I-40J-38D01*
G03X-110485Y39262I55J0D01*
G03X-110441Y39229I115J107D01*
G03X-110377Y39207I112J223D01*
G03X-110300Y39200I75J396D01*
G02X-110223Y39193I2J-403D01*
G02X-110159Y39171I-48J-245D01*
G02X-110115Y39138I-71J-140D01*
G02X-110100Y39100I-40J-38D01*
G03X-110085Y39062I55J0D01*
G03X-110041Y39029I115J107D01*
G03X-109977Y39007I112J223D01*
G03X-109900Y39000I75J396D01*
G02X-109823Y38993I2J-403D01*
G02X-109759Y38971I-48J-245D01*
G02X-109715Y38938I-71J-140D01*
G02X-109700Y38900I-40J-38D01*
G03X-109685Y38862I55J0D01*
G03X-109641Y38829I115J107D01*
G03X-109577Y38807I112J223D01*
G03X-109500Y38800I75J396D01*
G02X-109423Y38793I2J-403D01*
G02X-109359Y38771I-48J-245D01*
G02X-109315Y38738I-71J-140D01*
G02X-109300Y38700I-40J-38D01*
G03X-109285Y38662I55J0D01*
G03X-109241Y38629I115J107D01*
G03X-109177Y38607I112J223D01*
G03X-109100Y38600I75J396D01*
G02X-109023Y38593I2J-403D01*
G02X-108959Y38571I-48J-245D01*
G02X-108915Y38538I-71J-140D01*
G02X-108900Y38500I-40J-38D01*
G03X-108885Y38462I55J0D01*
G03X-108841Y38429I115J107D01*
G03X-108777Y38407I112J223D01*
G03X-108700Y38400I75J396D01*
G02X-108623Y38393I2J-403D01*
G02X-108559Y38371I-48J-245D01*
G02X-108515Y38338I-71J-140D01*
G02X-108500Y38300I-40J-38D01*
G03X-108485Y38262I55J0D01*
G03X-108441Y38229I115J107D01*
G03X-108377Y38207I112J223D01*
G03X-108300Y38200I75J396D01*
G02X-108223Y38193I2J-403D01*
G02X-108159Y38171I-48J-245D01*
G02X-108115Y38138I-71J-140D01*
G02X-108100Y38100I-40J-38D01*
G03X-108085Y38062I55J0D01*
G03X-108041Y38029I115J107D01*
G03X-107977Y38007I112J223D01*
G03X-107900Y38000I75J396D01*
G02X-107823Y37993I2J-403D01*
G02X-107759Y37971I-48J-245D01*
G02X-107715Y37938I-71J-140D01*
G02X-107700Y37900I-40J-38D01*
G03X-107685Y37862I55J0D01*
G03X-107641Y37829I115J107D01*
G03X-107577Y37807I112J223D01*
G03X-107500Y37800I75J396D01*
G02X-107423Y37793I2J-403D01*
G02X-107359Y37771I-48J-245D01*
G02X-107315Y37738I-71J-140D01*
G02X-107300Y37700I-40J-38D01*
G03X-107285Y37662I55J0D01*
G03X-107241Y37629I115J107D01*
G03X-107177Y37607I112J223D01*
G03X-107100Y37600I75J396D01*
G02X-107023Y37593I2J-403D01*
G02X-106959Y37571I-48J-245D01*
G02X-106915Y37538I-71J-140D01*
G02X-106900Y37500I-40J-38D01*
G03X-106885Y37462I55J0D01*
G03X-106841Y37429I115J107D01*
G03X-106777Y37407I112J223D01*
G03X-106700Y37400I75J396D01*
G02X-106623Y37393I2J-403D01*
G02X-106559Y37371I-48J-245D01*
G02X-106515Y37338I-71J-140D01*
G02X-106500Y37300I-40J-38D01*
G03X-106485Y37262I55J0D01*
G03X-106441Y37229I115J107D01*
G03X-106377Y37207I112J223D01*
G03X-106300Y37200I75J396D01*
G02X-106223Y37193I2J-403D01*
G02X-106159Y37171I-48J-245D01*
G02X-106115Y37138I-71J-140D01*
G02X-106100Y37100I-40J-38D01*
G03X-106085Y37062I55J0D01*
G03X-106041Y37029I115J107D01*
G03X-105977Y37007I112J223D01*
G03X-105900Y37000I75J396D01*
G02X-105823Y36993I2J-403D01*
G02X-105759Y36971I-48J-245D01*
G02X-105715Y36938I-71J-140D01*
G02X-105700Y36900I-40J-38D01*
G03X-105685Y36862I55J0D01*
G03X-105641Y36829I115J107D01*
G03X-105577Y36807I112J223D01*
G03X-105500Y36800I75J396D01*
G02X-105423Y36793I2J-403D01*
G02X-105359Y36771I-48J-245D01*
G02X-105315Y36738I-71J-140D01*
G02X-105300Y36700I-40J-38D01*
G03X-105285Y36662I55J0D01*
G03X-105241Y36629I115J107D01*
G03X-105177Y36607I112J223D01*
G03X-105100Y36600I75J396D01*
G02X-105023Y36593I2J-403D01*
G02X-104959Y36571I-48J-245D01*
G02X-104915Y36538I-71J-140D01*
G02X-104900Y36500I-40J-38D01*
G03X-104885Y36462I55J0D01*
G03X-104841Y36429I115J107D01*
G03X-104777Y36407I112J223D01*
G03X-104700Y36400I75J396D01*
G02X-104623Y36393I2J-403D01*
G02X-104559Y36371I-48J-245D01*
G02X-104515Y36338I-71J-140D01*
G02X-104500Y36300I-40J-38D01*
G03X-104485Y36262I55J0D01*
G03X-104441Y36229I115J107D01*
G03X-104377Y36207I112J223D01*
G03X-104300Y36200I75J396D01*
G02X-104223Y36193I2J-403D01*
G02X-104159Y36171I-48J-245D01*
G02X-104115Y36138I-71J-140D01*
G02X-104100Y36100I-40J-38D01*
G03X-104085Y36062I55J0D01*
G03X-104041Y36029I115J107D01*
G03X-103977Y36007I112J223D01*
G03X-103900Y36000I75J396D01*
G02X-103823Y35993I2J-403D01*
G02X-103759Y35971I-48J-245D01*
G02X-103715Y35938I-71J-140D01*
G02X-103700Y35900I-40J-38D01*
G03X-103685Y35862I55J0D01*
G03X-103641Y35829I115J107D01*
G03X-103577Y35807I112J223D01*
G03X-103500Y35800I75J396D01*
G02X-103423Y35793I2J-403D01*
G02X-103359Y35771I-48J-245D01*
G02X-103315Y35738I-71J-140D01*
G02X-103300Y35700I-40J-38D01*
G03X-103285Y35662I55J0D01*
G03X-103241Y35629I115J107D01*
G03X-103177Y35607I112J223D01*
G03X-103100Y35600I75J396D01*
G02X-103023Y35593I2J-403D01*
G02X-102959Y35571I-48J-245D01*
G02X-102915Y35538I-71J-140D01*
G02X-102900Y35500I-40J-38D01*
G03X-102885Y35462I55J0D01*
G03X-102841Y35429I115J107D01*
G03X-102777Y35407I112J223D01*
G03X-102700Y35400I75J396D01*
G02X-102623Y35393I2J-403D01*
G02X-102559Y35371I-48J-245D01*
G02X-102515Y35338I-71J-140D01*
G02X-102500Y35300I-40J-38D01*
G03X-102485Y35262I55J0D01*
G03X-102441Y35229I115J107D01*
G03X-102377Y35207I112J223D01*
G03X-102300Y35200I75J396D01*
G02X-102223Y35193I2J-403D01*
G02X-102159Y35171I-48J-245D01*
G02X-102115Y35138I-71J-140D01*
G02X-102100Y35100I-40J-38D01*
G03X-102085Y35062I57J1D01*
G03X-102044Y35029I111J96D01*
G03X-101982Y35007I109J209D01*
G03X-101908Y35000I72J364D01*
G02X-101832Y34991I0J-327D01*
G02X-101761Y34965I-70J-301D01*
G02X-101706Y34925I-118J-220D01*
G02X-101676Y34879I-76J-82D01*
G03X-101582Y34853I56J19D01*
G03X-101171Y35225I-7474J8670D01*
G03X-100773Y35625I-7328J7690D01*
G03X-100700Y35807I-192J183D01*
G02X-100683Y35867I112J1D01*
G02X-100612Y35969I1175J-742D01*
G02X-100515Y36084I1282J-983D01*
G02X-100400Y36200I1626J-1497D01*
G03X-100285Y36316I-1418J1520D01*
G03X-100188Y36433I-1152J1054D01*
G03X-100118Y36537I-1056J786D01*
G03X-100100Y36600I-103J64D01*
G02X-100082Y36663I121J-1D01*
G02X-100012Y36767I1126J-682D01*
G02X-99915Y36884I1249J-937D01*
G02X-99800Y37000I1533J-1404D01*
G03X-99685Y37116I-1443J1545D01*
G03X-99588Y37233I-1167J1066D01*
G03X-99518Y37336I-1064J798D01*
G03X-99500Y37398I-100J63D01*
G02X-99479Y37464I116J-1D01*
G02X-99382Y37594I2029J-1413D01*
G02X-99253Y37744I2040J-1624D01*
G02X-99100Y37900I2825J-2618D01*
G03X-98947Y38056I-2672J2774D01*
G03X-98818Y38206I-1911J1774D01*
G03X-98721Y38336I-1932J1543D01*
G03X-98700Y38402I-95J67D01*
G02X-98682Y38464I118J-1D01*
G02X-98612Y38567I1134J-695D01*
G02X-98515Y38684I1264J-949D01*
G02X-98400Y38800I1558J-1429D01*
G03X-98285Y38916I-1418J1520D01*
G03X-98188Y39033I-1152J1054D01*
G03X-98118Y39137I-1056J786D01*
G03X-98100Y39200I-103J64D01*
G02X-98082Y39263I121J-1D01*
G02X-98012Y39367I1126J-682D01*
G02X-97915Y39484I1249J-937D01*
G02X-97800Y39600I1533J-1404D01*
G03X-97685Y39716I-1443J1545D01*
G03X-97588Y39833I-1167J1066D01*
G03X-97518Y39936I-1064J798D01*
G03X-97500Y39998I-100J63D01*
G02X-97479Y40064I116J-1D01*
G02X-97382Y40194I2029J-1413D01*
G02X-97253Y40344I2040J-1624D01*
G02X-97100Y40500I2825J-2618D01*
G03X-96947Y40656I-2672J2774D01*
G03X-96818Y40806I-1911J1774D01*
G03X-96721Y40936I-1932J1543D01*
G03X-96700Y41002I-95J67D01*
G02X-96682Y41064I118J-1D01*
G02X-96612Y41167I1134J-695D01*
G02X-96515Y41284I1264J-949D01*
G02X-96400Y41400I1558J-1429D01*
G03X-96285Y41516I-1418J1520D01*
G03X-96188Y41633I-1152J1054D01*
G03X-96118Y41737I-1056J786D01*
G03X-96100Y41800I-103J64D01*
G02X-96082Y41863I121J-1D01*
G02X-96012Y41967I1126J-682D01*
G02X-95915Y42084I1249J-937D01*
G02X-95800Y42200I1533J-1404D01*
G03X-95685Y42316I-1443J1545D01*
G03X-95588Y42433I-1167J1066D01*
G03X-95518Y42536I-1064J798D01*
G03X-95500Y42598I-100J63D01*
G02X-95479Y42664I116J-1D01*
G02X-95382Y42794I2029J-1413D01*
G02X-95253Y42944I2040J-1624D01*
G02X-95100Y43100I2825J-2618D01*
G03X-94947Y43256I-2672J2774D01*
G03X-94818Y43406I-1911J1774D01*
G03X-94721Y43536I-1932J1543D01*
G03X-94700Y43602I-95J67D01*
G02X-94682Y43664I118J-1D01*
G02X-94612Y43767I1134J-695D01*
G02X-94515Y43884I1264J-949D01*
G02X-94400Y44000I1558J-1429D01*
G03X-94285Y44116I-1418J1520D01*
G03X-94188Y44233I-1152J1054D01*
G03X-94118Y44337I-1056J786D01*
G03X-94100Y44400I-103J64D01*
G02X-94082Y44463I121J-1D01*
G02X-94012Y44567I1126J-682D01*
G02X-93915Y44684I1249J-937D01*
G02X-93800Y44800I1533J-1404D01*
G03X-93685Y44916I-1443J1545D01*
G03X-93588Y45033I-1167J1066D01*
G03X-93518Y45136I-1064J798D01*
G03X-93500Y45198I-100J63D01*
G02X-93479Y45264I116J-1D01*
G02X-93382Y45394I2029J-1413D01*
G02X-93253Y45544I2040J-1624D01*
G02X-93100Y45700I2825J-2618D01*
G03X-92947Y45856I-2672J2774D01*
G03X-92818Y46006I-1911J1774D01*
G03X-92721Y46136I-1932J1543D01*
G03X-92700Y46202I-95J67D01*
G02X-92682Y46264I118J-1D01*
G02X-92612Y46367I1134J-695D01*
G02X-92515Y46484I1264J-949D01*
G02X-92400Y46600I1558J-1429D01*
G03X-92219Y46803I-1027J1098D01*
G03X-92115Y47002I-572J425D01*
G03Y47140I-205J69D01*
G03X-92200Y47200I-84J-29D01*
G03X-92238Y47192I1J-99D01*
G03X-92271Y47171I37J-94D01*
G03X-92292Y47138I73J-70D01*
G03X-92300Y47100I91J-39D01*
G02X-92315Y47062I-55J0D01*
G02X-92359Y47029I-115J107D01*
G02X-92423Y47007I-112J223D01*
G02X-92500Y47000I-75J396D01*
G03X-92577Y46993I-2J-403D01*
G03X-92641Y46971I48J-245D01*
G03X-92685Y46938I71J-140D01*
G03X-92700Y46900I40J-38D01*
G02X-92715Y46862I-55J0D01*
G02X-92759Y46829I-115J107D01*
G02X-92823Y46807I-112J223D01*
G02X-92900Y46800I-75J396D01*
G03X-92977Y46793I-2J-403D01*
G03X-93041Y46771I48J-245D01*
G03X-93085Y46738I71J-140D01*
G03X-93100Y46700I40J-38D01*
G02X-93115Y46662I-55J0D01*
G02X-93159Y46629I-115J107D01*
G02X-93223Y46607I-112J223D01*
G02X-93300Y46600I-75J396D01*
G03X-93377Y46593I-2J-403D01*
G03X-93441Y46571I48J-245D01*
G03X-93485Y46538I71J-140D01*
G03X-93500Y46500I40J-38D01*
G02X-93515Y46462I-55J0D01*
G02X-93559Y46429I-115J107D01*
G02X-93623Y46407I-112J223D01*
G02X-93700Y46400I-75J396D01*
G03X-93777Y46393I-2J-403D01*
G03X-93841Y46371I48J-245D01*
G03X-93885Y46338I71J-140D01*
G03X-93900Y46300I40J-38D01*
G02X-93915Y46262I-55J0D01*
G02X-93959Y46229I-115J107D01*
G02X-94023Y46207I-112J223D01*
G02X-94100Y46200I-75J396D01*
G03X-94177Y46193I-2J-403D01*
G03X-94241Y46171I48J-245D01*
G03X-94285Y46138I71J-140D01*
G03X-94300Y46100I40J-38D01*
G02X-94315Y46062I-55J0D01*
G02X-94359Y46029I-115J107D01*
G02X-94423Y46007I-112J223D01*
G02X-94500Y46000I-75J396D01*
G03X-94577Y45993I-2J-403D01*
G03X-94641Y45971I48J-245D01*
G03X-94685Y45938I71J-140D01*
G03X-94700Y45900I40J-38D01*
G02X-94715Y45862I-55J0D01*
G02X-94759Y45829I-115J107D01*
G02X-94823Y45807I-112J223D01*
G02X-94900Y45800I-75J396D01*
G03X-94977Y45793I-2J-403D01*
G03X-95041Y45771I48J-245D01*
G03X-95085Y45738I71J-140D01*
G03X-95100Y45700I40J-38D01*
G02X-95115Y45662I-55J0D01*
G02X-95159Y45629I-115J107D01*
G02X-95223Y45607I-112J223D01*
G02X-95300Y45600I-75J396D01*
G03X-95377Y45593I-2J-403D01*
G03X-95441Y45571I48J-245D01*
G03X-95485Y45538I71J-140D01*
G03X-95500Y45500I40J-38D01*
G02X-95515Y45462I-55J0D01*
G02X-95559Y45429I-115J107D01*
G02X-95623Y45407I-112J223D01*
G02X-95700Y45400I-75J396D01*
G03X-95777Y45393I-2J-403D01*
G03X-95841Y45371I48J-245D01*
G03X-95885Y45338I71J-140D01*
G03X-95900Y45300I40J-38D01*
G02X-95915Y45262I-55J0D01*
G02X-95959Y45229I-115J107D01*
G02X-96023Y45207I-112J223D01*
G02X-96100Y45200I-75J396D01*
G03X-96177Y45193I-2J-403D01*
G03X-96241Y45171I48J-245D01*
G03X-96285Y45138I71J-140D01*
G03X-96300Y45100I40J-38D01*
G02X-96315Y45062I-55J0D01*
G02X-96359Y45029I-115J107D01*
G02X-96423Y45007I-112J223D01*
G02X-96500Y45000I-75J396D01*
G03X-96577Y44993I-2J-403D01*
G03X-96641Y44971I48J-245D01*
G03X-96685Y44938I71J-140D01*
G03X-96700Y44900I40J-38D01*
G02X-96715Y44862I-55J0D01*
G02X-96759Y44829I-115J107D01*
G02X-96823Y44807I-112J223D01*
G02X-96900Y44800I-75J396D01*
G03X-96977Y44793I-2J-403D01*
G03X-97041Y44771I48J-245D01*
G03X-97085Y44738I71J-140D01*
G03X-97100Y44700I40J-38D01*
G02X-97115Y44662I-55J0D01*
G02X-97159Y44629I-115J107D01*
G02X-97223Y44607I-112J223D01*
G02X-97300Y44600I-75J396D01*
G03X-97377Y44593I-2J-403D01*
G03X-97441Y44571I48J-245D01*
G03X-97485Y44538I71J-140D01*
G03X-97500Y44500I40J-38D01*
G02X-97515Y44462I-55J0D01*
G02X-97559Y44429I-115J107D01*
G02X-97623Y44407I-112J223D01*
G02X-97700Y44400I-75J396D01*
G03X-97777Y44393I-2J-403D01*
G03X-97841Y44371I48J-245D01*
G03X-97885Y44338I71J-140D01*
G03X-97900Y44300I40J-38D01*
G02X-97915Y44262I-55J0D01*
G02X-97959Y44229I-115J107D01*
G02X-98023Y44207I-112J223D01*
G02X-98100Y44200I-75J396D01*
G03X-98177Y44193I-2J-403D01*
G03X-98241Y44171I48J-245D01*
G03X-98285Y44138I71J-140D01*
G03X-98300Y44100I40J-38D01*
G02X-98315Y44062I-55J0D01*
G02X-98359Y44029I-115J107D01*
G02X-98423Y44007I-112J223D01*
G02X-98500Y44000I-75J396D01*
G03X-98577Y43993I-2J-403D01*
G03X-98641Y43971I48J-245D01*
G03X-98685Y43938I71J-140D01*
G03X-98700Y43900I40J-38D01*
G02X-98715Y43862I-55J0D01*
G02X-98759Y43829I-115J107D01*
G02X-98823Y43807I-112J223D01*
G02X-98900Y43800I-75J396D01*
G03X-98977Y43793I-2J-403D01*
G03X-99041Y43771I48J-245D01*
G03X-99085Y43738I71J-140D01*
G03X-99100Y43700I40J-38D01*
G02X-99115Y43662I-55J0D01*
G02X-99159Y43629I-115J107D01*
G02X-99223Y43607I-112J223D01*
G02X-99300Y43600I-75J396D01*
G03X-99377Y43593I-2J-403D01*
G03X-99441Y43571I48J-245D01*
G03X-99485Y43538I71J-140D01*
G03X-99500Y43500I40J-38D01*
G02X-99515Y43462I-55J0D01*
G02X-99559Y43429I-115J107D01*
G02X-99623Y43407I-112J223D01*
G02X-99700Y43400I-75J396D01*
G03X-99777Y43393I-2J-403D01*
G03X-99841Y43371I48J-245D01*
G03X-99885Y43338I71J-140D01*
G03X-99900Y43300I40J-38D01*
G02X-99915Y43262I-55J0D01*
G02X-99959Y43229I-115J107D01*
G02X-100023Y43207I-112J223D01*
G02X-100100Y43200I-75J396D01*
G03X-100177Y43193I-2J-403D01*
G03X-100241Y43171I48J-245D01*
G03X-100285Y43138I71J-140D01*
G03X-100300Y43100I40J-38D01*
G02X-100315Y43062I-55J0D01*
G02X-100359Y43029I-115J107D01*
G02X-100423Y43007I-112J223D01*
G02X-100500Y43000I-75J396D01*
G03X-100577Y42993I-2J-403D01*
G03X-100641Y42971I48J-245D01*
G03X-100685Y42938I71J-140D01*
G03X-100700Y42900I40J-38D01*
G02X-100715Y42862I-55J0D01*
G02X-100759Y42829I-115J107D01*
G02X-100823Y42807I-112J223D01*
G02X-100900Y42800I-75J396D01*
G03X-100977Y42793I-2J-403D01*
G03X-101041Y42771I48J-245D01*
G03X-101085Y42738I71J-140D01*
G03X-101100Y42700I40J-38D01*
G02X-101125Y42661I-43J0D01*
G02X-101218Y42629I-229J514D01*
G02X-101347Y42607I-210J844D01*
G02X-101500Y42600I-151J1617D01*
G02X-101653Y42607I-2J1624D01*
G02X-101782Y42629I81J866D01*
G02X-101875Y42661I136J546D01*
G02X-101900Y42700I18J39D01*
G03X-101915Y42738I-55J0D01*
G03X-101959Y42771I-115J-107D01*
G03X-102023Y42793I-112J-223D01*
G03X-102100Y42800I-75J-396D01*
G02X-102177Y42807I-2J403D01*
G02X-102241Y42829I48J245D01*
G02X-102285Y42862I71J140D01*
G02X-102300Y42900I40J38D01*
G03X-102315Y42938I-55J0D01*
G03X-102359Y42971I-115J-107D01*
G03X-102423Y42993I-112J-223D01*
G03X-102500Y43000I-75J-396D01*
G02X-102577Y43007I-2J403D01*
G02X-102641Y43029I48J245D01*
G02X-102685Y43062I71J140D01*
G02X-102700Y43100I40J38D01*
G03X-102715Y43138I-55J0D01*
G03X-102759Y43171I-115J-107D01*
G03X-102823Y43193I-112J-223D01*
G03X-102900Y43200I-75J-396D01*
G02X-102977Y43207I-2J403D01*
G02X-103041Y43229I48J245D01*
G02X-103085Y43262I71J140D01*
G02X-103100Y43300I40J38D01*
G03X-103115Y43338I-55J0D01*
G03X-103159Y43371I-115J-107D01*
G03X-103223Y43393I-112J-223D01*
G03X-103300Y43400I-75J-396D01*
G02X-103377Y43407I-2J403D01*
G02X-103441Y43429I48J245D01*
G02X-103485Y43462I71J140D01*
G02X-103500Y43500I40J38D01*
G03X-103515Y43538I-55J0D01*
G03X-103559Y43571I-115J-107D01*
G03X-103623Y43593I-112J-223D01*
G03X-103700Y43600I-75J-396D01*
G02X-103777Y43607I-2J403D01*
G02X-103841Y43629I48J245D01*
G02X-103885Y43662I71J140D01*
G02X-103900Y43700I40J38D01*
G03X-103915Y43738I-55J0D01*
G03X-103959Y43771I-115J-107D01*
G03X-104023Y43793I-112J-223D01*
G03X-104100Y43800I-75J-396D01*
G02X-104177Y43807I-2J403D01*
G02X-104241Y43829I48J245D01*
G02X-104285Y43862I71J140D01*
G02X-104300Y43900I40J38D01*
G03X-104315Y43938I-55J0D01*
G03X-104359Y43971I-115J-107D01*
G03X-104423Y43993I-112J-223D01*
G03X-104500Y44000I-75J-396D01*
G02X-104577Y44007I-2J403D01*
G02X-104641Y44029I48J245D01*
G02X-104685Y44062I71J140D01*
G02X-104700Y44100I40J38D01*
G03X-104715Y44138I-55J0D01*
G03X-104759Y44171I-115J-107D01*
G03X-104823Y44193I-112J-223D01*
G03X-104900Y44200I-75J-396D01*
G02X-104977Y44207I-2J403D01*
G02X-105041Y44229I48J245D01*
G02X-105085Y44262I71J140D01*
G02X-105100Y44300I40J38D01*
G03X-105115Y44338I-55J0D01*
G03X-105159Y44371I-115J-107D01*
G03X-105223Y44393I-112J-223D01*
G03X-105300Y44400I-75J-396D01*
G02X-105377Y44407I-2J403D01*
G02X-105441Y44429I48J245D01*
G02X-105485Y44462I71J140D01*
G02X-105500Y44500I40J38D01*
G03X-105515Y44538I-55J0D01*
G03X-105559Y44571I-115J-107D01*
G03X-105623Y44593I-112J-223D01*
G03X-105700Y44600I-75J-396D01*
G02X-105777Y44607I-2J403D01*
G02X-105841Y44629I48J245D01*
G02X-105885Y44662I71J140D01*
G02X-105900Y44700I40J38D01*
G03X-105915Y44738I-55J0D01*
G03X-105959Y44771I-115J-107D01*
G03X-106023Y44793I-112J-223D01*
G03X-106100Y44800I-75J-396D01*
G02X-106177Y44807I-2J403D01*
G02X-106241Y44829I48J245D01*
G02X-106285Y44862I71J140D01*
G02X-106300Y44900I40J38D01*
G03X-106315Y44938I-55J0D01*
G03X-106359Y44971I-115J-107D01*
G03X-106423Y44993I-112J-223D01*
G03X-106500Y45000I-75J-396D01*
G02X-106577Y45007I-2J403D01*
G02X-106641Y45029I48J245D01*
G02X-106685Y45062I71J140D01*
G02X-106700Y45100I40J38D01*
G03X-106715Y45138I-55J0D01*
G03X-106759Y45171I-115J-107D01*
G03X-106823Y45193I-112J-223D01*
G03X-106900Y45200I-75J-396D01*
G02X-106977Y45207I-2J403D01*
G02X-107041Y45229I48J245D01*
G02X-107085Y45262I71J140D01*
G02X-107100Y45300I40J38D01*
G03X-107115Y45338I-55J0D01*
G03X-107159Y45371I-115J-107D01*
G03X-107223Y45393I-112J-223D01*
G03X-107300Y45400I-75J-396D01*
G02X-107377Y45407I-2J403D01*
G02X-107441Y45429I48J245D01*
G02X-107485Y45462I71J140D01*
G02X-107500Y45500I40J38D01*
G03X-107515Y45538I-55J0D01*
G03X-107559Y45571I-115J-107D01*
G03X-107623Y45593I-112J-223D01*
G03X-107700Y45600I-75J-396D01*
G02X-107777Y45607I-2J403D01*
G02X-107841Y45629I48J245D01*
G02X-107885Y45662I71J140D01*
G02X-107900Y45700I40J38D01*
G03X-107915Y45738I-55J0D01*
G03X-107959Y45771I-115J-107D01*
G03X-108023Y45793I-112J-223D01*
G03X-108100Y45800I-75J-396D01*
G02X-108177Y45807I-2J403D01*
G02X-108241Y45829I48J245D01*
G02X-108285Y45862I71J140D01*
G02X-108300Y45900I40J38D01*
G03X-108315Y45938I-55J0D01*
G03X-108359Y45971I-115J-107D01*
G03X-108423Y45993I-112J-223D01*
G03X-108500Y46000I-75J-396D01*
G02X-108577Y46007I-2J403D01*
G02X-108641Y46029I48J245D01*
G02X-108685Y46062I71J140D01*
G02X-108700Y46100I40J38D01*
G03X-108715Y46138I-55J0D01*
G03X-108759Y46171I-115J-107D01*
G03X-108823Y46193I-112J-223D01*
G03X-108900Y46200I-75J-396D01*
G02X-108977Y46207I-2J403D01*
G02X-109041Y46229I48J245D01*
G02X-109085Y46262I71J140D01*
G02X-109100Y46300I40J38D01*
G03X-109115Y46338I-55J0D01*
G03X-109159Y46371I-115J-107D01*
G03X-109223Y46393I-112J-223D01*
G03X-109300Y46400I-75J-396D01*
G02X-109377Y46407I-2J403D01*
G02X-109441Y46429I48J245D01*
G02X-109485Y46462I71J140D01*
G02X-109500Y46500I40J38D01*
G03X-109515Y46538I-55J0D01*
G03X-109559Y46571I-115J-107D01*
G03X-109623Y46593I-112J-223D01*
G03X-109700Y46600I-75J-396D01*
G02X-109777Y46607I-2J403D01*
G02X-109841Y46629I48J245D01*
G02X-109885Y46662I71J140D01*
G02X-109900Y46700I40J38D01*
G03X-109915Y46738I-55J0D01*
G03X-109959Y46771I-115J-107D01*
G03X-110023Y46793I-112J-223D01*
G03X-110100Y46800I-75J-396D01*
G02X-110177Y46807I-2J403D01*
G02X-110241Y46829I48J245D01*
G02X-110285Y46862I71J140D01*
G02X-110300Y46900I40J38D01*
G03X-110315Y46938I-55J0D01*
G03X-110359Y46971I-115J-107D01*
G03X-110423Y46993I-112J-223D01*
G03X-110500Y47000I-75J-396D01*
G02X-110577Y47007I-2J403D01*
G02X-110641Y47029I48J245D01*
G02X-110685Y47062I71J140D01*
G02X-110700Y47100I40J38D01*
G03X-110715Y47138I-55J0D01*
G03X-110759Y47171I-115J-107D01*
G03X-110823Y47193I-112J-223D01*
G03X-110900Y47200I-75J-396D01*
G02X-110977Y47207I-2J403D01*
G02X-111041Y47229I48J245D01*
G02X-111085Y47262I71J140D01*
G02X-111100Y47300I40J38D01*
G03X-111115Y47338I-55J0D01*
G03X-111159Y47371I-115J-107D01*
G03X-111223Y47393I-112J-223D01*
G03X-111300Y47400I-75J-396D01*
G02X-111377Y47407I-2J403D01*
G02X-111441Y47429I48J245D01*
G02X-111485Y47462I71J140D01*
G02X-111500Y47500I40J38D01*
G03X-111515Y47538I-55J0D01*
G03X-111559Y47571I-115J-107D01*
G03X-111623Y47593I-112J-223D01*
G03X-111700Y47600I-75J-396D01*
G02X-111777Y47607I-2J403D01*
G02X-111841Y47629I48J245D01*
G02X-111885Y47662I71J140D01*
G02X-111900Y47700I40J38D01*
G03X-111915Y47738I-55J0D01*
G03X-111959Y47771I-115J-107D01*
G03X-112023Y47793I-112J-223D01*
G03X-112100Y47800I-75J-396D01*
G02X-112177Y47807I-2J403D01*
G02X-112241Y47829I48J245D01*
G02X-112285Y47862I71J140D01*
G02X-112300Y47900I40J38D01*
G03X-112312Y47938I-68J-1D01*
G03X-112345Y47971I-99J-66D01*
G03X-112394Y47993I-91J-138D01*
G03X-112452Y48000I-56J-223D01*
G02X-112637Y48071I0J277D01*
G02X-113140Y48539I13435J14944D01*
G02X-113628Y49025I14387J14934D01*
G02X-113700Y49202I182J177D01*
G03X-113725Y49269I-103J0D01*
G03X-113935Y49510I-12578J-10748D01*
G03X-114193Y49789I-7495J-6672D01*
G03X-114500Y50100I-12544J-12076D01*
G02X-114807Y50411I11992J12145D01*
G02X-115065Y50691I7136J6834D01*
G02X-115275Y50932I11954J10629D01*
G02X-115300Y51000I80J68D01*
G03X-115325Y51068I-105J0D01*
G03X-115535Y51309I-12164J-10388D01*
G03X-115793Y51589I-7394J-6554D01*
G03X-116100Y51900I-12299J-11834D01*
G02X-116407Y52211I11992J12145D01*
G02X-116665Y52491I7136J6834D01*
G02X-116875Y52732I11954J10629D01*
G02X-116900Y52800I80J68D01*
G03X-116925Y52868I-105J0D01*
G03X-117135Y53109I-12164J-10388D01*
G03X-117393Y53389I-7394J-6554D01*
G03X-117700Y53700I-12299J-11834D01*
G02X-118007Y54011I11992J12145D01*
G02X-118265Y54291I7136J6834D01*
G02X-118475Y54532I11954J10629D01*
G02X-118500Y54600I80J68D01*
G03X-118525Y54668I-105J0D01*
G03X-118735Y54909I-12164J-10388D01*
G03X-118993Y55189I-7394J-6554D01*
G03X-119300Y55500I-12299J-11834D01*
G02X-119607Y55811I12001J12153D01*
G02X-119865Y56091I7139J6837D01*
G02X-120075Y56332I11965J10638D01*
G02X-120100Y56400I80J68D01*
G03X-120109Y56451I-156J-1D01*
G03X-120137Y56518I-528J-181D01*
G03X-120177Y56588I-582J-286D01*
G03X-120225Y56650I-484J-325D01*
G03X-120278Y56705I-556J-483D01*
G37*
G36*
G01X-133150Y81440D02*
X-115987D01*
X-113967Y78594D01*
X-113170Y77470D01*
X-112448Y76450D01*
X-111843Y75594D01*
G02X-111634Y75294I-29029J-20446D01*
G01X-111320Y74840D01*
X-114943D01*
X-116154Y76614D01*
G03X-116659Y77350I-123555J-84235D01*
G03X-117176Y78094I-130619J-90215D01*
G03X-117637Y78748I-116241J-81448D01*
G03X-117936Y79161I-20391J-14448D01*
G01X-118508Y79935D01*
X-121766Y79945D01*
X-125025Y79955D01*
Y74840D01*
X-128655D01*
Y79742D01*
X-129931Y79849D01*
G02X-130925Y80000I651J7632D01*
G02X-131801Y80272I1135J5201D01*
G02X-132490Y80638I1490J3637D01*
G02X-132913Y81069I812J1220D01*
G01X-133150Y81440D01*
G37*
G36*
G01X-117174Y86225D02*
X-110993Y86203D01*
G02X-105557Y86143I-1384J-371694D01*
G02X-102897Y85960I-481J-26419D01*
G02X-101170Y85570I-1019J-8530D01*
G02X-99658Y84845I-2221J-6572D01*
G02X-98908Y84238I-2317J-3629D01*
G02X-98105Y83326I-7586J-7489D01*
G02X-96882Y81686I-34444J-26962D01*
G02X-94088Y77731I-825626J-586226D01*
G02X-93743Y77149I-3537J-2490D01*
G02X-93547Y76593I-2265J-1111D01*
G02X-93509Y76106I-1661J-375D01*
G02X-93636Y75729I-774J51D01*
G02X-93907Y75476I-666J442D01*
G02X-94426Y75226I-2083J3662D01*
G02X-95097Y75003I-2160J5379D01*
G02X-95873Y74833I-2348J8863D01*
G02X-96620Y74751I-1025J5894D01*
G02X-97914Y74708I-2209J46989D01*
G02X-99637Y74696I-1369J72847D01*
G02X-101880Y74718I895J205632D01*
G02X-106655Y74881I1948J127080D01*
G02X-108733Y75333I349J6607D01*
G02X-110221Y76376I1427J3619D01*
G02X-112073Y78739I19249J16994D01*
G02X-112737Y79703I133404J92599D01*
G02X-113296Y80532I71687J48942D01*
G02X-113783Y81264I312745J208598D01*
G02X-113805Y81337I110J73D01*
G02X-113764Y81379I42J0D01*
G02X-112718Y81410I10790J-346408D01*
G02X-111523Y81433I1926J-69007D01*
G02X-110104Y81440I1384J-136638D01*
G01X-106402D01*
X-105814Y80722D01*
G02X-105588Y80439I-10314J-8468D01*
G02X-105398Y80183I-6357J-4917D01*
G02X-105246Y79965I-9301J-6647D01*
G02X-105225Y79897I-100J-68D01*
G02X-105265Y79854I-43J0D01*
G02X-105808Y79821I-3212J48368D01*
G02X-106449Y79798I-1006J19085D01*
G02X-107210Y79790I-777J37745D01*
G01X-109195D01*
X-108022Y78264D01*
G03X-107540Y77665I14044J10808D01*
G03X-107063Y77127I10359J8704D01*
G03X-106643Y76699I9291J8697D01*
G03X-106408Y76539I574J590D01*
G03X-105688Y76378I748J1656D01*
G03X-101732Y76332I8194J534555D01*
G03X-97708Y76311I5749J716007D01*
G03X-97175Y76465I3J990D01*
G03X-97118Y76668I-84J133D01*
G03X-97420Y77192I-4398J-2186D01*
G03X-98116Y78199I-23553J-15535D01*
G03X-100358Y81286I-1282802J-929305D01*
G03X-102160Y83563I-29118J-21192D01*
G03X-103357Y84384I-2142J-1840D01*
G03X-105031Y84689I-1779J-5016D01*
G03X-110088Y84740I-5078J-252797D01*
G01X-115716D01*
X-116445Y85482D01*
X-117174Y86225D01*
G37*
G36*
G01X-97936Y64342D02*
G03X-98150Y64372I-624J-3676D01*
G03X-98436Y64393I-427J-3852D01*
G03X-98800Y64400I-373J-9927D01*
G03X-99164Y64393I9J-9934D01*
G03X-99450Y64372I141J-3873D01*
G03X-99664Y64342I410J-3706D01*
G03X-99700Y64300I7J-42D01*
G03X-99685Y64262I55J0D01*
G03X-99641Y64229I115J107D01*
G03X-99577Y64207I112J223D01*
G03X-99500Y64200I75J396D01*
G02X-99423Y64193I2J-403D01*
G02X-99359Y64171I-48J-245D01*
G02X-99315Y64138I-71J-140D01*
G02X-99300Y64100I-40J-38D01*
G03X-99285Y64062I55J0D01*
G03X-99241Y64029I115J107D01*
G03X-99177Y64007I112J223D01*
G03X-99100Y64000I75J396D01*
G02X-99023Y63993I2J-403D01*
G02X-98959Y63971I-48J-245D01*
G02X-98915Y63938I-71J-140D01*
G02X-98900Y63900I-40J-38D01*
G03X-98885Y63862I55J0D01*
G03X-98841Y63829I115J107D01*
G03X-98777Y63807I112J223D01*
G03X-98700Y63800I75J396D01*
G02X-98623Y63793I2J-403D01*
G02X-98559Y63771I-48J-245D01*
G02X-98515Y63738I-71J-140D01*
G02X-98500Y63700I-40J-38D01*
G03X-98485Y63662I55J0D01*
G03X-98441Y63629I115J107D01*
G03X-98377Y63607I112J223D01*
G03X-98300Y63600I75J396D01*
G02X-98223Y63593I2J-403D01*
G02X-98159Y63571I-48J-245D01*
G02X-98115Y63538I-71J-140D01*
G02X-98100Y63500I-40J-38D01*
G03X-98085Y63462I55J0D01*
G03X-98041Y63429I115J107D01*
G03X-97977Y63407I112J223D01*
G03X-97900Y63400I75J396D01*
G02X-97823Y63393I2J-403D01*
G02X-97759Y63371I-48J-245D01*
G02X-97715Y63338I-71J-140D01*
G02X-97700Y63300I-40J-38D01*
G03X-97685Y63262I55J0D01*
G03X-97641Y63229I115J107D01*
G03X-97577Y63207I112J223D01*
G03X-97500Y63200I75J396D01*
G02X-97423Y63193I2J-403D01*
G02X-97359Y63171I-48J-245D01*
G02X-97315Y63138I-71J-140D01*
G02X-97300Y63100I-40J-38D01*
G03X-97285Y63062I55J0D01*
G03X-97241Y63029I115J107D01*
G03X-97177Y63007I112J223D01*
G03X-97100Y63000I75J396D01*
G02X-97023Y62993I2J-403D01*
G02X-96959Y62971I-48J-245D01*
G02X-96915Y62938I-71J-140D01*
G02X-96900Y62900I-40J-38D01*
G03X-96885Y62862I55J0D01*
G03X-96841Y62829I115J107D01*
G03X-96777Y62807I112J223D01*
G03X-96700Y62800I75J396D01*
G02X-96623Y62793I2J-403D01*
G02X-96559Y62771I-48J-245D01*
G02X-96515Y62738I-71J-140D01*
G02X-96500Y62700I-40J-38D01*
G03X-96485Y62662I55J0D01*
G03X-96441Y62629I115J107D01*
G03X-96377Y62607I112J223D01*
G03X-96300Y62600I75J396D01*
G02X-96223Y62593I2J-403D01*
G02X-96159Y62571I-48J-245D01*
G02X-96115Y62538I-71J-140D01*
G02X-96100Y62500I-40J-38D01*
G03X-96085Y62462I55J0D01*
G03X-96041Y62429I115J107D01*
G03X-95977Y62407I112J223D01*
G03X-95900Y62400I75J396D01*
G02X-95823Y62393I2J-403D01*
G02X-95759Y62371I-48J-245D01*
G02X-95715Y62338I-71J-140D01*
G02X-95700Y62300I-40J-38D01*
G03X-95685Y62262I55J0D01*
G03X-95641Y62229I115J107D01*
G03X-95577Y62207I112J223D01*
G03X-95500Y62200I75J396D01*
G02X-95423Y62193I2J-403D01*
G02X-95359Y62171I-48J-245D01*
G02X-95315Y62138I-71J-140D01*
G02X-95300Y62100I-40J-38D01*
G03X-95285Y62062I55J0D01*
G03X-95241Y62029I115J107D01*
G03X-95177Y62007I112J223D01*
G03X-95100Y62000I75J396D01*
G02X-95023Y61993I2J-403D01*
G02X-94959Y61971I-48J-245D01*
G02X-94915Y61938I-71J-140D01*
G02X-94900Y61900I-40J-38D01*
G03X-94885Y61862I55J0D01*
G03X-94841Y61829I115J107D01*
G03X-94777Y61807I112J223D01*
G03X-94700Y61800I75J396D01*
G02X-94623Y61793I2J-403D01*
G02X-94559Y61771I-48J-245D01*
G02X-94515Y61738I-71J-140D01*
G02X-94500Y61700I-40J-38D01*
G03X-94485Y61662I55J0D01*
G03X-94441Y61629I115J107D01*
G03X-94377Y61607I112J223D01*
G03X-94300Y61600I75J396D01*
G02X-94223Y61593I2J-403D01*
G02X-94159Y61571I-48J-245D01*
G02X-94115Y61538I-71J-140D01*
G02X-94100Y61500I-40J-38D01*
G03X-94085Y61462I55J0D01*
G03X-94041Y61429I115J107D01*
G03X-93977Y61407I112J223D01*
G03X-93900Y61400I75J396D01*
G02X-93823Y61393I2J-403D01*
G02X-93759Y61371I-48J-245D01*
G02X-93715Y61338I-71J-140D01*
G02X-93700Y61300I-40J-38D01*
G03X-93685Y61262I55J0D01*
G03X-93641Y61229I115J107D01*
G03X-93577Y61207I112J223D01*
G03X-93500Y61200I75J396D01*
G02X-93423Y61193I2J-403D01*
G02X-93359Y61171I-48J-245D01*
G02X-93315Y61138I-71J-140D01*
G02X-93300Y61100I-40J-38D01*
G03X-93285Y61062I55J0D01*
G03X-93241Y61029I115J107D01*
G03X-93177Y61007I112J223D01*
G03X-93100Y61000I75J396D01*
G02X-93023Y60993I2J-403D01*
G02X-92959Y60971I-48J-245D01*
G02X-92915Y60938I-71J-140D01*
G02X-92900Y60900I-40J-38D01*
G03X-92885Y60862I55J0D01*
G03X-92841Y60829I115J107D01*
G03X-92777Y60807I112J223D01*
G03X-92700Y60800I75J396D01*
G02X-92623Y60793I2J-403D01*
G02X-92559Y60771I-48J-245D01*
G02X-92515Y60738I-71J-140D01*
G02X-92500Y60700I-40J-38D01*
G03X-92485Y60662I55J0D01*
G03X-92441Y60629I115J107D01*
G03X-92377Y60607I112J223D01*
G03X-92300Y60600I75J396D01*
G02X-92223Y60593I2J-403D01*
G02X-92159Y60571I-48J-245D01*
G02X-92115Y60538I-71J-140D01*
G02X-92100Y60500I-40J-38D01*
G03X-92085Y60462I55J0D01*
G03X-92041Y60429I115J107D01*
G03X-91977Y60407I112J223D01*
G03X-91900Y60400I75J396D01*
G02X-91823Y60393I2J-403D01*
G02X-91759Y60371I-48J-245D01*
G02X-91715Y60338I-71J-140D01*
G02X-91700Y60300I-40J-38D01*
G03X-91685Y60262I55J0D01*
G03X-91641Y60229I115J107D01*
G03X-91577Y60207I112J223D01*
G03X-91500Y60200I75J396D01*
G02X-91423Y60193I2J-403D01*
G02X-91359Y60171I-48J-245D01*
G02X-91315Y60138I-71J-140D01*
G02X-91300Y60100I-40J-38D01*
G03X-91285Y60062I55J0D01*
G03X-91241Y60029I115J107D01*
G03X-91177Y60007I112J223D01*
G03X-91100Y60000I75J396D01*
G02X-91023Y59993I2J-403D01*
G02X-90959Y59971I-48J-245D01*
G02X-90915Y59938I-71J-140D01*
G02X-90900Y59900I-40J-38D01*
G03X-90885Y59862I55J0D01*
G03X-90841Y59829I115J107D01*
G03X-90777Y59807I112J223D01*
G03X-90700Y59800I75J396D01*
G02X-90623Y59793I2J-403D01*
G02X-90559Y59771I-48J-245D01*
G02X-90515Y59738I-71J-140D01*
G02X-90500Y59700I-40J-38D01*
G03X-90485Y59662I55J0D01*
G03X-90441Y59629I115J107D01*
G03X-90377Y59607I112J223D01*
G03X-90300Y59600I75J396D01*
G02X-90171Y59484I0J-130D01*
G02X-90126Y58862I-8320J-915D01*
G02X-90104Y57652I-36436J-1268D01*
G02X-90100Y53900I-2009098J-4018D01*
G02X-90106Y51411I-528184J29D01*
G02X-90125Y49650I-137097J599D01*
G02X-90152Y48247I-613647J11108D01*
G02X-90200Y48200I-48J1D01*
G03X-90238Y48185I0J-55D01*
G03X-90271Y48141I107J-115D01*
G03X-90293Y48077I223J-112D01*
G03X-90300Y48000I396J-75D01*
G02X-90307Y47923I-403J-2D01*
G02X-90329Y47859I-245J48D01*
G02X-90362Y47815I-140J71D01*
G02X-90400Y47800I-38J40D01*
G03X-90438Y47785I0J-55D01*
G03X-90471Y47741I107J-115D01*
G03X-90493Y47677I223J-112D01*
G03X-90500Y47600I396J-75D01*
G02X-90507Y47523I-403J-2D01*
G02X-90529Y47459I-245J48D01*
G02X-90562Y47415I-140J71D01*
G02X-90600Y47400I-38J40D01*
G03X-90638Y47379I0J-45D01*
G03X-90671Y47312I250J-165D01*
G03X-90693Y47215I484J-161D01*
G03X-90700Y47100I905J-113D01*
G02X-90707Y46985I-912J-2D01*
G02X-90729Y46888I-506J64D01*
G02X-90762Y46821I-283J98D01*
G02X-90800Y46800I-38J24D01*
G03X-90838Y46785I0J-55D01*
G03X-90871Y46741I107J-115D01*
G03X-90893Y46677I223J-112D01*
G03X-90900Y46600I396J-75D01*
G02X-90907Y46523I-403J-2D01*
G02X-90929Y46459I-245J48D01*
G02X-90962Y46415I-140J71D01*
G02X-91000Y46400I-38J40D01*
G03X-91038Y46385I0J-55D01*
G03X-91071Y46341I107J-115D01*
G03X-91093Y46277I223J-112D01*
G03X-91100Y46200I396J-75D01*
G02X-91107Y46123I-403J-2D01*
G02X-91129Y46059I-245J48D01*
G02X-91162Y46015I-140J71D01*
G02X-91200Y46000I-38J40D01*
G03X-91238Y45985I0J-55D01*
G03X-91271Y45941I107J-115D01*
G03X-91293Y45877I223J-112D01*
G03X-91300Y45800I396J-75D01*
G02X-91307Y45723I-403J-2D01*
G02X-91329Y45659I-245J48D01*
G02X-91362Y45615I-140J71D01*
G02X-91400Y45600I-38J40D01*
G03X-91438Y45585I0J-55D01*
G03X-91471Y45541I107J-115D01*
G03X-91493Y45477I223J-112D01*
G03X-91500Y45400I396J-75D01*
G02X-91507Y45323I-403J-2D01*
G02X-91529Y45259I-245J48D01*
G02X-91562Y45215I-140J71D01*
G02X-91600Y45200I-38J40D01*
G03X-91638Y45185I0J-55D01*
G03X-91671Y45141I107J-115D01*
G03X-91693Y45077I223J-112D01*
G03X-91700Y45000I396J-75D01*
G02X-91707Y44923I-403J-2D01*
G02X-91729Y44859I-245J48D01*
G02X-91762Y44815I-140J71D01*
G02X-91800Y44800I-38J40D01*
G03X-91838Y44785I0J-55D01*
G03X-91871Y44741I107J-115D01*
G03X-91893Y44677I223J-112D01*
G03X-91900Y44600I396J-75D01*
G02X-91907Y44523I-403J-2D01*
G02X-91929Y44459I-245J48D01*
G02X-91962Y44415I-140J71D01*
G02X-92000Y44400I-38J40D01*
G03X-92038Y44385I0J-55D01*
G03X-92071Y44341I107J-115D01*
G03X-92093Y44277I223J-112D01*
G03X-92100Y44200I396J-75D01*
G02X-92107Y44123I-403J-2D01*
G02X-92129Y44059I-245J48D01*
G02X-92162Y44015I-140J71D01*
G02X-92200Y44000I-38J40D01*
G03X-92238Y43985I0J-55D01*
G03X-92271Y43941I107J-115D01*
G03X-92293Y43877I223J-112D01*
G03X-92300Y43800I396J-75D01*
G02X-92307Y43723I-403J-2D01*
G02X-92329Y43659I-245J48D01*
G02X-92362Y43615I-140J71D01*
G02X-92400Y43600I-38J40D01*
G03X-92438Y43585I0J-55D01*
G03X-92471Y43541I107J-115D01*
G03X-92493Y43477I223J-112D01*
G03X-92500Y43400I396J-75D01*
G02X-92507Y43323I-403J-2D01*
G02X-92529Y43259I-245J48D01*
G02X-92562Y43215I-140J71D01*
G02X-92600Y43200I-38J40D01*
G03X-92638Y43179I0J-45D01*
G03X-92671Y43112I250J-165D01*
G03X-92693Y43015I484J-161D01*
G03X-92700Y42900I905J-113D01*
G02X-92707Y42785I-912J-2D01*
G02X-92729Y42688I-506J64D01*
G02X-92762Y42621I-283J98D01*
G02X-92800Y42600I-38J24D01*
G03X-92838Y42585I0J-55D01*
G03X-92871Y42541I107J-115D01*
G03X-92893Y42477I223J-112D01*
G03X-92900Y42400I396J-75D01*
G02X-92907Y42323I-403J-2D01*
G02X-92929Y42259I-245J48D01*
G02X-92962Y42215I-140J71D01*
G02X-93000Y42200I-38J40D01*
G03X-93038Y42185I0J-55D01*
G03X-93071Y42141I107J-115D01*
G03X-93093Y42077I223J-112D01*
G03X-93100Y42000I396J-75D01*
G02X-93107Y41923I-403J-2D01*
G02X-93129Y41859I-245J48D01*
G02X-93162Y41815I-140J71D01*
G02X-93200Y41800I-38J40D01*
G03X-93238Y41785I0J-55D01*
G03X-93271Y41741I107J-115D01*
G03X-93293Y41677I223J-112D01*
G03X-93300Y41600I396J-75D01*
G02X-93307Y41523I-403J-2D01*
G02X-93329Y41459I-245J48D01*
G02X-93362Y41415I-140J71D01*
G02X-93400Y41400I-38J40D01*
G03X-93438Y41385I0J-55D01*
G03X-93471Y41341I107J-115D01*
G03X-93493Y41277I223J-112D01*
G03X-93500Y41200I396J-75D01*
G02X-93507Y41123I-403J-2D01*
G02X-93529Y41059I-245J48D01*
G02X-93562Y41015I-140J71D01*
G02X-93600Y41000I-38J40D01*
G03X-93638Y40985I0J-55D01*
G03X-93671Y40941I107J-115D01*
G03X-93693Y40877I223J-112D01*
G03X-93700Y40800I396J-75D01*
G02X-93707Y40723I-403J-2D01*
G02X-93729Y40659I-245J48D01*
G02X-93762Y40615I-140J71D01*
G02X-93800Y40600I-38J40D01*
G03X-93838Y40585I0J-55D01*
G03X-93871Y40541I107J-115D01*
G03X-93893Y40477I223J-112D01*
G03X-93900Y40400I396J-75D01*
G02X-93907Y40323I-403J-2D01*
G02X-93929Y40259I-245J48D01*
G02X-93962Y40215I-140J71D01*
G02X-94000Y40200I-38J40D01*
G03X-94038Y40185I0J-55D01*
G03X-94071Y40141I107J-115D01*
G03X-94093Y40077I223J-112D01*
G03X-94100Y40000I396J-75D01*
G02X-94107Y39923I-403J-2D01*
G02X-94129Y39859I-245J48D01*
G02X-94162Y39815I-140J71D01*
G02X-94200Y39800I-38J40D01*
G03X-94238Y39785I0J-55D01*
G03X-94271Y39741I107J-115D01*
G03X-94293Y39677I223J-112D01*
G03X-94300Y39600I396J-75D01*
G02X-94307Y39523I-403J-2D01*
G02X-94329Y39459I-245J48D01*
G02X-94362Y39415I-140J71D01*
G02X-94400Y39400I-38J40D01*
G03X-94438Y39379I0J-45D01*
G03X-94471Y39312I250J-165D01*
G03X-94493Y39215I484J-161D01*
G03X-94500Y39100I905J-113D01*
G02X-94507Y38985I-912J-2D01*
G02X-94529Y38888I-506J64D01*
G02X-94562Y38821I-283J98D01*
G02X-94600Y38800I-38J24D01*
G03X-94638Y38785I0J-55D01*
G03X-94671Y38741I107J-115D01*
G03X-94693Y38677I223J-112D01*
G03X-94700Y38600I396J-75D01*
G02X-94707Y38523I-403J-2D01*
G02X-94729Y38459I-245J48D01*
G02X-94762Y38415I-140J71D01*
G02X-94800Y38400I-38J40D01*
G03X-94838Y38392I1J-99D01*
G03X-94871Y38371I37J-94D01*
G03X-94892Y38338I73J-70D01*
G03X-94900Y38300I91J-39D01*
G03X-94885Y38262I55J0D01*
G03X-94841Y38229I115J107D01*
G03X-94777Y38207I112J223D01*
G03X-94700Y38200I75J396D01*
G03X-94623Y38207I2J403D01*
G03X-94559Y38229I-48J245D01*
G03X-94515Y38262I-71J140D01*
G03X-94500Y38300I-40J38D01*
G02X-94485Y38338I55J0D01*
G02X-94441Y38371I115J-107D01*
G02X-94377Y38393I112J-223D01*
G02X-94300Y38400I75J-396D01*
G03X-94223Y38407I2J403D01*
G03X-94159Y38429I-48J245D01*
G03X-94115Y38462I-71J140D01*
G03X-94100Y38500I-40J38D01*
G02X-94085Y38538I55J0D01*
G02X-94041Y38571I115J-107D01*
G02X-93977Y38593I112J-223D01*
G02X-93900Y38600I75J-396D01*
G03X-93823Y38607I2J403D01*
G03X-93759Y38629I-48J245D01*
G03X-93715Y38662I-71J140D01*
G03X-93700Y38700I-40J38D01*
G02X-93685Y38738I55J0D01*
G02X-93641Y38771I115J-107D01*
G02X-93577Y38793I112J-223D01*
G02X-93500Y38800I75J-396D01*
G03X-93423Y38807I2J403D01*
G03X-93359Y38829I-48J245D01*
G03X-93315Y38862I-71J140D01*
G03X-93300Y38900I-40J38D01*
G02X-93285Y38938I55J0D01*
G02X-93241Y38971I115J-107D01*
G02X-93177Y38993I112J-223D01*
G02X-93100Y39000I75J-396D01*
G03X-93023Y39007I2J403D01*
G03X-92959Y39029I-48J245D01*
G03X-92915Y39062I-71J140D01*
G03X-92900Y39100I-40J38D01*
G02X-92885Y39138I55J0D01*
G02X-92841Y39171I115J-107D01*
G02X-92777Y39193I112J-223D01*
G02X-92700Y39200I75J-396D01*
G03X-92623Y39207I2J403D01*
G03X-92559Y39229I-48J245D01*
G03X-92515Y39262I-71J140D01*
G03X-92500Y39300I-40J38D01*
G02X-92485Y39338I55J0D01*
G02X-92441Y39371I115J-107D01*
G02X-92377Y39393I112J-223D01*
G02X-92300Y39400I75J-396D01*
G03X-92223Y39407I2J403D01*
G03X-92159Y39429I-48J245D01*
G03X-92115Y39462I-71J140D01*
G03X-92100Y39500I-40J38D01*
G02X-92085Y39538I55J0D01*
G02X-92041Y39571I115J-107D01*
G02X-91977Y39593I112J-223D01*
G02X-91900Y39600I75J-396D01*
G03X-91823Y39607I2J403D01*
G03X-91759Y39629I-48J245D01*
G03X-91715Y39662I-71J140D01*
G03X-91700Y39700I-40J38D01*
G02X-91685Y39738I55J0D01*
G02X-91641Y39771I115J-107D01*
G02X-91577Y39793I112J-223D01*
G02X-91500Y39800I75J-396D01*
G03X-91423Y39807I2J403D01*
G03X-91359Y39829I-48J245D01*
G03X-91315Y39862I-71J140D01*
G03X-91300Y39900I-40J38D01*
G02X-91285Y39938I55J0D01*
G02X-91241Y39971I115J-107D01*
G02X-91177Y39993I112J-223D01*
G02X-91100Y40000I75J-396D01*
G03X-91023Y40007I2J403D01*
G03X-90959Y40029I-48J245D01*
G03X-90915Y40062I-71J140D01*
G03X-90900Y40100I-40J38D01*
G02X-90885Y40138I55J0D01*
G02X-90841Y40171I115J-107D01*
G02X-90777Y40193I112J-223D01*
G02X-90700Y40200I75J-396D01*
G03X-90623Y40207I2J403D01*
G03X-90559Y40229I-48J245D01*
G03X-90515Y40262I-71J140D01*
G03X-90500Y40300I-40J38D01*
G02X-90485Y40338I55J0D01*
G02X-90441Y40371I115J-107D01*
G02X-90377Y40393I112J-223D01*
G02X-90300Y40400I75J-396D01*
G03X-90223Y40407I2J403D01*
G03X-90159Y40429I-48J245D01*
G03X-90115Y40462I-71J140D01*
G03X-90100Y40500I-40J38D01*
G02X-90085Y40538I55J0D01*
G02X-90041Y40571I115J-107D01*
G02X-89977Y40593I112J-223D01*
G02X-89900Y40600I75J-396D01*
G03X-89823Y40607I2J403D01*
G03X-89759Y40629I-48J245D01*
G03X-89715Y40662I-71J140D01*
G03X-89700Y40700I-40J38D01*
G02X-89685Y40738I55J0D01*
G02X-89641Y40771I115J-107D01*
G02X-89577Y40793I112J-223D01*
G02X-89500Y40800I75J-396D01*
G03X-89423Y40807I2J403D01*
G03X-89359Y40829I-48J245D01*
G03X-89315Y40862I-71J140D01*
G03X-89300Y40900I-40J38D01*
G02X-89285Y40938I55J0D01*
G02X-89241Y40971I115J-107D01*
G02X-89177Y40993I112J-223D01*
G02X-89100Y41000I75J-396D01*
G03X-89023Y41007I2J403D01*
G03X-88959Y41029I-48J245D01*
G03X-88915Y41062I-71J140D01*
G03X-88900Y41100I-40J38D01*
G02X-88885Y41138I55J0D01*
G02X-88841Y41171I115J-107D01*
G02X-88777Y41193I112J-223D01*
G02X-88700Y41200I75J-396D01*
G03X-88623Y41207I2J403D01*
G03X-88559Y41229I-48J245D01*
G03X-88515Y41262I-71J140D01*
G03X-88500Y41300I-40J38D01*
G02X-88485Y41338I55J0D01*
G02X-88441Y41371I115J-107D01*
G02X-88377Y41393I112J-223D01*
G02X-88300Y41400I75J-396D01*
G03X-88223Y41407I2J403D01*
G03X-88159Y41429I-48J245D01*
G03X-88115Y41462I-71J140D01*
G03X-88100Y41500I-40J38D01*
G02X-88085Y41538I55J0D01*
G02X-88041Y41571I115J-107D01*
G02X-87977Y41593I112J-223D01*
G02X-87900Y41600I75J-396D01*
G03X-87823Y41607I2J403D01*
G03X-87759Y41629I-48J245D01*
G03X-87715Y41662I-71J140D01*
G03X-87700Y41700I-40J38D01*
G02X-87685Y41738I55J0D01*
G02X-87641Y41771I115J-107D01*
G02X-87577Y41793I112J-223D01*
G02X-87500Y41800I75J-396D01*
G03X-87423Y41807I2J403D01*
G03X-87359Y41829I-48J245D01*
G03X-87315Y41862I-71J140D01*
G03X-87300Y41900I-40J38D01*
G02X-87285Y41938I55J0D01*
G02X-87241Y41971I115J-107D01*
G02X-87177Y41993I112J-223D01*
G02X-87100Y42000I75J-396D01*
G03X-87023Y42007I2J403D01*
G03X-86959Y42029I-48J245D01*
G03X-86915Y42062I-71J140D01*
G03X-86900Y42100I-40J38D01*
G02X-86885Y42138I55J0D01*
G02X-86841Y42171I115J-107D01*
G02X-86777Y42193I112J-223D01*
G02X-86700Y42200I75J-396D01*
G03X-86623Y42207I2J403D01*
G03X-86559Y42229I-48J245D01*
G03X-86515Y42262I-71J140D01*
G03X-86500Y42300I-40J38D01*
G02X-86485Y42338I55J0D01*
G02X-86441Y42371I115J-107D01*
G02X-86377Y42393I112J-223D01*
G02X-86300Y42400I75J-396D01*
G03X-86223Y42407I2J403D01*
G03X-86159Y42429I-48J245D01*
G03X-86115Y42462I-71J140D01*
G03X-86100Y42500I-40J38D01*
G02X-86085Y42538I55J0D01*
G02X-86041Y42571I115J-107D01*
G02X-85977Y42593I112J-223D01*
G02X-85900Y42600I75J-396D01*
G03X-85823Y42607I2J403D01*
G03X-85759Y42629I-48J245D01*
G03X-85715Y42662I-71J140D01*
G03X-85700Y42700I-40J38D01*
G02X-85685Y42738I55J0D01*
G02X-85641Y42771I115J-107D01*
G02X-85577Y42793I112J-223D01*
G02X-85500Y42800I75J-396D01*
G03X-85423Y42807I2J403D01*
G03X-85359Y42829I-48J245D01*
G03X-85315Y42862I-71J140D01*
G03X-85300Y42900I-40J38D01*
G02X-85285Y42938I55J0D01*
G02X-85241Y42971I115J-107D01*
G02X-85177Y42993I112J-223D01*
G02X-85100Y43000I75J-396D01*
G03X-85023Y43007I2J403D01*
G03X-84959Y43029I-48J245D01*
G03X-84915Y43062I-71J140D01*
G03X-84900Y43100I-40J38D01*
G02X-84885Y43138I55J0D01*
G02X-84841Y43171I115J-107D01*
G02X-84777Y43193I112J-223D01*
G02X-84700Y43200I75J-396D01*
G03X-84623Y43207I2J403D01*
G03X-84559Y43229I-48J245D01*
G03X-84515Y43262I-71J140D01*
G03X-84500Y43300I-40J38D01*
G02X-84485Y43338I55J0D01*
G02X-84441Y43371I115J-107D01*
G02X-84377Y43393I112J-223D01*
G02X-84300Y43400I75J-396D01*
G03X-84223Y43407I2J403D01*
G03X-84159Y43429I-48J245D01*
G03X-84115Y43462I-71J140D01*
G03X-84100Y43500I-40J38D01*
G02X-84085Y43538I55J0D01*
G02X-84041Y43571I115J-107D01*
G02X-83977Y43593I112J-223D01*
G02X-83900Y43600I75J-396D01*
G03X-83823Y43607I2J403D01*
G03X-83759Y43629I-48J245D01*
G03X-83715Y43662I-71J140D01*
G03X-83700Y43700I-40J38D01*
G02X-83685Y43738I55J0D01*
G02X-83641Y43771I115J-107D01*
G02X-83577Y43793I112J-223D01*
G02X-83500Y43800I75J-396D01*
G03X-83423Y43807I2J403D01*
G03X-83359Y43829I-48J245D01*
G03X-83315Y43862I-71J140D01*
G03X-83300Y43900I-40J38D01*
G02X-83285Y43938I55J0D01*
G02X-83241Y43971I115J-107D01*
G02X-83177Y43993I112J-223D01*
G02X-83100Y44000I75J-396D01*
G03X-83023Y44007I2J403D01*
G03X-82959Y44029I-48J245D01*
G03X-82915Y44062I-71J140D01*
G03X-82900Y44100I-40J38D01*
G02X-82885Y44138I55J0D01*
G02X-82841Y44171I115J-107D01*
G02X-82777Y44193I112J-223D01*
G02X-82700Y44200I75J-396D01*
G03X-82564Y44329I0J136D01*
G03X-82526Y45425I-38176J1872D01*
G03X-82503Y47443I-102126J2173D01*
G01X-82500Y53800D01*
Y63400D01*
X-83100D01*
G02X-83332Y63407I-3J3765D01*
G02X-83525Y63429I116J1874D01*
G02X-83670Y63460I249J1521D01*
G02X-83700Y63500I11J40D01*
G03X-83742Y63545I-45J0D01*
G03X-84175Y63574I-1722J-22457D01*
G03X-84738Y63594I-791J-14331D01*
G03X-85500Y63600I-751J-46942D01*
G02X-86262Y63606I-11J46948D01*
G02X-86825Y63626I228J14351D01*
G02X-87258Y63655I1289J22486D01*
G02X-87300Y63700I3J45D01*
G03X-87342Y63745I-45J0D01*
G03X-87750Y63774I-1568J-19177D01*
G03X-88282Y63794I-749J-12828D01*
G03X-89000Y63800I-706J-41466D01*
G02X-89718Y63806I-12J41472D01*
G02X-90250Y63826I217J12848D01*
G02X-90658Y63855I1160J19206D01*
G02X-90700Y63900I3J45D01*
G03X-90742Y63945I-45J0D01*
G03X-91175Y63974I-1722J-22457D01*
G03X-91738Y63994I-791J-14331D01*
G03X-92500Y64000I-751J-46942D01*
G02X-93262Y64006I-11J46948D01*
G02X-93825Y64026I228J14351D01*
G02X-94258Y64055I1289J22486D01*
G02X-94300Y64100I3J45D01*
G03X-94342Y64145I-45J0D01*
G03X-94775Y64174I-1722J-22457D01*
G03X-95338Y64194I-791J-14331D01*
G03X-96100Y64200I-751J-46942D01*
G02X-96862Y64206I-11J46948D01*
G02X-97425Y64226I228J14351D01*
G02X-97858Y64255I1289J22486D01*
G02X-97900Y64300I3J45D01*
G03X-97936Y64342I-43J0D01*
G37*
G36*
G01X-84291Y85976D02*
G02X-84172Y86009I302J-858D01*
G02X-84049Y86026I187J-902D01*
G02X-83940Y86023I39J-547D01*
G03X-83777Y86008I294J2298D01*
G03X-83329Y85984I4838J86124D01*
G03X-82794Y85958I3857J73850D01*
G03X-82208Y85934I4672J106916D01*
G01X-80722Y85876D01*
X-79898Y84713D01*
G03X-79223Y83765I405684J288143D01*
G03X-78503Y82757I520667J371144D01*
G03X-77729Y81677I595381J425873D01*
G01X-76889Y80511D01*
G02X-75419Y78454I-252177J-181767D01*
G02X-74780Y77486I-14383J-10189D01*
G02X-74466Y76878I-3957J-2428D01*
G02X-74370Y76408I-1102J-470D01*
G02X-74394Y76134I-1567J-1D01*
G02X-74466Y75907I-889J157D01*
G02X-74594Y75710I-788J372D01*
G02X-74784Y75528I-1033J888D01*
G02X-75579Y75118I-1461J1858D01*
G02X-76714Y74894I-1800J6133D01*
G02X-78554Y74784I-2143J20402D01*
G02X-82125Y74758I-3555J242979D01*
G02X-85112Y74768I-21J439958D01*
G02X-86639Y74810I227J36020D01*
G02X-87637Y74901I594J12034D01*
G02X-88478Y75070I857J6441D01*
G02X-89808Y75503I3678J13556D01*
G02X-90673Y75976I1288J3382D01*
G02X-91408Y76683I2377J3206D01*
G02X-92322Y77917I15006J12070D01*
G03X-92638Y78379I-89586J-60936D01*
G01X-93238Y79249D01*
X-93942Y80270D01*
X-94674Y81329D01*
G02X-95396Y82379I188823J130611D01*
G02X-96073Y83375I151031J103387D01*
G02X-96638Y84220I147775J99420D01*
G02X-96899Y84629I9580J6401D01*
G03X-97078Y84920I-21799J-13208D01*
G03X-97271Y85224I-26729J-16756D01*
G03X-97449Y85499I-23998J-15338D01*
G03X-97578Y85689I-5907J-3872D01*
G01X-97840Y86060D01*
X-94087D01*
X-93289Y84781D01*
G03X-92907Y84185I25007J15607D01*
G03X-92412Y83442I61765J40613D01*
G03X-91890Y82679I63894J43153D01*
G03X-91423Y82018I37472J25979D01*
G02X-90927Y81324I-146480J-105213D01*
G02X-90312Y80459I-348712J-248580D01*
G02X-89684Y79570I-360934J-255634D01*
G02X-89142Y78797I-204773J-144156D01*
G03X-87898Y77122I30125J21074D01*
G03X-87193Y76612I1247J981D01*
G03X-86209Y76432I1025J2821D01*
G03X-82562Y76408I3602J270304D01*
G03X-80211Y76416I105J314728D01*
G03X-78888Y76451I-287J35854D01*
G03X-78021Y76502I-1288J29296D01*
G03X-77918Y76614I-9J111D01*
G03X-77952Y76742I-256J0D01*
G03X-78158Y77087I-10910J-6280D01*
G03X-78422Y77492I-8954J-5548D01*
G03X-78736Y77934I-13619J-9343D01*
G01X-80501Y80332D01*
G03X-82068Y82454I-1106071J-815143D01*
G01X-83348Y84181D01*
G03X-83953Y84984I-60522J-44969D01*
G02X-84232Y85370I7374J5624D01*
G02X-84384Y85640I1478J1010D01*
G02X-84435Y85824I541J249D01*
G02X-84384Y85930I111J12D01*
G02X-84291Y85976I251J-391D01*
G37*
G54D10*
G01X-54025Y18439D02*
Y14798D01*
X-12096D01*
G01X-54025Y32416D02*
Y53282D01*
G01X-6978Y29857D02*
Y53282D01*
G54D11*
G01X-104250Y-44150D02*
Y-50600D01*
G01D02*
X-92750D01*
G01Y-44150D02*
X-104250D01*
G01X-85050Y-44050D02*
X-91500D01*
G01D02*
Y-55550D01*
G01D02*
X-85050D01*
G01D02*
Y-44050D01*
G01X-92750Y-50600D02*
Y-44150D01*
G01X-65850Y-29850D02*
X-72300D01*
G01D02*
Y-41350D01*
G01D02*
X-65850D01*
G01D02*
Y-29850D01*
G01X-12650Y-90350D02*
Y-96800D01*
G01D02*
X-1150D01*
G01X-12750Y-82950D02*
Y-89400D01*
G01D02*
X-1250D01*
G01Y-82950D02*
X-12750D01*
G01X-1150Y-90350D02*
X-12650D01*
G01X-12750Y-75550D02*
Y-82000D01*
G01D02*
X-1250D01*
G01Y-75550D02*
X-12750D01*
G01X-1150Y-96800D02*
Y-90350D01*
G01X-1250Y-89400D02*
Y-82950D01*
G01Y-82000D02*
Y-75550D01*
G01X38150Y4350D02*
X31700D01*
G01D02*
Y-7150D01*
G01D02*
X38150D01*
G01D02*
Y4350D01*
G01X99250Y-61150D02*
Y-67600D01*
G01D02*
X110750D01*
G01D02*
Y-61150D01*
G01D02*
X99250D01*
G01Y-41250D02*
Y-47700D01*
G01D02*
X110750D01*
G01D02*
Y-41250D01*
G01D02*
X99250D01*
G01X99759Y-17855D02*
Y-24305D01*
G01D02*
X111259D01*
G01D02*
Y-17855D01*
G01D02*
X99759D01*
G01X103650Y-4650D02*
X110100D01*
G01D02*
Y6850D01*
G01D02*
X103650D01*
G01D02*
Y-4650D01*
G54D12*
G01X-126346Y-62553D02*
Y-66097D01*
G01X-119654Y-62553D02*
Y-66097D01*
G01X-105594Y-59673D02*
Y-61406D01*
X-107327D01*
G01X-117406Y-59673D02*
Y-61406D01*
X-115673D01*
G01X-105594Y-51327D02*
Y-49594D01*
X-107327D01*
G01X-117406Y-51327D02*
Y-49594D01*
X-115673D01*
G01X-79674Y-63557D02*
Y-66274D01*
X-76957D01*
G01X-79674Y-53243D02*
Y-50526D01*
X-76957D01*
G01X-63926Y-63557D02*
Y-66274D01*
X-66643D01*
G01X-63926Y-53243D02*
Y-50526D01*
X-66643D01*
G01X29317Y-20648D02*
Y10848D01*
X6483D01*
Y-20648D01*
X12861D01*
G01X22939D02*
X29317D01*
G01X18766D02*
X17034D01*
G01X45968Y-65515D02*
Y-67168D01*
X94000D01*
G01X45968Y-43625D02*
Y-36381D01*
G01Y-4176D02*
Y-5829D01*
G01X94000D02*
Y-4176D01*
X45968D01*
G01X94000Y-67168D02*
Y-65515D01*
G01Y-43625D02*
Y-36381D01*
G54D13*
G01X-85792Y-83480D02*
X-83430D01*
Y-80920D01*
G01X-72170D02*
Y-83480D01*
G54D14*
G01X-84721Y-90991D02*
G03I-492J0D01*
G54D15*
G01X-16820Y63912D02*
G03I-394J0D01*
M02*
