G04 ================== begin FILE IDENTIFICATION RECORD ==================*
G04 Layout Name:  C:/Users/adamf/Desktop/TDP4/PCB_fix_silkscreen/datalogger.brd*
G04 Film Name:    TOP_SILKSCREEN*
G04 File Format:  Gerber RS274X*
G04 File Origin:  Cadence Allegro -unreleased*
G04 Origin Date:  Tue Mar 23 20:19:09 2021*
G04 *
G04 Layer:  USER PART NUMBER/SILKSCREEN_TOP*
G04 Layer:  TOLERANCE/SILKSCREEN_TOP*
G04 Layer:  REF DES/SILKSCREEN_TOP*
G04 Layer:  PACKAGE GEOMETRY/SILKSCREEN_TOP*
G04 Layer:  DEVICE TYPE/SILKSCREEN_TOP*
G04 Layer:  COMPONENT VALUE/SILKSCREEN_TOP*
G04 Layer:  BOARD GEOMETRY/SILKSCREEN_TOP*
G04 *
G04 Offset:    (0.00 0.00)*
G04 Mirror:    No*
G04 Mode:      Positive*
G04 Rotation:  0*
G04 FullContactRelief:  No*
G04 UndefLineWidth:     6.00*
G04 ================== end FILE IDENTIFICATION RECORD ====================*
%FSLAX25Y25*MOIN*%
%IR0*IPPOS*OFA0.00000B0.00000*MIA0B0*SFA1.00000B1.00000*%
%ADD10C,.005*%
%ADD11C,.006*%
%ADD12C,.00472*%
%ADD13C,.00984*%
%ADD14C,.00787*%
G75*
%LPD*%
G75*
G36*
G01X-103509Y-76124D02*
G03X-103628Y-76091I-302J-858D01*
G03X-103751Y-76074I-187J-902D01*
G03X-103860Y-76077I-39J-547D01*
G02X-104023Y-76092I-294J2298D01*
G02X-104471Y-76116I-4838J86124D01*
G02X-105006Y-76142I-3857J73850D01*
G02X-105592Y-76166I-4672J106916D01*
G01X-107078Y-76224D01*
X-107902Y-77387D01*
G02X-108577Y-78335I-405684J288143D01*
G02X-109297Y-79343I-520667J371144D01*
G02X-110071Y-80423I-595381J425873D01*
G01X-110911Y-81589D01*
G03X-112381Y-83646I252177J-181767D01*
G03X-113020Y-84614I14383J-10189D01*
G03X-113334Y-85222I3957J-2428D01*
G03X-113430Y-85692I1102J-470D01*
G03X-113406Y-85966I1567J-1D01*
G03X-113334Y-86193I889J157D01*
G03X-113206Y-86390I788J372D01*
G03X-113016Y-86572I1033J888D01*
G03X-112221Y-86982I1461J1858D01*
G03X-111086Y-87206I1800J6133D01*
G03X-109246Y-87316I2143J20402D01*
G03X-105675Y-87342I3555J242979D01*
G03X-102688Y-87332I21J439958D01*
G03X-101161Y-87290I-227J36020D01*
G03X-100163Y-87199I-594J12034D01*
G03X-99322Y-87030I-857J6441D01*
G03X-97992Y-86597I-3678J13556D01*
G03X-97127Y-86124I-1288J3382D01*
G03X-96392Y-85417I-2377J3206D01*
G03X-95478Y-84183I-15006J12070D01*
G02X-95162Y-83721I89586J-60936D01*
G01X-94562Y-82851D01*
X-93858Y-81830D01*
X-93126Y-80771D01*
G03X-92404Y-79721I-188823J130611D01*
G03X-91727Y-78725I-151031J103387D01*
G03X-91162Y-77880I-147775J99420D01*
G03X-90901Y-77471I-9580J6401D01*
G02X-90722Y-77180I21799J-13208D01*
G02X-90529Y-76876I26729J-16756D01*
G02X-90351Y-76601I23998J-15338D01*
G02X-90222Y-76411I5907J-3872D01*
G01X-89960Y-76040D01*
X-93713D01*
X-94511Y-77319D01*
G02X-94893Y-77915I-25007J15607D01*
G02X-95388Y-78658I-61765J40613D01*
G02X-95910Y-79421I-63894J43153D01*
G02X-96377Y-80082I-37472J25979D01*
G03X-96873Y-80776I146480J-105213D01*
G03X-97488Y-81641I348712J-248580D01*
G03X-98116Y-82530I360934J-255634D01*
G03X-98658Y-83303I204773J-144156D01*
G02X-99902Y-84978I-30125J21074D01*
G02X-100607Y-85488I-1247J981D01*
G02X-101591Y-85668I-1025J2821D01*
G02X-105238Y-85692I-3602J270304D01*
G02X-107589Y-85684I-105J314728D01*
G02X-108912Y-85649I287J35854D01*
G02X-109779Y-85598I1288J29296D01*
G02X-109882Y-85486I9J111D01*
G02X-109848Y-85358I256J0D01*
G02X-109642Y-85013I10910J-6280D01*
G02X-109378Y-84608I8954J-5548D01*
G02X-109064Y-84166I13619J-9343D01*
G01X-107299Y-81768D01*
G02X-105732Y-79646I1106071J-815143D01*
G01X-104452Y-77919D01*
G02X-103847Y-77116I60522J-44969D01*
G03X-103568Y-76730I-7374J5624D01*
G03X-103416Y-76460I-1478J1010D01*
G03X-103365Y-76276I-541J249D01*
G03X-103416Y-76170I-111J12D01*
G03X-103509Y-76124I-251J-391D01*
G37*
G36*
G01X-70626Y-75875D02*
X-76807Y-75897D01*
G03X-82243Y-75957I1384J-371694D01*
G03X-84903Y-76140I481J-26419D01*
G03X-86630Y-76530I1019J-8530D01*
G03X-88142Y-77255I2221J-6572D01*
G03X-88892Y-77862I2317J-3629D01*
G03X-89695Y-78774I7586J-7489D01*
G03X-90918Y-80414I34444J-26962D01*
G03X-93712Y-84369I825626J-586226D01*
G03X-94057Y-84951I3537J-2490D01*
G03X-94253Y-85507I2265J-1111D01*
G03X-94291Y-85994I1661J-375D01*
G03X-94164Y-86371I774J51D01*
G03X-93893Y-86624I666J442D01*
G03X-93374Y-86874I2083J3662D01*
G03X-92703Y-87097I2160J5379D01*
G03X-91927Y-87267I2348J8863D01*
G03X-91180Y-87349I1025J5894D01*
G03X-89886Y-87392I2209J46989D01*
G03X-88163Y-87404I1369J72847D01*
G03X-85920Y-87382I-895J205632D01*
G03X-81145Y-87219I-1948J127080D01*
G03X-79067Y-86767I-349J6607D01*
G03X-77579Y-85724I-1427J3619D01*
G03X-75727Y-83361I-19249J16994D01*
G03X-75063Y-82397I-133404J92599D01*
G03X-74504Y-81568I-71687J48942D01*
G03X-74017Y-80836I-312745J208598D01*
G03X-73995Y-80763I-110J73D01*
G03X-74036Y-80721I-42J0D01*
G03X-75082Y-80690I-10790J-346408D01*
G03X-76277Y-80667I-1926J-69007D01*
G03X-77696Y-80660I-1384J-136638D01*
G01X-81398D01*
X-81986Y-81378D01*
G03X-82212Y-81661I10314J-8468D01*
G03X-82402Y-81917I6357J-4917D01*
G03X-82554Y-82135I9301J-6647D01*
G03X-82575Y-82203I100J-68D01*
G03X-82535Y-82246I43J0D01*
G03X-81992Y-82279I3212J48368D01*
G03X-81351Y-82302I1006J19085D01*
G03X-80590Y-82310I777J37745D01*
G01X-78605D01*
X-79778Y-83836D01*
G02X-80260Y-84435I-14044J10808D01*
G02X-80737Y-84973I-10359J8704D01*
G02X-81157Y-85401I-9291J8697D01*
G02X-81392Y-85561I-574J590D01*
G02X-82112Y-85722I-748J1656D01*
G02X-86068Y-85768I-8194J534555D01*
G02X-90092Y-85789I-5749J716007D01*
G02X-90625Y-85635I-3J990D01*
G02X-90682Y-85432I84J133D01*
G02X-90380Y-84908I4398J-2186D01*
G02X-89684Y-83901I23553J-15535D01*
G02X-87442Y-80814I1282802J-929305D01*
G02X-85640Y-78537I29118J-21192D01*
G02X-84443Y-77716I2142J-1840D01*
G02X-82769Y-77411I1779J-5016D01*
G02X-77712Y-77360I5078J-252797D01*
G01X-72084D01*
X-71355Y-76618D01*
X-70626Y-75875D01*
G37*
G36*
G01X-54650Y-80660D02*
X-71813D01*
X-73833Y-83506D01*
X-74630Y-84630D01*
X-75352Y-85650D01*
X-75957Y-86506D01*
G03X-76166Y-86806I29029J-20446D01*
G01X-76480Y-87260D01*
X-72857D01*
X-71646Y-85486D01*
G02X-71141Y-84750I123555J-84235D01*
G02X-70624Y-84006I130619J-90215D01*
G02X-70163Y-83352I116241J-81448D01*
G02X-69864Y-82939I20391J-14448D01*
G01X-69292Y-82165D01*
X-66034Y-82155D01*
X-62775Y-82145D01*
Y-87260D01*
X-59145D01*
Y-82358D01*
X-57869Y-82251D01*
G03X-56875Y-82100I-651J7632D01*
G03X-55999Y-81828I-1135J5201D01*
G03X-55310Y-81462I-1490J3637D01*
G03X-54887Y-81031I-812J1220D01*
G01X-54650Y-80660D01*
G37*
G36*
G01X-54447Y-76229D02*
G03X-55715Y-76160I-2679J-37547D01*
G03X-57733Y-76109I-2931J-76038D01*
G03X-61462Y-76075I-8847J-765773D01*
G01X-68481Y-76027D01*
X-69815Y-77890D01*
X-71149Y-79752D01*
X-69413Y-79800D01*
X-67676Y-79847D01*
X-67203Y-79305D01*
G03X-66986Y-79047I-7191J6268D01*
G03X-66722Y-78716I-18262J14836D01*
G03X-66456Y-78369I-19282J15057D01*
G03X-66230Y-78061I-11435J8628D01*
G01X-65729Y-77360D01*
X-61967D01*
G02X-59538Y-77383I-23J-130685D01*
G02X-58206Y-77472I-247J-13706D01*
G02X-57377Y-77647I-535J-4584D01*
G02X-56843Y-77957I-408J-1318D01*
G02X-56743Y-78109I-266J-284D01*
G02X-56738Y-78273I-247J-90D01*
G02X-56843Y-78502I-853J252D01*
G02X-57132Y-78930I-10499J6778D01*
G03X-57334Y-79223I15994J-11243D01*
G03X-57505Y-79482I9366J-6370D01*
G03X-57645Y-79705I17602J-11206D01*
G03X-57660Y-79757I84J-52D01*
G03X-57630Y-79789I32J0D01*
G03X-57132Y-79812I3409J68413D01*
G03X-56552Y-79829I920J21485D01*
G03X-55862Y-79835I715J42597D01*
G01X-54064D01*
X-53552Y-79037D01*
G03X-53356Y-78704I-4332J2774D01*
G03X-53190Y-78366I-4108J2227D01*
G03X-53072Y-78065I-3669J1612D01*
G03X-53040Y-77874I-550J190D01*
G03X-53110Y-77443I-1365J-1D01*
G03X-53316Y-77003I-1982J-660D01*
G03X-53619Y-76621I-1789J-1108D01*
G03X-53976Y-76361I-1006J-1006D01*
G03X-54447Y-76229I-560J-1093D01*
G37*
G54D10*
G01X-43998Y-2502D02*
X-56202D01*
G01X-43998Y9702D02*
X-56202D01*
G01X-43998Y12098D02*
X-56202D01*
G01X-43998Y24302D02*
X-56202D01*
G01X6866Y-30838D02*
X8440D01*
G54D11*
G01X-136000Y-64000D02*
Y-56000D01*
X-132200D01*
G01X-133600Y-59867D02*
X-136000D01*
G01X-124300Y-64000D02*
Y-58667D01*
G01Y-59600D02*
X-124700Y-59067D01*
X-125300Y-58800D01*
X-126000Y-58667D01*
X-126700Y-58933D01*
X-127300Y-59467D01*
X-127700Y-60267D01*
X-127900Y-61333D01*
X-127700Y-62400D01*
X-127300Y-63200D01*
X-126700Y-63733D01*
X-126000Y-64000D01*
X-125300Y-63867D01*
X-124700Y-63467D01*
X-124300Y-62934D01*
G01X-118100Y-56000D02*
Y-64000D01*
G01X-119500Y-58667D02*
X-116700D01*
G01X-102100Y-56000D02*
Y-64000D01*
G01X-104400Y-56000D02*
X-99800D01*
G01X-96200Y-66400D02*
X-95600Y-66667D01*
X-94800Y-66400D01*
X-94300Y-65867D01*
X-93900Y-65200D01*
X-93300Y-63067D01*
X-92000Y-58667D01*
G01X-95200D02*
X-93300Y-63067D01*
G01X-87500Y-64000D02*
Y-58667D01*
G01Y-59733D02*
X-87000Y-59200D01*
X-86500Y-58800D01*
X-85800Y-58667D01*
X-85300Y-58800D01*
X-84700Y-59200D01*
G01X-79600Y-60400D02*
X-76400D01*
X-76700Y-59467D01*
X-77200Y-58933D01*
X-77900Y-58667D01*
X-78600Y-58800D01*
X-79200Y-59200D01*
X-79600Y-60133D01*
X-79800Y-60934D01*
Y-61733D01*
X-79600Y-62533D01*
X-79100Y-63333D01*
X-78500Y-63867D01*
X-77800Y-64000D01*
X-77100Y-63733D01*
X-76400Y-62934D01*
G01X-71600Y-63067D02*
X-71100Y-63600D01*
X-70400Y-64000D01*
X-69800D01*
X-69200Y-63733D01*
X-68800Y-63333D01*
X-68600Y-62800D01*
X-68700Y-62000D01*
X-69100Y-61600D01*
X-70900Y-60800D01*
X-71300Y-59867D01*
X-71100Y-59200D01*
X-70700Y-58800D01*
X-70100Y-58667D01*
X-69500Y-58800D01*
X-68900Y-59200D01*
G01X-135800Y-54100D02*
Y-46100D01*
X-132000D01*
G01X-133400Y-49967D02*
X-135800D01*
G01X-125900Y-48767D02*
Y-54100D01*
G01Y-46633D02*
X-126100Y-46500D01*
Y-46233D01*
X-125900Y-46100D01*
X-125700Y-46233D01*
Y-46500D01*
X-125900Y-46633D01*
G01X-117900Y-46100D02*
Y-54100D01*
G01X-119300Y-48767D02*
X-116500D01*
G01X-101300Y-50100D02*
X-99300D01*
Y-52500D01*
X-99900Y-53300D01*
X-100600Y-53833D01*
X-101600Y-54100D01*
X-102600Y-53833D01*
X-103300Y-53300D01*
X-103900Y-52500D01*
X-104300Y-51567D01*
X-104500Y-50500D01*
Y-49567D01*
X-104300Y-48767D01*
X-103900Y-47833D01*
X-103300Y-47033D01*
X-102700Y-46500D01*
X-101900Y-46100D01*
X-101200D01*
X-100400Y-46367D01*
X-99800Y-46900D01*
G01X-95600Y-48767D02*
Y-52500D01*
X-95200Y-53433D01*
X-94600Y-53967D01*
X-93900Y-54100D01*
X-93200Y-53967D01*
X-92600Y-53433D01*
X-92200Y-52500D01*
G01Y-54100D02*
Y-48767D01*
G01X-88000Y-56500D02*
X-87400Y-56767D01*
X-86600Y-56500D01*
X-86100Y-55967D01*
X-85700Y-55300D01*
X-85100Y-53167D01*
X-83800Y-48767D01*
G01X-87000D02*
X-85100Y-53167D01*
G01X-79400D02*
X-78900Y-53700D01*
X-78200Y-54100D01*
X-77600D01*
X-77000Y-53833D01*
X-76600Y-53433D01*
X-76400Y-52900D01*
X-76500Y-52100D01*
X-76900Y-51700D01*
X-78700Y-50900D01*
X-79100Y-49967D01*
X-78900Y-49300D01*
X-78500Y-48900D01*
X-77900Y-48767D01*
X-77300Y-48900D01*
X-76700Y-49300D01*
G01X-105800Y-94300D02*
Y-99300D01*
G01X-107257Y-94300D02*
X-104343D01*
G01X-99433Y-99300D02*
X-101967D01*
Y-94300D01*
X-99433D01*
G01X-100447Y-96717D02*
X-101967D01*
G01X-96867Y-94300D02*
Y-99300D01*
X-94333D01*
G01X-89233D02*
X-91767D01*
Y-94300D01*
X-89233D01*
G01X-90247Y-96717D02*
X-91767D01*
G01X-105693Y-73100D02*
Y-68100D01*
X-104427D01*
X-103920Y-68350D01*
X-103540Y-68683D01*
X-103223Y-69183D01*
X-102970Y-69767D01*
X-102907Y-70600D01*
X-102970Y-71433D01*
X-103223Y-72017D01*
X-103540Y-72517D01*
X-103920Y-72850D01*
X-104427Y-73100D01*
X-105693D01*
G01X-98060D02*
Y-69767D01*
G01Y-70350D02*
X-98313Y-70017D01*
X-98693Y-69850D01*
X-99137Y-69767D01*
X-99580Y-69933D01*
X-99960Y-70267D01*
X-100213Y-70767D01*
X-100340Y-71433D01*
X-100213Y-72100D01*
X-99960Y-72600D01*
X-99580Y-72933D01*
X-99137Y-73100D01*
X-98693Y-73017D01*
X-98313Y-72767D01*
X-98060Y-72433D01*
G01X-94100Y-68100D02*
Y-73100D01*
G01X-94987Y-69767D02*
X-93213D01*
G01X-87860Y-73100D02*
Y-69767D01*
G01Y-70350D02*
X-88113Y-70017D01*
X-88493Y-69850D01*
X-88937Y-69767D01*
X-89380Y-69933D01*
X-89760Y-70267D01*
X-90013Y-70767D01*
X-90140Y-71433D01*
X-90013Y-72100D01*
X-89760Y-72600D01*
X-89380Y-72933D01*
X-88937Y-73100D01*
X-88493Y-73017D01*
X-88113Y-72767D01*
X-87860Y-72433D01*
G01X-80067Y-68100D02*
Y-73100D01*
X-77533D01*
G01X-73700D02*
X-74080Y-73017D01*
X-74460Y-72683D01*
X-74713Y-72100D01*
X-74840Y-71433D01*
X-74713Y-70767D01*
X-74460Y-70183D01*
X-74080Y-69850D01*
X-73700Y-69767D01*
X-73320Y-69850D01*
X-72940Y-70183D01*
X-72687Y-70767D01*
X-72623Y-71433D01*
X-72687Y-72100D01*
X-72940Y-72683D01*
X-73320Y-73017D01*
X-73700Y-73100D01*
G01X-69487Y-74350D02*
X-69043Y-74683D01*
X-68537Y-74767D01*
X-68093Y-74683D01*
X-67713Y-74267D01*
X-67460Y-73683D01*
Y-69767D01*
G01Y-70433D02*
X-67713Y-70100D01*
X-68093Y-69850D01*
X-68537Y-69767D01*
X-69043Y-69933D01*
X-69360Y-70267D01*
X-69613Y-70850D01*
X-69740Y-71433D01*
X-69677Y-71933D01*
X-69423Y-72517D01*
X-69043Y-72933D01*
X-68537Y-73100D01*
X-68157Y-73017D01*
X-67713Y-72683D01*
X-67460Y-72350D01*
G01X-64387Y-74350D02*
X-63943Y-74683D01*
X-63437Y-74767D01*
X-62993Y-74683D01*
X-62613Y-74267D01*
X-62360Y-73683D01*
Y-69767D01*
G01Y-70433D02*
X-62613Y-70100D01*
X-62993Y-69850D01*
X-63437Y-69767D01*
X-63943Y-69933D01*
X-64260Y-70267D01*
X-64513Y-70850D01*
X-64640Y-71433D01*
X-64577Y-71933D01*
X-64323Y-72517D01*
X-63943Y-72933D01*
X-63437Y-73100D01*
X-63057Y-73017D01*
X-62613Y-72683D01*
X-62360Y-72350D01*
G01X-59350Y-70850D02*
X-57323D01*
X-57513Y-70267D01*
X-57830Y-69933D01*
X-58273Y-69767D01*
X-58717Y-69850D01*
X-59097Y-70100D01*
X-59350Y-70683D01*
X-59477Y-71183D01*
Y-71683D01*
X-59350Y-72183D01*
X-59033Y-72683D01*
X-58653Y-73017D01*
X-58210Y-73100D01*
X-57767Y-72933D01*
X-57323Y-72433D01*
G01X-54187Y-73100D02*
Y-69767D01*
G01Y-70433D02*
X-53870Y-70100D01*
X-53553Y-69850D01*
X-53110Y-69767D01*
X-52793Y-69850D01*
X-52413Y-70100D01*
G01X-87600Y-19433D02*
X-82600D01*
Y-21017D01*
X-82850Y-21523D01*
X-83183Y-21840D01*
X-83850Y-21967D01*
X-84517Y-21840D01*
X-84933Y-21460D01*
X-85183Y-21017D01*
Y-19433D01*
G01Y-21017D02*
X-87600Y-21967D01*
G01X-86933Y-24470D02*
X-87350Y-24977D01*
X-87600Y-25547D01*
Y-26053D01*
X-87350Y-26560D01*
X-86933Y-26940D01*
X-86350Y-27130D01*
X-85767Y-27003D01*
X-85267Y-26687D01*
X-84933Y-26117D01*
X-84767Y-25357D01*
X-84433Y-24913D01*
X-83850Y-24723D01*
X-83267Y-24850D01*
X-82850Y-25167D01*
X-82600Y-25610D01*
Y-26053D01*
X-82767Y-26497D01*
X-83183Y-26877D01*
G01X-87600Y-31660D02*
X-82600D01*
X-86183Y-29317D01*
Y-32483D01*
G01X-87600Y-36000D02*
X-87517Y-36443D01*
X-87267Y-36950D01*
X-86850Y-37267D01*
X-86267Y-37393D01*
X-85683Y-37267D01*
X-85183Y-36887D01*
X-84933Y-36317D01*
Y-35683D01*
X-84767Y-35303D01*
X-84350Y-34987D01*
X-83767Y-34860D01*
X-83183Y-35050D01*
X-82767Y-35493D01*
X-82600Y-36000D01*
X-82767Y-36507D01*
X-83183Y-36950D01*
X-83767Y-37140D01*
X-84350Y-37013D01*
X-84767Y-36697D01*
X-84933Y-36317D01*
Y-35683D01*
X-85183Y-35113D01*
X-85683Y-34733D01*
X-86267Y-34607D01*
X-86850Y-34733D01*
X-87267Y-35050D01*
X-87517Y-35557D01*
X-87600Y-36000D01*
G01X-86850Y-39707D02*
X-87267Y-40087D01*
X-87517Y-40530D01*
X-87600Y-41100D01*
X-87433Y-41670D01*
X-87100Y-42113D01*
X-86517Y-42430D01*
X-85850Y-42493D01*
X-85183Y-42367D01*
X-84767Y-42050D01*
X-84433Y-41607D01*
X-84350Y-41163D01*
X-84433Y-40720D01*
X-84767Y-40150D01*
X-82600Y-40340D01*
Y-42050D01*
G01X-82717Y-993D02*
X-82467Y-613D01*
X-82300Y-170D01*
Y337D01*
X-82550Y907D01*
X-82967Y1350D01*
X-83467Y1667D01*
X-84300Y1920D01*
X-85050Y1983D01*
X-85800Y1857D01*
X-86300Y1667D01*
X-86800Y1287D01*
X-87133Y843D01*
X-87300Y400D01*
Y-43D01*
X-87133Y-487D01*
X-86883Y-867D01*
X-86550Y-1183D01*
G01X-87300Y-3117D02*
X-82300Y-4700D01*
X-87300Y-6283D01*
G01X-85550Y-5713D02*
Y-3687D01*
G01X-87300Y-8343D02*
X-82300D01*
X-87300Y-11257D01*
X-82300D01*
G01X-87300Y-14900D02*
X-82300D01*
X-83300Y-14140D01*
G01X-87300D02*
Y-15660D01*
G01X-82517Y26507D02*
X-82267Y26887D01*
X-82100Y27330D01*
Y27837D01*
X-82350Y28407D01*
X-82767Y28850D01*
X-83267Y29167D01*
X-84100Y29420D01*
X-84850Y29483D01*
X-85600Y29357D01*
X-86100Y29167D01*
X-86600Y28787D01*
X-86933Y28343D01*
X-87100Y27900D01*
Y27457D01*
X-86933Y27013D01*
X-86683Y26633D01*
X-86350Y26317D01*
G01X-87100Y24383D02*
X-82100Y22800D01*
X-87100Y21217D01*
G01X-85350Y21787D02*
Y23813D01*
G01X-87100Y19157D02*
X-82100D01*
X-87100Y16243D01*
X-82100D01*
G01X-82933Y13803D02*
X-82433Y13423D01*
X-82183Y12980D01*
X-82100Y12473D01*
X-82267Y11840D01*
X-82683Y11397D01*
X-83183Y11270D01*
X-83683Y11333D01*
X-84100Y11587D01*
X-84933Y12853D01*
X-85517Y13423D01*
X-86350Y13803D01*
X-87100Y13930D01*
Y11270D01*
G01X-80967Y-98500D02*
X-80650Y-99000D01*
X-80270Y-99333D01*
X-79827Y-99500D01*
X-79320Y-99333D01*
X-78940Y-99000D01*
X-78560Y-98500D01*
X-78433Y-97833D01*
Y-94500D01*
G01X-75867D02*
Y-99500D01*
X-73333D01*
G01X-68107Y-94917D02*
X-68487Y-94667D01*
X-68930Y-94500D01*
X-69437D01*
X-70007Y-94750D01*
X-70450Y-95167D01*
X-70767Y-95667D01*
X-71020Y-96500D01*
X-71083Y-97250D01*
X-70957Y-98000D01*
X-70767Y-98500D01*
X-70387Y-99000D01*
X-69943Y-99333D01*
X-69500Y-99500D01*
X-69057D01*
X-68613Y-99333D01*
X-68233Y-99083D01*
X-67917Y-98750D01*
G01X-65667Y-98500D02*
X-65350Y-99000D01*
X-64970Y-99333D01*
X-64527Y-99500D01*
X-64020Y-99333D01*
X-63640Y-99000D01*
X-63260Y-98500D01*
X-63133Y-97833D01*
Y-94500D01*
G01X-60567D02*
Y-99500D01*
X-58033D01*
G01X-52807Y-94917D02*
X-53187Y-94667D01*
X-53630Y-94500D01*
X-54137D01*
X-54707Y-94750D01*
X-55150Y-95167D01*
X-55467Y-95667D01*
X-55720Y-96500D01*
X-55783Y-97250D01*
X-55657Y-98000D01*
X-55467Y-98500D01*
X-55087Y-99000D01*
X-54643Y-99333D01*
X-54200Y-99500D01*
X-53757D01*
X-53313Y-99333D01*
X-52933Y-99083D01*
X-52617Y-98750D01*
G01X-50367Y-98500D02*
X-50050Y-99000D01*
X-49670Y-99333D01*
X-49227Y-99500D01*
X-48720Y-99333D01*
X-48340Y-99000D01*
X-47960Y-98500D01*
X-47833Y-97833D01*
Y-94500D01*
G01X-45267D02*
Y-99500D01*
X-42733D01*
G01X-37507Y-94917D02*
X-37887Y-94667D01*
X-38330Y-94500D01*
X-38837D01*
X-39407Y-94750D01*
X-39850Y-95167D01*
X-40167Y-95667D01*
X-40420Y-96500D01*
X-40483Y-97250D01*
X-40357Y-98000D01*
X-40167Y-98500D01*
X-39787Y-99000D01*
X-39343Y-99333D01*
X-38900Y-99500D01*
X-38457D01*
X-38013Y-99333D01*
X-37633Y-99083D01*
X-37317Y-98750D01*
G01X-35067Y-98500D02*
X-34750Y-99000D01*
X-34370Y-99333D01*
X-33927Y-99500D01*
X-33420Y-99333D01*
X-33040Y-99000D01*
X-32660Y-98500D01*
X-32533Y-97833D01*
Y-94500D01*
G01X-29967D02*
Y-99500D01*
X-27433D01*
G01X-22207Y-94917D02*
X-22587Y-94667D01*
X-23030Y-94500D01*
X-23537D01*
X-24107Y-94750D01*
X-24550Y-95167D01*
X-24867Y-95667D01*
X-25120Y-96500D01*
X-25183Y-97250D01*
X-25057Y-98000D01*
X-24867Y-98500D01*
X-24487Y-99000D01*
X-24043Y-99333D01*
X-23600Y-99500D01*
X-23157D01*
X-22713Y-99333D01*
X-22333Y-99083D01*
X-22017Y-98750D01*
G01X-40500Y-83900D02*
G03I-7500J0D01*
G01X-58000D02*
X-38000D01*
G01X-48000Y-73900D02*
Y-93900D01*
G01X-39100Y-41100D02*
X-39607Y-41267D01*
X-39987Y-41683D01*
X-40240Y-42183D01*
X-40430Y-42850D01*
X-40493Y-43600D01*
X-40430Y-44350D01*
X-40240Y-45017D01*
X-39987Y-45517D01*
X-39607Y-45933D01*
X-39100Y-46100D01*
X-38593Y-45933D01*
X-38213Y-45517D01*
X-37960Y-45017D01*
X-37770Y-44350D01*
X-37707Y-43600D01*
X-37770Y-42850D01*
X-37960Y-42183D01*
X-38213Y-41683D01*
X-38593Y-41267D01*
X-39100Y-41100D01*
G01X-44893Y-35233D02*
X-44640Y-34983D01*
X-44450Y-34567D01*
X-44323Y-33983D01*
X-44450Y-33483D01*
X-44703Y-33150D01*
X-45147Y-32900D01*
X-46857D01*
Y-37900D01*
X-44767D01*
X-44323Y-37567D01*
X-44070Y-37067D01*
X-43943Y-36483D01*
X-44070Y-35900D01*
X-44450Y-35400D01*
X-44893Y-35233D01*
X-46857D01*
G01X-40300Y-37900D02*
X-40807Y-37817D01*
X-41250Y-37483D01*
X-41630Y-36983D01*
X-41883Y-36400D01*
X-42010Y-35733D01*
Y-35067D01*
X-41883Y-34400D01*
X-41630Y-33817D01*
X-41250Y-33317D01*
X-40807Y-32983D01*
X-40300Y-32900D01*
X-39793Y-32983D01*
X-39350Y-33317D01*
X-38970Y-33817D01*
X-38717Y-34400D01*
X-38590Y-35067D01*
Y-35733D01*
X-38717Y-36400D01*
X-38970Y-36983D01*
X-39350Y-37483D01*
X-39793Y-37817D01*
X-40300Y-37900D01*
G01X-35200D02*
X-35707Y-37817D01*
X-36150Y-37483D01*
X-36530Y-36983D01*
X-36783Y-36400D01*
X-36910Y-35733D01*
Y-35067D01*
X-36783Y-34400D01*
X-36530Y-33817D01*
X-36150Y-33317D01*
X-35707Y-32983D01*
X-35200Y-32900D01*
X-34693Y-32983D01*
X-34250Y-33317D01*
X-33870Y-33817D01*
X-33617Y-34400D01*
X-33490Y-35067D01*
Y-35733D01*
X-33617Y-36400D01*
X-33870Y-36983D01*
X-34250Y-37483D01*
X-34693Y-37817D01*
X-35200Y-37900D01*
G01X-30100Y-32900D02*
Y-37900D01*
G01X-31557Y-32900D02*
X-28643D01*
G01X-39000Y-29800D02*
Y-24800D01*
X-39760Y-25800D01*
G01Y-29800D02*
X-38240D01*
G01X-30067Y40500D02*
Y45500D01*
X-28483D01*
X-27977Y45250D01*
X-27660Y44917D01*
X-27533Y44250D01*
X-27660Y43583D01*
X-28040Y43167D01*
X-28483Y42917D01*
X-30067D01*
G01X-28483D02*
X-27533Y40500D01*
G01X-22433D02*
X-24967D01*
Y45500D01*
X-22433D01*
G01X-23447Y43083D02*
X-24967D01*
G01X-18220Y43000D02*
X-16953D01*
Y41500D01*
X-17333Y41000D01*
X-17777Y40667D01*
X-18410Y40500D01*
X-19043Y40667D01*
X-19487Y41000D01*
X-19867Y41500D01*
X-20120Y42083D01*
X-20247Y42750D01*
Y43333D01*
X-20120Y43833D01*
X-19867Y44417D01*
X-19487Y44917D01*
X-19107Y45250D01*
X-18600Y45500D01*
X-18157D01*
X-17650Y45333D01*
X-17270Y45000D01*
G01X-30393Y47600D02*
X-30013Y47017D01*
X-29507Y46683D01*
X-28937Y46600D01*
X-28430Y46683D01*
X-27923Y47100D01*
X-27607Y47600D01*
X-27543Y48100D01*
X-27670Y48683D01*
X-28113Y49100D01*
X-28557Y49267D01*
X-29127D01*
G01X-28557D02*
X-28177Y49517D01*
X-27860Y49933D01*
X-27733Y50433D01*
X-27860Y50933D01*
X-28177Y51350D01*
X-28747Y51600D01*
X-29317Y51517D01*
X-29887Y51183D01*
G01X-25483Y51600D02*
X-23900Y46600D01*
X-22317Y51600D01*
G01X-20193Y47600D02*
X-19813Y47017D01*
X-19307Y46683D01*
X-18737Y46600D01*
X-18230Y46683D01*
X-17723Y47100D01*
X-17407Y47600D01*
X-17343Y48100D01*
X-17470Y48683D01*
X-17913Y49100D01*
X-18357Y49267D01*
X-18927D01*
G01X-18357D02*
X-17977Y49517D01*
X-17660Y49933D01*
X-17533Y50433D01*
X-17660Y50933D01*
X-17977Y51350D01*
X-18547Y51600D01*
X-19117Y51517D01*
X-19687Y51183D01*
G01X-30493Y73550D02*
X-30113Y73133D01*
X-29670Y72883D01*
X-29100Y72800D01*
X-28530Y72967D01*
X-28087Y73300D01*
X-27770Y73883D01*
X-27707Y74550D01*
X-27833Y75217D01*
X-28150Y75633D01*
X-28593Y75967D01*
X-29037Y76050D01*
X-29480Y75967D01*
X-30050Y75633D01*
X-29860Y77800D01*
X-28150D01*
G01X-25583D02*
X-24000Y72800D01*
X-22417Y77800D01*
G01X-30267Y67000D02*
Y72000D01*
X-28683D01*
X-28177Y71750D01*
X-27860Y71417D01*
X-27733Y70750D01*
X-27860Y70083D01*
X-28240Y69667D01*
X-28683Y69417D01*
X-30267D01*
G01X-28683D02*
X-27733Y67000D01*
G01X-22633D02*
X-25167D01*
Y72000D01*
X-22633D01*
G01X-23647Y69583D02*
X-25167D01*
G01X-18420Y69500D02*
X-17153D01*
Y68000D01*
X-17533Y67500D01*
X-17977Y67167D01*
X-18610Y67000D01*
X-19243Y67167D01*
X-19687Y67500D01*
X-20067Y68000D01*
X-20320Y68583D01*
X-20447Y69250D01*
Y69833D01*
X-20320Y70333D01*
X-20067Y70917D01*
X-19687Y71417D01*
X-19307Y71750D01*
X-18800Y72000D01*
X-18357D01*
X-17850Y71833D01*
X-17470Y71500D01*
G01X2400Y-99500D02*
X22400D01*
Y-59500D01*
X2400D01*
Y-99500D01*
G01X32177Y-7353D02*
X28642Y-3817D01*
G01X30350Y-5526D02*
X30280Y-5008D01*
X30327Y-4607D01*
X30626Y-4190D01*
X30954Y-3980D01*
X31503Y-3902D01*
X31991Y-4121D01*
X33700Y-5830D01*
G01X34282Y-2066D02*
X35715Y-633D01*
X35168Y-355D01*
X34708Y-343D01*
X34277Y-539D01*
X34023Y-911D01*
X33931Y-1357D01*
X34164Y-1948D01*
X34428Y-2392D01*
X34781Y-2745D01*
X35225Y-3009D01*
X35802Y-3139D01*
X36306Y-3106D01*
X36679Y-2851D01*
X36875Y-2420D01*
X36835Y-1753D01*
G01X39524Y-6D02*
X37167Y2350D01*
G01X37638Y1879D02*
X37626Y2339D01*
X37673Y2739D01*
X37928Y3112D01*
X38211Y3277D01*
X38656Y3369D01*
G01X11438Y-4001D02*
X12512Y-2927D01*
G01X11975Y-3464D02*
X15510Y-7000D01*
G01X14973Y-7537D02*
X16048Y-6462D01*
G01X21961Y-549D02*
X18426Y2987D01*
G01X20134Y1278D02*
X20064Y1796D01*
X20111Y2197D01*
X20410Y2614D01*
X20738Y2824D01*
X21287Y2902D01*
X21775Y2683D01*
X23484Y974D01*
G01X27135Y4625D02*
X24778Y6982D01*
G01X25190Y6569D02*
X24775Y6626D01*
X24389Y6475D01*
X24016Y6220D01*
X23821Y5789D01*
X23788Y5285D01*
X23962Y4752D01*
X24344Y4191D01*
X24905Y3809D01*
X25438Y3635D01*
X25942Y3668D01*
X26373Y3863D01*
X26628Y4236D01*
X26720Y4681D01*
X26663Y5096D01*
G01X29308Y6798D02*
X26951Y9154D01*
G01X27422Y8683D02*
X27410Y9143D01*
X27457Y9543D01*
X27712Y9916D01*
X27995Y10081D01*
X28440Y10173D01*
G01X30811Y15372D02*
X34347Y11837D01*
G01X33816Y12367D02*
X33932Y11893D01*
X33840Y11448D01*
X33585Y11075D01*
X33109Y10835D01*
X32546Y10861D01*
X32013Y11035D01*
X31556Y11403D01*
X31188Y11860D01*
X31014Y12393D01*
X30988Y12956D01*
X31228Y13432D01*
X31601Y13687D01*
X31942Y13793D01*
X32402Y13781D01*
G01X37146Y14636D02*
X33611Y18172D01*
G01X40873Y16241D02*
X41259Y16392D01*
X41500Y16868D01*
X41488Y17328D01*
X41372Y17802D01*
X40698Y19013D01*
X39336Y21540D01*
G01X37903Y20107D02*
X40698Y19013D01*
G01X26416Y-5004D02*
X22881Y-1468D01*
G01X25492Y-1214D02*
X25414Y-4002D01*
G01X25466Y-2890D02*
X27939Y-3481D01*
G01X30022Y-1398D02*
X27665Y959D01*
G01X28254Y370D02*
X28139Y844D01*
X28172Y1348D01*
X28471Y1765D01*
X28844Y2020D01*
X29348Y2053D01*
X29895Y1775D01*
X31545Y125D01*
G01X34389Y2969D02*
X34062Y2760D01*
X33558Y2727D01*
X32966Y2960D01*
X32405Y3342D01*
X32023Y3903D01*
X31790Y4494D01*
X31823Y4999D01*
X32033Y5326D01*
X32360Y5536D01*
X32865Y5569D01*
X33456Y5336D01*
X33972Y4909D01*
X34399Y4393D01*
X34632Y3801D01*
X34599Y3297D01*
X34389Y2969D01*
G01X34519Y7813D02*
X37413Y5993D01*
X35639Y8932D01*
X38578Y7158D01*
X36758Y10052D01*
G01X4158Y-7942D02*
X623Y-4406D01*
X1518Y-3511D01*
X2053Y-3329D01*
X2558Y-3296D01*
X3135Y-3426D01*
X3727Y-3659D01*
X4361Y-4204D01*
X4905Y-4838D01*
X5139Y-5429D01*
X5269Y-6007D01*
X5235Y-6511D01*
X5054Y-7046D01*
X4158Y-7942D01*
G01X9556Y-2544D02*
X7199Y-187D01*
G01X7611Y-600D02*
X7196Y-543D01*
X6810Y-694D01*
X6437Y-949D01*
X6242Y-1380D01*
X6209Y-1884D01*
X6383Y-2417D01*
X6765Y-2978D01*
X7326Y-3360D01*
X7859Y-3534D01*
X8363Y-3501D01*
X8794Y-3306D01*
X9049Y-2933D01*
X9141Y-2488D01*
X9084Y-2073D01*
G01X8820Y3791D02*
X12355Y255D01*
G01X9372Y1985D02*
X10626Y3239D01*
G01X16768Y4668D02*
X14411Y7025D01*
G01X14823Y6612D02*
X14408Y6669D01*
X14022Y6518D01*
X13649Y6263D01*
X13454Y5832D01*
X13421Y5328D01*
X13595Y4795D01*
X13977Y4234D01*
X14538Y3852D01*
X15071Y3678D01*
X15575Y3711D01*
X16006Y3906D01*
X16261Y4279D01*
X16353Y4724D01*
X16296Y5139D01*
G01X19567Y7467D02*
X16032Y11003D01*
G01X23173Y11073D02*
X22846Y10864D01*
X22342Y10831D01*
X21750Y11064D01*
X21189Y11446D01*
X20807Y12007D01*
X20574Y12598D01*
X20607Y13103D01*
X20817Y13430D01*
X21144Y13640D01*
X21649Y13673D01*
X22240Y13440D01*
X22756Y13013D01*
X23183Y12497D01*
X23416Y11905D01*
X23383Y11401D01*
X23173Y11073D01*
G01X27036Y13169D02*
X27586Y13246D01*
X28003Y13546D01*
X28257Y13918D01*
X28231Y14481D01*
X27998Y15073D01*
X25229Y17843D01*
G01X25700Y17371D02*
X25285Y17428D01*
X24840Y17336D01*
X24467Y17081D01*
X24227Y16605D01*
X24239Y16146D01*
X24472Y15554D01*
X24795Y15052D01*
X25193Y14743D01*
X25785Y14510D01*
X26348Y14484D01*
X26824Y14724D01*
X27034Y15052D01*
X27112Y15601D01*
X27055Y16016D01*
G01X30642Y16775D02*
X31192Y16852D01*
X31609Y17152D01*
X31863Y17524D01*
X31837Y18087D01*
X31604Y18679D01*
X28835Y21449D01*
G01X29306Y20977D02*
X28891Y21034D01*
X28446Y20942D01*
X28073Y20687D01*
X27833Y20211D01*
X27845Y19752D01*
X28078Y19160D01*
X28401Y18658D01*
X28799Y18349D01*
X29391Y18116D01*
X29954Y18090D01*
X30430Y18330D01*
X30640Y18658D01*
X30718Y19207D01*
X30661Y19622D01*
G01X31729Y22811D02*
X33162Y24244D01*
X32615Y24522D01*
X32155Y24534D01*
X31724Y24338D01*
X31470Y23966D01*
X31378Y23520D01*
X31611Y22929D01*
X31875Y22485D01*
X32228Y22132D01*
X32672Y21868D01*
X33249Y21738D01*
X33753Y21771D01*
X34126Y22026D01*
X34322Y22457D01*
X34282Y23124D01*
G01X36971Y24871D02*
X34614Y27227D01*
G01X35085Y26756D02*
X35073Y27216D01*
X35120Y27616D01*
X35375Y27989D01*
X35658Y28154D01*
X36103Y28246D01*
G01X41321Y28986D02*
X41173Y28955D01*
X41055Y29073D01*
X41086Y29221D01*
X41234Y29252D01*
X41352Y29134D01*
X41321Y28986D01*
G01X40555Y29752D02*
X39671Y30636D01*
X39407Y31079D01*
X39351Y31493D01*
X39353Y31849D01*
X39193Y32278D01*
X38898Y32573D01*
X38514Y32778D01*
X38099Y32835D01*
X37668Y32639D01*
X37503Y32356D01*
X37456Y31955D01*
X37557Y31585D01*
G01X1053Y77700D02*
Y82700D01*
X2700Y78533D01*
X4347Y82700D01*
Y77700D01*
G01X5900Y76033D02*
X9700D01*
G01X11253Y77700D02*
Y82700D01*
X12900Y78533D01*
X14547Y82700D01*
Y77700D01*
G01X62000Y-73900D02*
Y-93900D01*
G01X69500Y-83900D02*
G03I-7500J0D01*
G01X52000D02*
X72000D01*
G01X52907Y62400D02*
Y58817D01*
X53160Y58067D01*
X53667Y57567D01*
X54300Y57400D01*
X54933Y57567D01*
X55440Y58067D01*
X55693Y58817D01*
Y62400D01*
G01X58070Y58067D02*
X58577Y57650D01*
X59147Y57400D01*
X59653D01*
X60160Y57650D01*
X60540Y58067D01*
X60730Y58650D01*
X60603Y59233D01*
X60287Y59733D01*
X59717Y60067D01*
X58957Y60233D01*
X58513Y60567D01*
X58323Y61150D01*
X58450Y61733D01*
X58767Y62150D01*
X59210Y62400D01*
X59653D01*
X60097Y62233D01*
X60477Y61817D01*
G01X65007Y60067D02*
X65260Y60317D01*
X65450Y60733D01*
X65577Y61317D01*
X65450Y61817D01*
X65197Y62150D01*
X64753Y62400D01*
X63043D01*
Y57400D01*
X65133D01*
X65577Y57733D01*
X65830Y58233D01*
X65957Y58817D01*
X65830Y59400D01*
X65450Y59900D01*
X65007Y60067D01*
X63043D01*
G01X74580Y-96600D02*
X75847D01*
Y-98100D01*
X75467Y-98600D01*
X75023Y-98933D01*
X74390Y-99100D01*
X73757Y-98933D01*
X73313Y-98600D01*
X72933Y-98100D01*
X72680Y-97517D01*
X72553Y-96850D01*
Y-96267D01*
X72680Y-95767D01*
X72933Y-95183D01*
X73313Y-94683D01*
X73693Y-94350D01*
X74200Y-94100D01*
X74643D01*
X75150Y-94267D01*
X75530Y-94600D01*
G01X78033Y-99100D02*
Y-94100D01*
X79553D01*
X80060Y-94350D01*
X80440Y-94933D01*
X80567Y-95600D01*
X80440Y-96267D01*
X80123Y-96767D01*
X79553Y-97017D01*
X78033D01*
G01X83070Y-98433D02*
X83577Y-98850D01*
X84147Y-99100D01*
X84653D01*
X85160Y-98850D01*
X85540Y-98433D01*
X85730Y-97850D01*
X85603Y-97267D01*
X85287Y-96767D01*
X84717Y-96433D01*
X83957Y-96267D01*
X83513Y-95933D01*
X83323Y-95350D01*
X83450Y-94767D01*
X83767Y-94350D01*
X84210Y-94100D01*
X84653D01*
X85097Y-94267D01*
X85477Y-94683D01*
G01X71217Y-47000D02*
X72800Y-42000D01*
X74383Y-47000D01*
G01X73813Y-45250D02*
X71787D01*
G01X77900Y-47000D02*
Y-42000D01*
G01X81860Y-47000D02*
Y-42000D01*
G01Y-44500D02*
X82177Y-44000D01*
X82557Y-43750D01*
X82937Y-43667D01*
X83507Y-43833D01*
X83887Y-44167D01*
X84140Y-44750D01*
Y-45417D01*
X84013Y-46083D01*
X83760Y-46583D01*
X83317Y-46917D01*
X82937Y-47000D01*
X82557Y-46917D01*
X82177Y-46667D01*
X81860Y-46250D01*
G01X89240Y-47000D02*
Y-43667D01*
G01Y-44250D02*
X88987Y-43917D01*
X88607Y-43750D01*
X88163Y-43667D01*
X87720Y-43833D01*
X87340Y-44167D01*
X87087Y-44667D01*
X86960Y-45333D01*
X87087Y-46000D01*
X87340Y-46500D01*
X87720Y-46833D01*
X88163Y-47000D01*
X88607Y-46917D01*
X88987Y-46667D01*
X89240Y-46333D01*
G01X92123Y-47000D02*
Y-43667D01*
G01Y-44500D02*
X92377Y-44083D01*
X92757Y-43750D01*
X93263Y-43667D01*
X93707Y-43750D01*
X94087Y-44083D01*
X94277Y-44667D01*
Y-47000D01*
G01X102133Y-46000D02*
X102450Y-46500D01*
X102830Y-46833D01*
X103273Y-47000D01*
X103780Y-46833D01*
X104160Y-46500D01*
X104540Y-46000D01*
X104667Y-45333D01*
Y-42000D01*
G01X74193Y-23517D02*
X73813Y-23267D01*
X73370Y-23100D01*
X72863D01*
X72293Y-23350D01*
X71850Y-23767D01*
X71533Y-24267D01*
X71280Y-25100D01*
X71217Y-25850D01*
X71343Y-26600D01*
X71533Y-27100D01*
X71913Y-27600D01*
X72357Y-27933D01*
X72800Y-28100D01*
X73243D01*
X73687Y-27933D01*
X74067Y-27683D01*
X74383Y-27350D01*
G01X76823Y-28100D02*
Y-23100D01*
G01Y-25517D02*
X77140Y-25100D01*
X77457Y-24850D01*
X77963Y-24767D01*
X78343Y-24850D01*
X78787Y-25183D01*
X78977Y-25683D01*
Y-28100D01*
G01X84140D02*
Y-24767D01*
G01Y-25350D02*
X83887Y-25017D01*
X83507Y-24850D01*
X83063Y-24767D01*
X82620Y-24933D01*
X82240Y-25267D01*
X81987Y-25767D01*
X81860Y-26433D01*
X81987Y-27100D01*
X82240Y-27600D01*
X82620Y-27933D01*
X83063Y-28100D01*
X83507Y-28017D01*
X83887Y-27767D01*
X84140Y-27433D01*
G01X87213Y-28100D02*
Y-24767D01*
G01Y-25433D02*
X87530Y-25100D01*
X87847Y-24850D01*
X88290Y-24767D01*
X88607Y-24850D01*
X88987Y-25100D01*
G01X93200Y-28100D02*
Y-23100D01*
G01X98300Y-24767D02*
Y-28100D01*
G01Y-23433D02*
X98173Y-23350D01*
Y-23183D01*
X98300Y-23100D01*
X98427Y-23183D01*
Y-23350D01*
X98300Y-23433D01*
G01X102450Y-25850D02*
X104477D01*
X104287Y-25267D01*
X103970Y-24933D01*
X103527Y-24767D01*
X103083Y-24850D01*
X102703Y-25100D01*
X102450Y-25683D01*
X102323Y-26183D01*
Y-26683D01*
X102450Y-27183D01*
X102767Y-27683D01*
X103147Y-28017D01*
X103590Y-28100D01*
X104033Y-27933D01*
X104477Y-27433D01*
G01X111953Y-28100D02*
Y-23100D01*
X113600Y-27267D01*
X115247Y-23100D01*
Y-28100D01*
G01X71533Y-33400D02*
X71850Y-33900D01*
X72230Y-34233D01*
X72673Y-34400D01*
X73180Y-34233D01*
X73560Y-33900D01*
X73940Y-33400D01*
X74067Y-32733D01*
Y-29400D01*
G01X79040Y-34400D02*
Y-31067D01*
G01Y-31650D02*
X78787Y-31317D01*
X78407Y-31150D01*
X77963Y-31067D01*
X77520Y-31233D01*
X77140Y-31567D01*
X76887Y-32067D01*
X76760Y-32733D01*
X76887Y-33400D01*
X77140Y-33900D01*
X77520Y-34233D01*
X77963Y-34400D01*
X78407Y-34317D01*
X78787Y-34067D01*
X79040Y-33733D01*
G01X81100Y-34400D02*
Y-31067D01*
G01Y-31983D02*
X81290Y-31567D01*
X81607Y-31233D01*
X82050Y-31067D01*
X82493Y-31233D01*
X82810Y-31567D01*
X83000Y-31983D01*
Y-34400D01*
G01Y-31983D02*
X83190Y-31567D01*
X83507Y-31233D01*
X83950Y-31067D01*
X84393Y-31233D01*
X84710Y-31567D01*
X84900Y-32067D01*
Y-34400D01*
G01X88100Y-31067D02*
Y-34400D01*
G01Y-29733D02*
X87973Y-29650D01*
Y-29483D01*
X88100Y-29400D01*
X88227Y-29483D01*
Y-29650D01*
X88100Y-29733D01*
G01X92250Y-32150D02*
X94277D01*
X94087Y-31567D01*
X93770Y-31233D01*
X93327Y-31067D01*
X92883Y-31150D01*
X92503Y-31400D01*
X92250Y-31983D01*
X92123Y-32483D01*
Y-32983D01*
X92250Y-33483D01*
X92567Y-33983D01*
X92947Y-34317D01*
X93390Y-34400D01*
X93833Y-34233D01*
X94277Y-33733D01*
G01X101500Y-29400D02*
X102387Y-34400D01*
X103400Y-29400D01*
X104413Y-34400D01*
X105300Y-29400D01*
G01X74193Y-36117D02*
X73813Y-35867D01*
X73370Y-35700D01*
X72863D01*
X72293Y-35950D01*
X71850Y-36367D01*
X71533Y-36867D01*
X71280Y-37700D01*
X71217Y-38450D01*
X71343Y-39200D01*
X71533Y-39700D01*
X71913Y-40200D01*
X72357Y-40533D01*
X72800Y-40700D01*
X73243D01*
X73687Y-40533D01*
X74067Y-40283D01*
X74383Y-39950D01*
G01X77900Y-40700D02*
X77520Y-40617D01*
X77140Y-40283D01*
X76887Y-39700D01*
X76760Y-39033D01*
X76887Y-38367D01*
X77140Y-37783D01*
X77520Y-37450D01*
X77900Y-37367D01*
X78280Y-37450D01*
X78660Y-37783D01*
X78913Y-38367D01*
X78977Y-39033D01*
X78913Y-39700D01*
X78660Y-40283D01*
X78280Y-40617D01*
X77900Y-40700D01*
G01X81923D02*
Y-37367D01*
G01Y-38200D02*
X82177Y-37783D01*
X82557Y-37450D01*
X83063Y-37367D01*
X83507Y-37450D01*
X83887Y-37783D01*
X84077Y-38367D01*
Y-40700D01*
G01X87023D02*
Y-37367D01*
G01Y-38200D02*
X87277Y-37783D01*
X87657Y-37450D01*
X88163Y-37367D01*
X88607Y-37450D01*
X88987Y-37783D01*
X89177Y-38367D01*
Y-40700D01*
G01X93200D02*
X92820Y-40617D01*
X92440Y-40283D01*
X92187Y-39700D01*
X92060Y-39033D01*
X92187Y-38367D01*
X92440Y-37783D01*
X92820Y-37450D01*
X93200Y-37367D01*
X93580Y-37450D01*
X93960Y-37783D01*
X94213Y-38367D01*
X94277Y-39033D01*
X94213Y-39700D01*
X93960Y-40283D01*
X93580Y-40617D01*
X93200Y-40700D01*
G01X97413D02*
Y-37367D01*
G01Y-38033D02*
X97730Y-37700D01*
X98047Y-37450D01*
X98490Y-37367D01*
X98807Y-37450D01*
X99187Y-37700D01*
G01X106853Y-40700D02*
Y-35700D01*
X108500Y-39867D01*
X110147Y-35700D01*
Y-40700D01*
G01X71533Y-10500D02*
Y-15500D01*
X74067D01*
G01X76950Y-13250D02*
X78977D01*
X78787Y-12667D01*
X78470Y-12333D01*
X78027Y-12167D01*
X77583Y-12250D01*
X77203Y-12500D01*
X76950Y-13083D01*
X76823Y-13583D01*
Y-14083D01*
X76950Y-14583D01*
X77267Y-15083D01*
X77647Y-15417D01*
X78090Y-15500D01*
X78533Y-15333D01*
X78977Y-14833D01*
G01X81417Y-12167D02*
X82177Y-15500D01*
X83000Y-12167D01*
X83823Y-15500D01*
X84583Y-12167D01*
G01X88100D02*
Y-15500D01*
G01Y-10833D02*
X87973Y-10750D01*
Y-10583D01*
X88100Y-10500D01*
X88227Y-10583D01*
Y-10750D01*
X88100Y-10833D01*
G01X92250Y-14917D02*
X92567Y-15250D01*
X93010Y-15500D01*
X93390D01*
X93770Y-15333D01*
X94023Y-15083D01*
X94150Y-14750D01*
X94087Y-14250D01*
X93833Y-14000D01*
X92693Y-13500D01*
X92440Y-12917D01*
X92567Y-12500D01*
X92820Y-12250D01*
X93200Y-12167D01*
X93580Y-12250D01*
X93960Y-12500D01*
G01X102133Y-15500D02*
Y-10500D01*
X103717D01*
X104223Y-10750D01*
X104540Y-11083D01*
X104667Y-11750D01*
X104540Y-12417D01*
X104160Y-12833D01*
X103717Y-13083D01*
X102133D01*
G01X103717D02*
X104667Y-15500D01*
G01X71217Y-21800D02*
X72800Y-16800D01*
X74383Y-21800D01*
G01X73813Y-20050D02*
X71787D01*
G01X79040Y-16800D02*
Y-21800D01*
G01Y-21050D02*
X78787Y-21467D01*
X78407Y-21717D01*
X77963Y-21800D01*
X77457Y-21633D01*
X77077Y-21217D01*
X76823Y-20717D01*
X76760Y-20133D01*
X76823Y-19550D01*
X77077Y-19050D01*
X77457Y-18633D01*
X77963Y-18467D01*
X78407Y-18550D01*
X78723Y-18717D01*
X79040Y-19050D01*
G01X84140Y-21800D02*
Y-18467D01*
G01Y-19050D02*
X83887Y-18717D01*
X83507Y-18550D01*
X83063Y-18467D01*
X82620Y-18633D01*
X82240Y-18967D01*
X81987Y-19467D01*
X81860Y-20133D01*
X81987Y-20800D01*
X82240Y-21300D01*
X82620Y-21633D01*
X83063Y-21800D01*
X83507Y-21717D01*
X83887Y-21467D01*
X84140Y-21133D01*
G01X86200Y-21800D02*
Y-18467D01*
G01Y-19383D02*
X86390Y-18967D01*
X86707Y-18633D01*
X87150Y-18467D01*
X87593Y-18633D01*
X87910Y-18967D01*
X88100Y-19383D01*
Y-21800D01*
G01Y-19383D02*
X88290Y-18967D01*
X88607Y-18633D01*
X89050Y-18467D01*
X89493Y-18633D01*
X89810Y-18967D01*
X90000Y-19467D01*
Y-21800D01*
G01X97097D02*
Y-16800D01*
X99503D01*
G01X98617Y-19217D02*
X97097D01*
G01X79543Y10800D02*
Y15800D01*
X82457Y10800D01*
Y15800D01*
G01X84833Y10800D02*
Y15800D01*
X86417D01*
X86923Y15550D01*
X87240Y15217D01*
X87367Y14550D01*
X87240Y13883D01*
X86860Y13467D01*
X86417Y13217D01*
X84833D01*
G01X86417D02*
X87367Y10800D01*
G01X89870Y11467D02*
X90377Y11050D01*
X90947Y10800D01*
X91453D01*
X91960Y11050D01*
X92340Y11467D01*
X92530Y12050D01*
X92403Y12633D01*
X92087Y13133D01*
X91517Y13467D01*
X90757Y13633D01*
X90313Y13967D01*
X90123Y14550D01*
X90250Y15133D01*
X90567Y15550D01*
X91010Y15800D01*
X91453D01*
X91897Y15633D01*
X92277Y15217D01*
G01X96300Y15800D02*
Y10800D01*
G01X94843Y15800D02*
X97757D01*
G01X77007Y52700D02*
X77387Y52117D01*
X77893Y51783D01*
X78463Y51700D01*
X78970Y51783D01*
X79477Y52200D01*
X79793Y52700D01*
X79857Y53200D01*
X79730Y53783D01*
X79287Y54200D01*
X78843Y54367D01*
X78273D01*
G01X78843D02*
X79223Y54617D01*
X79540Y55033D01*
X79667Y55533D01*
X79540Y56033D01*
X79223Y56450D01*
X78653Y56700D01*
X78083Y56617D01*
X77513Y56283D01*
G01X81917Y56700D02*
X83500Y51700D01*
X85083Y56700D01*
G01X87207Y52700D02*
X87587Y52117D01*
X88093Y51783D01*
X88663Y51700D01*
X89170Y51783D01*
X89677Y52200D01*
X89993Y52700D01*
X90057Y53200D01*
X89930Y53783D01*
X89487Y54200D01*
X89043Y54367D01*
X88473D01*
G01X89043D02*
X89423Y54617D01*
X89740Y55033D01*
X89867Y55533D01*
X89740Y56033D01*
X89423Y56450D01*
X88853Y56700D01*
X88283Y56617D01*
X87713Y56283D01*
G01X84100Y51000D02*
X109100D01*
Y16000D01*
X84100D01*
Y51000D01*
G01X94270Y52467D02*
X94777Y52050D01*
X95347Y51800D01*
X95853D01*
X96360Y52050D01*
X96740Y52467D01*
X96930Y53050D01*
X96803Y53633D01*
X96487Y54133D01*
X95917Y54467D01*
X95157Y54633D01*
X94713Y54967D01*
X94523Y55550D01*
X94650Y56133D01*
X94967Y56550D01*
X95410Y56800D01*
X95853D01*
X96297Y56633D01*
X96677Y56217D01*
G01X98800Y56800D02*
X99687Y51800D01*
X100700Y56800D01*
X101713Y51800D01*
X102600Y56800D01*
G01X104407Y51800D02*
Y56800D01*
X105673D01*
X106180Y56550D01*
X106560Y56217D01*
X106877Y55717D01*
X107130Y55133D01*
X107193Y54300D01*
X107130Y53467D01*
X106877Y52883D01*
X106560Y52383D01*
X106180Y52050D01*
X105673Y51800D01*
X104407D01*
G01X110140Y56800D02*
X111660D01*
G01X110900D02*
Y51800D01*
G01X110140D02*
X111660D01*
G01X116000D02*
X115493Y51883D01*
X115050Y52217D01*
X114670Y52717D01*
X114417Y53300D01*
X114290Y53967D01*
Y54633D01*
X114417Y55300D01*
X114670Y55883D01*
X115050Y56383D01*
X115493Y56717D01*
X116000Y56800D01*
X116507Y56717D01*
X116950Y56383D01*
X117330Y55883D01*
X117583Y55300D01*
X117710Y54633D01*
Y53967D01*
X117583Y53300D01*
X117330Y52717D01*
X116950Y52217D01*
X116507Y51883D01*
X116000Y51800D01*
G01X106500Y70000D02*
G03I-7500J0D01*
G01X89000D02*
X109000D01*
G01X103180Y13300D02*
X104447D01*
Y11800D01*
X104067Y11300D01*
X103623Y10967D01*
X102990Y10800D01*
X102357Y10967D01*
X101913Y11300D01*
X101533Y11800D01*
X101280Y12383D01*
X101153Y13050D01*
Y13633D01*
X101280Y14133D01*
X101533Y14717D01*
X101913Y15217D01*
X102293Y15550D01*
X102800Y15800D01*
X103243D01*
X103750Y15633D01*
X104130Y15300D01*
G01X106443Y10800D02*
Y15800D01*
X109357Y10800D01*
Y15800D01*
G01X111607Y10800D02*
Y15800D01*
X112873D01*
X113380Y15550D01*
X113760Y15217D01*
X114077Y14717D01*
X114330Y14133D01*
X114393Y13300D01*
X114330Y12467D01*
X114077Y11883D01*
X113760Y11383D01*
X113380Y11050D01*
X112873Y10800D01*
X111607D01*
G01X110467Y40430D02*
X110050Y39923D01*
X109800Y39353D01*
Y38847D01*
X110050Y38340D01*
X110467Y37960D01*
X111050Y37770D01*
X111633Y37897D01*
X112133Y38213D01*
X112467Y38783D01*
X112633Y39543D01*
X112967Y39987D01*
X113550Y40177D01*
X114133Y40050D01*
X114550Y39733D01*
X114800Y39290D01*
Y38847D01*
X114633Y38403D01*
X114217Y38023D01*
G01X114800Y35900D02*
X109800Y35013D01*
X114800Y34000D01*
X109800Y32987D01*
X114800Y32100D01*
G01X109800Y28900D02*
X109883Y29407D01*
X110217Y29850D01*
X110717Y30230D01*
X111300Y30483D01*
X111967Y30610D01*
X112633D01*
X113300Y30483D01*
X113883Y30230D01*
X114383Y29850D01*
X114717Y29407D01*
X114800Y28900D01*
X114717Y28393D01*
X114383Y27950D01*
X113883Y27570D01*
X113300Y27317D01*
X112633Y27190D01*
X111967D01*
X111300Y27317D01*
X110717Y27570D01*
X110217Y27950D01*
X109883Y28393D01*
X109800Y28900D01*
G01X99000Y80000D02*
Y60000D01*
G01X-132650Y34963D02*
X-139100D01*
G01D02*
Y46463D01*
G01D02*
X-132650D01*
G01X-124650Y34963D02*
X-131100D01*
G01D02*
Y46463D01*
G01X-124650D02*
Y34963D01*
G01X-116650D02*
X-123100D01*
G01D02*
Y46463D01*
G01X-132650D02*
Y34963D01*
G01X-131100Y46463D02*
X-124650D01*
G01X-123100D02*
X-116650D01*
G01D02*
Y34963D01*
G01X-109100Y60800D02*
Y38800D01*
G01D02*
X-100100D01*
G01Y60800D02*
X-109100D01*
G01Y65800D02*
X-100100D01*
G01X-109100Y87800D02*
Y65800D01*
G01X-100100Y87800D02*
X-109100D01*
G01X-99100Y38800D02*
X-90100D01*
G01D02*
Y60800D01*
G01X-99100D02*
Y38800D01*
G01X-100100D02*
Y60800D01*
G01X-90100D02*
X-99100D01*
G01X-100100Y65800D02*
Y87800D01*
G01X-99100Y65800D02*
X-90100D01*
G01D02*
Y87800D01*
G01X-99100D02*
Y65800D01*
G01X-90100Y87800D02*
X-99100D01*
G01X-72250Y-29850D02*
X-65800D01*
G01Y-41350D02*
X-72250D01*
G01D02*
Y-29850D01*
G01X-65800D02*
Y-41350D01*
G01X-39275Y51218D02*
Y39718D01*
G01D02*
X-45725D01*
G01D02*
Y51218D01*
G01X-31275Y39718D02*
X-37725D01*
G01D02*
Y51218D01*
G01X-45725D02*
X-39275D01*
G01X-37725D02*
X-31275D01*
G01X-33750Y53268D02*
X-45250D01*
G01D02*
Y59718D01*
G01X-39275Y78218D02*
Y66718D01*
G01D02*
X-45725D01*
G01D02*
Y78218D01*
G01X-31275Y66718D02*
X-37725D01*
G01D02*
Y78218D01*
G01X-45250Y59718D02*
X-33750D01*
G01X-45725Y78218D02*
X-39275D01*
G01X-37725D02*
X-31275D01*
G01X-33950Y80275D02*
X-45450D01*
G01D02*
Y86725D01*
G01D02*
X-33950D01*
G01X-31275Y51218D02*
Y39718D01*
G01X-33750Y59718D02*
Y53268D01*
G01X-31275Y78218D02*
Y66718D01*
G01X-33950Y86725D02*
Y80275D01*
G01X-4750Y47850D02*
Y54300D01*
G01D02*
X6750D01*
G01Y47850D02*
X-4750D01*
G01X6750Y54300D02*
Y47850D01*
G01X31053Y64515D02*
Y53015D01*
G01D02*
X24603D01*
G01D02*
Y64515D01*
G01D02*
X31053D01*
G01X60150Y-4350D02*
Y2100D01*
G01D02*
X71650D01*
G01Y-4350D02*
X60150D01*
G01X63950Y35550D02*
X70400D01*
G01Y24050D02*
X63950D01*
G01D02*
Y35550D01*
G01X70450Y36800D02*
X58950D01*
G01D02*
Y43250D01*
G01D02*
X70450D01*
G01X71650Y2100D02*
Y-4350D01*
G01X70400Y35550D02*
Y24050D01*
G01X70450Y43250D02*
Y36800D01*
G01X113150Y-60850D02*
Y-67300D01*
G01D02*
X101650D01*
G01D02*
Y-60850D01*
G01D02*
X113150D01*
G54D12*
G01X-138236Y-99136D02*
Y-68664D01*
X-107764D01*
Y-99136D01*
X-138236D01*
G01X-138206Y-43139D02*
Y-20461D01*
X-88994D01*
Y-43139D01*
X-138206D01*
G01Y-17139D02*
Y5539D01*
X-88994D01*
Y-17139D01*
X-138206D01*
G01Y8861D02*
Y31539D01*
X-88994D01*
Y8861D01*
X-138206D01*
G01X-134632Y64626D02*
Y55374D01*
G01X-121168Y64626D02*
Y55374D01*
G01X-119099Y55623D02*
Y70977D01*
G01X-111501D02*
Y55623D01*
G01X-80765Y55824D02*
X-73835D01*
G01X-80765Y43776D02*
X-73835D01*
G01X-80765Y70776D02*
X-73835D01*
G01X-80765Y82824D02*
X-73835D01*
G01X-63965Y41335D02*
Y58265D01*
G01Y68335D02*
Y85265D01*
G01X-47035Y58265D02*
Y41335D01*
G01Y85265D02*
Y68335D01*
G01X-1136Y-53563D02*
Y-85059D01*
X-23970D01*
Y-53563D01*
X-17592D01*
G01X-7514D02*
X-1136D01*
G01X-11687D02*
X-13419D01*
G01X22364Y68815D02*
X-7164D01*
G01Y86059D02*
Y88500D01*
G01Y79524D02*
Y76610D01*
G01Y88500D02*
X22364D01*
Y86059D01*
G01X4845Y61480D02*
X3861D01*
Y56520D01*
X4845D01*
G01X12955Y61480D02*
X13939D01*
Y56520D01*
X12955D01*
G01X40711Y-49190D02*
X17089D01*
Y-48127D01*
G01Y-36473D02*
Y-35410D01*
G01D02*
X40711D01*
Y-36473D01*
G01X22364Y79524D02*
Y76610D01*
G01X44179Y-49074D02*
Y-33326D01*
G01X40711Y-48127D02*
Y-49190D01*
G01X82306Y86796D02*
Y64118D01*
X33094D01*
Y86796D01*
X82306D01*
G01X54021Y-33326D02*
Y-49074D01*
G01X61179Y5326D02*
Y21074D01*
G01X71021D02*
Y5326D01*
G01X86764Y-99136D02*
Y-68664D01*
X117236D01*
Y-99136D01*
X86764D01*
G54D13*
G01X-2383Y-23282D02*
G02I-492J0D01*
G54D14*
G01X-42817Y-17202D02*
X-47541D01*
G01X-48919Y-5391D02*
Y-16809D01*
G01X-51281D02*
Y-5391D01*
G01X-48919Y-16809D02*
X-51281D01*
G01Y-5391D02*
X-48919D01*
G01X-40080Y-239D02*
G03I-394J0D01*
G01Y14361D02*
G03I-394J0D01*
G01X-27440Y-47111D02*
Y-23489D01*
G01X-19960Y-47111D02*
X-27440D01*
G01X-19960Y-23489D02*
Y-47111D01*
G01X-34330Y-25851D02*
X-28818D01*
G01X-27440Y-23489D02*
X-19960D01*
G01X49881Y-17081D02*
X-2481D01*
G01D02*
Y35281D01*
G01D02*
X49881D01*
G01D02*
Y-17081D01*
M02*
