M48
INCH
T01C.00787
T02C.035
T03C.05709
T04C.156
;LEADER: 12 
;HEADER: 
;CODE  : ASCII 
;FILE  : datalogger-1-4.drl for  ... layers TOP and BOTTOM
;DESIGN: datalogger.brd
;T01 Holesize 1. = 7.870000 Tolerance = +0.000000/-0.000000 PLATED MILS Quantity = 466
;T02 Holesize 2. = 35.000000 Tolerance = +0.000000/-0.000000 PLATED MILS Quantity = 30
;T03 Holesize 3. = 57.090000 Tolerance = +0.000000/-0.000000 PLATED MILS Quantity = 10
;T04 Holesize 4. = 156.000000 Tolerance = +0.000000/-0.000000 NON_PLATED MILS Quantity = 3
%
G90
T01
X0104800Y-0039400
X0104900Y-0074700
X0105200Y-0069099
X0100800Y-0097399
X0103800Y-0094399
X0100800Y-0091399
X0088800Y-0085399
X0112800Y-0085399
X0091800Y-0082399
X0109800Y-0082399
X0097800Y-0076399
X0097800Y-0070399
X0088800Y-0067399
X0094800Y-0067399
X0112800Y-0067399
X0112800Y-0055399
X0112800Y-0049399
X0112800Y-0043399
X0091800Y-0040399
X0088800Y-0037399
X0094800Y-0037399
X0112800Y-0037399
X0109800Y-0034399
X0112800Y-0031399
X0109800Y-0028399
X0112800Y-0025399
R02Y0006000
X0109800Y-0010399
X0112800Y-0007399
X0091800Y-0004399
X0088600Y-0054570
X0088597Y-0034097
X0106900Y-0005900
X-0063499Y-0039199
X-0094399Y-0054199
X-0126099Y-0076799
X-0120099Y-0076199
X-0119999Y-0068899
X-0124499Y-0097399
X-0118499Y-0097399
X-0106499Y-0097399
X-0100499Y-0097399
X-0121499Y-0094399
X-0103499Y-0094399
X-0106499Y-0091399
X-0100499Y-0091399
X-0109499Y-0088399
X-0103499Y-0088399
X-0136499Y-0085399
X-0112499Y-0085399
X-0106499Y-0085399
X-0100499Y-0085399
X-0133499Y-0082399
X-0109499Y-0082399
X-0103499Y-0082399
X-0136499Y-0079399
X-0106499Y-0079399
X-0100499Y-0079399
X-0103499Y-0076399
X-0097499Y-0076399
X-0106499Y-0073399
X-0094499Y-0073399
X-0127499Y-0070399
X-0136499Y-0067399
X-0130499Y-0067399
X-0133499Y-0064399
X-0136499Y-0061399
X-0130499Y-0061399
X-0133499Y-0058399
X-0127499Y-0058399
X-0136499Y-0055399
X-0130499Y-0055399
X-0133499Y-0052399
X-0127499Y-0052399
X-0136499Y-0049399
R02X0006000
X-0133499Y-0046399
R02X0006000
X-0079499Y-0040399
X-0074300Y-0038600
X-0095200Y-0067709
X-0119987Y-0052547
X-0114800Y-0045300
X-0128000Y-0064325
X-0118000Y-0064325
X-0095500Y-0051100
X-0082350Y-0055550
X-0082609Y-0045300
X-0064191Y-0044300
X-0075209Y-0044300
X-0099200Y-0054591
X-0069164Y-0042530
X-0071391Y-0044300
X-0082200Y-0051600
X-0101500Y-0051100
X-0045582Y-0069281
X-0060400Y-0054463
X-0099800Y-0070391
X-0040700Y-0069000
X-0055400Y-0056431
X-0012100Y0030700
X-0040679Y-0012380
X-0021150Y-0016550
X-0040679Y-0009820
X-0019200Y-0014600
X-0012500Y-0002700
X-0009900Y-0028200
X0029606Y-0001300
X0000918Y0029146
X0017834Y0029300
X-0035600Y-0062337
X-0026225Y-0062325
X0054200Y-0044900
X0031300Y-0008700
X-0001143Y0018943
X-0025000Y0053571
X0019763Y0034400
X-0022100Y0050700
X0001250Y0007150
X0031574Y-0003800
X0031500Y-0011300
X0012200Y0034400
X0108000Y-0039400
X0006000Y0045100
X0000800Y0032000
X0108509Y-0015291
X0001892Y-0077000
X0102600Y-0016774
X0039600Y-0016774
X0014947Y-0011388
X-0055089Y-0022400
X-0027250Y0028000
X-0030000Y0005509
X-0027200Y0016300
X-0030800Y0075500
X0022135Y0055765
X-0047200Y0027200
X-0032900Y0027200
X-0037300Y0027200
X-0037400Y0051900
X-0030200Y0044300
X-0068791Y-0072500
X-0005000Y0045600
X0039550Y-0032091
X0019350Y-0031100
X0030300Y-0027200
X0028700Y-0041300
X0034900Y0005600
X0063500Y-0012700
X0076500Y-0001000
X-0063309Y0008991
X-0030000Y0068900
X-0030200Y0041400
X-0057900Y0027200
X0062700Y0043900
X0062900Y0033250
X0066100Y0017000
X0010214Y0018900
X0009900Y0030100
X0024000Y0030100
X-0015300Y-0015600
X-0036300Y-0028410
X-0064300Y-0032600
X-0082600Y0056600
X-0084499Y-0095399
R06X0010000
X0025501Y-0095399
R05X0010000
X-0059499Y-0090399
X-0029499Y-0090399
X0030501Y-0090399
R02X0010000
X-0034499Y-0085399
X0025501Y-0085399
X0035501Y-0085399
X0045501Y-0085399
X0075501Y-0085399
X-0059499Y-0080399
X0050501Y-0080399
X-0064499Y-0075399
X0075501Y-0075399
X-0059499Y-0070399
X0030501Y-0070399
X0040501Y-0070399
X0060501Y-0070399
X0070501Y-0070399
X0065501Y-0065399
X0075501Y-0065399
X-0019499Y-0060399
X-0009499Y-0060399
X0070501Y-0060399
X-0024499Y-0055399
X-0004499Y-0055399
X0075501Y-0055399
X-0049499Y-0050399
R03X0010000
X0000501Y-0050399
R02X0010000
X-0054499Y-0045399
R06X0010000
X0025501Y-0045399
X-0049499Y-0040399
R04X0010000
X0050501Y-0040399
X-0054499Y-0035399
R03X0010000
X0015501Y-0035399
X-0089499Y-0030399
X-0079499Y-0030399
X-0059499Y-0030399
R02X0010000
X-0019499Y-0030399
X-0094499Y-0025399
R03X0010000
X-0044499Y-0025399
X-0024499Y-0025399
X0065501Y-0025399
X-0129499Y-0020399
X-0119499Y-0020399
X-0059499Y-0020399
R03X0010000
X0060501Y-0020399
X-0134499Y-0015399
X-0124499Y-0015399
X-0074499Y-0015399
X0005501Y-0015399
X-0089499Y-0010399
X-0069499Y-0010399
X0000501Y-0010399
X0010501Y-0010399
X-0134499Y-0005399
X-0084499Y-0005399
X-0064499Y-0005399
X-0054499Y-0005399
X-0034499Y-0005399
X-0024499Y-0005399
X0005501Y-0005399
X0015501Y-0005399
X-0089499Y-0000399
X-0079499Y-0000399
X-0049499Y-0000399
X0000501Y-0000399
X0010501Y-0000399
X0020501Y-0000399
X-0124499Y0004601
R05X0010000
X0015501Y0004601
X0025501Y0004601
X0045501Y0004601
X-0129499Y0009601
X-0119499Y0009601
X-0069499Y0009601
X-0049499Y0009601
X0020501Y0009601
X0070501Y0009601
X0090501Y0009601
R02X0010000
X-0094499Y0014601
X-0084499Y0014601
X-0054499Y0014601
X0005501Y0014601
X0025501Y0014601
R02X0010000
X0075501Y0014601
R04X0010000
X-0089499Y0019601
X-0079499Y0019601
X-0019499Y0019601
X0110501Y0019601
X-0084499Y0024601
R02X0010000
X0035501Y0024601
X0045501Y0024601
X0115501Y0024601
X-0109499Y0029601
R04X0010000
X0110501Y0029601
X-0124499Y0034601
R07X0010000
X0115600Y0034500
X-0109499Y0039601
R02X0010000
X0110501Y0039601
X-0114499Y0044601
X0015501Y0044601
X0025501Y0044601
X0115501Y0044601
X-0119499Y0049601
X-0109499Y0049601
X-0059499Y0049601
X-0049499Y0049601
X0020501Y0049601
X0030501Y0049601
X0080501Y0049601
R03X0010000
X0005501Y0054601
X0015501Y0054601
X0035501Y0054601
R08X0010000
X-0129499Y0059601
R05X0010000
X0040501Y0059601
R05X0010000
X0110501Y0059601
X-0024499Y0064601
R02X0010000
X0015501Y0064601
X0065501Y0064601
X0075501Y0064601
X0085501Y0064601
X0115501Y0064601
X-0109499Y0069601
X-0019499Y0069601
X-0011700Y0070000
X0000501Y0069601
X0080501Y0069601
X0110501Y0069601
X-0134499Y0074601
R02X0010000
X0035501Y0074601
X0085501Y0074601
X0115501Y0074601
X-0129499Y0079601
R04X0010000
X-0039499Y0079601
R02X0020000
X0009700Y0082800
X0030501Y0079601
X0080501Y0079601
X0090501Y0079601
X0110501Y0079601
X-0134499Y0084601
R02X0010000
X-0024499Y0084601
X-0014499Y0084601
X-0005300Y0087400
X0005501Y0084601
X0015501Y0084601
X0025600Y0087600
X0035501Y0084601
R08X0010000
X-0071500Y-0072700
X-0065200Y-0082200
X-0090200Y-0082200
X0032600Y-0031700
X0057100Y-0036600
X-0077300Y0039700
X0015650Y-0031100
X0018089Y-0016711
X0038750Y-0049700
X0016286Y-0052300
X0010700Y-0041600
X0004600Y-0041600
X-0009600Y-0051800
X-0002214Y-0027600
X0031609Y-0014000
X0063500Y-0015300
X-0038373Y0042473
X-0039500Y0014461
X-0036900Y0001691
X-0063300Y0012809
X0000861Y0048339
X-0115300Y0053700
X-0104600Y0047800
X-0089797Y0056500
X-0082615Y0083600
X-0077200Y0067000
X-0028900Y0081559
X-0038400Y0069500
X-0030900Y0052800
X-0051600Y0030100
X-0013300Y0015880
X-0008356Y0062856
X-0002000Y0055400
X0015500Y0057435
X0002300Y0057435
X0001600Y0062000
X0066700Y0043900
X0071600Y0032800
X0076600Y0009750
X0106900Y0008000
X-0015300Y-0013150
X-0036300Y-0042190
X-0073900Y-0032600
T02
X-0128600Y-0005800
R03X0010000
X-0128600Y-0031800
R03X0010000
X-0128600Y0020200
R03X0010000
X0007400Y-0064500
X0017400Y-0064500
X0007400Y-0074500
X0017400Y-0074500
X0007400Y-0084500
X0017400Y-0084500
X0007400Y-0094500
X0017400Y-0094500
X0072700Y0075457
R03X-0010000
X0091600Y0043500
X0101600Y0043500
X0091600Y0033500
X0101600Y0033500
X0091600Y0023500
X0101600Y0023500
T03
X-0123000Y-0083900
X-0133000Y-0073900
X-0113000Y-0073900
X-0113000Y-0093900
X-0133000Y-0093900
X0102000Y-0083900
X0092000Y-0073900
X0112000Y-0073900
X0112000Y-0093900
X0092000Y-0093900
T04
X-0048000Y-0083900
X0062000Y-0083900
X0099000Y0070000
M30
