G04 ================== begin FILE IDENTIFICATION RECORD ==================*
G04 Layout Name:  C:/Users/adamf/Desktop/TDP4/PCB_fix_silkscreen/datalogger.brd*
G04 Film Name:    LAYER3_COPPER*
G04 File Format:  Gerber RS274X*
G04 File Origin:  Cadence Allegro -unreleased*
G04 Origin Date:  Tue Mar 23 19:20:18 2021*
G04 *
G04 Layer:  VIA CLASS/GNDS*
G04 Layer:  PIN/GNDS*
G04 Layer:  ETCH/GNDS*
G04 *
G04 Offset:    (0.00 0.00)*
G04 Mirror:    No*
G04 Mode:      Positive*
G04 Rotation:  0*
G04 FullContactRelief:  No*
G04 UndefLineWidth:     6.00*
G04 ================== end FILE IDENTIFICATION RECORD ====================*
%FSLAX25Y25*MOIN*%
%IR0*IPPOS*OFA0.00000B0.00000*MIA0B0*SFA1.00000B1.00000*%
%ADD12O,.055X.1*%
%ADD13R,.055X.1*%
%ADD14C,.08*%
%ADD11C,.01772*%
%ADD10C,.08583*%
%ADD15O,.07X.055*%
%ADD16R,.07X.055*%
%ADD17C,.01*%
%ADD22O,.06504X.11004*%
%ADD23O,.09504X.14004*%
%ADD18C,.02776*%
%ADD20C,.03776*%
%ADD19C,.09586*%
%ADD21C,.20004*%
G75*
%LPD*%
G75*
G36*
G01X-75394Y-37746D02*
G03X-73206I1094J-854D01*
G02X-72891Y-37100I315J246D01*
G01X-61000D01*
Y-46500D01*
X-94906Y-80406D01*
X-95000Y-100399D01*
X-139499D01*
Y-42000D01*
X-88400Y-42100D01*
X-83400Y-37100D01*
X-75709D01*
G02X-75394Y-37746I0J-400D01*
G37*
G36*
G01X-84643Y-34098D02*
X-89641Y-39096D01*
X-106309Y-39063D01*
G02X-106486Y-38305I1J400D01*
G03X-103848Y-34050I-2114J4256D01*
G01Y-29550D01*
G03X-113352I-4752J0D01*
G01Y-34050D01*
G03X-110731Y-38297I4751J0D01*
G02X-110911Y-39054I-179J-357D01*
G01X-116270Y-39044D01*
G02X-116450Y-38287I1J400D01*
G03X-113848Y-34050I-2149J4237D01*
G01Y-29550D01*
G03X-123352I-4752J0D01*
G01Y-34050D01*
G03X-120766Y-38279I4751J0D01*
G02X-120950Y-39035I-183J-356D01*
G01X-124294Y-39028D01*
G02X-124552Y-38324I1J400D01*
G03X-123848Y-36800I-1298J1524D01*
G01Y-26800D01*
G03X-125850Y-24798I-2002J0D01*
G01X-131350D01*
G03X-133352Y-26800I0J-2002D01*
G01Y-36800D01*
G03X-132664Y-38310I2001J0D01*
G02X-132927Y-39011I-263J-301D01*
G01X-139499Y-38998D01*
Y89499D01*
X118499D01*
Y2602D01*
X82798D01*
Y-100399D01*
X-91998D01*
X-91919Y-83406D01*
G02X-91224Y-83137I400J-1D01*
G03X-90126Y-80814I1024J937D01*
G02X-90387Y-80132I22J399D01*
G01X-57998Y-47743D01*
Y-34098D01*
X-62293D01*
G02X-62644Y-33506I0J400D01*
G03X-65956I-1656J906D01*
G02X-66307Y-34098I-351J-192D01*
G01X-72489D01*
G02X-72805Y-33453I0J400D01*
G03X-74995I-1095J853D01*
G02X-75311Y-34098I-316J-245D01*
G01X-84643D01*
G37*
G36*
G01X118499Y-400D02*
Y-100399D01*
X85800D01*
Y-400D01*
X118499D01*
G37*
%LPC*%
G75*
G36*
G01X-117115Y-97499D02*
G02X-118003Y-96103I-1384J100D01*
G03X-117486Y-95588I143J374D01*
G02X-111309Y-89415I4486J1688D01*
G03X-110794Y-88897I142J374D01*
G02X-109402Y-89784I1296J498D01*
G03X-109653Y-90469I28J-399D01*
G02X-116429Y-97248I-3347J-3431D01*
G03X-117115Y-97499I-287J-279D01*
G37*
G36*
G01X-69311Y-44412D02*
G03X-69524Y-44582I-15J-199D01*
G02X-71244Y-42418I-1867J282D01*
G03X-71031Y-42248I15J199D01*
G02X-69311Y-44412I1867J-282D01*
G37*
G36*
G01X-107548Y-74308D02*
G03X-108247Y-74518I-302J-262D01*
G02X-108398Y-72561I-4753J618D01*
G03X-107675Y-72662I384J112D01*
G02X-107548Y-74308I1176J-737D01*
G37*
G36*
G01X-134688Y-78386D02*
G03X-135203Y-78903I-141J-374D01*
G02X-136599Y-78015I-1296J-496D01*
G03X-136348Y-77329I-28J399D01*
G02X-129569Y-70553I3348J3429D01*
G03X-128884Y-70302I286J279D01*
G02X-127997Y-71694I1385J-96D01*
G03X-128515Y-72209I-144J-373D01*
G02X-134688Y-78386I-4485J-1691D01*
G37*
G36*
G01X-124316Y-77746D02*
G02X-126617Y-78750I1316J-6154D01*
G03X-126680Y-78060I-230J327D01*
G02X-124780Y-77231I581J1261D01*
G03X-124316Y-77746I380J-124D01*
G37*
G36*
G01X64653Y-14195D02*
G03X64614Y-14473I122J-159D01*
G02X62386I-1114J-827D01*
G03X62347Y-14195I-161J119D01*
G02X64653I1153J1495D01*
G37*
G36*
G01X96928Y39936D02*
G02X95100Y38748I-1829J814D01*
G01X88100D01*
G02X86098Y40750I0J2002D01*
G01Y46250D01*
G02X88100Y48252I2002J0D01*
G01X95100D01*
G02X96928Y47064I-1J-2002D01*
G03X97570Y46938I365J163D01*
G02X100850Y48252I3280J-3437D01*
G01X102350D01*
G02Y38748I0J-4752D01*
G01X100850D01*
G02X97570Y40062I0J4751D01*
G03X96928Y39936I-277J-289D01*
G37*
G36*
G01X-133352Y15200D02*
Y25200D01*
G02X-131350Y27202I2002J0D01*
G01X-125850D01*
G02X-123848Y25200I0J-2002D01*
G01Y15200D01*
G02X-125850Y13198I-2002J0D01*
G01X-131350D01*
G02X-133352Y15200I0J2002D01*
G37*
G36*
G01Y-10800D02*
Y-800D01*
G02X-131350Y1202I2002J0D01*
G01X-125850D01*
G02X-123848Y-800I0J-2002D01*
G01Y-10800D01*
G02X-125850Y-12802I-2002J0D01*
G01X-131350D01*
G02X-133352Y-10800I0J2002D01*
G37*
G36*
G01X67948Y80457D02*
G02X69950Y82458I2002J-1D01*
G01X75452D01*
G02X77452Y80457I-1J-2001D01*
G01Y70457D01*
G02X75450Y68456I-2002J1D01*
G01X69948D01*
G02X67948Y70457I1J2001D01*
G01Y80457D01*
G37*
G36*
G01X-39291Y-11100D02*
G02X-42067I-1388J-1280D01*
G02X-39291I1388J1280D01*
G37*
G36*
G01X-19079Y-16484D02*
G03X-19266Y-16671I13J-200D01*
G02X-21197Y-14663I-1884J121D01*
G01X-21089Y-14554D01*
X-21084Y-14479D01*
G02X-17368Y-14143I1884J-121D01*
G03X-16686Y-14318I388J96D01*
G02X-16513Y-14153I1387J-1281D01*
G01X-16455Y-14105D01*
X-16432Y-13956D01*
X-16472Y-13893D01*
G02X-14128I1172J743D01*
G01X-14168Y-13956D01*
X-14145Y-14105D01*
X-14087Y-14153D01*
G02X-17132Y-16057I-1213J-1447D01*
G03X-17814Y-15882I-388J-96D01*
G02X-19079Y-16484I-1386J1282D01*
G37*
G36*
G01X-22696Y52492D02*
G02X-23898Y51277I596J-1792D01*
G03X-24404Y51779I-380J123D01*
G02X-23202Y52994I-596J1792D01*
G03X-22696Y52492I380J-123D01*
G37*
G36*
G01X12070Y-87185D02*
G02X8150Y-89252I-3920J2684D01*
G01X6650D01*
G02Y-79748I0J4752D01*
G01X8150D01*
G02X12070Y-81815I0J-4751D01*
G03X12730I330J226D01*
G02X16650Y-79748I3920J-2684D01*
G01X18150D01*
G02Y-89252I0J-4752D01*
G01X16650D01*
G02X12730Y-87185I0J4751D01*
G03X12070I-330J-226D01*
G37*
G36*
G01X1733Y-75119D02*
G03X1916Y-74902I-16J200D01*
G02X6650Y-69748I4734J403D01*
G01X8150D01*
G02X12070Y-71815I0J-4751D01*
G03X12730I330J226D01*
G02X16650Y-69748I3920J-2684D01*
G01X18150D01*
G02Y-79252I0J-4752D01*
G01X16650D01*
G02X12730Y-77185I0J4751D01*
G03X12070I-330J-226D01*
G02X8150Y-79252I-3920J2684D01*
G01X6650D01*
G02X3633Y-78171I0J4751D01*
G03X3351Y-78198I-128J-154D01*
G02X1733Y-75119I-1459J1198D01*
G37*
G36*
G01X13370Y-67938D02*
G03X12728Y-68064I-277J-289D01*
G02X10900Y-69252I-1829J814D01*
G01X3900D01*
G02X1898Y-67250I0J2002D01*
G01Y-61750D01*
G02X3900Y-59748I2002J0D01*
G01X10900D01*
G02X12728Y-60936I-1J-2002D01*
G03X13370Y-61062I365J163D01*
G02X16650Y-59748I3280J-3437D01*
G01X18150D01*
G02Y-69252I0J-4752D01*
G01X16650D01*
G02X13370Y-67938I0J4751D01*
G37*
G36*
G01X32794Y-12675D02*
G03X32742Y-13198I274J-291D01*
G02X30415Y-13291I-1133J-802D01*
G03X30321Y-12775I-344J204D01*
G02X30039Y-10105I1179J1474D01*
G02X32761Y-9895I1261J1405D01*
G02X32794Y-12675I-1261J-1405D01*
G37*
G36*
G01X31484Y-1492D02*
G03X31828Y-1929I398J-41D01*
G02X29696Y-3608I-254J-1871D01*
G03X29352Y-3171I-398J41D01*
G02X31484Y-1492I254J1871D01*
G37*
G36*
G01X-511Y30379D02*
G03X-523Y30653I-152J131D01*
G02X2229Y30767I1323J1347D01*
G03X2241Y30493I152J-131D01*
G02X-511Y30379I-1323J-1347D01*
G37*
G36*
G01X96270Y30815D02*
G02X92350Y28748I-3921J2685D01*
G01X90850D01*
G02Y38252I0J4752D01*
G01X92350D01*
G02X96270Y36185I-1J-4752D01*
G03X96930I330J226D01*
G02X100850Y38252I3921J-2685D01*
G01X102350D01*
G02Y28748I0J-4752D01*
G01X100850D01*
G02X96930Y30815I1J4752D01*
G03X96270I-330J-226D01*
G37*
G36*
G01X18150Y-97752D02*
X16650D01*
G02Y-91248I0J3252D01*
G01X18150D01*
G02Y-97752I0J-3252D01*
G37*
G36*
G01X6650Y-89748D02*
X8150D01*
G02Y-99252I0J-4752D01*
G01X6650D01*
G02Y-89748I0J4752D01*
G37*
G36*
G01X92350Y18748D02*
X90850D01*
G02Y28252I0J4752D01*
G01X92350D01*
G02Y18748I0J-4752D01*
G37*
G36*
G01X102350Y20248D02*
X100850D01*
G02Y26752I0J3252D01*
G01X102350D01*
G02Y20248I0J-3252D01*
G37*
G36*
G01X-70824Y-71488D02*
G03X-70308Y-71376I194J350D01*
G02X-70127Y-73834I1517J-1124D01*
G03X-70654Y-73800I-283J-283D01*
G02X-70824Y-71488I-846J1100D01*
G37*
G36*
G01X-28842Y42989D02*
G03Y42711I144J-139D01*
G02X-31558I-1358J-1311D01*
G03Y42989I-144J139D01*
G02X-28842I1358J1311D01*
G37*
G36*
G01X113456Y-68622D02*
G03X113519Y-69354I189J-352D01*
G02X111629Y-69121I-1520J-4546D01*
G03X111867Y-68427I-31J399D01*
G02X113456Y-68622I933J1028D01*
G37*
G36*
G01X106680Y-40750D02*
G03X106120I-280J-285D01*
G02Y-38050I-1320J1350D01*
G03X106680I280J285D01*
G02Y-40750I1320J-1350D01*
G37*
G36*
G01X95814Y-76802D02*
G02X96729Y-74679I-3814J2902D01*
G03X97275Y-75114I395J-65D01*
G02X96506Y-76900I525J-1285D01*
G03X95814Y-76802I-373J-144D01*
G37*
G36*
G01X102034Y-90764D02*
G02X99825Y-90411I-1234J-635D01*
G03X99691Y-89754I-281J285D01*
G02X107877Y-81650I2309J5854D01*
G03X108597Y-81706I373J143D01*
G02X108940Y-83489I1203J-693D01*
G03X108292Y-83808I-248J-314D01*
G02X102367Y-90182I-6292J-92D01*
G03X102034Y-90764I23J-399D01*
G37*
G54D22*
X-98600Y20200D03*
Y-31800D03*
Y-5800D03*
X42700Y75457D03*
G54D23*
X62700D03*
X52700D03*
X-118600Y-5800D03*
Y20200D03*
X-108600Y-5800D03*
Y20200D03*
G54D18*
X-95500Y-51100D03*
X-94399Y-54199D03*
X-120099Y-76199D03*
X-128000Y-64325D03*
X-124499Y-97399D03*
X-106499D03*
X-100499D03*
X-121499Y-94399D03*
X-103499D03*
X-106499Y-91399D03*
X-100499D03*
X-103499Y-88399D03*
X-136499Y-85399D03*
X-112499D03*
X-106499D03*
X-100499D03*
X-133499Y-82399D03*
X-109499D03*
X-103499D03*
X-106499Y-79399D03*
X-100499D03*
X-103499Y-76399D03*
X-97499D03*
X-94499Y-73399D03*
X-136499Y-67399D03*
X-130499D03*
X-133499Y-64399D03*
X-136499Y-61399D03*
X-130499D03*
X-133499Y-58399D03*
X-127499D03*
X-136499Y-55399D03*
X-130499D03*
X-133499Y-52399D03*
X-127499D03*
X-136499Y-49399D03*
X-130499D03*
X-124499D03*
X-133499Y-46399D03*
X-127499D03*
X-121499D03*
X-79499Y-40399D03*
X-119987Y-52547D03*
X-118000Y-64325D03*
X-114800Y-45300D03*
X-99200Y-54591D03*
X-82350Y-55550D03*
X-95200Y-67709D03*
X-82609Y-45300D03*
X-75209Y-44300D03*
X-64191D03*
X-119999Y-68899D03*
X-63499Y-39199D03*
X106900Y8000D03*
X16286Y-52300D03*
X-36300Y-42190D03*
X2300Y57435D03*
X15500D03*
X-89797Y56500D03*
X-2214Y-27600D03*
X-77200Y67000D03*
X76600Y9750D03*
X66700Y43900D03*
X71600Y32800D03*
X57100Y-36600D03*
X38750Y-49700D03*
X32600Y-31700D03*
X18089Y-16711D03*
X861Y48339D03*
X-2000Y55400D03*
X15650Y-31100D03*
X10700Y-41600D03*
X4600D03*
X-8356Y62856D03*
X-13300Y15880D03*
X-9600Y-51800D03*
X-28900Y81559D03*
X-38400Y69500D03*
X-30900Y52800D03*
X-38373Y42473D03*
X-39500Y14461D03*
X-36900Y1691D03*
X-51600Y30100D03*
X-77300Y39700D03*
X-63300Y12809D03*
X-65200Y-82200D03*
X-115300Y53700D03*
X-104600Y47800D03*
X1600Y62000D03*
X-82615Y83600D03*
X-82600Y56600D03*
X105200Y-69099D03*
X106900Y-5900D03*
X88600Y-54570D03*
X91800Y-4399D03*
X112800Y-7399D03*
X109800Y-10399D03*
X112800Y-13399D03*
Y-19399D03*
Y-25399D03*
X109800Y-28399D03*
X112800Y-31399D03*
X109800Y-34399D03*
X112800Y-37399D03*
X94800D03*
X88800D03*
X91800Y-40399D03*
X112800Y-43399D03*
Y-49399D03*
Y-55399D03*
X94800Y-67399D03*
X88800D03*
X97800Y-70399D03*
X91800Y-82399D03*
X112800Y-85399D03*
X88800D03*
X103800Y-94399D03*
X100800Y-97399D03*
X88597Y-34097D03*
X104900Y-74700D03*
G54D20*
X-101500Y-51100D03*
X-99800Y-70391D03*
X-82200Y-51600D03*
X-47200Y27200D03*
X-37300D03*
X-55089Y-22400D03*
X28700Y-41300D03*
X-63309Y8991D03*
X-36300Y-28410D03*
X22135Y55765D03*
X-30800Y75500D03*
X76500Y-1000D03*
X62700Y43900D03*
X62900Y33250D03*
X66100Y17000D03*
X39600Y-16774D03*
X39550Y-32091D03*
X54200Y-44900D03*
X17834Y29300D03*
X19763Y34400D03*
X24000Y30100D03*
X34900Y5600D03*
X19350Y-31100D03*
X30300Y-27200D03*
X6000Y45100D03*
X12200Y34400D03*
X9900Y30100D03*
X-1143Y18943D03*
X1250Y7150D03*
X10214Y18900D03*
X14947Y-11388D03*
X-5000Y45600D03*
X-12100Y30700D03*
X-12500Y-2700D03*
X-9900Y-28200D03*
X-30000Y68900D03*
X-27250Y28000D03*
X-30000Y5509D03*
X-27200Y16300D03*
X-40700Y-69000D03*
X-35600Y-62337D03*
X-26225Y-62325D03*
X-57900Y27200D03*
X-45582Y-69281D03*
X-60400Y-54463D03*
X-55400Y-56431D03*
X-37400Y51900D03*
X-32900Y27200D03*
X108509Y-15291D03*
X102600Y-16774D03*
G54D19*
X-133000Y-93900D03*
X92000D03*
X112000D03*
G54D21*
X-48000Y-83900D03*
X62000D03*
X99000Y70000D03*
%LPD*%
G75*
G54D10*
X-133000Y-93900D03*
Y-73900D03*
X-123000Y-83900D03*
X-113000Y-93900D03*
Y-73900D03*
X92000Y-93900D03*
Y-73900D03*
X112000Y-93900D03*
Y-73900D03*
X102000Y-83900D03*
G54D11*
X-136499Y-79399D03*
Y-85399D03*
Y-61399D03*
Y-67399D03*
Y-49399D03*
Y-55399D03*
X-134499Y-15399D03*
Y-5399D03*
Y84601D03*
Y74601D03*
X-121499Y-94399D03*
X-118499Y-97399D03*
X-124499D03*
X-133499Y-82399D03*
X-120099Y-76199D03*
X-126099Y-76799D03*
X-118000Y-64325D03*
X-128000D03*
X-130499Y-61399D03*
X-133499Y-64399D03*
X-130499Y-67399D03*
X-127499Y-70399D03*
X-119999Y-68899D03*
X-119987Y-52547D03*
X-121499Y-46399D03*
X-127499D03*
X-133499D03*
X-124499Y-49399D03*
X-130499D03*
X-127499Y-52399D03*
X-133499D03*
X-130499Y-55399D03*
X-127499Y-58399D03*
X-133499D03*
X-124499Y-15399D03*
X-119499Y-20399D03*
X-129499D03*
X-124499Y4601D03*
X-119499Y9601D03*
X-129499D03*
X-124499Y34601D03*
X-119499Y49601D03*
Y59601D03*
X-129499D03*
X-124499Y84601D03*
X-119499Y79601D03*
X-129499D03*
X-124499Y74601D03*
X-103499Y-94399D03*
X-106499Y-97399D03*
X-103499Y-76399D03*
X-106499Y-79399D03*
X-103499Y-82399D03*
X-109499D03*
X-106499Y-85399D03*
X-112499D03*
X-103499Y-88399D03*
X-109499D03*
X-106499Y-91399D03*
Y-73399D03*
X-101500Y-51100D03*
X-114800Y-45300D03*
X-104499Y4601D03*
X-114499D03*
X-109499Y39601D03*
X-104499Y34601D03*
X-114499D03*
X-109499Y29601D03*
X-104600Y47800D03*
X-115300Y53700D03*
X-109499Y49601D03*
X-114499Y44601D03*
X-109499Y69601D03*
Y59601D03*
X-114499Y84601D03*
X-109499Y79601D03*
X-114499Y74601D03*
X-84499Y-95399D03*
X-100499Y-97399D03*
X-90200Y-82200D03*
X-97499Y-76399D03*
X-100499Y-79399D03*
Y-85399D03*
Y-91399D03*
X-99800Y-70391D03*
X-95200Y-67709D03*
X-94499Y-73399D03*
X-99200Y-54591D03*
X-95500Y-51100D03*
X-94399Y-54199D03*
X-89499Y-30399D03*
Y-10399D03*
X-84499Y-25399D03*
X-94499D03*
X-84499Y4601D03*
X-94499D03*
X-89499Y-399D03*
X-84499Y-5399D03*
X-89499Y19601D03*
X-84499Y14601D03*
X-94499D03*
X-89499Y39601D03*
X-99499D03*
X-84499Y34601D03*
X-94499D03*
X-89499Y29601D03*
X-99499D03*
X-84499Y24601D03*
X-89797Y56500D03*
X-89499Y59601D03*
X-99499D03*
X-89499Y79601D03*
X-99499D03*
X-74499Y-95399D03*
X-71500Y-72700D03*
X-68791Y-72500D03*
X-82200Y-51600D03*
X-71391Y-44300D03*
X-69164Y-42530D03*
X-75209Y-44300D03*
X-82609Y-45300D03*
X-82350Y-55550D03*
X-73900Y-32600D03*
X-79499Y-30399D03*
X-74300Y-38600D03*
X-79499Y-40399D03*
X-69499Y-10399D03*
X-74499Y-15399D03*
Y-25399D03*
Y4601D03*
X-79499Y-399D03*
Y19601D03*
X-69499Y9601D03*
X-77300Y39700D03*
X-74499Y34601D03*
X-69499Y29601D03*
X-79499D03*
X-74499Y24601D03*
X-82600Y56600D03*
X-77200Y67000D03*
X-79499Y59601D03*
X-82615Y83600D03*
X-54499Y-95399D03*
X-64499D03*
X-65200Y-82200D03*
X-59499Y-80399D03*
Y-90399D03*
Y-70399D03*
X-64499Y-75399D03*
X-54499Y-45399D03*
X-55400Y-56431D03*
X-60400Y-54463D03*
X-64191Y-44300D03*
X-59499Y-30399D03*
X-54499Y-35399D03*
X-64300Y-32600D03*
X-63499Y-39199D03*
X-59499Y-20399D03*
X-64499Y-25399D03*
X-55089Y-22400D03*
X-54499Y-5399D03*
X-64499D03*
X-63300Y12809D03*
X-54499Y14601D03*
X-63309Y8991D03*
X-51600Y30100D03*
X-54499Y34601D03*
X-64499D03*
Y24601D03*
X-57900Y27200D03*
X-59499Y49601D03*
X-34499Y-95399D03*
X-44499D03*
X-34499Y-85399D03*
X-35600Y-62337D03*
X-40700Y-69000D03*
X-45582Y-69281D03*
X-34499Y-45399D03*
X-44499D03*
X-39499Y-50399D03*
X-49499D03*
X-36300Y-42190D03*
X-39499Y-30399D03*
X-49499D03*
X-34499Y-35399D03*
X-44499D03*
X-39499Y-40399D03*
X-49499D03*
X-36300Y-28410D03*
X-39499Y-20399D03*
X-49499D03*
X-44499Y-25399D03*
X-40679Y-9820D03*
Y-12380D03*
X-36900Y1691D03*
X-49499Y-399D03*
X-34499Y-5399D03*
X-39500Y14461D03*
X-49499Y9601D03*
X-37300Y27200D03*
X-47200D03*
X-38373Y42473D03*
X-49499Y49601D03*
X-37400Y51900D03*
X-38400Y69500D03*
X-39499Y79601D03*
X-24499Y-95399D03*
X-29499Y-90399D03*
X-19499Y-60399D03*
X-26225Y-62325D03*
X-24499Y-45399D03*
X-19499Y-50399D03*
X-29499D03*
X-24499Y-55399D03*
X-19499Y-30399D03*
X-24499Y-35399D03*
X-19499Y-40399D03*
X-29499D03*
Y-20399D03*
X-24499Y-25399D03*
X-19200Y-14600D03*
X-21150Y-16550D03*
X-24499Y-5399D03*
X-30000Y5509D03*
X-19499Y19601D03*
X-27200Y16300D03*
X-32900Y27200D03*
X-27250Y28000D03*
X-30900Y52800D03*
X-30200Y41400D03*
Y44300D03*
X-22100Y50700D03*
X-25000Y53571D03*
X-19499Y69601D03*
X-24499Y64601D03*
X-30000Y68900D03*
X-28900Y81559D03*
X-24499Y84601D03*
X-19499Y79601D03*
X-30800Y75500D03*
X-9499Y-60399D03*
X-9600Y-51800D03*
X-4499Y-45399D03*
X-14499D03*
X-4499Y-55399D03*
X-2214Y-27600D03*
X-9499Y-40399D03*
X-9900Y-28200D03*
X-15300Y-13150D03*
Y-15600D03*
X-12500Y-2700D03*
X-13300Y15880D03*
X-12100Y30700D03*
X-2000Y55400D03*
X-5000Y45600D03*
X-8356Y62856D03*
X-11700Y70000D03*
X-4499Y64601D03*
X-14499D03*
X-5300Y87400D03*
X-14499Y84601D03*
X1892Y-77000D03*
X5501Y-45399D03*
X10501Y-50399D03*
X501D03*
X4600Y-41600D03*
X10700D03*
X10501Y-10399D03*
X501D03*
X5501Y-15399D03*
X14947Y-11388D03*
X10501Y-399D03*
X501D03*
X5501Y-5399D03*
X1250Y7150D03*
X5501Y14601D03*
X10214Y18900D03*
X-1143Y18943D03*
X9900Y30100D03*
X800Y32000D03*
X12200Y34400D03*
X918Y29146D03*
X861Y48339D03*
X5501Y54601D03*
X6000Y45100D03*
X1600Y62000D03*
X2300Y57435D03*
X501Y69601D03*
X5501Y84601D03*
X9700Y82800D03*
X501Y79601D03*
X25501Y-95399D03*
Y-85399D03*
X30501Y-90399D03*
Y-70399D03*
X16286Y-52300D03*
X25501Y-45399D03*
X20501Y-50399D03*
X15650Y-31100D03*
X15501Y-35399D03*
X28700Y-41300D03*
X30300Y-27200D03*
X19350Y-31100D03*
X31609Y-14000D03*
X18089Y-16711D03*
X31500Y-11300D03*
X25501Y4601D03*
X15501D03*
X20501Y-399D03*
X15501Y-5399D03*
X31574Y-3800D03*
X31300Y-8700D03*
X29606Y-1300D03*
X25501Y14601D03*
X20501Y9601D03*
X24000Y30100D03*
X19763Y34400D03*
X17834Y29300D03*
X15501Y54601D03*
X30501Y49601D03*
X20501D03*
X25501Y44601D03*
X15501D03*
X22135Y55765D03*
X15500Y57435D03*
X15501Y64601D03*
X25600Y87600D03*
X15501Y84601D03*
X30501Y79601D03*
X45501Y-95399D03*
X35501D03*
X45501Y-85399D03*
X35501D03*
X40501Y-90399D03*
Y-70399D03*
X38750Y-49700D03*
X32600Y-31700D03*
X39550Y-32091D03*
X39600Y-16774D03*
X45501Y4601D03*
X34900Y5600D03*
X45501Y14601D03*
X35501D03*
X45501Y24601D03*
X35501D03*
X45501Y54601D03*
X35501D03*
X40501Y59601D03*
X45501Y84601D03*
X35501D03*
Y74601D03*
X55501Y-95399D03*
X50501Y-80399D03*
Y-90399D03*
X60501Y-70399D03*
X54200Y-44900D03*
X57100Y-36600D03*
X50501Y-40399D03*
X63500Y-15300D03*
X60501Y-20399D03*
X63500Y-12700D03*
X62900Y33250D03*
X55501Y54601D03*
X62700Y43900D03*
X60501Y59601D03*
X50501D03*
X55501Y84601D03*
X75501Y-95399D03*
X65501D03*
X75501Y-85399D03*
X70501Y-60399D03*
X75501Y-65399D03*
X65501D03*
X70501Y-70399D03*
X75501Y-75399D03*
Y-55399D03*
X65501Y-25399D03*
X76500Y-1000D03*
X76600Y9750D03*
X75501Y14601D03*
X70501Y9601D03*
X66100Y17000D03*
X71600Y32800D03*
X66700Y43900D03*
X75501Y54601D03*
X65501D03*
X80501Y49601D03*
Y69601D03*
X75501Y64601D03*
X65501D03*
X80501Y59601D03*
X70501D03*
X75501Y84601D03*
X65501D03*
X80501Y79601D03*
X97800Y-76399D03*
X91800Y-82399D03*
X88800Y-85399D03*
X94800Y-67399D03*
X88800D03*
X97800Y-70399D03*
X88600Y-54570D03*
X88597Y-34097D03*
X94800Y-37399D03*
X88800D03*
X91800Y-40399D03*
Y-4399D03*
X95501Y14601D03*
X85501D03*
X90501Y9601D03*
X95501Y54601D03*
X85501D03*
X90501Y49601D03*
X85501Y64601D03*
X90501Y59601D03*
X95501Y84601D03*
X85501D03*
X90501Y79601D03*
X85501Y74601D03*
X103800Y-94399D03*
X100800Y-97399D03*
X109800Y-82399D03*
X112800Y-85399D03*
X100800Y-91399D03*
X112800Y-67399D03*
X105200Y-69099D03*
X104900Y-74700D03*
X112800Y-43399D03*
Y-49399D03*
Y-55399D03*
X108000Y-39400D03*
X109800Y-28399D03*
X112800Y-31399D03*
X109800Y-34399D03*
X112800Y-37399D03*
X104800Y-39400D03*
X102600Y-16774D03*
X108509Y-15291D03*
X109800Y-10399D03*
X112800Y-13399D03*
Y-19399D03*
Y-25399D03*
X106900Y-5900D03*
X112800Y-7399D03*
X106900Y8000D03*
X110501Y19601D03*
X105501Y14601D03*
X110501Y9601D03*
X100501D03*
X110501Y39601D03*
Y29601D03*
X105501Y54601D03*
X110501Y49601D03*
X100501D03*
X110501Y69601D03*
Y59601D03*
X105501Y84601D03*
X110501Y79601D03*
X115501Y14601D03*
X115600Y34500D03*
X115501Y24601D03*
Y54601D03*
Y44601D03*
Y64601D03*
Y84601D03*
Y74601D03*
G54D12*
X-118600Y-31800D03*
Y-5800D03*
Y20200D03*
X-98600Y-31800D03*
X-108600D03*
X-98600Y-5800D03*
X-108600D03*
X-98600Y20200D03*
X-108600D03*
X42700Y75457D03*
X52700D03*
X62700D03*
G54D13*
X-128600Y-31800D03*
Y-5800D03*
Y20200D03*
X72700Y75457D03*
G54D14*
X-48000Y-83900D03*
X62000D03*
X99000Y70000D03*
G54D15*
X17400Y-94500D03*
X7400D03*
X17400Y-84500D03*
X7400D03*
X17400Y-74500D03*
X7400D03*
X17400Y-64500D03*
X101600Y23500D03*
X91600D03*
X101600Y33500D03*
X91600D03*
X101600Y43500D03*
G54D16*
X7400Y-64500D03*
X91600Y43500D03*
G54D17*
G01X-137994Y-93900D02*
X-133000D01*
G01X-137822Y-86722D02*
X-136499Y-85399D01*
G01D02*
X-135176Y-84076D01*
G01X-137822D02*
X-136499Y-85399D01*
G01D02*
X-135176Y-86722D01*
G01X-134822Y-83722D02*
X-133499Y-82399D01*
G01X-134822Y-81076D02*
X-133499Y-82399D01*
G01X-137822Y-80722D02*
X-136499Y-79399D01*
G01X-137822Y-78076D02*
X-136499Y-79399D01*
G01D02*
X-135176Y-80722D01*
G01X-137994Y-73900D02*
X-133000D01*
G01X-137822Y-68722D02*
X-136499Y-67399D01*
G01D02*
X-135176Y-66076D01*
G01X-137822D02*
X-136499Y-67399D01*
G01D02*
X-135176Y-68722D01*
G01X-134822Y-65722D02*
X-133499Y-64399D01*
G01X-134822Y-63076D02*
X-133499Y-64399D01*
G01X-137822Y-62722D02*
X-136499Y-61399D01*
G01D02*
X-135176Y-60076D01*
G01X-137822D02*
X-136499Y-61399D01*
G01D02*
X-135176Y-62722D01*
G01X-134822Y-59722D02*
X-133499Y-58399D01*
G01X-134822Y-57076D02*
X-133499Y-58399D01*
G01X-137822Y-56722D02*
X-136499Y-55399D01*
G01D02*
X-135176Y-54076D01*
G01X-137822D02*
X-136499Y-55399D01*
G01D02*
X-135176Y-56722D01*
G01X-134822Y-53722D02*
X-133499Y-52399D01*
G01X-134822Y-51076D02*
X-133499Y-52399D01*
G01X-137822Y-50722D02*
X-136499Y-49399D01*
G01D02*
X-135176Y-48076D01*
G01X-137822D02*
X-136499Y-49399D01*
G01D02*
X-135176Y-50722D01*
G01X-134822Y-47722D02*
X-133499Y-46399D01*
G01X-134822Y-45076D02*
X-133499Y-46399D01*
G01X-133000Y-98894D02*
Y-93900D01*
G01D02*
Y-88906D01*
G01Y-93900D02*
X-128006D01*
G01X-125822Y-98722D02*
X-124499Y-97399D01*
G01D02*
X-123176Y-96076D01*
G01X-125822D02*
X-124499Y-97399D01*
G01D02*
X-123176Y-98722D01*
G01X-119822D02*
X-118499Y-97399D01*
G01X-119822Y-96076D02*
X-118499Y-97399D01*
G01D02*
X-117176Y-98722D01*
G01X-122822Y-95722D02*
X-121499Y-94399D01*
G01D02*
X-120176Y-93076D01*
G01X-122822D02*
X-121499Y-94399D01*
G01D02*
X-120176Y-95722D01*
G01X-117994Y-93900D02*
X-113000D01*
G01X-133499Y-82399D02*
X-132176Y-81076D01*
G01X-133499Y-82399D02*
X-132176Y-83722D01*
G01X-133000Y-78894D02*
Y-73900D01*
G01X-121422Y-77522D02*
X-120099Y-76199D01*
G01D02*
X-118776Y-74876D01*
G01X-121422D02*
X-120099Y-76199D01*
G01D02*
X-118776Y-77522D01*
G01X-127422Y-78122D02*
X-126099Y-76799D01*
G01D02*
X-124776Y-75476D01*
G01X-127422D02*
X-126099Y-76799D01*
G01X-119323Y-65648D02*
X-118000Y-64325D01*
G01D02*
X-116677Y-63002D01*
G01X-119323D02*
X-118000Y-64325D01*
G01D02*
X-116677Y-65648D01*
G01X-117994Y-73900D02*
X-113000D01*
G01X-129323Y-65648D02*
X-128000Y-64325D01*
G01D02*
X-126677Y-63002D01*
G01X-129323D02*
X-128000Y-64325D01*
G01D02*
X-126677Y-65648D01*
G01X-133000Y-73900D02*
Y-68906D01*
G01Y-73900D02*
X-128006D01*
G01X-127499Y-70399D02*
X-126176Y-69076D01*
G01X-128822D02*
X-127499Y-70399D01*
G01D02*
X-126176Y-71722D01*
G01X-131822Y-68722D02*
X-130499Y-67399D01*
G01D02*
X-129176Y-66076D01*
G01X-131822D02*
X-130499Y-67399D01*
G01D02*
X-129176Y-68722D01*
G01X-133499Y-64399D02*
X-132176Y-63076D01*
G01X-133499Y-64399D02*
X-132176Y-65722D01*
G01X-131822Y-62722D02*
X-130499Y-61399D01*
G01D02*
X-129176Y-60076D01*
G01X-131822D02*
X-130499Y-61399D01*
G01D02*
X-129176Y-62722D01*
G01X-133499Y-58399D02*
X-132176Y-59722D01*
G01X-128822D02*
X-127499Y-58399D01*
G01D02*
X-126176Y-59722D01*
G01X-121322Y-70222D02*
X-119999Y-68899D01*
G01D02*
X-118676Y-67576D01*
G01X-121322D02*
X-119999Y-68899D01*
G01D02*
X-118676Y-70222D01*
G01X-121310Y-53870D02*
X-119987Y-52547D01*
G01D02*
X-118664Y-51224D01*
G01X-121310D02*
X-119987Y-52547D01*
G01D02*
X-118664Y-53870D01*
G01X-133499Y-58399D02*
X-132176Y-57076D01*
G01X-127499Y-58399D02*
X-126176Y-57076D01*
G01X-128822D02*
X-127499Y-58399D01*
G01X-131822Y-56722D02*
X-130499Y-55399D01*
G01D02*
X-129176Y-54076D01*
G01X-131822D02*
X-130499Y-55399D01*
G01D02*
X-129176Y-56722D01*
G01X-133499Y-52399D02*
X-132176Y-51076D01*
G01X-133499Y-52399D02*
X-132176Y-53722D01*
G01X-128822D02*
X-127499Y-52399D01*
G01D02*
X-126176Y-51076D01*
G01X-128822D02*
X-127499Y-52399D01*
G01D02*
X-126176Y-53722D01*
G01X-131822Y-50722D02*
X-130499Y-49399D01*
G01D02*
X-129176Y-48076D01*
G01X-131822D02*
X-130499Y-49399D01*
G01D02*
X-129176Y-50722D01*
G01X-125822D02*
X-124499Y-49399D01*
G01D02*
X-123176Y-48076D01*
G01X-125822D02*
X-124499Y-49399D01*
G01D02*
X-123176Y-50722D01*
G01X-133499Y-46399D02*
X-132176Y-45076D01*
G01X-133499Y-46399D02*
X-132176Y-47722D01*
G01X-128822D02*
X-127499Y-46399D01*
G01D02*
X-126176Y-45076D01*
G01X-128822D02*
X-127499Y-46399D01*
G01D02*
X-126176Y-47722D01*
G01X-122822D02*
X-121499Y-46399D01*
G01D02*
X-120176Y-45076D01*
G01X-122822D02*
X-121499Y-46399D01*
G01D02*
X-120176Y-47722D01*
G01X-107822Y-98722D02*
X-106499Y-97399D01*
G01D02*
X-105176Y-96076D01*
G01X-107822D02*
X-106499Y-97399D01*
G01D02*
X-105176Y-98722D01*
G01X-101822D02*
X-100499Y-97399D01*
G01X-101822Y-96076D02*
X-100499Y-97399D01*
G01X-104822Y-95722D02*
X-103499Y-94399D01*
G01D02*
X-102176Y-93076D01*
G01X-104822D02*
X-103499Y-94399D01*
G01D02*
X-102176Y-95722D01*
G01X-107822Y-92722D02*
X-106499Y-91399D01*
G01D02*
X-105176Y-92722D01*
G01X-101822D02*
X-100499Y-91399D01*
G01X-113000Y-98894D02*
Y-93900D01*
G01D02*
Y-88906D01*
G01Y-93900D02*
X-108006D01*
G01X-113000Y-78894D02*
Y-73900D01*
G01X-106499Y-91399D02*
X-105176Y-90076D01*
G01X-107822D02*
X-106499Y-91399D01*
G01X-101822Y-90076D02*
X-100499Y-91399D01*
G01X-109499Y-88399D02*
X-108176Y-87076D01*
G01X-110822D02*
X-109499Y-88399D01*
G01D02*
X-108176Y-89722D01*
G01X-104822D02*
X-103499Y-88399D01*
G01D02*
X-102176Y-87076D01*
G01X-104822D02*
X-103499Y-88399D01*
G01D02*
X-102176Y-89722D01*
G01X-113822Y-86722D02*
X-112499Y-85399D01*
G01D02*
X-111176Y-84076D01*
G01X-113822D02*
X-112499Y-85399D01*
G01D02*
X-111176Y-86722D01*
G01X-107822D02*
X-106499Y-85399D01*
G01D02*
X-105176Y-84076D01*
G01X-107822D02*
X-106499Y-85399D01*
G01D02*
X-105176Y-86722D01*
G01X-101822D02*
X-100499Y-85399D01*
G01X-101822Y-84076D02*
X-100499Y-85399D01*
G01X-110822Y-83722D02*
X-109499Y-82399D01*
G01D02*
X-108176Y-81076D01*
G01X-110822D02*
X-109499Y-82399D01*
G01D02*
X-108176Y-83722D01*
G01X-104822D02*
X-103499Y-82399D01*
G01D02*
X-102176Y-81076D01*
G01X-104822D02*
X-103499Y-82399D01*
G01D02*
X-102176Y-83722D01*
G01X-107822Y-80722D02*
X-106499Y-79399D01*
G01D02*
X-105176Y-78076D01*
G01X-107822D02*
X-106499Y-79399D01*
G01D02*
X-105176Y-80722D01*
G01X-101822D02*
X-100499Y-79399D01*
G01X-101822Y-78076D02*
X-100499Y-79399D01*
G01X-104822Y-77722D02*
X-103499Y-76399D01*
G01D02*
X-102176Y-75076D01*
G01X-104822D02*
X-103499Y-76399D01*
G01D02*
X-102176Y-77722D01*
G01X-113000Y-73900D02*
Y-68906D01*
G01X-107822Y-74722D02*
X-106499Y-73399D01*
G01D02*
X-105176Y-72076D01*
G01X-107822D02*
X-106499Y-73399D01*
G01D02*
X-105176Y-74722D01*
G01X-116123Y-46623D02*
X-114800Y-45300D01*
G01D02*
X-113477Y-43977D01*
G01X-116123D02*
X-114800Y-45300D01*
G01D02*
X-113477Y-46623D01*
G01X-102052Y-31800D02*
X-98600D01*
G01X-102052Y-5800D02*
X-98600D01*
G01X-102052Y20200D02*
X-98600D01*
G01X-116623Y52377D02*
X-115300Y53700D01*
G01D02*
X-113977Y55023D01*
G01X-116623D02*
X-115300Y53700D01*
G01D02*
X-113977Y52377D01*
G01X-105923Y46477D02*
X-104600Y47800D01*
G01D02*
X-103277Y49123D01*
G01X-105923D02*
X-104600Y47800D01*
G01D02*
X-103277Y46477D01*
G01X-100499Y-97399D02*
X-99176Y-96076D01*
G01X-100499Y-97399D02*
X-99176Y-98722D01*
G01X-100499Y-91399D02*
X-99176Y-92722D01*
G01X-91523Y-83523D02*
X-90200Y-82200D01*
G01D02*
X-88877Y-80877D01*
G01X-90200Y-82200D02*
X-88877Y-83523D01*
G01X-100499Y-91399D02*
X-99176Y-90076D01*
G01X-100499Y-85399D02*
X-99176Y-84076D01*
G01X-100499Y-85399D02*
X-99176Y-86722D01*
G01X-100499Y-79399D02*
X-99176Y-78076D01*
G01X-100499Y-79399D02*
X-99176Y-80722D01*
G01X-98822Y-77722D02*
X-97499Y-76399D01*
G01D02*
X-96176Y-75076D01*
G01X-98822D02*
X-97499Y-76399D01*
G01D02*
X-96176Y-77722D01*
G01X-96523Y-69032D02*
X-95200Y-67709D01*
G01D02*
X-93877Y-66386D01*
G01X-96523D02*
X-95200Y-67709D01*
G01D02*
X-93877Y-69032D01*
G01X-95822Y-74722D02*
X-94499Y-73399D01*
G01D02*
X-93176Y-72076D01*
G01X-95822D02*
X-94499Y-73399D01*
G01D02*
X-93176Y-74722D01*
G01X-100523Y-55914D02*
X-99200Y-54591D01*
G01D02*
X-97877Y-53268D01*
G01X-100523D02*
X-99200Y-54591D01*
G01D02*
X-97877Y-55914D01*
G01X-96823Y-52423D02*
X-95500Y-51100D01*
G01D02*
X-94177Y-49777D01*
G01X-96823D02*
X-95500Y-51100D01*
G01D02*
X-94177Y-52423D01*
G01X-95722Y-55522D02*
X-94399Y-54199D01*
G01D02*
X-93076Y-52876D01*
G01X-95722D02*
X-94399Y-54199D01*
G01D02*
X-93076Y-55522D01*
G01X-98600Y-37502D02*
Y-31800D01*
G01D02*
Y-26098D01*
G01Y-31800D02*
X-95148D01*
G01X-98600Y-11502D02*
Y-5800D01*
G01D02*
Y-98D01*
G01Y-5800D02*
X-95148D01*
G01X-98600Y14498D02*
Y20200D01*
G01D02*
Y25902D01*
G01Y20200D02*
X-95148D01*
G01X-91120Y55177D02*
X-89797Y56500D01*
G01D02*
X-88474Y57823D01*
G01X-91120D02*
X-89797Y56500D01*
G01D02*
X-88474Y55177D01*
G01X-72823Y-74023D02*
X-71500Y-72700D01*
G01X-72823Y-71377D02*
X-71500Y-72700D01*
G01D02*
X-70177Y-74023D01*
G01X-76532Y-45623D02*
X-75209Y-44300D01*
G01D02*
X-73886Y-42977D01*
G01X-76532D02*
X-75209Y-44300D01*
G01D02*
X-73886Y-45623D01*
G01X-83932Y-46623D02*
X-82609Y-45300D01*
G01D02*
X-81286Y-43977D01*
G01X-83932D02*
X-82609Y-45300D01*
G01D02*
X-81286Y-46623D01*
G01X-83673Y-56873D02*
X-82350Y-55550D01*
G01D02*
X-81027Y-54227D01*
G01X-83673D02*
X-82350Y-55550D01*
G01D02*
X-81027Y-56873D01*
G01X-75223Y-33923D02*
X-73900Y-32600D01*
G01D02*
X-72577Y-31277D01*
G01X-75223D02*
X-73900Y-32600D01*
G01D02*
X-72577Y-33923D01*
G01X-75623Y-39923D02*
X-74300Y-38600D01*
G01D02*
X-72977Y-37277D01*
G01X-75623D02*
X-74300Y-38600D01*
G01D02*
X-72977Y-39923D01*
G01X-80822Y-41722D02*
X-79499Y-40399D01*
G01D02*
X-78176Y-39076D01*
G01X-80822D02*
X-79499Y-40399D01*
G01D02*
X-78176Y-41722D01*
G01X-78623Y38377D02*
X-77300Y39700D01*
G01D02*
X-75977Y41023D01*
G01X-78623D02*
X-77300Y39700D01*
G01D02*
X-75977Y38377D01*
G01X-83923Y55277D02*
X-82600Y56600D01*
G01D02*
X-81277Y57923D01*
G01X-83923D02*
X-82600Y56600D01*
G01D02*
X-81277Y55277D01*
G01X-78523Y65677D02*
X-77200Y67000D01*
G01D02*
X-75877Y68323D01*
G01X-78523D02*
X-77200Y67000D01*
G01D02*
X-75877Y65677D01*
G01X-83938Y82277D02*
X-82615Y83600D01*
G01D02*
X-81292Y84923D01*
G01X-83938D02*
X-82615Y83600D01*
G01D02*
X-81292Y82277D01*
G01X-66523Y-83523D02*
X-65200Y-82200D01*
G01D02*
X-63877Y-80877D01*
G01X-66523D02*
X-65200Y-82200D01*
G01D02*
X-63877Y-83523D01*
G01X-65514Y-45623D02*
X-64191Y-44300D01*
G01D02*
X-62868Y-42977D01*
G01X-65514D02*
X-64191Y-44300D01*
G01D02*
X-62868Y-45623D01*
G01X-64822Y-40522D02*
X-63499Y-39199D01*
G01D02*
X-62176Y-37876D01*
G01X-64822D02*
X-63499Y-39199D01*
G01D02*
X-62176Y-40522D01*
G01X-64623Y11486D02*
X-63300Y12809D01*
G01D02*
X-61977Y14132D01*
G01X-64623D02*
X-63300Y12809D01*
G01D02*
X-61977Y11486D01*
G01X-52923Y28777D02*
X-51600Y30100D01*
G01D02*
X-50277Y31423D01*
G01X-52923D02*
X-51600Y30100D01*
G01D02*
X-50277Y28777D01*
G01X-37623Y-43513D02*
X-36300Y-42190D01*
G01D02*
X-34977Y-43513D01*
G01X-36300Y-42190D02*
X-34977Y-40867D01*
G01X-37623D02*
X-36300Y-42190D01*
G01X-38223Y368D02*
X-36900Y1691D01*
G01D02*
X-35577Y3014D01*
G01X-38223D02*
X-36900Y1691D01*
G01D02*
X-35577Y368D01*
G01X-40823Y13138D02*
X-39500Y14461D01*
G01D02*
X-38177Y15784D01*
G01X-40823D02*
X-39500Y14461D01*
G01D02*
X-38177Y13138D01*
G01X-39696Y41150D02*
X-38373Y42473D01*
G01D02*
X-37050Y43796D01*
G01X-39696D02*
X-38373Y42473D01*
G01D02*
X-37050Y41150D01*
G01X-39723Y68177D02*
X-38400Y69500D01*
G01D02*
X-37077Y70823D01*
G01X-39723D02*
X-38400Y69500D01*
G01D02*
X-37077Y68177D01*
G01X-32223Y51477D02*
X-30900Y52800D01*
G01D02*
X-29577Y54123D01*
G01X-32223D02*
X-30900Y52800D01*
G01D02*
X-29577Y51477D01*
G01X-30223Y80236D02*
X-28900Y81559D01*
G01D02*
X-27577Y82882D01*
G01X-30223D02*
X-28900Y81559D01*
G01D02*
X-27577Y80236D01*
G01X-10923Y-53123D02*
X-9600Y-51800D01*
G01D02*
X-8277Y-50477D01*
G01X-10923D02*
X-9600Y-51800D01*
G01D02*
X-8277Y-53123D01*
G01X-3537Y-28923D02*
X-2214Y-27600D01*
G01D02*
X-891Y-26277D01*
G01X-3537D02*
X-2214Y-27600D01*
G01D02*
X-891Y-28923D01*
G01X-15300Y-13150D02*
X-13977Y-11827D01*
G01X-16623D02*
X-15300Y-13150D01*
G01X-14623Y14557D02*
X-13300Y15880D01*
G01D02*
X-11977Y17203D01*
G01X-14623D02*
X-13300Y15880D01*
G01D02*
X-11977Y14557D01*
G01X-3323Y54077D02*
X-2000Y55400D01*
G01D02*
X-677Y56723D01*
G01X-3323D02*
X-2000Y55400D01*
G01D02*
X-677Y54077D01*
G01X-9679Y61533D02*
X-8356Y62856D01*
G01D02*
X-7033Y64179D01*
G01X-9679D02*
X-8356Y62856D01*
G01D02*
X-7033Y61533D01*
G01X13198Y-94500D02*
X17400D01*
G01X9377Y-42923D02*
X10700Y-41600D01*
G01D02*
X12023Y-42923D01*
G01X3277D02*
X4600Y-41600D01*
G01D02*
X5923Y-42923D01*
G01X14963Y-53623D02*
X16286Y-52300D01*
G01X14963Y-50977D02*
X16286Y-52300D01*
G01X14327Y-32423D02*
X15650Y-31100D01*
G01X14327Y-29777D02*
X15650Y-31100D01*
G01X10700Y-41600D02*
X12023Y-40277D01*
G01X9377D02*
X10700Y-41600D01*
G01X4600D02*
X5923Y-40277D01*
G01X3277D02*
X4600Y-41600D01*
G01X-462Y47016D02*
X861Y48339D01*
G01D02*
X2184Y49662D01*
G01X-462D02*
X861Y48339D01*
G01D02*
X2184Y47016D01*
G01X977Y56112D02*
X2300Y57435D01*
G01D02*
X3623Y56112D01*
G01X14177D02*
X15500Y57435D01*
G01X2300D02*
X3623Y58758D01*
G01X977D02*
X2300Y57435D01*
G01X14177Y58758D02*
X15500Y57435D01*
G01X277Y60677D02*
X1600Y62000D01*
G01D02*
X2923Y63323D01*
G01X277D02*
X1600Y62000D01*
G01D02*
X2923Y60677D01*
G01X17400Y-97952D02*
Y-94500D01*
G01D02*
Y-91048D01*
G01Y-94500D02*
X21602D01*
G01X16286Y-52300D02*
X17609Y-50977D01*
G01X16286Y-52300D02*
X17609Y-53623D01*
G01X31277Y-33023D02*
X32600Y-31700D01*
G01X31277Y-30377D02*
X32600Y-31700D01*
G01X15650Y-31100D02*
X16973Y-29777D01*
G01X15650Y-31100D02*
X16973Y-32423D01*
G01X30286Y-15323D02*
X31609Y-14000D01*
G01D02*
X32932Y-12677D01*
G01X31609Y-14000D02*
X32932Y-15323D01*
G01X16766Y-18034D02*
X18089Y-16711D01*
G01D02*
X19412Y-15388D01*
G01X16766D02*
X18089Y-16711D01*
G01D02*
X19412Y-18034D01*
G01X15500Y57435D02*
X16823Y56112D01*
G01X15500Y57435D02*
X16823Y58758D01*
G01X37427Y-51023D02*
X38750Y-49700D01*
G01D02*
X40073Y-48377D01*
G01X37427D02*
X38750Y-49700D01*
G01D02*
X40073Y-51023D01*
G01X32600Y-31700D02*
X33923Y-30377D01*
G01X32600Y-31700D02*
X33923Y-33023D01*
G01X42700Y69755D02*
Y75457D01*
G01D02*
Y81159D01*
G01X39248Y75457D02*
X42700D01*
G01D02*
X46152D01*
G01X55777Y-37923D02*
X57100Y-36600D01*
G01D02*
X58423Y-35277D01*
G01X55777D02*
X57100Y-36600D01*
G01D02*
X58423Y-37923D01*
G01X62177Y-16623D02*
X63500Y-15300D01*
G01D02*
X64823Y-16623D01*
G01X75277Y8427D02*
X76600Y9750D01*
G01D02*
X77923Y11073D01*
G01X75277D02*
X76600Y9750D01*
G01D02*
X77923Y8427D01*
G01X70277Y31477D02*
X71600Y32800D01*
G01D02*
X72923Y34123D01*
G01X70277D02*
X71600Y32800D01*
G01D02*
X72923Y31477D01*
G01X65377Y42577D02*
X66700Y43900D01*
G01D02*
X68023Y45223D01*
G01X65377D02*
X66700Y43900D01*
G01D02*
X68023Y42577D01*
G01X92000Y-98894D02*
Y-93900D01*
G01D02*
Y-88906D01*
G01X87006Y-93900D02*
X92000D01*
G01D02*
X96994D01*
G01X87477Y-86722D02*
X88800Y-85399D01*
G01D02*
X90123Y-84076D01*
G01X87477D02*
X88800Y-85399D01*
G01D02*
X90123Y-86722D01*
G01X90477Y-83722D02*
X91800Y-82399D01*
G01D02*
X93123Y-81076D01*
G01X90477D02*
X91800Y-82399D01*
G01D02*
X93123Y-83722D01*
G01X96477Y-77722D02*
X97800Y-76399D01*
G01D02*
X99123Y-75076D01*
G01X97800Y-76399D02*
X99123Y-77722D01*
G01X92000Y-78894D02*
Y-73900D01*
G01D02*
Y-68906D01*
G01X87006Y-73900D02*
X92000D01*
G01D02*
X96994D01*
G01X96477Y-71722D02*
X97800Y-70399D01*
G01D02*
X99123Y-69076D01*
G01X96477D02*
X97800Y-70399D01*
G01D02*
X99123Y-71722D01*
G01X87477Y-68722D02*
X88800Y-67399D01*
G01D02*
X90123Y-66076D01*
G01X87477D02*
X88800Y-67399D01*
G01D02*
X90123Y-68722D01*
G01X93477D02*
X94800Y-67399D01*
G01D02*
X96123Y-66076D01*
G01X93477D02*
X94800Y-67399D01*
G01D02*
X96123Y-68722D01*
G01X87277Y-55893D02*
X88600Y-54570D01*
G01D02*
X89923Y-53247D01*
G01X87277D02*
X88600Y-54570D01*
G01D02*
X89923Y-55893D01*
G01X87274Y-35420D02*
X88597Y-34097D01*
G01D02*
X89920Y-32774D01*
G01X87274D02*
X88597Y-34097D01*
G01D02*
X89920Y-35420D01*
G01X90477Y-41722D02*
X91800Y-40399D01*
G01D02*
X93123Y-39076D01*
G01X90477D02*
X91800Y-40399D01*
G01D02*
X93123Y-41722D01*
G01X87477Y-38722D02*
X88800Y-37399D01*
G01D02*
X90123Y-36076D01*
G01X87477D02*
X88800Y-37399D01*
G01D02*
X90123Y-38722D01*
G01X93477D02*
X94800Y-37399D01*
G01D02*
X96123Y-36076D01*
G01X93477D02*
X94800Y-37399D01*
G01D02*
X96123Y-38722D01*
G01X90477Y-5722D02*
X91800Y-4399D01*
G01D02*
X93123Y-3076D01*
G01X90477D02*
X91800Y-4399D01*
G01D02*
X93123Y-5722D01*
G01X97398Y23500D02*
X101600D01*
G01X112000Y-98894D02*
Y-93900D01*
G01D02*
Y-88906D01*
G01X107006Y-93900D02*
X112000D01*
G01D02*
X116994D01*
G01X99477Y-98722D02*
X100800Y-97399D01*
G01D02*
X102123Y-96076D01*
G01X99477D02*
X100800Y-97399D01*
G01D02*
X102123Y-98722D01*
G01X102477Y-95722D02*
X103800Y-94399D01*
G01D02*
X105123Y-93076D01*
G01X102477D02*
X103800Y-94399D01*
G01D02*
X105123Y-95722D01*
G01X99477Y-92722D02*
X100800Y-91399D01*
G01D02*
X102123Y-92722D01*
G01X112000Y-78894D02*
Y-73900D01*
G01X99477Y-90076D02*
X100800Y-91399D01*
G01X111477Y-86722D02*
X112800Y-85399D01*
G01D02*
X114123Y-84076D01*
G01X111477D02*
X112800Y-85399D01*
G01D02*
X114123Y-86722D01*
G01X108477Y-83722D02*
X109800Y-82399D01*
G01D02*
X111123Y-81076D01*
G01X108477D02*
X109800Y-82399D01*
G01D02*
X111123Y-83722D01*
G01X103577Y-76023D02*
X104900Y-74700D01*
G01D02*
X106223Y-76023D01*
G01X107006Y-73900D02*
X112000D01*
G01D02*
X116994D01*
G01X111477Y-68722D02*
X112800Y-67399D01*
G01D02*
X114123Y-66076D01*
G01X111477D02*
X112800Y-67399D01*
G01D02*
X114123Y-68722D01*
G01X103877Y-70422D02*
X105200Y-69099D01*
G01D02*
X106523Y-67776D01*
G01X103877D02*
X105200Y-69099D01*
G01D02*
X106523Y-70422D01*
G01X104900Y-74700D02*
X106223Y-73377D01*
G01X103577D02*
X104900Y-74700D01*
G01X111477Y-56722D02*
X112800Y-55399D01*
G01D02*
X114123Y-54076D01*
G01X111477D02*
X112800Y-55399D01*
G01D02*
X114123Y-56722D01*
G01X111477Y-50722D02*
X112800Y-49399D01*
G01D02*
X114123Y-48076D01*
G01X111477D02*
X112800Y-49399D01*
G01D02*
X114123Y-50722D01*
G01X111477Y-44722D02*
X112800Y-43399D01*
G01D02*
X114123Y-42076D01*
G01X111477D02*
X112800Y-43399D01*
G01D02*
X114123Y-44722D01*
G01X111477Y-38722D02*
X112800Y-37399D01*
G01D02*
X114123Y-36076D01*
G01X111477D02*
X112800Y-37399D01*
G01D02*
X114123Y-38722D01*
G01X108477Y-35722D02*
X109800Y-34399D01*
G01D02*
X111123Y-33076D01*
G01X108477D02*
X109800Y-34399D01*
G01D02*
X111123Y-35722D01*
G01X111477Y-32722D02*
X112800Y-31399D01*
G01D02*
X114123Y-30076D01*
G01X111477D02*
X112800Y-31399D01*
G01D02*
X114123Y-32722D01*
G01X108477Y-29722D02*
X109800Y-28399D01*
G01D02*
X111123Y-27076D01*
G01X108477D02*
X109800Y-28399D01*
G01D02*
X111123Y-29722D01*
G01X111477Y-26722D02*
X112800Y-25399D01*
G01D02*
X114123Y-26722D01*
G01X112800Y-25399D02*
X114123Y-24076D01*
G01X111477D02*
X112800Y-25399D01*
G01X111477Y-20722D02*
X112800Y-19399D01*
G01D02*
X114123Y-18076D01*
G01X111477D02*
X112800Y-19399D01*
G01D02*
X114123Y-20722D01*
G01X111477Y-14722D02*
X112800Y-13399D01*
G01D02*
X114123Y-12076D01*
G01X111477D02*
X112800Y-13399D01*
G01D02*
X114123Y-14722D01*
G01X108477Y-11722D02*
X109800Y-10399D01*
G01D02*
X111123Y-9076D01*
G01X108477D02*
X109800Y-10399D01*
G01D02*
X111123Y-11722D01*
G01X105577Y6677D02*
X106900Y8000D01*
G01D02*
X108223Y6677D01*
G01X105577Y-7223D02*
X106900Y-5900D01*
G01D02*
X108223Y-4577D01*
G01X105577D02*
X106900Y-5900D01*
G01D02*
X108223Y-7223D01*
G01X111477Y-8722D02*
X112800Y-7399D01*
G01D02*
X114123Y-6076D01*
G01X111477D02*
X112800Y-7399D01*
G01D02*
X114123Y-8722D01*
G01X106900Y8000D02*
X108223Y9323D01*
G01X105577D02*
X106900Y8000D01*
G01X101600Y20048D02*
Y23500D01*
G01D02*
Y26952D01*
G01Y23500D02*
X105802D01*
M02*
