G04 ================== begin FILE IDENTIFICATION RECORD ==================*
G04 Layout Name:  C:/Users/Lewis/Documents/Uni/Data Logger Full/allegro/datalogger.brd*
G04 Film Name:    Silkscreen.top*
G04 File Format:  Gerber RS274X*
G04 File Origin:  Cadence Allegro 17.2-S013*
G04 Origin Date:  Mon Mar 22 22:35:33 2021*
G04 *
G04 Layer:  SURFACE FINISHES/ENIG_TOP*
G04 Layer:  SURFACE FINISHES/ENIG_BOTTOM*
G04 Layer:  SURFACE FINISHES/ENEPIG_TOP*
G04 Layer:  SURFACE FINISHES/ENEPIG_BOTTOM*
G04 Layer:  SURFACE FINISHES/IMMERSION_TIN_TOP*
G04 Layer:  SURFACE FINISHES/IMMERSION_TIN_BOTTOM*
G04 Layer:  SURFACE FINISHES/IMMERSION_SILVER_TOP*
G04 Layer:  SURFACE FINISHES/IMMERSION_SILVER_BOTTOM*
G04 Layer:  SURFACE FINISHES/OSP_TOP*
G04 Layer:  SURFACE FINISHES/OSP_BOTTOM*
G04 Layer:  SURFACE FINISHES/GOLD_HARD_TOP*
G04 Layer:  SURFACE FINISHES/GOLD_HARD_BOTTOM*
G04 Layer:  SURFACE FINISHES/GOLD_SOFT_TOP*
G04 Layer:  SURFACE FINISHES/GOLD_SOFT_BOTTOM*
G04 Layer:  SURFACE FINISHES/TIN_PLATE_TOP*
G04 Layer:  SURFACE FINISHES/TIN_PLATE_BOTTOM*
G04 Layer:  SURFACE FINISHES/CARBON_TOP*
G04 Layer:  SURFACE FINISHES/CARBON_BOTTOM*
G04 Layer:  SURFACE FINISHES/SILVER_INK_TOP*
G04 Layer:  SURFACE FINISHES/SILVER_INK_BOTTOM*
G04 Layer:  RIGID FLEX/ZONE_OUTLINE*
G04 Layer:  RIGID FLEX/BEND_AREA*
G04 Layer:  RIGID FLEX/BEND_LINE*
G04 Layer:  RIGID FLEX/TRANSITION_ZONE*
G04 Layer:  RIGID FLEX/COVERLAY_TOP*
G04 Layer:  RIGID FLEX/COVERLAY_BOTTOM*
G04 Layer:  RIGID FLEX/EMI_SHIELD_TOP*
G04 Layer:  RIGID FLEX/EMI_SHIELD_BOTTOM*
G04 Layer:  RIGID FLEX/STIFFENER_TOP*
G04 Layer:  RIGID FLEX/STIFFENER_BOTTOM*
G04 Layer:  RIGID FLEX/STIFFENER_METAL_TOP*
G04 Layer:  RIGID FLEX/STIFFENER_METAL_BOTTOM*
G04 Layer:  VIA CLASS/GNDS*
G04 Layer:  USER PART NUMBER/SILKSCREEN_TOP*
G04 Layer:  USER PART NUMBER/DISPLAY_TOP*
G04 Layer:  USER PART NUMBER/DISPLAY_BOTTOM*
G04 Layer:  TOLERANCE/SILKSCREEN_TOP*
G04 Layer:  TOLERANCE/DISPLAY_TOP*
G04 Layer:  TOLERANCE/DISPLAY_BOTTOM*
G04 Layer:  REF DES/SILKSCREEN_TOP*
G04 Layer:  REF DES/DISPLAY_TOP*
G04 Layer:  REF DES/DISPLAY_BOTTOM*
G04 Layer:  PIN/GNDS*
G04 Layer:  PACKAGE GEOMETRY/ASSEMBLY_TOP*
G04 Layer:  PACKAGE GEOMETRY/SILKSCREEN_TOP*
G04 Layer:  PACKAGE GEOMETRY/SOLDERMASK_BOTTOM*
G04 Layer:  PACKAGE GEOMETRY/DFA_BOUND_TOP*
G04 Layer:  MANUFACTURING/PHOTOPLOT_OUTLINE*
G04 Layer:  MANUFACTURING/NO_GLOSS_ALL*
G04 Layer:  MANUFACTURING/NO_GLOSS_TOP*
G04 Layer:  MANUFACTURING/NO_GLOSS_BOTTOM*
G04 Layer:  MANUFACTURING/NO_GLOSS_INTERNAL*
G04 Layer:  MANUFACTURING/NCDRILL_LEGEND*
G04 Layer:  MANUFACTURING/NCDRILL_FIGURE*
G04 Layer:  MANUFACTURING/PROBE_TOP*
G04 Layer:  MANUFACTURING/PROBE_BOTTOM*
G04 Layer:  MANUFACTURING/AUTOSILK_TOP*
G04 Layer:  MANUFACTURING/AUTOSILK_BOTTOM*
G04 Layer:  MANUFACTURING/NO_PROBE_TOP*
G04 Layer:  MANUFACTURING/NO_PROBE_BOTTOM*
G04 Layer:  MANUFACTURING/XSECTION_CHART*
G04 Layer:  ETCH/GNDS*
G04 Layer:  DRAWING FORMAT/OUTLINE*
G04 Layer:  DRAWING FORMAT/TITLE_BLOCK*
G04 Layer:  DRAWING FORMAT/TITLE_DATA*
G04 Layer:  DRAWING FORMAT/REVISION_BLOCK*
G04 Layer:  DRAWING FORMAT/REVISION_DATA*
G04 Layer:  DEVICE TYPE/SILKSCREEN_TOP*
G04 Layer:  DEVICE TYPE/DISPLAY_TOP*
G04 Layer:  DEVICE TYPE/DISPLAY_BOTTOM*
G04 Layer:  COMPONENT VALUE/SILKSCREEN_TOP*
G04 Layer:  COMPONENT VALUE/DISPLAY_TOP*
G04 Layer:  COMPONENT VALUE/DISPLAY_BOTTOM*
G04 Layer:  BOARD GEOMETRY/SILKSCREEN_TOP*
G04 Layer:  BOARD GEOMETRY/SOLDERMASK_BOTTOM*
G04 Layer:  BOARD GEOMETRY/DESIGN_OUTLINE*
G04 Layer:  BOARD GEOMETRY/CONSTRUCTION*
G04 *
G04 Offset:    (0.00 0.00)*
G04 Mirror:    No*
G04 Mode:      Positive*
G04 Rotation:  0*
G04 FullContactRelief:  No*
G04 UndefLineWidth:     0.00*
G04 ================== end FILE IDENTIFICATION RECORD ====================*
%FSLAX25Y25*MOIN*%
%IR0*IPPOS*OFA0.00000B0.00000*MIA0B0*SFA1.00000B1.00000*%
%ADD15O,.055X.1*%
%ADD16R,.055X.1*%
%ADD18C,.08*%
%ADD13C,.01772*%
%ADD11C,.08583*%
%ADD19O,.07X.055*%
%ADD20R,.07X.055*%
%AMMACRO17*
1,1,0.0,0.0,.04*
20,1,0.0,0.0,.04,.04,-.04,0.0*
1,1,0.0,.04,-.04*
20,1,0.0,.04,-.04,-.04,-.04,0.0*
1,1,0.0,-.04,-.04*
20,1,0.0,-.04,-.04,0.0,.04,0.0*
1,1,0.0,0.0,.04*
%
%ADD17MACRO17*%
%AMMACRO14*
1,1,0.0,0.0,.0275*
20,1,0.0,0.0,.0275,.0275,-.0275,0.0*
1,1,0.0,.0275,-.0275*
20,1,0.0,.0275,-.0275,-.0275,-.0275,0.0*
1,1,0.0,-.0275,-.0275*
20,1,0.0,-.0275,-.0275,0.0,.0275,0.0*
1,1,0.0,0.0,.0275*
%
%ADD14MACRO14*%
%AMMACRO12*
1,1,0.0,0.0,.00886*
20,1,0.0,0.0,.00886,.00886,-.00886,0.0*
1,1,0.0,.00886,-.00886*
20,1,0.0,.00886,-.00886,-.00886,-.00886,0.0*
1,1,0.0,-.00886,-.00886*
20,1,0.0,-.00886,-.00886,0.0,.00886,0.0*
1,1,0.0,0.0,.00886*
%
%ADD12MACRO12*%
%AMMACRO10*
1,1,0.0,0.0,.042915*
20,1,0.0,0.0,.042915,.042915,-.042915,0.0*
1,1,0.0,.042915,-.042915*
20,1,0.0,.042915,-.042915,-.042915,-.042915,0.0*
1,1,0.0,-.042915,-.042915*
20,1,0.0,-.042915,-.042915,0.0,.042915,0.0*
1,1,0.0,0.0,.042915*
%
%ADD10MACRO10*%
%ADD21C,.01*%
%ADD22C,.005*%
%ADD23C,.006*%
%ADD24C,.00472*%
%ADD25C,.00394*%
%ADD26C,.00984*%
%ADD27C,.00787*%
%ADD32O,.06504X.11004*%
%ADD33O,.09504X.14004*%
%ADD28C,.02776*%
%ADD29C,.03776*%
%ADD30C,.09586*%
%ADD31C,.20004*%
G75*
%LPD*%
G75*
G36*
G01X-75394Y-37746D02*
G03X-73206I1094J-854D01*
G02X-72891Y-37100I315J246D01*
G01X-61000D01*
Y-46500D01*
X-94906Y-80406D01*
X-95000Y-100399D01*
X-139499D01*
Y-42000D01*
X-88400Y-42100D01*
X-83400Y-37100D01*
X-75709D01*
G02X-75394Y-37746I0J-400D01*
G37*
G36*
G01X-84643Y-34098D02*
X-89641Y-39096D01*
X-106309Y-39063D01*
G02X-106486Y-38305I1J400D01*
G03X-103848Y-34050I-2114J4256D01*
G01Y-29550D01*
G03X-113352I-4752J0D01*
G01Y-34050D01*
G03X-110731Y-38297I4751J0D01*
G02X-110911Y-39054I-179J-357D01*
G01X-116270Y-39044D01*
G02X-116450Y-38287I1J400D01*
G03X-113848Y-34050I-2149J4237D01*
G01Y-29550D01*
G03X-123352I-4752J0D01*
G01Y-34050D01*
G03X-120766Y-38279I4751J0D01*
G02X-120950Y-39035I-183J-356D01*
G01X-124294Y-39028D01*
G02X-124552Y-38324I1J400D01*
G03X-123848Y-36800I-1298J1524D01*
G01Y-26800D01*
G03X-125850Y-24798I-2002J0D01*
G01X-131350D01*
G03X-133352Y-26800I0J-2002D01*
G01Y-36800D01*
G03X-132664Y-38310I2001J0D01*
G02X-132927Y-39011I-263J-301D01*
G01X-139499Y-38998D01*
Y89499D01*
X118499D01*
Y2602D01*
X82798D01*
Y-100399D01*
X-91998D01*
X-91919Y-83406D01*
G02X-91224Y-83137I400J-1D01*
G03X-90126Y-80814I1024J937D01*
G02X-90387Y-80132I22J399D01*
G01X-57998Y-47743D01*
Y-34098D01*
X-62293D01*
G02X-62644Y-33506I0J400D01*
G03X-65956I-1656J906D01*
G02X-66307Y-34098I-351J-192D01*
G01X-72489D01*
G02X-72805Y-33453I0J400D01*
G03X-74995I-1095J853D01*
G02X-75311Y-34098I-316J-245D01*
G01X-84643D01*
G37*
G36*
G01X118499Y-400D02*
Y-100399D01*
X85800D01*
Y-400D01*
X118499D01*
G37*
%LPC*%
G75*
G36*
G01X-124316Y-77746D02*
G02X-126617Y-78750I1316J-6154D01*
G03X-126680Y-78060I-230J327D01*
G02X-124780Y-77231I581J1261D01*
G03X-124316Y-77746I380J-124D01*
G37*
G36*
G01X-134688Y-78386D02*
G03X-135203Y-78903I-141J-374D01*
G02X-136599Y-78015I-1296J-496D01*
G03X-136348Y-77329I-28J399D01*
G02X-129569Y-70553I3348J3429D01*
G03X-128884Y-70302I286J279D01*
G02X-127997Y-71694I1385J-96D01*
G03X-128515Y-72209I-144J-373D01*
G02X-134688Y-78386I-4485J-1691D01*
G37*
G36*
G01X-107548Y-74308D02*
G03X-108247Y-74518I-302J-262D01*
G02X-108398Y-72561I-4753J618D01*
G03X-107675Y-72662I384J112D01*
G02X-107548Y-74308I1176J-737D01*
G37*
G36*
G01X-69311Y-44412D02*
G03X-69524Y-44582I-15J-199D01*
G02X-71244Y-42418I-1867J282D01*
G03X-71031Y-42248I15J199D01*
G02X-69311Y-44412I1867J-282D01*
G37*
G36*
G01X-117115Y-97499D02*
G02X-118003Y-96103I-1384J100D01*
G03X-117486Y-95588I143J374D01*
G02X-111309Y-89415I4486J1688D01*
G03X-110794Y-88897I142J374D01*
G02X-109402Y-89784I1296J498D01*
G03X-109653Y-90469I28J-399D01*
G02X-116429Y-97248I-3347J-3431D01*
G03X-117115Y-97499I-287J-279D01*
G37*
G36*
G01X64653Y-14195D02*
G03X64614Y-14473I122J-159D01*
G02X62386I-1114J-827D01*
G03X62347Y-14195I-161J119D01*
G02X64653I1153J1495D01*
G37*
G36*
G01X96928Y39936D02*
G02X95100Y38748I-1829J814D01*
G01X88100D01*
G02X86098Y40750I0J2002D01*
G01Y46250D01*
G02X88100Y48252I2002J0D01*
G01X95100D01*
G02X96928Y47064I-1J-2002D01*
G03X97570Y46938I365J163D01*
G02X100850Y48252I3280J-3437D01*
G01X102350D01*
G02Y38748I0J-4752D01*
G01X100850D01*
G02X97570Y40062I0J4751D01*
G03X96928Y39936I-277J-289D01*
G37*
G36*
G01X-133352Y15200D02*
Y25200D01*
G02X-131350Y27202I2002J0D01*
G01X-125850D01*
G02X-123848Y25200I0J-2002D01*
G01Y15200D01*
G02X-125850Y13198I-2002J0D01*
G01X-131350D01*
G02X-133352Y15200I0J2002D01*
G37*
G36*
G01Y-10800D02*
Y-800D01*
G02X-131350Y1202I2002J0D01*
G01X-125850D01*
G02X-123848Y-800I0J-2002D01*
G01Y-10800D01*
G02X-125850Y-12802I-2002J0D01*
G01X-131350D01*
G02X-133352Y-10800I0J2002D01*
G37*
G36*
G01X67948Y80457D02*
G02X69950Y82458I2002J-1D01*
G01X75452D01*
G02X77452Y80457I-1J-2001D01*
G01Y70457D01*
G02X75450Y68456I-2002J1D01*
G01X69948D01*
G02X67948Y70457I1J2001D01*
G01Y80457D01*
G37*
G36*
G01X-39291Y-11100D02*
G02X-42067I-1388J-1280D01*
G02X-39291I1388J1280D01*
G37*
G36*
G01X-19079Y-16484D02*
G03X-19266Y-16671I13J-200D01*
G02X-21197Y-14663I-1884J121D01*
G01X-21089Y-14554D01*
X-21084Y-14479D01*
G02X-17368Y-14143I1884J-121D01*
G03X-16686Y-14318I388J96D01*
G02X-16513Y-14153I1387J-1281D01*
G01X-16455Y-14105D01*
X-16432Y-13956D01*
X-16472Y-13893D01*
G02X-14128I1172J743D01*
G01X-14168Y-13956D01*
X-14145Y-14105D01*
X-14087Y-14153D01*
G02X-17132Y-16057I-1213J-1447D01*
G03X-17814Y-15882I-388J-96D01*
G02X-19079Y-16484I-1386J1282D01*
G37*
G36*
G01X-22696Y52492D02*
G02X-23898Y51277I596J-1792D01*
G03X-24404Y51779I-380J123D01*
G02X-23202Y52994I-596J1792D01*
G03X-22696Y52492I380J-123D01*
G37*
G36*
G01X12070Y-87185D02*
G02X8150Y-89252I-3920J2684D01*
G01X6650D01*
G02Y-79748I0J4752D01*
G01X8150D01*
G02X12070Y-81815I0J-4751D01*
G03X12730I330J226D01*
G02X16650Y-79748I3920J-2684D01*
G01X18150D01*
G02Y-89252I0J-4752D01*
G01X16650D01*
G02X12730Y-87185I0J4751D01*
G03X12070I-330J-226D01*
G37*
G36*
G01X1733Y-75119D02*
G03X1916Y-74902I-16J200D01*
G02X6650Y-69748I4734J403D01*
G01X8150D01*
G02X12070Y-71815I0J-4751D01*
G03X12730I330J226D01*
G02X16650Y-69748I3920J-2684D01*
G01X18150D01*
G02Y-79252I0J-4752D01*
G01X16650D01*
G02X12730Y-77185I0J4751D01*
G03X12070I-330J-226D01*
G02X8150Y-79252I-3920J2684D01*
G01X6650D01*
G02X3633Y-78171I0J4751D01*
G03X3351Y-78198I-128J-154D01*
G02X1733Y-75119I-1459J1198D01*
G37*
G36*
G01X13370Y-67938D02*
G03X12728Y-68064I-277J-289D01*
G02X10900Y-69252I-1829J814D01*
G01X3900D01*
G02X1898Y-67250I0J2002D01*
G01Y-61750D01*
G02X3900Y-59748I2002J0D01*
G01X10900D01*
G02X12728Y-60936I-1J-2002D01*
G03X13370Y-61062I365J163D01*
G02X16650Y-59748I3280J-3437D01*
G01X18150D01*
G02Y-69252I0J-4752D01*
G01X16650D01*
G02X13370Y-67938I0J4751D01*
G37*
G36*
G01X32794Y-12675D02*
G03X32742Y-13198I274J-291D01*
G02X30415Y-13291I-1133J-802D01*
G03X30321Y-12775I-344J204D01*
G02X30039Y-10105I1179J1474D01*
G02X32761Y-9895I1261J1405D01*
G02X32794Y-12675I-1261J-1405D01*
G37*
G36*
G01X31484Y-1492D02*
G03X31828Y-1929I398J-41D01*
G02X29696Y-3608I-254J-1871D01*
G03X29352Y-3171I-398J41D01*
G02X31484Y-1492I254J1871D01*
G37*
G36*
G01X-511Y30379D02*
G03X-523Y30653I-152J131D01*
G02X2229Y30767I1323J1347D01*
G03X2241Y30493I152J-131D01*
G02X-511Y30379I-1323J-1347D01*
G37*
G36*
G01X96270Y30815D02*
G02X92350Y28748I-3921J2685D01*
G01X90850D01*
G02Y38252I0J4752D01*
G01X92350D01*
G02X96270Y36185I-1J-4752D01*
G03X96930I330J226D01*
G02X100850Y38252I3921J-2685D01*
G01X102350D01*
G02Y28748I0J-4752D01*
G01X100850D01*
G02X96930Y30815I1J4752D01*
G03X96270I-330J-226D01*
G37*
G36*
G01X18150Y-97752D02*
X16650D01*
G02Y-91248I0J3252D01*
G01X18150D01*
G02Y-97752I0J-3252D01*
G37*
G36*
G01X6650Y-89748D02*
X8150D01*
G02Y-99252I0J-4752D01*
G01X6650D01*
G02Y-89748I0J4752D01*
G37*
G36*
G01X92350Y18748D02*
X90850D01*
G02Y28252I0J4752D01*
G01X92350D01*
G02Y18748I0J-4752D01*
G37*
G36*
G01X102350Y20248D02*
X100850D01*
G02Y26752I0J3252D01*
G01X102350D01*
G02Y20248I0J-3252D01*
G37*
G36*
G01X-70824Y-71488D02*
G03X-70308Y-71376I194J350D01*
G02X-70127Y-73834I1517J-1124D01*
G03X-70654Y-73800I-283J-283D01*
G02X-70824Y-71488I-846J1100D01*
G37*
G36*
G01X113456Y-68622D02*
G03X113519Y-69354I189J-352D01*
G02X111629Y-69121I-1520J-4546D01*
G03X111867Y-68427I-31J399D01*
G02X113456Y-68622I933J1028D01*
G37*
G36*
G01X106680Y-40750D02*
G03X106120I-280J-285D01*
G02Y-38050I-1320J1350D01*
G03X106680I280J285D01*
G02Y-40750I1320J-1350D01*
G37*
G36*
G01X95814Y-76802D02*
G02X96729Y-74679I-3814J2902D01*
G03X97275Y-75114I395J-65D01*
G02X96506Y-76900I525J-1285D01*
G03X95814Y-76802I-373J-144D01*
G37*
G36*
G01X102034Y-90764D02*
G02X99825Y-90411I-1234J-635D01*
G03X99691Y-89754I-281J285D01*
G02X107877Y-81650I2309J5854D01*
G03X108597Y-81706I373J143D01*
G02X108940Y-83489I1203J-693D01*
G03X108292Y-83808I-248J-314D01*
G02X102367Y-90182I-6292J-92D01*
G03X102034Y-90764I23J-399D01*
G37*
G54D32*
X-98600Y20200D03*
Y-31800D03*
Y-5800D03*
X42700Y75457D03*
G54D33*
X62700D03*
X52700D03*
X-118600Y-5800D03*
Y20200D03*
X-108600Y-5800D03*
Y20200D03*
G54D28*
X-63499Y-39199D03*
X-119999Y-68899D03*
X-64191Y-44300D03*
X-75209D03*
X-82609Y-45300D03*
X-95200Y-67709D03*
X-82350Y-55550D03*
X-99200Y-54591D03*
X-114800Y-45300D03*
X-118000Y-64325D03*
X-119987Y-52547D03*
X-79499Y-40399D03*
X-121499Y-46399D03*
X-127499D03*
X-133499D03*
X-124499Y-49399D03*
X-130499D03*
X-136499D03*
X-127499Y-52399D03*
X-133499D03*
X-130499Y-55399D03*
X-136499D03*
X-127499Y-58399D03*
X-133499D03*
X-130499Y-61399D03*
X-136499D03*
X-133499Y-64399D03*
X-130499Y-67399D03*
X-136499D03*
X-94499Y-73399D03*
X-97499Y-76399D03*
X-103499D03*
X-100499Y-79399D03*
X-106499D03*
X-103499Y-82399D03*
X-109499D03*
X-133499D03*
X-100499Y-85399D03*
X-106499D03*
X-112499D03*
X-136499D03*
X-103499Y-88399D03*
X-100499Y-91399D03*
X-106499D03*
X-103499Y-94399D03*
X-121499D03*
X-100499Y-97399D03*
X-106499D03*
X-124499D03*
X-128000Y-64325D03*
X-120099Y-76199D03*
X-94399Y-54199D03*
X-95500Y-51100D03*
X106900Y8000D03*
X16286Y-52300D03*
X-36300Y-42190D03*
X2300Y57435D03*
X15500D03*
X-89797Y56500D03*
X2582Y63800D03*
X-2214Y-27600D03*
X-77200Y67000D03*
X76600Y9750D03*
X66700Y43900D03*
X71600Y32800D03*
X57100Y-36600D03*
X38750Y-49700D03*
X32600Y-31700D03*
X18089Y-16711D03*
X861Y48339D03*
X-2000Y55400D03*
X15650Y-31100D03*
X10700Y-41600D03*
X4600D03*
X-8356Y62856D03*
X-13300Y15880D03*
X-9600Y-51800D03*
X-28900Y81559D03*
X-38400Y69500D03*
X-30900Y52800D03*
X-38373Y42473D03*
X-39500Y14461D03*
X-36900Y1691D03*
X-51600Y30100D03*
X-77300Y39700D03*
X-63300Y12809D03*
X-65200Y-82200D03*
X-82615Y83400D03*
X-115300Y53700D03*
X-104600Y47800D03*
X105200Y-69099D03*
X106900Y-5900D03*
X88600Y-54570D03*
X91800Y-4399D03*
X112800Y-7399D03*
X109800Y-10399D03*
X112800Y-13399D03*
Y-19399D03*
Y-25399D03*
X109800Y-28399D03*
X112800Y-31399D03*
X109800Y-34399D03*
X112800Y-37399D03*
X94800D03*
X88800D03*
X91800Y-40399D03*
X112800Y-43399D03*
Y-49399D03*
Y-55399D03*
X94800Y-67399D03*
X88800D03*
X97800Y-70399D03*
X91800Y-82399D03*
X112800Y-85399D03*
X88800D03*
X103800Y-94399D03*
X100800Y-97399D03*
X88597Y-34097D03*
X104900Y-74700D03*
G54D29*
X-82200Y-51600D03*
X-99800Y-70391D03*
X-101500Y-51100D03*
X28700Y-41300D03*
X-63309Y8991D03*
X-36300Y-28410D03*
X-56600Y-22600D03*
X22135Y55765D03*
X-30800Y75500D03*
X76500Y-1000D03*
X62700Y43900D03*
X62900Y33250D03*
X66100Y17000D03*
X39600Y-16774D03*
X39550Y-32091D03*
X54200Y-44900D03*
X17834Y29300D03*
X19763Y34400D03*
X24000Y30100D03*
X34900Y5600D03*
X19350Y-31100D03*
X30300Y-27200D03*
X6000Y45100D03*
X12200Y34400D03*
X9900Y30100D03*
X-1143Y18943D03*
X1250Y7150D03*
X10214Y18900D03*
X14947Y-11388D03*
X-5000Y45600D03*
X-12100Y30700D03*
X-12500Y-2700D03*
X-9900Y-28200D03*
X-30000Y68900D03*
X-27250Y28000D03*
X-30200Y42100D03*
X-30000Y5509D03*
X-27200Y16300D03*
X-40700Y-69000D03*
X-35600Y-62337D03*
X-26225Y-62325D03*
X-57900Y27200D03*
X-45582Y-69281D03*
X-60400Y-54463D03*
X-55400Y-56431D03*
X108509Y-15291D03*
X102600Y-16774D03*
G54D30*
X-133000Y-93900D03*
X92000D03*
X112000D03*
G54D31*
X-48000Y-83900D03*
X62000D03*
X99000Y70000D03*
%LPD*%
G75*
G36*
G01X-138472Y-99372D02*
Y-68428D01*
X-107528D01*
Y-99372D01*
X-138472D01*
G37*
G36*
G01X-139191Y-18123D02*
Y6523D01*
X-88009D01*
Y-18123D01*
X-139191D01*
G37*
G36*
G01Y7877D02*
Y32523D01*
X-88009D01*
Y7877D01*
X-139191D01*
G37*
G36*
G01X-135420Y70118D02*
Y49882D01*
X-135065D01*
Y47972D01*
X-120735D01*
Y49882D01*
X-120380D01*
Y70118D01*
X-120735D01*
Y72028D01*
X-135065D01*
Y70118D01*
X-135420D01*
G37*
G36*
G01X-110497Y54639D02*
Y71961D01*
X-120103D01*
Y54639D01*
X-110497D01*
G37*
G36*
G01X-85758Y39128D02*
X-78672D01*
Y42592D01*
X-85758D01*
Y39128D01*
G37*
G36*
G01X-81552Y42989D02*
X-73048D01*
Y44091D01*
X-68835D01*
Y55509D01*
X-73048D01*
Y56611D01*
X-81552D01*
Y55509D01*
X-85765D01*
Y44091D01*
X-81552D01*
Y42989D01*
G37*
G36*
G01X-89532Y53343D02*
Y46257D01*
X-86068D01*
Y53343D01*
X-89532D01*
G37*
G36*
G01X-81552Y69989D02*
X-73048D01*
Y71091D01*
X-68835D01*
Y82509D01*
X-73048D01*
Y83611D01*
X-81552D01*
Y82509D01*
X-85765D01*
Y71091D01*
X-81552D01*
Y69989D01*
G37*
G36*
G01X-89532Y80343D02*
Y73257D01*
X-86068D01*
Y80343D01*
X-89532D01*
G37*
G36*
G01X-85758Y66128D02*
X-78672D01*
Y69592D01*
X-85758D01*
Y66128D01*
G37*
G36*
G01X-75928Y39128D02*
X-68842D01*
Y42592D01*
X-75928D01*
Y39128D01*
G37*
G36*
G01X-68517Y57083D02*
Y49997D01*
X-65053D01*
Y57083D01*
X-68517D01*
G37*
G36*
G01Y49603D02*
Y42517D01*
X-65053D01*
Y49603D01*
X-68517D01*
G37*
G36*
G01Y76603D02*
Y69517D01*
X-65053D01*
Y76603D01*
X-68517D01*
G37*
G36*
G01X-75928Y66128D02*
X-68842D01*
Y69592D01*
X-75928D01*
Y66128D01*
G37*
G36*
G01X-68517Y84083D02*
Y76997D01*
X-65053D01*
Y84083D01*
X-68517D01*
G37*
G36*
G01X-58143Y-21732D02*
X-51057D01*
Y-18268D01*
X-58143D01*
Y-21732D01*
G37*
G36*
G01X-62432Y-7457D02*
Y-14543D01*
X-58968D01*
Y-7457D01*
X-62432D01*
G37*
G36*
G01Y14443D02*
Y7357D01*
X-58968D01*
Y14443D01*
X-62432D01*
G37*
G36*
G01X-58968Y57D02*
Y7143D01*
X-62432D01*
Y57D01*
X-58968D01*
G37*
G36*
G01Y14657D02*
Y21743D01*
X-62432D01*
Y14657D01*
X-58968D01*
G37*
G36*
G01X-49966Y28932D02*
X-57052D01*
Y25468D01*
X-49966D01*
Y28932D01*
G37*
G36*
G01X-64752Y61217D02*
X-46248D01*
Y38383D01*
X-64752D01*
Y61217D01*
G37*
G36*
G01Y88217D02*
X-46248D01*
Y65383D01*
X-64752D01*
Y88217D01*
G37*
G36*
G01X-41232Y7143D02*
Y57D01*
X-37768D01*
Y7143D01*
X-41232D01*
G37*
G36*
G01Y21743D02*
Y14657D01*
X-37768D01*
Y21743D01*
X-41232D01*
G37*
G36*
G01X-151Y-86043D02*
Y-52579D01*
X-24955D01*
Y-86043D01*
X-151D01*
G37*
G36*
G01X-29768Y52925D02*
Y60011D01*
X-33232D01*
Y52925D01*
X-29768D01*
G37*
G36*
G01Y79925D02*
Y87011D01*
X-33232D01*
Y79925D01*
X-29768D01*
G37*
G36*
G01X-1419Y-29332D02*
X6219D01*
Y-25868D01*
X-1419D01*
Y-29332D01*
G37*
G36*
G01X-11632Y-29581D02*
Y-37219D01*
X-8168D01*
Y-29581D01*
X-11632D01*
G37*
G36*
G01X-14432Y-11181D02*
Y-18819D01*
X-10968D01*
Y-11181D01*
X-14432D01*
G37*
G36*
G01X3519Y47332D02*
X-4119D01*
Y43868D01*
X3519D01*
Y47332D01*
G37*
G36*
G01X23448Y86284D02*
X-8048D01*
Y83135D01*
X-12576D01*
Y66206D01*
X-8048D01*
Y64631D01*
X23448D01*
Y66206D01*
X27976D01*
Y83135D01*
X23448D01*
Y86284D01*
G37*
G36*
G01X15032Y-43569D02*
Y-35931D01*
X11568D01*
Y-43569D01*
X15032D01*
G37*
G36*
G01X3732D02*
Y-35931D01*
X268D01*
Y-43569D01*
X3732D01*
G37*
G36*
G01X15120Y-49977D02*
Y-34623D01*
X42680D01*
Y-49977D01*
X15120D01*
G37*
G36*
G01X13681Y-30232D02*
X21319D01*
Y-26768D01*
X13681D01*
Y-30232D01*
G37*
G36*
G01X3831Y-39432D02*
X11469D01*
Y-35968D01*
X3831D01*
Y-39432D01*
G37*
G36*
G01X3073Y62868D02*
Y56332D01*
X4766D01*
Y55269D01*
X13034D01*
Y56332D01*
X14727D01*
Y62868D01*
X13034D01*
Y63931D01*
X4766D01*
Y62868D01*
X3073D01*
G37*
G36*
G01X25081Y-54032D02*
X32719D01*
Y-50568D01*
X25081D01*
Y-54032D01*
G37*
G36*
G01X17081D02*
X24719D01*
Y-50568D01*
X17081D01*
Y-54032D01*
G37*
G36*
G01X83291Y87780D02*
Y63134D01*
X32109D01*
Y87780D01*
X83291D01*
G37*
G36*
G01X40719Y-50568D02*
X33081D01*
Y-54032D01*
X40719D01*
Y-50568D01*
G37*
G36*
G01X43391Y-32539D02*
Y-49861D01*
X44966D01*
Y-51043D01*
X53234D01*
Y-49861D01*
X54809D01*
Y-32539D01*
X53234D01*
Y-31357D01*
X44966D01*
Y-32539D01*
X43391D01*
G37*
G36*
G01X33881Y-28932D02*
X41519D01*
Y-25468D01*
X33881D01*
Y-28932D01*
G37*
G36*
G01Y-32532D02*
X41519D01*
Y-29068D01*
X33881D01*
Y-32532D01*
G37*
G36*
G01X55368Y-37381D02*
Y-45019D01*
X58832D01*
Y-37381D01*
X55368D01*
G37*
G36*
G01X62632Y-17719D02*
Y-10081D01*
X59168D01*
Y-17719D01*
X62632D01*
G37*
G36*
G01X60391Y21861D02*
Y4539D01*
X61966D01*
Y3357D01*
X70234D01*
Y4539D01*
X71809D01*
Y21861D01*
X70234D01*
Y23043D01*
X61966D01*
Y21861D01*
X60391D01*
G37*
G36*
G01X62032Y27581D02*
Y35219D01*
X58568D01*
Y27581D01*
X62032D01*
G37*
G36*
G01X75732Y4081D02*
Y11719D01*
X72268D01*
Y4081D01*
X75732D01*
G37*
G36*
G01X72268Y2719D02*
Y-4919D01*
X75732D01*
Y2719D01*
X72268D01*
G37*
G36*
G01X86528Y-99372D02*
Y-68428D01*
X117472D01*
Y-99372D01*
X86528D01*
G37*
G36*
G01X2400Y-99500D02*
Y-59500D01*
X22400D01*
Y-99500D01*
X2400D01*
G37*
G54D10*
X-133000Y-93900D03*
D03*
Y-73900D03*
D03*
X-123000Y-83900D03*
D03*
X-113000Y-93900D03*
D03*
Y-73900D03*
D03*
X92000Y-93900D03*
D03*
Y-73900D03*
D03*
X102000Y-83900D03*
D03*
X112000Y-93900D03*
D03*
Y-73900D03*
D03*
G54D20*
X7400Y-64500D03*
X91600Y43500D03*
G54D11*
X-133000Y-93900D03*
Y-73900D03*
X-123000Y-83900D03*
X-113000Y-93900D03*
Y-73900D03*
X92000Y-93900D03*
Y-73900D03*
X102000Y-83900D03*
X112000Y-93900D03*
Y-73900D03*
G54D21*
G01X-137994Y-93900D02*
X-133000D01*
G01X-137822Y-86722D02*
X-136499Y-85399D01*
G01D02*
X-135176Y-84076D01*
G01X-137822D02*
X-136499Y-85399D01*
G01D02*
X-135176Y-86722D01*
G01X-134822Y-83722D02*
X-133499Y-82399D01*
G01D02*
X-132176Y-81076D01*
G01X-134822D02*
X-133499Y-82399D01*
G01D02*
X-132176Y-83722D01*
G01X-137822Y-80722D02*
X-136499Y-79399D01*
G01X-137822Y-78076D02*
X-136499Y-79399D01*
G01D02*
X-135176Y-80722D01*
G01X-137994Y-73900D02*
X-133000D01*
G01X-137822Y-68722D02*
X-136499Y-67399D01*
G01D02*
X-135176Y-66076D01*
G01X-137822D02*
X-136499Y-67399D01*
G01D02*
X-135176Y-68722D01*
G01X-134822Y-65722D02*
X-133499Y-64399D01*
G01D02*
X-132176Y-63076D01*
G01X-134822D02*
X-133499Y-64399D01*
G01D02*
X-132176Y-65722D01*
G01X-137822Y-62722D02*
X-136499Y-61399D01*
G01D02*
X-135176Y-60076D01*
G01X-137822D02*
X-136499Y-61399D01*
G01D02*
X-135176Y-62722D01*
G01X-134822Y-59722D02*
X-133499Y-58399D01*
G01D02*
X-132176Y-57076D01*
G01X-134822D02*
X-133499Y-58399D01*
G01D02*
X-132176Y-59722D01*
G01X-137822Y-56722D02*
X-136499Y-55399D01*
G01D02*
X-135176Y-54076D01*
G01X-137822D02*
X-136499Y-55399D01*
G01D02*
X-135176Y-56722D01*
G01X-134822Y-53722D02*
X-133499Y-52399D01*
G01D02*
X-132176Y-51076D01*
G01X-134822D02*
X-133499Y-52399D01*
G01D02*
X-132176Y-53722D01*
G01X-137822Y-50722D02*
X-136499Y-49399D01*
G01D02*
X-135176Y-48076D01*
G01X-137822D02*
X-136499Y-49399D01*
G01D02*
X-135176Y-50722D01*
G01X-134822Y-47722D02*
X-133499Y-46399D01*
G01D02*
X-132176Y-45076D01*
G01X-134822D02*
X-133499Y-46399D01*
G01D02*
X-132176Y-47722D01*
G01X-133000Y-98894D02*
Y-93900D01*
G01D02*
Y-88906D01*
G01Y-93900D02*
X-128006D01*
G01X-125822Y-98722D02*
X-124499Y-97399D01*
G01D02*
X-123176Y-96076D01*
G01X-125822D02*
X-124499Y-97399D01*
G01D02*
X-123176Y-98722D01*
G01X-119822D02*
X-118499Y-97399D01*
G01X-119822Y-96076D02*
X-118499Y-97399D01*
G01D02*
X-117176Y-98722D01*
G01X-122822Y-95722D02*
X-121499Y-94399D01*
G01D02*
X-120176Y-93076D01*
G01X-122822D02*
X-121499Y-94399D01*
G01D02*
X-120176Y-95722D01*
G01X-117994Y-93900D02*
X-113000D01*
G01X-133000Y-78894D02*
Y-73900D01*
G01X-121422Y-77522D02*
X-120099Y-76199D01*
G01D02*
X-118776Y-74876D01*
G01X-121422D02*
X-120099Y-76199D01*
G01D02*
X-118776Y-77522D01*
G01X-127422Y-78122D02*
X-126099Y-76799D01*
G01D02*
X-124776Y-75476D01*
G01X-127422D02*
X-126099Y-76799D01*
G01X-119323Y-65648D02*
X-118000Y-64325D01*
G01D02*
X-116677Y-63002D01*
G01X-119323D02*
X-118000Y-64325D01*
G01D02*
X-116677Y-65648D01*
G01X-117994Y-73900D02*
X-113000D01*
G01X-129323Y-65648D02*
X-128000Y-64325D01*
G01D02*
X-126677Y-63002D01*
G01X-129323D02*
X-128000Y-64325D01*
G01D02*
X-126677Y-65648D01*
G01X-133000Y-73900D02*
Y-68906D01*
G01Y-73900D02*
X-128006D01*
G01X-127499Y-70399D02*
X-126176Y-69076D01*
G01X-128822D02*
X-127499Y-70399D01*
G01D02*
X-126176Y-71722D01*
G01X-131822Y-68722D02*
X-130499Y-67399D01*
G01D02*
X-129176Y-66076D01*
G01X-131822D02*
X-130499Y-67399D01*
G01D02*
X-129176Y-68722D01*
G01X-131822Y-62722D02*
X-130499Y-61399D01*
G01D02*
X-129176Y-60076D01*
G01X-131822D02*
X-130499Y-61399D01*
G01D02*
X-129176Y-62722D01*
G01X-128822Y-59722D02*
X-127499Y-58399D01*
G01D02*
X-126176Y-57076D01*
G01X-128822D02*
X-127499Y-58399D01*
G01D02*
X-126176Y-59722D01*
G01X-121322Y-70222D02*
X-119999Y-68899D01*
G01D02*
X-118676Y-67576D01*
G01X-121322D02*
X-119999Y-68899D01*
G01D02*
X-118676Y-70222D01*
G01X-121310Y-53870D02*
X-119987Y-52547D01*
G01D02*
X-118664Y-51224D01*
G01X-121310D02*
X-119987Y-52547D01*
G01D02*
X-118664Y-53870D01*
G01X-131822Y-56722D02*
X-130499Y-55399D01*
G01D02*
X-129176Y-54076D01*
G01X-131822D02*
X-130499Y-55399D01*
G01D02*
X-129176Y-56722D01*
G01X-128822Y-53722D02*
X-127499Y-52399D01*
G01D02*
X-126176Y-51076D01*
G01X-128822D02*
X-127499Y-52399D01*
G01D02*
X-126176Y-53722D01*
G01X-131822Y-50722D02*
X-130499Y-49399D01*
G01D02*
X-129176Y-48076D01*
G01X-131822D02*
X-130499Y-49399D01*
G01D02*
X-129176Y-50722D01*
G01X-125822D02*
X-124499Y-49399D01*
G01D02*
X-123176Y-48076D01*
G01X-125822D02*
X-124499Y-49399D01*
G01D02*
X-123176Y-50722D01*
G01X-128822Y-47722D02*
X-127499Y-46399D01*
G01D02*
X-126176Y-45076D01*
G01X-128822D02*
X-127499Y-46399D01*
G01D02*
X-126176Y-47722D01*
G01X-122822D02*
X-121499Y-46399D01*
G01D02*
X-120176Y-45076D01*
G01X-122822D02*
X-121499Y-46399D01*
G01D02*
X-120176Y-47722D01*
G01X-107822Y-98722D02*
X-106499Y-97399D01*
G01D02*
X-105176Y-96076D01*
G01X-107822D02*
X-106499Y-97399D01*
G01D02*
X-105176Y-98722D01*
G01X-101822D02*
X-100499Y-97399D01*
G01D02*
X-99176Y-96076D01*
G01X-101822D02*
X-100499Y-97399D01*
G01D02*
X-99176Y-98722D01*
G01X-104822Y-95722D02*
X-103499Y-94399D01*
G01D02*
X-102176Y-93076D01*
G01X-104822D02*
X-103499Y-94399D01*
G01D02*
X-102176Y-95722D01*
G01X-107822Y-92722D02*
X-106499Y-91399D01*
G01D02*
X-105176Y-92722D01*
G01X-101822D02*
X-100499Y-91399D01*
G01X-113000Y-98894D02*
Y-93900D01*
G01D02*
Y-88906D01*
G01Y-93900D02*
X-108006D01*
G01X-113000Y-78894D02*
Y-73900D01*
G01X-106499Y-91399D02*
X-105176Y-90076D01*
G01X-107822D02*
X-106499Y-91399D01*
G01X-100499D02*
X-99176Y-90076D01*
G01X-101822D02*
X-100499Y-91399D01*
G01D02*
X-99176Y-92722D01*
G01X-109499Y-88399D02*
X-108176Y-87076D01*
G01X-110822D02*
X-109499Y-88399D01*
G01D02*
X-108176Y-89722D01*
G01X-104822D02*
X-103499Y-88399D01*
G01D02*
X-102176Y-87076D01*
G01X-104822D02*
X-103499Y-88399D01*
G01D02*
X-102176Y-89722D01*
G01X-113822Y-86722D02*
X-112499Y-85399D01*
G01D02*
X-111176Y-84076D01*
G01X-113822D02*
X-112499Y-85399D01*
G01D02*
X-111176Y-86722D01*
G01X-107822D02*
X-106499Y-85399D01*
G01D02*
X-105176Y-84076D01*
G01X-107822D02*
X-106499Y-85399D01*
G01D02*
X-105176Y-86722D01*
G01X-101822D02*
X-100499Y-85399D01*
G01D02*
X-99176Y-84076D01*
G01X-101822D02*
X-100499Y-85399D01*
G01D02*
X-99176Y-86722D01*
G01X-110822Y-83722D02*
X-109499Y-82399D01*
G01D02*
X-108176Y-81076D01*
G01X-110822D02*
X-109499Y-82399D01*
G01D02*
X-108176Y-83722D01*
G01X-104822D02*
X-103499Y-82399D01*
G01D02*
X-102176Y-81076D01*
G01X-104822D02*
X-103499Y-82399D01*
G01D02*
X-102176Y-83722D01*
G01X-107822Y-80722D02*
X-106499Y-79399D01*
G01D02*
X-105176Y-78076D01*
G01X-107822D02*
X-106499Y-79399D01*
G01D02*
X-105176Y-80722D01*
G01X-101822D02*
X-100499Y-79399D01*
G01D02*
X-99176Y-78076D01*
G01X-101822D02*
X-100499Y-79399D01*
G01D02*
X-99176Y-80722D01*
G01X-104822Y-77722D02*
X-103499Y-76399D01*
G01D02*
X-102176Y-75076D01*
G01X-104822D02*
X-103499Y-76399D01*
G01D02*
X-102176Y-77722D01*
G01X-113000Y-73900D02*
Y-68906D01*
G01X-107822Y-74722D02*
X-106499Y-73399D01*
G01D02*
X-105176Y-72076D01*
G01X-107822D02*
X-106499Y-73399D01*
G01D02*
X-105176Y-74722D01*
G01X-100523Y-55914D02*
X-99200Y-54591D01*
G01X-100523Y-53268D02*
X-99200Y-54591D01*
G01X-116123Y-46623D02*
X-114800Y-45300D01*
G01D02*
X-113477Y-43977D01*
G01X-116123D02*
X-114800Y-45300D01*
G01D02*
X-113477Y-46623D01*
G01X-102052Y-31800D02*
X-98600D01*
G01X-102052Y-5800D02*
X-98600D01*
G01X-102052Y20200D02*
X-98600D01*
G01X-116623Y52377D02*
X-115300Y53700D01*
G01D02*
X-113977Y55023D01*
G01X-116623D02*
X-115300Y53700D01*
G01D02*
X-113977Y52377D01*
G01X-105923Y46477D02*
X-104600Y47800D01*
G01D02*
X-103277Y49123D01*
G01X-105923D02*
X-104600Y47800D01*
G01D02*
X-103277Y46477D01*
G01X-91523Y-83523D02*
X-90200Y-82200D01*
G01D02*
X-88877Y-80877D01*
G01X-90200Y-82200D02*
X-88877Y-83523D01*
G01X-98822Y-77722D02*
X-97499Y-76399D01*
G01D02*
X-96176Y-75076D01*
G01X-98822D02*
X-97499Y-76399D01*
G01D02*
X-96176Y-77722D01*
G01X-96523Y-69032D02*
X-95200Y-67709D01*
G01D02*
X-93877Y-66386D01*
G01X-96523D02*
X-95200Y-67709D01*
G01D02*
X-93877Y-69032D01*
G01X-95822Y-74722D02*
X-94499Y-73399D01*
G01D02*
X-93176Y-72076D01*
G01X-95822D02*
X-94499Y-73399D01*
G01D02*
X-93176Y-74722D01*
G01X-83932Y-46623D02*
X-82609Y-45300D01*
G01X-83932Y-43977D02*
X-82609Y-45300D01*
G01X-83673Y-56873D02*
X-82350Y-55550D01*
G01X-83673Y-54227D02*
X-82350Y-55550D01*
G01X-99200Y-54591D02*
X-97877Y-53268D01*
G01X-99200Y-54591D02*
X-97877Y-55914D01*
G01X-96823Y-52423D02*
X-95500Y-51100D01*
G01D02*
X-94177Y-49777D01*
G01X-96823D02*
X-95500Y-51100D01*
G01D02*
X-94177Y-52423D01*
G01X-95722Y-55522D02*
X-94399Y-54199D01*
G01D02*
X-93076Y-52876D01*
G01X-95722D02*
X-94399Y-54199D01*
G01D02*
X-93076Y-55522D01*
G01X-98600Y-37502D02*
Y-31800D01*
G01D02*
Y-26098D01*
G01Y-31800D02*
X-95148D01*
G01X-98600Y-11502D02*
Y-5800D01*
G01D02*
Y-98D01*
G01Y-5800D02*
X-95148D01*
G01X-98600Y14498D02*
Y20200D01*
G01D02*
Y25902D01*
G01Y20200D02*
X-95148D01*
G01X-91120Y55177D02*
X-89797Y56500D01*
G01D02*
X-88474Y57823D01*
G01X-91120D02*
X-89797Y56500D01*
G01D02*
X-88474Y55177D01*
G01X-83938Y82077D02*
X-82615Y83400D01*
G01X-83938Y84723D02*
X-82615Y83400D01*
G01X-72823Y-74023D02*
X-71500Y-72700D01*
G01X-72823Y-71377D02*
X-71500Y-72700D01*
G01D02*
X-70177Y-74023D01*
G01X-76532Y-45623D02*
X-75209Y-44300D01*
G01D02*
X-73886Y-42977D01*
G01X-76532D02*
X-75209Y-44300D01*
G01D02*
X-73886Y-45623D01*
G01X-82609Y-45300D02*
X-81286Y-43977D01*
G01X-82609Y-45300D02*
X-81286Y-46623D01*
G01X-82350Y-55550D02*
X-81027Y-54227D01*
G01X-82350Y-55550D02*
X-81027Y-56873D01*
G01X-75223Y-33923D02*
X-73900Y-32600D01*
G01D02*
X-72577Y-31277D01*
G01X-75223D02*
X-73900Y-32600D01*
G01D02*
X-72577Y-33923D01*
G01X-75623Y-39923D02*
X-74300Y-38600D01*
G01D02*
X-72977Y-37277D01*
G01X-75623D02*
X-74300Y-38600D01*
G01D02*
X-72977Y-39923D01*
G01X-80822Y-41722D02*
X-79499Y-40399D01*
G01D02*
X-78176Y-39076D01*
G01X-80822D02*
X-79499Y-40399D01*
G01D02*
X-78176Y-41722D01*
G01X-78623Y38377D02*
X-77300Y39700D01*
G01D02*
X-75977Y41023D01*
G01X-78623D02*
X-77300Y39700D01*
G01D02*
X-75977Y38377D01*
G01X-78523Y65677D02*
X-77200Y67000D01*
G01D02*
X-75877Y68323D01*
G01X-78523D02*
X-77200Y67000D01*
G01D02*
X-75877Y65677D01*
G01X-82615Y83400D02*
X-81292Y84723D01*
G01X-82615Y83400D02*
X-81292Y82077D01*
G01X-66523Y-83523D02*
X-65200Y-82200D01*
G01D02*
X-63877Y-80877D01*
G01X-66523D02*
X-65200Y-82200D01*
G01D02*
X-63877Y-83523D01*
G01X-65514Y-45623D02*
X-64191Y-44300D01*
G01D02*
X-62868Y-42977D01*
G01X-65514D02*
X-64191Y-44300D01*
G01D02*
X-62868Y-45623D01*
G01X-64822Y-40522D02*
X-63499Y-39199D01*
G01D02*
X-62176Y-37876D01*
G01X-64822D02*
X-63499Y-39199D01*
G01D02*
X-62176Y-40522D01*
G01X-64623Y11486D02*
X-63300Y12809D01*
G01D02*
X-61977Y14132D01*
G01X-64623D02*
X-63300Y12809D01*
G01D02*
X-61977Y11486D01*
G01X-52923Y28777D02*
X-51600Y30100D01*
G01D02*
X-50277Y31423D01*
G01X-52923D02*
X-51600Y30100D01*
G01D02*
X-50277Y28777D01*
G01X-37623Y-43513D02*
X-36300Y-42190D01*
G01D02*
X-34977Y-40867D01*
G01X-37623D02*
X-36300Y-42190D01*
G01D02*
X-34977Y-43513D01*
G01X-38223Y368D02*
X-36900Y1691D01*
G01D02*
X-35577Y3014D01*
G01X-38223D02*
X-36900Y1691D01*
G01D02*
X-35577Y368D01*
G01X-40823Y13138D02*
X-39500Y14461D01*
G01D02*
X-38177Y15784D01*
G01X-40823D02*
X-39500Y14461D01*
G01D02*
X-38177Y13138D01*
G01X-39696Y41150D02*
X-38373Y42473D01*
G01D02*
X-37050Y41150D01*
G01X-38373Y42473D02*
X-37050Y43796D01*
G01X-39696D02*
X-38373Y42473D01*
G01X-39723Y68177D02*
X-38400Y69500D01*
G01D02*
X-37077Y70823D01*
G01X-39723D02*
X-38400Y69500D01*
G01D02*
X-37077Y68177D01*
G01X-32223Y51477D02*
X-30900Y52800D01*
G01D02*
X-29577Y54123D01*
G01X-32223D02*
X-30900Y52800D01*
G01D02*
X-29577Y51477D01*
G01X-30223Y80236D02*
X-28900Y81559D01*
G01D02*
X-27577Y82882D01*
G01X-30223D02*
X-28900Y81559D01*
G01D02*
X-27577Y80236D01*
G01X-10923Y-53123D02*
X-9600Y-51800D01*
G01D02*
X-8277Y-50477D01*
G01X-10923D02*
X-9600Y-51800D01*
G01D02*
X-8277Y-53123D01*
G01X-3537Y-28923D02*
X-2214Y-27600D01*
G01D02*
X-891Y-26277D01*
G01X-3537D02*
X-2214Y-27600D01*
G01D02*
X-891Y-28923D01*
G01X-15300Y-13150D02*
X-13977Y-11827D01*
G01X-16623D02*
X-15300Y-13150D01*
G01X-14623Y14557D02*
X-13300Y15880D01*
G01D02*
X-11977Y17203D01*
G01X-14623D02*
X-13300Y15880D01*
G01D02*
X-11977Y14557D01*
G01X-462Y47016D02*
X861Y48339D01*
G01X-462Y49662D02*
X861Y48339D01*
G01X-3323Y54077D02*
X-2000Y55400D01*
G01D02*
X-677Y56723D01*
G01X-3323D02*
X-2000Y55400D01*
G01D02*
X-677Y54077D01*
G01X-9679Y61533D02*
X-8356Y62856D01*
G01D02*
X-7033Y64179D01*
G01X-9679D02*
X-8356Y62856D01*
G01D02*
X-7033Y61533D01*
G01X13198Y-94500D02*
X17400D01*
G01X9377Y-42923D02*
X10700Y-41600D01*
G01D02*
X12023Y-42923D01*
G01X3277D02*
X4600Y-41600D01*
G01D02*
X5923Y-42923D01*
G01X14963Y-53623D02*
X16286Y-52300D01*
G01X14963Y-50977D02*
X16286Y-52300D01*
G01X14327Y-32423D02*
X15650Y-31100D01*
G01D02*
X16973Y-29777D01*
G01X14327D02*
X15650Y-31100D01*
G01D02*
X16973Y-32423D01*
G01X10700Y-41600D02*
X12023Y-40277D01*
G01X9377D02*
X10700Y-41600D01*
G01X4600D02*
X5923Y-40277D01*
G01X3277D02*
X4600Y-41600D01*
G01X861Y48339D02*
X2184Y49662D01*
G01X861Y48339D02*
X2184Y47016D01*
G01X977Y56112D02*
X2300Y57435D01*
G01D02*
X3623Y58758D01*
G01X977D02*
X2300Y57435D01*
G01D02*
X3623Y56112D01*
G01X14177D02*
X15500Y57435D01*
G01D02*
X16823Y58758D01*
G01X14177D02*
X15500Y57435D01*
G01D02*
X16823Y56112D01*
G01X1259Y62477D02*
X2582Y63800D01*
G01D02*
X3905Y65123D01*
G01X1259D02*
X2582Y63800D01*
G01D02*
X3905Y62477D01*
G01X17400Y-97952D02*
Y-94500D01*
G01D02*
Y-91048D01*
G01Y-94500D02*
X21602D01*
G01X16286Y-52300D02*
X17609Y-50977D01*
G01X16286Y-52300D02*
X17609Y-53623D01*
G01X31277Y-33023D02*
X32600Y-31700D01*
G01D02*
X33923Y-30377D01*
G01X31277D02*
X32600Y-31700D01*
G01D02*
X33923Y-33023D01*
G01X30286Y-15323D02*
X31609Y-14000D01*
G01D02*
X32932Y-12677D01*
G01X31609Y-14000D02*
X32932Y-15323D01*
G01X16766Y-18034D02*
X18089Y-16711D01*
G01D02*
X19412Y-15388D01*
G01X16766D02*
X18089Y-16711D01*
G01D02*
X19412Y-18034D01*
G01X37427Y-51023D02*
X38750Y-49700D01*
G01D02*
X40073Y-48377D01*
G01X37427D02*
X38750Y-49700D01*
G01D02*
X40073Y-51023D01*
G01X42700Y69755D02*
Y75457D01*
G01D02*
Y81159D01*
G01X39248Y75457D02*
X42700D01*
G01D02*
X46152D01*
G01X55777Y-37923D02*
X57100Y-36600D01*
G01D02*
X58423Y-35277D01*
G01X55777D02*
X57100Y-36600D01*
G01D02*
X58423Y-37923D01*
G01X62177Y-16623D02*
X63500Y-15300D01*
G01D02*
X64823Y-16623D01*
G01X65377Y42577D02*
X66700Y43900D01*
G01X65377Y45223D02*
X66700Y43900D01*
G01X75277Y8427D02*
X76600Y9750D01*
G01D02*
X77923Y11073D01*
G01X75277D02*
X76600Y9750D01*
G01D02*
X77923Y8427D01*
G01X70277Y31477D02*
X71600Y32800D01*
G01D02*
X72923Y34123D01*
G01X70277D02*
X71600Y32800D01*
G01D02*
X72923Y31477D01*
G01X66700Y43900D02*
X68023Y45223D01*
G01X66700Y43900D02*
X68023Y42577D01*
G01X92000Y-98894D02*
Y-93900D01*
G01D02*
Y-88906D01*
G01X87006Y-93900D02*
X92000D01*
G01D02*
X96994D01*
G01X87477Y-86722D02*
X88800Y-85399D01*
G01D02*
X90123Y-84076D01*
G01X87477D02*
X88800Y-85399D01*
G01D02*
X90123Y-86722D01*
G01X90477Y-83722D02*
X91800Y-82399D01*
G01D02*
X93123Y-81076D01*
G01X90477D02*
X91800Y-82399D01*
G01D02*
X93123Y-83722D01*
G01X96477Y-77722D02*
X97800Y-76399D01*
G01D02*
X99123Y-75076D01*
G01X97800Y-76399D02*
X99123Y-77722D01*
G01X92000Y-78894D02*
Y-73900D01*
G01D02*
Y-68906D01*
G01X87006Y-73900D02*
X92000D01*
G01D02*
X96994D01*
G01X96477Y-71722D02*
X97800Y-70399D01*
G01D02*
X99123Y-69076D01*
G01X96477D02*
X97800Y-70399D01*
G01D02*
X99123Y-71722D01*
G01X87477Y-68722D02*
X88800Y-67399D01*
G01D02*
X90123Y-66076D01*
G01X87477D02*
X88800Y-67399D01*
G01D02*
X90123Y-68722D01*
G01X93477D02*
X94800Y-67399D01*
G01D02*
X96123Y-66076D01*
G01X93477D02*
X94800Y-67399D01*
G01D02*
X96123Y-68722D01*
G01X87277Y-55893D02*
X88600Y-54570D01*
G01D02*
X89923Y-53247D01*
G01X87277D02*
X88600Y-54570D01*
G01D02*
X89923Y-55893D01*
G01X87274Y-35420D02*
X88597Y-34097D01*
G01D02*
X89920Y-32774D01*
G01X87274D02*
X88597Y-34097D01*
G01D02*
X89920Y-35420D01*
G01X90477Y-41722D02*
X91800Y-40399D01*
G01D02*
X93123Y-39076D01*
G01X90477D02*
X91800Y-40399D01*
G01D02*
X93123Y-41722D01*
G01X87477Y-38722D02*
X88800Y-37399D01*
G01D02*
X90123Y-36076D01*
G01X87477D02*
X88800Y-37399D01*
G01D02*
X90123Y-38722D01*
G01X93477D02*
X94800Y-37399D01*
G01D02*
X96123Y-36076D01*
G01X93477D02*
X94800Y-37399D01*
G01D02*
X96123Y-38722D01*
G01X90477Y-5722D02*
X91800Y-4399D01*
G01D02*
X93123Y-3076D01*
G01X90477D02*
X91800Y-4399D01*
G01D02*
X93123Y-5722D01*
G01X97398Y23500D02*
X101600D01*
G01X112000Y-98894D02*
Y-93900D01*
G01D02*
Y-88906D01*
G01X107006Y-93900D02*
X112000D01*
G01D02*
X116994D01*
G01X99477Y-98722D02*
X100800Y-97399D01*
G01D02*
X102123Y-96076D01*
G01X99477D02*
X100800Y-97399D01*
G01D02*
X102123Y-98722D01*
G01X102477Y-95722D02*
X103800Y-94399D01*
G01D02*
X105123Y-93076D01*
G01X102477D02*
X103800Y-94399D01*
G01D02*
X105123Y-95722D01*
G01X99477Y-92722D02*
X100800Y-91399D01*
G01D02*
X102123Y-92722D01*
G01X112000Y-78894D02*
Y-73900D01*
G01X99477Y-90076D02*
X100800Y-91399D01*
G01X111477Y-86722D02*
X112800Y-85399D01*
G01D02*
X114123Y-84076D01*
G01X111477D02*
X112800Y-85399D01*
G01D02*
X114123Y-86722D01*
G01X108477Y-83722D02*
X109800Y-82399D01*
G01D02*
X111123Y-81076D01*
G01X108477D02*
X109800Y-82399D01*
G01D02*
X111123Y-83722D01*
G01X103577Y-76023D02*
X104900Y-74700D01*
G01D02*
X106223Y-76023D01*
G01X107006Y-73900D02*
X112000D01*
G01D02*
X116994D01*
G01X111477Y-68722D02*
X112800Y-67399D01*
G01D02*
X114123Y-66076D01*
G01X111477D02*
X112800Y-67399D01*
G01D02*
X114123Y-68722D01*
G01X103877Y-70422D02*
X105200Y-69099D01*
G01D02*
X106523Y-67776D01*
G01X103877D02*
X105200Y-69099D01*
G01D02*
X106523Y-70422D01*
G01X104900Y-74700D02*
X106223Y-73377D01*
G01X103577D02*
X104900Y-74700D01*
G01X111477Y-56722D02*
X112800Y-55399D01*
G01D02*
X114123Y-54076D01*
G01X111477D02*
X112800Y-55399D01*
G01D02*
X114123Y-56722D01*
G01X111477Y-50722D02*
X112800Y-49399D01*
G01D02*
X114123Y-48076D01*
G01X111477D02*
X112800Y-49399D01*
G01D02*
X114123Y-50722D01*
G01X111477Y-44722D02*
X112800Y-43399D01*
G01D02*
X114123Y-42076D01*
G01X111477D02*
X112800Y-43399D01*
G01D02*
X114123Y-44722D01*
G01X111477Y-38722D02*
X112800Y-37399D01*
G01D02*
X114123Y-36076D01*
G01X111477D02*
X112800Y-37399D01*
G01D02*
X114123Y-38722D01*
G01X108477Y-35722D02*
X109800Y-34399D01*
G01D02*
X111123Y-33076D01*
G01X108477D02*
X109800Y-34399D01*
G01D02*
X111123Y-35722D01*
G01X111477Y-32722D02*
X112800Y-31399D01*
G01D02*
X114123Y-30076D01*
G01X111477D02*
X112800Y-31399D01*
G01D02*
X114123Y-32722D01*
G01X108477Y-29722D02*
X109800Y-28399D01*
G01D02*
X111123Y-27076D01*
G01X108477D02*
X109800Y-28399D01*
G01D02*
X111123Y-29722D01*
G01X111477Y-26722D02*
X112800Y-25399D01*
G01D02*
X114123Y-24076D01*
G01X111477D02*
X112800Y-25399D01*
G01D02*
X114123Y-26722D01*
G01X111477Y-20722D02*
X112800Y-19399D01*
G01D02*
X114123Y-18076D01*
G01X111477D02*
X112800Y-19399D01*
G01D02*
X114123Y-20722D01*
G01X111477Y-14722D02*
X112800Y-13399D01*
G01D02*
X114123Y-12076D01*
G01X111477D02*
X112800Y-13399D01*
G01D02*
X114123Y-14722D01*
G01X108477Y-11722D02*
X109800Y-10399D01*
G01D02*
X111123Y-9076D01*
G01X108477D02*
X109800Y-10399D01*
G01D02*
X111123Y-11722D01*
G01X111477Y-8722D02*
X112800Y-7399D01*
G01D02*
X114123Y-8722D01*
G01X105577Y6677D02*
X106900Y8000D01*
G01D02*
X108223Y9323D01*
G01X105577D02*
X106900Y8000D01*
G01D02*
X108223Y6677D01*
G01X105577Y-7223D02*
X106900Y-5900D01*
G01D02*
X108223Y-4577D01*
G01X105577D02*
X106900Y-5900D01*
G01D02*
X108223Y-7223D01*
G01X112800Y-7399D02*
X114123Y-6076D01*
G01X111477D02*
X112800Y-7399D01*
G01X101600Y20048D02*
Y23500D01*
G01D02*
Y26952D01*
G01Y23500D02*
X105802D01*
G54D12*
X-136499Y-79399D03*
D03*
X-133499Y-82399D03*
D03*
X-136499Y-85399D03*
D03*
X-133499Y-58399D03*
D03*
X-136499Y-61399D03*
D03*
X-133499Y-64399D03*
D03*
X-136499Y-67399D03*
D03*
X-133499Y-46399D03*
D03*
X-136499Y-49399D03*
D03*
X-133499Y-52399D03*
D03*
X-136499Y-55399D03*
D03*
X-134499Y-15399D03*
D03*
Y-5399D03*
D03*
Y74601D03*
D03*
Y84601D03*
D03*
X-121499Y-94399D03*
D03*
X-118499Y-97399D03*
D03*
X-124499D03*
D03*
X-120099Y-76199D03*
D03*
X-126099Y-76799D03*
D03*
X-118000Y-64325D03*
D03*
X-128000D03*
D03*
X-127499Y-58399D03*
D03*
X-130499Y-61399D03*
D03*
Y-67399D03*
D03*
X-127499Y-70399D03*
D03*
X-119999Y-68899D03*
D03*
X-119987Y-52547D03*
D03*
X-121499Y-46399D03*
D03*
X-127499D03*
D03*
X-124499Y-49399D03*
D03*
X-130499D03*
D03*
X-127499Y-52399D03*
D03*
X-130499Y-55399D03*
D03*
X-124499Y-15399D03*
D03*
X-119499Y-20399D03*
D03*
X-129499D03*
D03*
X-124499Y4601D03*
D03*
X-119499Y9601D03*
D03*
X-129499D03*
D03*
X-124499Y34601D03*
D03*
X-119499Y49601D03*
D03*
X-124499Y74601D03*
D03*
X-119499Y59601D03*
D03*
X-129499D03*
D03*
X-124499Y84601D03*
D03*
X-119499Y79601D03*
D03*
X-129499D03*
D03*
X-103499Y-94399D03*
D03*
X-100499Y-97399D03*
D03*
X-106499D03*
D03*
X-103499Y-76399D03*
D03*
X-100499Y-79399D03*
D03*
X-106499D03*
D03*
X-103499Y-82399D03*
D03*
X-109499D03*
D03*
X-100499Y-85399D03*
D03*
X-106499D03*
D03*
X-112499D03*
D03*
X-103499Y-88399D03*
D03*
X-109499D03*
D03*
X-100499Y-91399D03*
D03*
X-106499D03*
D03*
Y-73399D03*
D03*
X-101500Y-51100D03*
D03*
X-114800Y-45300D03*
D03*
X-104499Y4601D03*
D03*
X-114499D03*
D03*
X-109499Y39601D03*
D03*
X-104499Y34601D03*
D03*
X-114499D03*
D03*
X-109499Y29601D03*
D03*
X-104600Y47800D03*
D03*
X-115300Y53700D03*
D03*
X-109499Y49601D03*
D03*
X-114499Y44601D03*
D03*
Y74601D03*
D03*
X-109499Y69601D03*
D03*
Y59601D03*
D03*
X-114499Y84601D03*
D03*
X-109499Y79601D03*
D03*
X-84499Y-95399D03*
D03*
X-90200Y-82200D03*
D03*
X-97499Y-76399D03*
D03*
X-99800Y-70391D03*
D03*
X-95200Y-67709D03*
D03*
X-94499Y-73399D03*
D03*
X-99200Y-54591D03*
D03*
X-95500Y-51100D03*
D03*
X-94399Y-54199D03*
D03*
X-84499Y-25399D03*
D03*
X-94499D03*
D03*
X-89499Y-30399D03*
D03*
Y-10399D03*
D03*
X-84499Y4601D03*
D03*
X-94499D03*
D03*
X-89499Y-399D03*
D03*
X-84499Y-5399D03*
D03*
Y24601D03*
D03*
X-89499Y19601D03*
D03*
X-84499Y14601D03*
D03*
X-94499D03*
D03*
X-89499Y39601D03*
D03*
X-99499D03*
D03*
X-84499Y34601D03*
D03*
X-94499D03*
D03*
X-89499Y29601D03*
D03*
X-99499D03*
D03*
X-89797Y56500D03*
D03*
X-84499Y54601D03*
D03*
X-89499Y59601D03*
D03*
X-99499D03*
D03*
X-89499Y79601D03*
D03*
X-99499D03*
D03*
X-74499Y-95399D03*
D03*
X-71500Y-72700D03*
D03*
X-68791Y-72500D03*
D03*
X-82200Y-51600D03*
D03*
X-71391Y-44300D03*
D03*
X-69164Y-42530D03*
D03*
X-75209Y-44300D03*
D03*
X-82609Y-45300D03*
D03*
X-82350Y-55550D03*
D03*
X-73900Y-32600D03*
D03*
X-74499Y-25399D03*
D03*
X-79499Y-30399D03*
D03*
X-74300Y-38600D03*
D03*
X-79499Y-40399D03*
D03*
X-69499Y-10399D03*
D03*
X-74499Y-15399D03*
D03*
Y4601D03*
D03*
X-79499Y-399D03*
D03*
X-74499Y24601D03*
D03*
X-79499Y19601D03*
D03*
X-69499Y9601D03*
D03*
X-77300Y39700D03*
D03*
X-74499Y34601D03*
D03*
X-69499Y29601D03*
D03*
X-79499D03*
D03*
X-77200Y67000D03*
D03*
X-79499Y59601D03*
D03*
X-82615Y83400D03*
D03*
X-54499Y-95399D03*
D03*
X-64499D03*
D03*
X-65200Y-82200D03*
D03*
X-64499Y-75399D03*
D03*
X-59499Y-80399D03*
D03*
Y-90399D03*
D03*
Y-70399D03*
D03*
X-54499Y-45399D03*
D03*
X-55400Y-56431D03*
D03*
X-60400Y-54463D03*
D03*
X-64191Y-44300D03*
D03*
X-64499Y-25399D03*
D03*
X-59499Y-30399D03*
D03*
X-54499Y-35399D03*
D03*
X-64300Y-32600D03*
D03*
X-63499Y-39199D03*
D03*
X-59499Y-20399D03*
D03*
X-56600Y-22600D03*
D03*
X-54499Y-5399D03*
D03*
X-64499D03*
D03*
X-63300Y12809D03*
D03*
X-64499Y24601D03*
D03*
X-54499Y14601D03*
D03*
X-63309Y8991D03*
D03*
X-51600Y30100D03*
D03*
X-54499Y34601D03*
D03*
X-64499D03*
D03*
X-57900Y27200D03*
D03*
X-59499Y49601D03*
D03*
X-34499Y-95399D03*
D03*
X-44499D03*
D03*
X-34499Y-85399D03*
D03*
X-35600Y-62337D03*
D03*
X-40700Y-69000D03*
D03*
X-45582Y-69281D03*
D03*
X-36300Y-42190D03*
D03*
X-34499Y-45399D03*
D03*
X-44499D03*
D03*
X-39499Y-50399D03*
D03*
X-49499D03*
D03*
X-44499Y-25399D03*
D03*
X-39499Y-30399D03*
D03*
X-49499D03*
D03*
X-34499Y-35399D03*
D03*
X-44499D03*
D03*
X-39499Y-40399D03*
D03*
X-49499D03*
D03*
X-36300Y-28410D03*
D03*
X-39499Y-20399D03*
D03*
X-49499D03*
D03*
X-40679Y-9820D03*
D03*
Y-12380D03*
D03*
X-36900Y1691D03*
D03*
X-49499Y-399D03*
D03*
X-34499Y-5399D03*
D03*
X-39500Y14461D03*
D03*
X-49499Y9601D03*
D03*
X-38373Y42473D03*
D03*
X-49499Y49601D03*
D03*
X-38400Y69500D03*
D03*
X-39499Y79601D03*
D03*
X-24499Y-95399D03*
D03*
X-29499Y-90399D03*
D03*
X-19499Y-60399D03*
D03*
X-26225Y-62325D03*
D03*
X-24499Y-45399D03*
D03*
X-19499Y-50399D03*
D03*
X-29499D03*
D03*
X-24499Y-55399D03*
D03*
Y-25399D03*
D03*
X-19499Y-30399D03*
D03*
X-24499Y-35399D03*
D03*
X-19499Y-40399D03*
D03*
X-29499D03*
D03*
Y-20399D03*
D03*
X-19200Y-14600D03*
D03*
X-21150Y-16550D03*
D03*
X-24499Y-5399D03*
D03*
X-30000Y5509D03*
D03*
X-19499Y19601D03*
D03*
X-27200Y16300D03*
D03*
X-27250Y28000D03*
D03*
X-30900Y52800D03*
D03*
X-30200Y42100D03*
D03*
X-22100Y50700D03*
D03*
X-25000Y53571D03*
D03*
X-19499Y69601D03*
D03*
X-24499Y64601D03*
D03*
X-30000Y68900D03*
D03*
X-28900Y81559D03*
D03*
X-24499Y84601D03*
D03*
X-19499Y79601D03*
D03*
X-30800Y75500D03*
D03*
X-9499Y-60399D03*
D03*
X-9600Y-51800D03*
D03*
X-4499Y-45399D03*
D03*
X-14499D03*
D03*
X-4499Y-55399D03*
D03*
X-2214Y-27600D03*
D03*
X-9499Y-40399D03*
D03*
X-9900Y-28200D03*
D03*
X-15300Y-13150D03*
D03*
Y-15600D03*
D03*
X-12500Y-2700D03*
D03*
X-13300Y15880D03*
D03*
X-1143Y18943D03*
D03*
X-12100Y30700D03*
D03*
X-2000Y55400D03*
D03*
X-5000Y45600D03*
D03*
X-8356Y62856D03*
D03*
X-9499Y69601D03*
D03*
X-4499Y64601D03*
D03*
X-14499D03*
D03*
X-4499Y84601D03*
D03*
X-14499D03*
D03*
X1892Y-77000D03*
D03*
X4600Y-41600D03*
D03*
X10700D03*
D03*
X16286Y-52300D03*
D03*
X5501Y-45399D03*
D03*
X10501Y-50399D03*
D03*
X501D03*
D03*
X15650Y-31100D03*
D03*
X15501Y-35399D03*
D03*
X10501Y-10399D03*
D03*
X501D03*
D03*
X5501Y-15399D03*
D03*
X14947Y-11388D03*
D03*
X15501Y4601D03*
D03*
X10501Y-399D03*
D03*
X501D03*
D03*
X15501Y-5399D03*
D03*
X5501D03*
D03*
X1250Y7150D03*
D03*
X5501Y14601D03*
D03*
X10214Y18900D03*
D03*
X9900Y30100D03*
D03*
X800Y32000D03*
D03*
X12200Y34400D03*
D03*
X918Y29146D03*
D03*
X2300Y57435D03*
D03*
X15500D03*
D03*
X861Y48339D03*
D03*
X15501Y54601D03*
D03*
X5501D03*
D03*
X15501Y44601D03*
D03*
X6000Y45100D03*
D03*
X2582Y63800D03*
D03*
X501Y69601D03*
D03*
X15501Y64601D03*
D03*
Y84601D03*
D03*
X5501D03*
D03*
X10501Y79601D03*
D03*
X501D03*
D03*
X25501Y-95399D03*
D03*
Y-85399D03*
D03*
X30501Y-90399D03*
D03*
Y-70399D03*
D03*
X25501Y-45399D03*
D03*
X20501Y-50399D03*
D03*
X32600Y-31700D03*
D03*
X28700Y-41300D03*
D03*
X30300Y-27200D03*
D03*
X19350Y-31100D03*
D03*
X31609Y-14000D03*
D03*
X18089Y-16711D03*
D03*
X31500Y-11300D03*
D03*
X31300Y-8700D03*
D03*
X25501Y4601D03*
D03*
X20501Y-399D03*
D03*
X31574Y-3800D03*
D03*
X29606Y-1300D03*
D03*
X25501Y14601D03*
D03*
X20501Y9601D03*
D03*
X24000Y30100D03*
D03*
X19763Y34400D03*
D03*
X17834Y29300D03*
D03*
X30501Y49601D03*
D03*
X20501D03*
D03*
X25501Y44601D03*
D03*
X22135Y55765D03*
D03*
X25501Y84601D03*
D03*
X30501Y79601D03*
D03*
X45501Y-95399D03*
D03*
X35501D03*
D03*
X45501Y-85399D03*
D03*
X35501D03*
D03*
X40501Y-90399D03*
D03*
Y-70399D03*
D03*
X38750Y-49700D03*
D03*
X39550Y-32091D03*
D03*
X39600Y-16774D03*
D03*
X45501Y4601D03*
D03*
X34900Y5600D03*
D03*
X45501Y24601D03*
D03*
X35501D03*
D03*
X45501Y14601D03*
D03*
X35501D03*
D03*
X45501Y54601D03*
D03*
X35501D03*
D03*
Y74601D03*
D03*
X40501Y59601D03*
D03*
X45501Y84601D03*
D03*
X35501D03*
D03*
X65501Y-95399D03*
D03*
X55501D03*
D03*
X50501Y-80399D03*
D03*
Y-90399D03*
D03*
X65501Y-65399D03*
D03*
X60501Y-70399D03*
D03*
X54200Y-44900D03*
D03*
X57100Y-36600D03*
D03*
X65501Y-25399D03*
D03*
X50501Y-40399D03*
D03*
X63500Y-15300D03*
D03*
X60501Y-20399D03*
D03*
X63500Y-12700D03*
D03*
X66100Y17000D03*
D03*
X62900Y33250D03*
D03*
X65501Y54601D03*
D03*
X55501D03*
D03*
X62700Y43900D03*
D03*
X65501Y64601D03*
D03*
X60501Y59601D03*
D03*
X50501D03*
D03*
X65501Y84601D03*
D03*
X55501D03*
D03*
X75501Y-95399D03*
D03*
Y-75399D03*
D03*
Y-85399D03*
D03*
X70501Y-60399D03*
D03*
X75501Y-65399D03*
D03*
X70501Y-70399D03*
D03*
X75501Y-55399D03*
D03*
X76500Y-1000D03*
D03*
X76600Y9750D03*
D03*
X75501Y14601D03*
D03*
X70501Y9601D03*
D03*
X71600Y32800D03*
D03*
X66700Y43900D03*
D03*
X75501Y54601D03*
D03*
X80501Y49601D03*
D03*
Y69601D03*
D03*
X75501Y64601D03*
D03*
X80501Y59601D03*
D03*
X70501D03*
D03*
X75501Y84601D03*
D03*
X80501Y79601D03*
D03*
X97800Y-76399D03*
D03*
X91800Y-82399D03*
D03*
X88800Y-85399D03*
D03*
X94800Y-67399D03*
D03*
X88800D03*
D03*
X97800Y-70399D03*
D03*
X88600Y-54570D03*
D03*
X88597Y-34097D03*
D03*
X94800Y-37399D03*
D03*
X88800D03*
D03*
X91800Y-40399D03*
D03*
Y-4399D03*
D03*
X95501Y14601D03*
D03*
X85501D03*
D03*
X90501Y9601D03*
D03*
X95501Y54601D03*
D03*
X85501D03*
D03*
X90501Y49601D03*
D03*
X85501Y74601D03*
D03*
Y64601D03*
D03*
X90501Y59601D03*
D03*
X95501Y84601D03*
D03*
X85501D03*
D03*
X90501Y79601D03*
D03*
X103800Y-94399D03*
D03*
X100800Y-97399D03*
D03*
X109800Y-82399D03*
D03*
X112800Y-85399D03*
D03*
X100800Y-91399D03*
D03*
X112800Y-67399D03*
D03*
X105200Y-69099D03*
D03*
X104900Y-74700D03*
D03*
X112800Y-43399D03*
D03*
Y-49399D03*
D03*
Y-55399D03*
D03*
X108000Y-39400D03*
D03*
X112800Y-25399D03*
D03*
X109800Y-28399D03*
D03*
X112800Y-31399D03*
D03*
X109800Y-34399D03*
D03*
X112800Y-37399D03*
D03*
X104800Y-39400D03*
D03*
X102600Y-16774D03*
D03*
X108509Y-15291D03*
D03*
X109800Y-10399D03*
D03*
X112800Y-13399D03*
D03*
Y-19399D03*
D03*
X106900Y8000D03*
D03*
Y-5900D03*
D03*
X112800Y-7399D03*
D03*
X115501Y24601D03*
D03*
X110501Y19601D03*
D03*
X115501Y14601D03*
D03*
X105501D03*
D03*
X110501Y9601D03*
D03*
X100501D03*
D03*
X110501Y39601D03*
D03*
X115501Y34601D03*
D03*
X110501Y29601D03*
D03*
X115501Y54601D03*
D03*
X105501D03*
D03*
X110501Y49601D03*
D03*
X100501D03*
D03*
X115501Y44601D03*
D03*
Y74601D03*
D03*
X110501Y69601D03*
D03*
X115501Y64601D03*
D03*
X110501Y59601D03*
D03*
X115501Y84601D03*
D03*
X105501D03*
D03*
X110501Y79601D03*
D03*
G54D22*
G01X-43998Y-2502D02*
X-56202D01*
G01Y9702D02*
X-43998D01*
Y-2502D01*
X-56202D01*
Y9702D01*
G01X-43998D02*
X-56202D01*
G01X-43998Y24302D02*
X-56202D01*
G01X-43998Y12098D02*
X-56202D01*
G01Y24302D02*
X-43998D01*
Y12098D01*
X-56202D01*
Y24302D01*
G01X6866Y-30838D02*
X8440D01*
G01X3618D02*
X11688D01*
Y-35562D01*
X3618D01*
Y-30838D01*
G54D13*
X-136499Y-79399D03*
X-133499Y-82399D03*
X-136499Y-85399D03*
X-133499Y-58399D03*
X-136499Y-61399D03*
X-133499Y-64399D03*
X-136499Y-67399D03*
X-133499Y-46399D03*
X-136499Y-49399D03*
X-133499Y-52399D03*
X-136499Y-55399D03*
X-134499Y-15399D03*
Y-5399D03*
Y74601D03*
Y84601D03*
X-121499Y-94399D03*
X-118499Y-97399D03*
X-124499D03*
X-120099Y-76199D03*
X-126099Y-76799D03*
X-118000Y-64325D03*
X-128000D03*
X-127499Y-58399D03*
X-130499Y-61399D03*
Y-67399D03*
X-127499Y-70399D03*
X-119999Y-68899D03*
X-119987Y-52547D03*
X-121499Y-46399D03*
X-127499D03*
X-124499Y-49399D03*
X-130499D03*
X-127499Y-52399D03*
X-130499Y-55399D03*
X-124499Y-15399D03*
X-119499Y-20399D03*
X-129499D03*
X-124499Y4601D03*
X-119499Y9601D03*
X-129499D03*
X-124499Y34601D03*
X-119499Y49601D03*
X-124499Y74601D03*
X-119499Y59601D03*
X-129499D03*
X-124499Y84601D03*
X-119499Y79601D03*
X-129499D03*
X-103499Y-94399D03*
X-100499Y-97399D03*
X-106499D03*
X-103499Y-76399D03*
X-100499Y-79399D03*
X-106499D03*
X-103499Y-82399D03*
X-109499D03*
X-100499Y-85399D03*
X-106499D03*
X-112499D03*
X-103499Y-88399D03*
X-109499D03*
X-100499Y-91399D03*
X-106499D03*
Y-73399D03*
X-101500Y-51100D03*
X-114800Y-45300D03*
X-104499Y4601D03*
X-114499D03*
X-109499Y39601D03*
X-104499Y34601D03*
X-114499D03*
X-109499Y29601D03*
X-104600Y47800D03*
X-115300Y53700D03*
X-109499Y49601D03*
X-114499Y44601D03*
Y74601D03*
X-109499Y69601D03*
Y59601D03*
X-114499Y84601D03*
X-109499Y79601D03*
X-84499Y-95399D03*
X-90200Y-82200D03*
X-97499Y-76399D03*
X-99800Y-70391D03*
X-95200Y-67709D03*
X-94499Y-73399D03*
X-99200Y-54591D03*
X-95500Y-51100D03*
X-94399Y-54199D03*
X-84499Y-25399D03*
X-94499D03*
X-89499Y-30399D03*
Y-10399D03*
X-84499Y4601D03*
X-94499D03*
X-89499Y-399D03*
X-84499Y-5399D03*
Y24601D03*
X-89499Y19601D03*
X-84499Y14601D03*
X-94499D03*
X-89499Y39601D03*
X-99499D03*
X-84499Y34601D03*
X-94499D03*
X-89499Y29601D03*
X-99499D03*
X-89797Y56500D03*
X-84499Y54601D03*
X-89499Y59601D03*
X-99499D03*
X-89499Y79601D03*
X-99499D03*
X-74499Y-95399D03*
X-71500Y-72700D03*
X-68791Y-72500D03*
X-82200Y-51600D03*
X-71391Y-44300D03*
X-69164Y-42530D03*
X-75209Y-44300D03*
X-82609Y-45300D03*
X-82350Y-55550D03*
X-73900Y-32600D03*
X-74499Y-25399D03*
X-79499Y-30399D03*
X-74300Y-38600D03*
X-79499Y-40399D03*
X-69499Y-10399D03*
X-74499Y-15399D03*
Y4601D03*
X-79499Y-399D03*
X-74499Y24601D03*
X-79499Y19601D03*
X-69499Y9601D03*
X-77300Y39700D03*
X-74499Y34601D03*
X-69499Y29601D03*
X-79499D03*
X-77200Y67000D03*
X-79499Y59601D03*
X-82615Y83400D03*
X-54499Y-95399D03*
X-64499D03*
X-65200Y-82200D03*
X-64499Y-75399D03*
X-59499Y-80399D03*
Y-90399D03*
Y-70399D03*
X-54499Y-45399D03*
X-55400Y-56431D03*
X-60400Y-54463D03*
X-64191Y-44300D03*
X-64499Y-25399D03*
X-59499Y-30399D03*
X-54499Y-35399D03*
X-64300Y-32600D03*
X-63499Y-39199D03*
X-59499Y-20399D03*
X-56600Y-22600D03*
X-54499Y-5399D03*
X-64499D03*
X-63300Y12809D03*
X-64499Y24601D03*
X-54499Y14601D03*
X-63309Y8991D03*
X-51600Y30100D03*
X-54499Y34601D03*
X-64499D03*
X-57900Y27200D03*
X-59499Y49601D03*
X-34499Y-95399D03*
X-44499D03*
X-34499Y-85399D03*
X-35600Y-62337D03*
X-40700Y-69000D03*
X-45582Y-69281D03*
X-36300Y-42190D03*
X-34499Y-45399D03*
X-44499D03*
X-39499Y-50399D03*
X-49499D03*
X-44499Y-25399D03*
X-39499Y-30399D03*
X-49499D03*
X-34499Y-35399D03*
X-44499D03*
X-39499Y-40399D03*
X-49499D03*
X-36300Y-28410D03*
X-39499Y-20399D03*
X-49499D03*
X-40679Y-9820D03*
Y-12380D03*
X-36900Y1691D03*
X-49499Y-399D03*
X-34499Y-5399D03*
X-39500Y14461D03*
X-49499Y9601D03*
X-38373Y42473D03*
X-49499Y49601D03*
X-38400Y69500D03*
X-39499Y79601D03*
X-24499Y-95399D03*
X-29499Y-90399D03*
X-19499Y-60399D03*
X-26225Y-62325D03*
X-24499Y-45399D03*
X-19499Y-50399D03*
X-29499D03*
X-24499Y-55399D03*
Y-25399D03*
X-19499Y-30399D03*
X-24499Y-35399D03*
X-19499Y-40399D03*
X-29499D03*
Y-20399D03*
X-19200Y-14600D03*
X-21150Y-16550D03*
X-24499Y-5399D03*
X-30000Y5509D03*
X-19499Y19601D03*
X-27200Y16300D03*
X-27250Y28000D03*
X-30900Y52800D03*
X-30200Y42100D03*
X-22100Y50700D03*
X-25000Y53571D03*
X-19499Y69601D03*
X-24499Y64601D03*
X-30000Y68900D03*
X-28900Y81559D03*
X-24499Y84601D03*
X-19499Y79601D03*
X-30800Y75500D03*
X-9499Y-60399D03*
X-9600Y-51800D03*
X-4499Y-45399D03*
X-14499D03*
X-4499Y-55399D03*
X-2214Y-27600D03*
X-9499Y-40399D03*
X-9900Y-28200D03*
X-15300Y-13150D03*
Y-15600D03*
X-12500Y-2700D03*
X-13300Y15880D03*
X-1143Y18943D03*
X-12100Y30700D03*
X-2000Y55400D03*
X-5000Y45600D03*
X-8356Y62856D03*
X-9499Y69601D03*
X-4499Y64601D03*
X-14499D03*
X-4499Y84601D03*
X-14499D03*
X1892Y-77000D03*
X4600Y-41600D03*
X10700D03*
X16286Y-52300D03*
X5501Y-45399D03*
X10501Y-50399D03*
X501D03*
X15650Y-31100D03*
X15501Y-35399D03*
X10501Y-10399D03*
X501D03*
X5501Y-15399D03*
X14947Y-11388D03*
X15501Y4601D03*
X10501Y-399D03*
X501D03*
X15501Y-5399D03*
X5501D03*
X1250Y7150D03*
X5501Y14601D03*
X10214Y18900D03*
X9900Y30100D03*
X800Y32000D03*
X12200Y34400D03*
X918Y29146D03*
X2300Y57435D03*
X15500D03*
X861Y48339D03*
X15501Y54601D03*
X5501D03*
X15501Y44601D03*
X6000Y45100D03*
X2582Y63800D03*
X501Y69601D03*
X15501Y64601D03*
Y84601D03*
X5501D03*
X10501Y79601D03*
X501D03*
X25501Y-95399D03*
Y-85399D03*
X30501Y-90399D03*
Y-70399D03*
X25501Y-45399D03*
X20501Y-50399D03*
X32600Y-31700D03*
X28700Y-41300D03*
X30300Y-27200D03*
X19350Y-31100D03*
X31609Y-14000D03*
X18089Y-16711D03*
X31500Y-11300D03*
X31300Y-8700D03*
X25501Y4601D03*
X20501Y-399D03*
X31574Y-3800D03*
X29606Y-1300D03*
X25501Y14601D03*
X20501Y9601D03*
X24000Y30100D03*
X19763Y34400D03*
X17834Y29300D03*
X30501Y49601D03*
X20501D03*
X25501Y44601D03*
X22135Y55765D03*
X25501Y84601D03*
X30501Y79601D03*
X45501Y-95399D03*
X35501D03*
X45501Y-85399D03*
X35501D03*
X40501Y-90399D03*
Y-70399D03*
X38750Y-49700D03*
X39550Y-32091D03*
X39600Y-16774D03*
X45501Y4601D03*
X34900Y5600D03*
X45501Y24601D03*
X35501D03*
X45501Y14601D03*
X35501D03*
X45501Y54601D03*
X35501D03*
Y74601D03*
X40501Y59601D03*
X45501Y84601D03*
X35501D03*
X65501Y-95399D03*
X55501D03*
X50501Y-80399D03*
Y-90399D03*
X65501Y-65399D03*
X60501Y-70399D03*
X54200Y-44900D03*
X57100Y-36600D03*
X65501Y-25399D03*
X50501Y-40399D03*
X63500Y-15300D03*
X60501Y-20399D03*
X63500Y-12700D03*
X66100Y17000D03*
X62900Y33250D03*
X65501Y54601D03*
X55501D03*
X62700Y43900D03*
X65501Y64601D03*
X60501Y59601D03*
X50501D03*
X65501Y84601D03*
X55501D03*
X75501Y-95399D03*
Y-75399D03*
Y-85399D03*
X70501Y-60399D03*
X75501Y-65399D03*
X70501Y-70399D03*
X75501Y-55399D03*
X76500Y-1000D03*
X76600Y9750D03*
X75501Y14601D03*
X70501Y9601D03*
X71600Y32800D03*
X66700Y43900D03*
X75501Y54601D03*
X80501Y49601D03*
Y69601D03*
X75501Y64601D03*
X80501Y59601D03*
X70501D03*
X75501Y84601D03*
X80501Y79601D03*
X97800Y-76399D03*
X91800Y-82399D03*
X88800Y-85399D03*
X94800Y-67399D03*
X88800D03*
X97800Y-70399D03*
X88600Y-54570D03*
X88597Y-34097D03*
X94800Y-37399D03*
X88800D03*
X91800Y-40399D03*
Y-4399D03*
X95501Y14601D03*
X85501D03*
X90501Y9601D03*
X95501Y54601D03*
X85501D03*
X90501Y49601D03*
X85501Y74601D03*
Y64601D03*
X90501Y59601D03*
X95501Y84601D03*
X85501D03*
X90501Y79601D03*
X103800Y-94399D03*
X100800Y-97399D03*
X109800Y-82399D03*
X112800Y-85399D03*
X100800Y-91399D03*
X112800Y-67399D03*
X105200Y-69099D03*
X104900Y-74700D03*
X112800Y-43399D03*
Y-49399D03*
Y-55399D03*
X108000Y-39400D03*
X112800Y-25399D03*
X109800Y-28399D03*
X112800Y-31399D03*
X109800Y-34399D03*
X112800Y-37399D03*
X104800Y-39400D03*
X102600Y-16774D03*
X108509Y-15291D03*
X109800Y-10399D03*
X112800Y-13399D03*
Y-19399D03*
X106900Y8000D03*
Y-5900D03*
X112800Y-7399D03*
X115501Y24601D03*
X110501Y19601D03*
X115501Y14601D03*
X105501D03*
X110501Y9601D03*
X100501D03*
X110501Y39601D03*
X115501Y34601D03*
X110501Y29601D03*
X115501Y54601D03*
X105501D03*
X110501Y49601D03*
X100501D03*
X115501Y44601D03*
Y74601D03*
X110501Y69601D03*
X115501Y64601D03*
X110501Y59601D03*
X115501Y84601D03*
X105501D03*
X110501Y79601D03*
G54D23*
G01X-132650Y34963D02*
X-139100D01*
G01D02*
Y46463D01*
G01X-132650Y34963D02*
X-139100D01*
G01D02*
Y46463D01*
G01D02*
X-132650D01*
G01X-139100D02*
X-132650D01*
G01X-124650Y34963D02*
X-131100D01*
G01D02*
Y46463D01*
G01X-124650D02*
Y34963D01*
G01D02*
X-131100D01*
G01D02*
Y46463D01*
G01X-124650D02*
Y34963D01*
G01X-116650D02*
X-123100D01*
G01D02*
Y46463D01*
G01X-116650Y34963D02*
X-123100D01*
G01D02*
Y46463D01*
G01X-132650D02*
Y34963D01*
G01Y46463D02*
Y34963D01*
G01X-131100Y46463D02*
X-124650D01*
G01X-131100D02*
X-124650D01*
G01X-123100D02*
X-116650D01*
G01X-123100D02*
X-116650D01*
G01D02*
Y34963D01*
G01Y46463D02*
Y34963D01*
G01X-109100Y60800D02*
Y38800D01*
G01D02*
X-100100D01*
G01X-109100Y60800D02*
Y38800D01*
G01D02*
X-100100D01*
G01Y60800D02*
X-109100D01*
G01X-100100D02*
X-109100D01*
G01Y65800D02*
X-100100D01*
G01X-109100Y87800D02*
Y65800D01*
G01D02*
X-100100D01*
G01X-109100Y87800D02*
Y65800D01*
G01X-100100Y87800D02*
X-109100D01*
G01X-100100D02*
X-109100D01*
G01X-99100Y38800D02*
X-90100D01*
G01D02*
Y60800D01*
G01X-99100D02*
Y38800D01*
G01D02*
X-90100D01*
G01D02*
Y60800D01*
G01X-99100D02*
Y38800D01*
G01X-100100D02*
Y60800D01*
G01Y38800D02*
Y60800D01*
G01X-90100D02*
X-99100D01*
G01X-90100D02*
X-99100D01*
G01X-100100Y65800D02*
Y87800D01*
G01Y65800D02*
Y87800D01*
G01X-99100Y65800D02*
X-90100D01*
G01D02*
Y87800D01*
G01X-99100D02*
Y65800D01*
G01D02*
X-90100D01*
G01D02*
Y87800D01*
G01X-99100D02*
Y65800D01*
G01X-90100Y87800D02*
X-99100D01*
G01X-90100D02*
X-99100D01*
G01X-72250Y-29850D02*
X-65800D01*
G01Y-41350D02*
X-72250D01*
G01D02*
Y-29850D01*
G01D02*
X-65800D01*
G01Y-41350D02*
X-72250D01*
G01D02*
Y-29850D01*
G01X-65800D02*
Y-41350D01*
G01Y-29850D02*
Y-41350D01*
G01X-39275Y51218D02*
Y39718D01*
G01D02*
X-45725D01*
G01D02*
Y51218D01*
G01X-39275D02*
Y39718D01*
G01D02*
X-45725D01*
G01D02*
Y51218D01*
G01X-31275Y39718D02*
X-37725D01*
G01D02*
Y51218D01*
G01X-31275Y39718D02*
X-37725D01*
G01D02*
Y51218D01*
G01X-45725D02*
X-39275D01*
G01X-45725D02*
X-39275D01*
G01X-37725D02*
X-31275D01*
G01X-37725D02*
X-31275D01*
G01X-33750Y53268D02*
X-45250D01*
G01D02*
Y59718D01*
G01X-33750Y53268D02*
X-45250D01*
G01D02*
Y59718D01*
G01X-39275Y78218D02*
Y66718D01*
G01D02*
X-45725D01*
G01D02*
Y78218D01*
G01X-39275D02*
Y66718D01*
G01D02*
X-45725D01*
G01D02*
Y78218D01*
G01X-31275Y66718D02*
X-37725D01*
G01D02*
Y78218D01*
G01X-31275Y66718D02*
X-37725D01*
G01D02*
Y78218D01*
G01X-45250Y59718D02*
X-33750D01*
G01X-45250D02*
X-33750D01*
G01X-45725Y78218D02*
X-39275D01*
G01X-45725D02*
X-39275D01*
G01X-37725D02*
X-31275D01*
G01X-37725D02*
X-31275D01*
G01X-33950Y80275D02*
X-45450D01*
G01D02*
Y86725D01*
G01D02*
X-33950D01*
G01Y80275D02*
X-45450D01*
G01D02*
Y86725D01*
G01D02*
X-33950D01*
G01X-31275Y51218D02*
Y39718D01*
G01Y51218D02*
Y39718D01*
G01X-33750Y59718D02*
Y53268D01*
G01Y59718D02*
Y53268D01*
G01X-31275Y78218D02*
Y66718D01*
G01Y78218D02*
Y66718D01*
G01X-33950Y86725D02*
Y80275D01*
G01Y86725D02*
Y80275D01*
G01X-4750Y47850D02*
Y54300D01*
G01D02*
X6750D01*
G01Y47850D02*
X-4750D01*
G01D02*
Y54300D01*
G01D02*
X6750D01*
G01Y47850D02*
X-4750D01*
G01X6750Y54300D02*
Y47850D01*
G01Y54300D02*
Y47850D01*
G01X31053Y64515D02*
Y53015D01*
G01D02*
X24603D01*
G01D02*
Y64515D01*
G01X31053D02*
Y53015D01*
G01D02*
X24603D01*
G01D02*
Y64515D01*
G01D02*
X31053D01*
G01X24603D02*
X31053D01*
G01X60150Y-4350D02*
Y2100D01*
G01D02*
X71650D01*
G01Y-4350D02*
X60150D01*
G01D02*
Y2100D01*
G01D02*
X71650D01*
G01Y-4350D02*
X60150D01*
G01X70400Y24050D02*
X63950D01*
G01D02*
Y35550D01*
G01X70400Y24050D02*
X63950D01*
G01D02*
Y35550D01*
G01D02*
X70400D01*
G01X63950D02*
X70400D01*
G01X70450Y36800D02*
X58950D01*
G01D02*
Y43250D01*
G01X70450Y36800D02*
X58950D01*
G01D02*
Y43250D01*
G01D02*
X70450D01*
G01X58950D02*
X70450D01*
G01X71650Y2100D02*
Y-4350D01*
G01Y2100D02*
Y-4350D01*
G01X70400Y35550D02*
Y24050D01*
G01Y35550D02*
Y24050D01*
G01X70450Y43250D02*
Y36800D01*
G01Y43250D02*
Y36800D01*
G01X113150Y-60850D02*
Y-67300D01*
G01D02*
X101650D01*
G01D02*
Y-60850D01*
G01D02*
X113150D01*
G01D02*
Y-67300D01*
G01D02*
X101650D01*
G01D02*
Y-60850D01*
G01D02*
X113150D01*
G54D14*
X-118600Y-31800D03*
D03*
X-128600D03*
D03*
X-118600Y-5800D03*
D03*
X-128600D03*
D03*
X-118600Y20200D03*
D03*
X-128600D03*
D03*
X-98600Y-31800D03*
D03*
X-108600D03*
D03*
X-98600Y-5800D03*
D03*
X-108600D03*
D03*
X-98600Y20200D03*
D03*
X-108600D03*
D03*
X17400Y-94500D03*
D03*
X7400D03*
D03*
X17400Y-84500D03*
D03*
X7400D03*
D03*
X17400Y-74500D03*
D03*
X7400D03*
D03*
X17400Y-64500D03*
D03*
X7400D03*
D03*
X42700Y75457D03*
D03*
X52700D03*
D03*
X62700D03*
D03*
X72700D03*
D03*
X101600Y23500D03*
D03*
X91600D03*
D03*
X101600Y33500D03*
D03*
X91600D03*
D03*
X101600Y43500D03*
D03*
X91600D03*
D03*
G54D24*
G01X-134969Y-95869D02*
Y-71931D01*
X-111031D01*
Y-95869D01*
X-134969D01*
G01X-138236Y-99136D02*
Y-68664D01*
X-107764D01*
Y-99136D01*
X-138236D01*
G01X-138206Y-43139D02*
Y-20461D01*
X-88994D01*
Y-43139D01*
X-138206D01*
G01D02*
Y-20461D01*
X-88994D01*
Y-43139D01*
X-138206D01*
G01Y-17139D02*
Y5539D01*
X-88994D01*
Y-17139D01*
X-138206D01*
G01D02*
Y5539D01*
X-88994D01*
Y-17139D01*
X-138206D01*
G01Y8861D02*
Y31539D01*
X-88994D01*
Y8861D01*
X-138206D01*
G01D02*
Y31539D01*
X-88994D01*
Y8861D01*
X-138206D01*
G01X-134632Y64626D02*
Y55374D01*
G01Y69331D02*
X-121168D01*
Y50669D01*
X-134632D01*
Y69331D01*
G01X-121168Y64626D02*
Y55374D01*
G01X-119099Y55623D02*
Y70977D01*
G01X-111481Y55623D02*
X-119119D01*
Y70977D01*
X-111481D01*
Y55623D01*
G01X-111501Y70977D02*
Y55623D01*
G01X-84302Y39758D02*
Y41962D01*
X-80128D01*
Y39758D01*
X-84302D01*
G01X-88902Y51887D02*
X-86698D01*
Y47713D01*
X-88902D01*
Y51887D01*
G01X-84302Y66758D02*
Y68962D01*
X-80128D01*
Y66758D01*
X-84302D01*
G01X-88902Y78887D02*
X-86698D01*
Y74713D01*
X-88902D01*
Y78887D01*
G01X-74472Y39758D02*
Y41962D01*
X-70298D01*
Y39758D01*
X-74472D01*
G01X-80765Y55824D02*
X-73835D01*
Y43776D01*
X-80765D01*
Y55824D01*
G01D02*
X-73835D01*
G01X-80765Y43776D02*
X-73835D01*
G01X-67887Y55627D02*
X-65683D01*
Y51453D01*
X-67887D01*
Y55627D01*
G01Y48147D02*
X-65683D01*
Y43973D01*
X-67887D01*
Y48147D01*
G01X-80765Y82824D02*
X-73835D01*
Y70776D01*
X-80765D01*
Y82824D01*
G01Y70776D02*
X-73835D01*
G01X-67887Y75147D02*
X-65683D01*
Y70973D01*
X-67887D01*
Y75147D01*
G01X-74472Y66758D02*
Y68962D01*
X-70298D01*
Y66758D01*
X-74472D01*
G01X-80765Y82824D02*
X-73835D01*
G01X-67887Y82627D02*
X-65683D01*
Y78453D01*
X-67887D01*
Y82627D01*
G01X-56687Y-21102D02*
Y-18898D01*
X-52513D01*
Y-21102D01*
X-56687D01*
G01X-61802Y-8913D02*
X-59598D01*
Y-13087D01*
X-61802D01*
Y-8913D01*
G01X-59598Y1513D02*
X-61802D01*
Y5687D01*
X-59598D01*
Y1513D01*
G01X-61802Y12987D02*
X-59598D01*
Y8813D01*
X-61802D01*
Y12987D01*
G01X-59598Y16113D02*
X-61802D01*
Y20287D01*
X-59598D01*
Y16113D01*
G01X-51422Y28302D02*
Y26098D01*
X-55596D01*
Y28302D01*
X-51422D01*
G01X-63965Y41335D02*
Y58265D01*
G01D02*
X-47035D01*
Y41335D01*
X-63965D01*
Y58265D01*
G01Y68335D02*
Y85265D01*
G01D02*
X-47035D01*
Y68335D01*
X-63965D01*
Y85265D01*
G01X-40602Y5687D02*
X-38398D01*
Y1513D01*
X-40602D01*
Y5687D01*
G01Y20287D02*
X-38398D01*
Y16113D01*
X-40602D01*
Y20287D01*
G01X-47035Y58265D02*
Y41335D01*
G01Y85265D02*
Y68335D01*
G01X-1136Y-85059D02*
X-23970D01*
Y-53563D01*
X-1136D01*
Y-85059D01*
G01Y-53563D02*
Y-85059D01*
X-23970D01*
Y-53563D01*
X-17592D01*
G01X-30398Y54381D02*
X-32602D01*
Y58555D01*
X-30398D01*
Y54381D01*
G01Y81381D02*
X-32602D01*
Y85555D01*
X-30398D01*
Y81381D01*
G01X-7514Y-53563D02*
X-1136D01*
G01X-11687D02*
X-13419D01*
G01X-11002Y-31313D02*
X-8798D01*
Y-35487D01*
X-11002D01*
Y-31313D01*
G01X-13802Y-12913D02*
X-11598D01*
Y-17087D01*
X-13802D01*
Y-12913D01*
G01X1787Y46702D02*
Y44498D01*
X-2387D01*
Y46702D01*
X1787D01*
G01X22464Y65615D02*
X-7064D01*
G01Y76324D02*
Y73410D01*
G01X22464Y85300D02*
Y65615D01*
X-7064D01*
Y85300D01*
X22464D01*
G01X-7064Y82859D02*
Y85300D01*
G01D02*
X22464D01*
Y82859D01*
G01X313Y-28702D02*
Y-26498D01*
X4487D01*
Y-28702D01*
X313D01*
G01X15413Y-29602D02*
Y-27398D01*
X19587D01*
Y-29602D01*
X15413D01*
G01X5563Y-38802D02*
Y-36598D01*
X9737D01*
Y-38802D01*
X5563D01*
G01X14402Y-41837D02*
X12198D01*
Y-37663D01*
X14402D01*
Y-41837D01*
G01X3102D02*
X898D01*
Y-37663D01*
X3102D01*
Y-41837D01*
G01X13939Y62080D02*
Y57120D01*
X3861D01*
Y62080D01*
X13939D01*
G01X4845D02*
X3861D01*
Y57120D01*
X4845D01*
G01X12955Y62080D02*
X13939D01*
Y57120D01*
X12955D01*
G01X26813Y-53402D02*
Y-51198D01*
X30987D01*
Y-53402D01*
X26813D01*
G01X18813D02*
Y-51198D01*
X22987D01*
Y-53402D01*
X18813D01*
G01X17089Y-49190D02*
Y-35410D01*
X40711D01*
Y-49190D01*
X17089D01*
G01X40711D02*
X17089D01*
Y-48127D01*
G01Y-36473D02*
Y-35410D01*
G01D02*
X40711D01*
Y-36473D01*
G01X22464Y76324D02*
Y73410D01*
G01X38987Y-51198D02*
Y-53402D01*
X34813D01*
Y-51198D01*
X38987D01*
G01X44179Y-49074D02*
Y-33326D01*
G01D02*
X54021D01*
Y-49074D01*
X44179D01*
Y-33326D01*
G01X40711Y-48127D02*
Y-49190D01*
G01X35613Y-28302D02*
Y-26098D01*
X39787D01*
Y-28302D01*
X35613D01*
G01Y-31902D02*
Y-29698D01*
X39787D01*
Y-31902D01*
X35613D01*
G01X82306Y86796D02*
Y64118D01*
X33094D01*
Y86796D01*
X82306D01*
G01D02*
Y64118D01*
X33094D01*
Y86796D01*
X82306D01*
G01X55998Y-39113D02*
X58202D01*
Y-43287D01*
X55998D01*
Y-39113D01*
G01X54021Y-33326D02*
Y-49074D01*
G01X62002Y-15987D02*
X59798D01*
Y-11813D01*
X62002D01*
Y-15987D01*
G01X61179Y5326D02*
Y21074D01*
G01D02*
X71021D01*
Y5326D01*
X61179D01*
Y21074D01*
G01X61402Y29313D02*
X59198D01*
Y33487D01*
X61402D01*
Y29313D01*
G01X75102Y5813D02*
X72898D01*
Y9987D01*
X75102D01*
Y5813D01*
G01X72898Y987D02*
X75102D01*
Y-3187D01*
X72898D01*
Y987D01*
G01X71021Y21074D02*
Y5326D01*
G01X90031Y-95869D02*
Y-71931D01*
X113969D01*
Y-95869D01*
X90031D01*
G01X86764Y-99136D02*
Y-68664D01*
X117236D01*
Y-99136D01*
X86764D01*
G54D15*
X-118600Y-31800D03*
Y-5800D03*
Y20200D03*
X-98600Y-31800D03*
X-108600D03*
X-98600Y-5800D03*
X-108600D03*
X-98600Y20200D03*
X-108600D03*
X42700Y75457D03*
X52700D03*
X62700D03*
G54D25*
G01X-53297Y-16809D02*
Y-5391D01*
G01X-46903Y-16809D02*
X-53297D01*
G01Y-5391D02*
X-46903D01*
G01Y-14250D02*
X-49462Y-16809D01*
G01X-46903Y-5391D02*
Y-16809D01*
G01X-28424Y-47111D02*
Y-23489D01*
G01X-18976Y-47111D02*
X-28424D01*
G01X-18976Y-23489D02*
Y-47111D01*
G01X-28424Y-30379D02*
X-21535Y-23489D01*
G01X-28424D02*
X-18976D01*
G01X-1891Y-18459D02*
X-3859Y-16491D01*
G01X51259Y-18459D02*
X-3859D01*
G01D02*
Y36659D01*
G01D02*
X51259D01*
G01D02*
Y-18459D01*
G54D16*
X-128600Y-31800D03*
Y-5800D03*
Y20200D03*
X72700Y75457D03*
G54D26*
G01X-2383Y-23282D02*
G02I-492J0D01*
G54D17*
X-48000Y-83900D03*
D03*
X62000D03*
D03*
X99000Y70000D03*
D03*
G54D27*
G01X-51281Y-16809D02*
Y-5391D01*
G01X-48919Y-16809D02*
X-51281D01*
G01Y-5391D02*
X-48919D01*
G01X-34330Y-25851D02*
X-28818D01*
G01X-42817Y-17202D02*
X-47541D01*
G01X-48919Y-5391D02*
Y-16809D01*
G01X-40080Y-239D02*
G03I-394J0D01*
G01D02*
G03I-394J0D01*
G01Y14361D02*
G03I-394J0D01*
G01D02*
G03I-394J0D01*
G01X-27440Y-47111D02*
Y-23489D01*
G01X-19960Y-47111D02*
X-27440D01*
G01X-19960Y-23489D02*
Y-47111D01*
G01X-27440Y-23489D02*
X-19960D01*
G01X49881Y-17081D02*
X-2481D01*
G01D02*
Y35281D01*
G01D02*
X49881D01*
G01D02*
Y-17081D01*
G54D18*
X-48000Y-83900D03*
X62000D03*
X99000Y70000D03*
G54D19*
X17400Y-94500D03*
X7400D03*
X17400Y-84500D03*
X7400D03*
X17400Y-74500D03*
X7400D03*
X17400Y-64500D03*
X101600Y23500D03*
X91600D03*
X101600Y33500D03*
X91600D03*
X101600Y43500D03*
M02*
