G04 ================== begin FILE IDENTIFICATION RECORD ==================*
G04 Layout Name:  C:/Users/Lewis/Documents/Uni/Data Logger Full/allegro/datalogger.brd*
G04 Film Name:    Silkscreen_top*
G04 File Format:  Gerber RS274X*
G04 File Origin:  Cadence Allegro 17.2-S013*
G04 Origin Date:  Mon Mar 22 22:38:38 2021*
G04 *
G04 Layer:  BOUNDARY/MULTI_USER_LOCK*
G04 Layer:  USER PART NUMBER/SILKSCREEN_TOP*
G04 Layer:  TOLERANCE/SILKSCREEN_TOP*
G04 Layer:  REF DES/SILKSCREEN_TOP*
G04 Layer:  PACKAGE GEOMETRY/SILKSCREEN_TOP*
G04 Layer:  DEVICE TYPE/SILKSCREEN_TOP*
G04 Layer:  COMPONENT VALUE/SILKSCREEN_TOP*
G04 Layer:  BOARD GEOMETRY/SILKSCREEN_TOP*
G04 *
G04 Offset:    (0.00 0.00)*
G04 Mirror:    No*
G04 Mode:      Positive*
G04 Rotation:  0*
G04 FullContactRelief:  No*
G04 UndefLineWidth:     0.00*
G04 ================== end FILE IDENTIFICATION RECORD ====================*
%FSLAX25Y25*MOIN*%
%IR0*IPPOS*OFA0.00000B0.00000*MIA0B0*SFA1.00000B1.00000*%
%ADD10C,.005*%
%ADD11C,.006*%
%ADD12C,.00472*%
%ADD13C,.00984*%
%ADD14C,.00787*%
G75*
%LPD*%
G75*
G54D10*
G01X-43998Y-2502D02*
X-56202D01*
G01X-43998Y9702D02*
X-56202D01*
G01X-43998Y24302D02*
X-56202D01*
G01X-43998Y12098D02*
X-56202D01*
G01X6866Y-30838D02*
X8440D01*
G54D11*
G01X-132650Y34963D02*
X-139100D01*
G01D02*
Y46463D01*
G01D02*
X-132650D01*
G01X-124650Y34963D02*
X-131100D01*
G01D02*
Y46463D01*
G01X-124650D02*
Y34963D01*
G01X-116650D02*
X-123100D01*
G01D02*
Y46463D01*
G01X-132650D02*
Y34963D01*
G01X-131100Y46463D02*
X-124650D01*
G01X-123100D02*
X-116650D01*
G01D02*
Y34963D01*
G01X-109100Y60800D02*
Y38800D01*
G01D02*
X-100100D01*
G01Y60800D02*
X-109100D01*
G01Y65800D02*
X-100100D01*
G01X-109100Y87800D02*
Y65800D01*
G01X-100100Y87800D02*
X-109100D01*
G01X-99100Y38800D02*
X-90100D01*
G01D02*
Y60800D01*
G01X-99100D02*
Y38800D01*
G01X-100100D02*
Y60800D01*
G01X-90100D02*
X-99100D01*
G01X-100100Y65800D02*
Y87800D01*
G01X-99100Y65800D02*
X-90100D01*
G01D02*
Y87800D01*
G01X-99100D02*
Y65800D01*
G01X-90100Y87800D02*
X-99100D01*
G01X-72250Y-29850D02*
X-65800D01*
G01Y-41350D02*
X-72250D01*
G01D02*
Y-29850D01*
G01X-65800D02*
Y-41350D01*
G01X-39275Y51218D02*
Y39718D01*
G01D02*
X-45725D01*
G01D02*
Y51218D01*
G01X-31275Y39718D02*
X-37725D01*
G01D02*
Y51218D01*
G01X-45725D02*
X-39275D01*
G01X-37725D02*
X-31275D01*
G01X-33750Y53268D02*
X-45250D01*
G01D02*
Y59718D01*
G01X-39275Y78218D02*
Y66718D01*
G01D02*
X-45725D01*
G01D02*
Y78218D01*
G01X-31275Y66718D02*
X-37725D01*
G01D02*
Y78218D01*
G01X-45250Y59718D02*
X-33750D01*
G01X-45725Y78218D02*
X-39275D01*
G01X-37725D02*
X-31275D01*
G01X-33950Y80275D02*
X-45450D01*
G01D02*
Y86725D01*
G01D02*
X-33950D01*
G01X-31275Y51218D02*
Y39718D01*
G01X-33750Y59718D02*
Y53268D01*
G01X-31275Y78218D02*
Y66718D01*
G01X-33950Y86725D02*
Y80275D01*
G01X-4750Y47850D02*
Y54300D01*
G01D02*
X6750D01*
G01Y47850D02*
X-4750D01*
G01X6750Y54300D02*
Y47850D01*
G01X31053Y64515D02*
Y53015D01*
G01D02*
X24603D01*
G01D02*
Y64515D01*
G01D02*
X31053D01*
G01X60150Y-4350D02*
Y2100D01*
G01D02*
X71650D01*
G01Y-4350D02*
X60150D01*
G01X70400Y24050D02*
X63950D01*
G01D02*
Y35550D01*
G01D02*
X70400D01*
G01X70450Y36800D02*
X58950D01*
G01D02*
Y43250D01*
G01D02*
X70450D01*
G01X71650Y2100D02*
Y-4350D01*
G01X70400Y35550D02*
Y24050D01*
G01X70450Y43250D02*
Y36800D01*
G01X113150Y-60850D02*
Y-67300D01*
G01D02*
X101650D01*
G01D02*
Y-60850D01*
G01D02*
X113150D01*
G54D12*
G01X-138236Y-99136D02*
Y-68664D01*
X-107764D01*
Y-99136D01*
X-138236D01*
G01X-138206Y-43139D02*
Y-20461D01*
X-88994D01*
Y-43139D01*
X-138206D01*
G01Y-17139D02*
Y5539D01*
X-88994D01*
Y-17139D01*
X-138206D01*
G01Y8861D02*
Y31539D01*
X-88994D01*
Y8861D01*
X-138206D01*
G01X-134632Y64626D02*
Y55374D01*
G01X-121168Y64626D02*
Y55374D01*
G01X-119099Y55623D02*
Y70977D01*
G01X-111501D02*
Y55623D01*
G01X-80765Y55824D02*
X-73835D01*
G01X-80765Y43776D02*
X-73835D01*
G01X-80765Y70776D02*
X-73835D01*
G01X-80765Y82824D02*
X-73835D01*
G01X-63965Y41335D02*
Y58265D01*
G01Y68335D02*
Y85265D01*
G01X-47035Y58265D02*
Y41335D01*
G01Y85265D02*
Y68335D01*
G01X-1136Y-53563D02*
Y-85059D01*
X-23970D01*
Y-53563D01*
X-17592D01*
G01X-7514D02*
X-1136D01*
G01X-11687D02*
X-13419D01*
G01X22464Y65615D02*
X-7064D01*
G01Y76324D02*
Y73410D01*
G01Y82859D02*
Y85300D01*
G01D02*
X22464D01*
Y82859D01*
G01X4845Y62080D02*
X3861D01*
Y57120D01*
X4845D01*
G01X12955Y62080D02*
X13939D01*
Y57120D01*
X12955D01*
G01X40711Y-49190D02*
X17089D01*
Y-48127D01*
G01Y-36473D02*
Y-35410D01*
G01D02*
X40711D01*
Y-36473D01*
G01X22464Y76324D02*
Y73410D01*
G01X44179Y-49074D02*
Y-33326D01*
G01X40711Y-48127D02*
Y-49190D01*
G01X82306Y86796D02*
Y64118D01*
X33094D01*
Y86796D01*
X82306D01*
G01X54021Y-33326D02*
Y-49074D01*
G01X61179Y5326D02*
Y21074D01*
G01X71021D02*
Y5326D01*
G01X86764Y-99136D02*
Y-68664D01*
X117236D01*
Y-99136D01*
X86764D01*
G54D13*
G01X-2383Y-23282D02*
G02I-492J0D01*
G54D14*
G01X-51281Y-16809D02*
Y-5391D01*
G01X-48919Y-16809D02*
X-51281D01*
G01Y-5391D02*
X-48919D01*
G01X-34330Y-25851D02*
X-28818D01*
G01X-42817Y-17202D02*
X-47541D01*
G01X-48919Y-5391D02*
Y-16809D01*
G01X-40080Y-239D02*
G03I-394J0D01*
G01Y14361D02*
G03I-394J0D01*
G01X-27440Y-47111D02*
Y-23489D01*
G01X-19960Y-47111D02*
X-27440D01*
G01X-19960Y-23489D02*
Y-47111D01*
G01X-27440Y-23489D02*
X-19960D01*
G01X49881Y-17081D02*
X-2481D01*
G01D02*
Y35281D01*
G01D02*
X49881D01*
G01D02*
Y-17081D01*
M02*
